<?xml version="1.0" encoding="utf-8"?>
<!-- Generator: Adobe Illustrator 25.2.0, SVG Export Plug-In . SVG Version: 6.00 Build 0)  -->
<svg version="1.1" id="Capa_1" xmlns="http://www.w3.org/2000/svg" xmlns:xlink="http://www.w3.org/1999/xlink" x="0px" y="0px"
	 viewBox="0 0 41 43" style="enable-background:new 0 0 41 43;" xml:space="preserve">
<style type="text/css">
	.st0{clip-path:url(#SVGID_2_);enable-background:new    ;}
	.st1{clip-path:url(#SVGID_4_);}
	.st2{clip-path:url(#SVGID_6_);}
	.st3{clip-path:url(#SVGID_8_);fill:#01748E;}
</style>
<g>
	<defs>
		<rect id="SVGID_1_" x="1.8" y="1.6" width="37.4" height="39.8"/>
	</defs>
	<clipPath id="SVGID_2_">
		<use xlink:href="#SVGID_1_"  style="overflow:visible;"/>
	</clipPath>
	<g class="st0">
		<g>
			<defs>
				<rect id="SVGID_3_" x="1" y="0.4" width="38.6" height="41"/>
			</defs>
			<clipPath id="SVGID_4_">
				<use xlink:href="#SVGID_3_"  style="overflow:visible;"/>
			</clipPath>
			<g class="st1">
				<defs>
					<path id="SVGID_5_" d="M17.3,20.8c0.1-0.1,0.1-0.1,0.2-0.2c0.6-0.7,1.3-1.2,2.1-1.4c0.3-0.1,0.6-0.1,1-0.1h0.1
						c0.4,0,0.7,0.1,1,0.2c0.7,0.2,1.4,0.7,2,1.4c0.1,0.1,0.1,0.2,0.2,0.2C22.2,21.7,19.8,22.1,17.3,20.8z M37.7,32.5
						c0.2,0.2,0.4,0.4,0.7,0.4c0.2,0,0.3,0,0.4-0.1c0.4-0.2,0.5-0.7,0.3-1.1L35,25.1c-0.1-0.2-0.3-0.3-0.5-0.4L26.6,23
						c0-0.2-0.1-0.3-0.1-0.5l7.9-3.2c0.2-0.1,0.4-0.3,0.5-0.6l2.2-9.3c0.1-0.4-0.2-0.9-0.6-1c-0.5-0.1-0.9,0.2-1,0.6L33.4,18l-7.5,3
						c-0.1-0.1-0.1-0.3-0.2-0.4c0,0,0,0,0,0c0,0,0,0,0,0c-0.1-0.2-0.2-0.3-0.3-0.5l6-5.6c0.2-0.1,0.3-0.4,0.3-0.6l0.3-11.6
						c0-0.5-0.4-0.8-0.8-0.8c0,0,0,0,0,0c-0.5,0-0.8,0.4-0.8,0.8l-0.3,11.2l-5.7,5.3c-0.4-0.3-0.8-0.6-1.2-0.9l1.1-1.9
						c0.2-0.4,0.1-0.9-0.3-1.1c-0.4-0.2-0.9-0.1-1.1,0.3l-1.2,2.2c-0.3,0-0.6-0.1-0.9-0.1h-0.1c-0.3,0-0.5,0-0.8,0.1l-1.2-2.2
						c-0.2-0.4-0.7-0.6-1.1-0.3c-0.4,0.2-0.6,0.7-0.3,1.1l1,1.9c-0.5,0.2-0.9,0.5-1.3,0.9l-5.7-5.3L10.8,2.4c0-0.5-0.4-0.8-0.9-0.8
						C9.4,1.6,9.1,2,9.1,2.4L9.4,14c0,0.2,0.1,0.4,0.3,0.6l6,5.6c-0.1,0.2-0.2,0.3-0.3,0.5c-0.1,0.1-0.2,0.3-0.2,0.4l-7.5-3L5.5,9.1
						C5.4,8.7,5,8.4,4.5,8.5c-0.5,0.1-0.7,0.5-0.6,1l2.2,9.3c0.1,0.3,0.2,0.5,0.5,0.6l7.9,3.2c0,0.2-0.1,0.3-0.1,0.5l-7.8,1.7
						c-0.2,0-0.4,0.2-0.5,0.4l-4.1,6.5c-0.2,0.4-0.1,0.9,0.3,1.1c0.1,0.1,0.3,0.1,0.4,0.1c0.3,0,0.6-0.1,0.7-0.4l3.9-6.2l6.8-1.5
						c0,0.3,0,0.5,0,0.8c0,0.1,0,0.1,0,0.2l-4.8,2.9C9,28.8,8.9,29,8.8,29.3L7.2,40.5c-0.1,0.4,0.3,0.9,0.7,0.9c0,0,0.1,0,0.1,0
						c0.4,0,0.8-0.3,0.8-0.7l1.6-10.8l3.8-2.3c0.3,1.4,0.8,2.6,1.6,3.7c1.2,1.6,2.9,2.5,4.6,2.5c0.5,0,0.8-0.4,0.8-0.8
						c0-0.5-0.4-0.8-0.8-0.8c-2.6,0-4.8-2.9-4.8-6.5c0-0.6,0.1-1.2,0.2-1.7c0.1-0.5,0.3-1,0.4-1.5c0-0.1,0.1-0.1,0.1-0.2
						c1.3,0.7,2.8,1.1,4.2,1.1c0.2,0,0.4,0,0.6,0c1.2-0.1,2.4-0.4,3.5-1c0.2,0.5,0.4,1.1,0.5,1.6c0.1,0.6,0.2,1.1,0.2,1.7
						c0,1.8-0.6,3.6-1.5,4.8c-0.3,0.4-0.2,0.9,0.1,1.2c0.4,0.3,0.9,0.2,1.2-0.1c0.8-1.1,1.4-2.4,1.7-3.8l3.8,2.3l1.6,10.8
						c0.1,0.4,0.4,0.7,0.8,0.7c0,0,0.1,0,0.1,0c0.5-0.1,0.8-0.5,0.7-0.9l-1.6-11.2c0-0.2-0.2-0.5-0.4-0.6L27,25.8c0-0.1,0-0.1,0-0.2
						c0-0.3,0-0.5,0-0.8l6.8,1.5L37.7,32.5z"/>
				</defs>
				<clipPath id="SVGID_6_">
					<use xlink:href="#SVGID_5_"  style="overflow:visible;"/>
				</clipPath>
				<g class="st2">
					<defs>
						<rect id="SVGID_7_" x="1" y="1.6" width="38.6" height="39.8"/>
					</defs>
					<clipPath id="SVGID_8_">
						<use xlink:href="#SVGID_7_"  style="overflow:visible;"/>
					</clipPath>
					<rect x="-4.2" y="-4.5" class="st3" width="49.5" height="51.9"/>
				</g>
			</g>
		</g>
	</g>
</g>
</svg>
