<?xml version="1.0" encoding="UTF-8" standalone="no"?>
<!DOCTYPE svg PUBLIC "-//W3C//DTD SVG 1.1//EN" "http://www.w3.org/Graphics/SVG/1.1/DTD/svg11.dtd">
<svg xmlns="http://www.w3.org/2000/svg" xmlns:xlink="http://www.w3.org/1999/xlink" version="1.1" width="30pt" height="21pt" viewBox="0 0 30 21">
<g enable-background="new">
<g>
<clipPath id="cp0">
<path transform="matrix(1,0,0,-1,0,21)" d="M 13.49997 15 C 13.77613 15 14 15.19786 14 15.44167 L 14 15.55859 C 14 15.8024 13.77613 16 13.49997 16 C 13.22363 16 13 15.8024 13 15.55859 L 13 15.44167 C 12.99976 15.19786 13.22363 15 13.49997 15 Z " fill-rule="evenodd"/>
</clipPath>
<g clip-path="url(#cp0)">
<clipPath id="cp1">
<path transform="matrix(1,0,0,-1,0,21)" d="M -880 -952 L 383 -952 L 383 311 L -880 311 Z "/>
</clipPath>
<g clip-path="url(#cp1)">
<path transform="matrix(1,0,0,-1,0,21)" d="M 8 21 L 19 21 L 19 10 L 8 10 Z " />
</g>
</g>
<clipPath id="cp2">
<path transform="matrix(1,0,0,-1,0,21)" d="M .004390244 .004375 L 29.97093 .004375 L 29.97093 20.927155 L .004390244 20.927155 Z "/>
</clipPath>
<g clip-path="url(#cp2)">
<g>
<clipPath id="cp3">
<path transform="matrix(1,0,0,-1,0,21)" d="M -1 0 L 31 0 L 31 21 L -1 21 Z "/>
</clipPath>
<g clip-path="url(#cp3)">
<clipPath id="cp4">
<path transform="matrix(1,0,0,-1,0,21)" d="M 16.38739 15.27407 C 16.73012 15.27407 17.00788 15.55123 17.00788 15.89277 L 17.00788 16.05654 C 17.00788 16.39808 16.73012 16.67488 16.38739 16.67488 C 16.04437 16.67488 15.76661 16.39808 15.76661 16.05654 L 15.76661 15.89277 C 15.76661 15.55123 16.04437 15.27407 16.38739 15.27407 Z " fill-rule="evenodd"/>
</clipPath>
<g clip-path="url(#cp4)">
<clipPath id="cp5">
<path transform="matrix(1,0,0,-1,0,21)" d="M 0 0 L 30 0 L 30 21 L 0 21 Z "/>
</clipPath>
<g clip-path="url(#cp5)">
<path transform="matrix(1,0,0,-1,0,21)" d="M 10.76661 21.67488 L 22.00788 21.67488 L 22.00788 10.27407 L 10.76661 10.27407 Z " />
</g>
</g>
<clipPath id="cp6">
<path transform="matrix(1,0,0,-1,0,21)" d="M 28.92015 13.06834 C 27.30095 13.97411 24.68195 12.17716 22.8278 8.887885 C 22.71637 8.68999 22.6129 8.483198 22.51683 8.269552 L 22.51683 9.318604 C 23.59471 10.55731 23.76988 12.06603 23.79732 13.26004 L 23.79732 13.26063 C 23.8039 13.55543 23.80193 13.83514 23.79995 14.10573 C 23.79907 14.22677 23.7982 14.34497 23.7982 14.45974 C 23.7982 14.55008 23.79446 14.64094 23.78678 14.7315 C 24.65166 15.37608 25.17388 16.39721 25.17388 17.48753 C 25.17388 19.38424 23.62559 20.92716 21.72227 20.92716 C 20.49498 20.92716 19.36251 20.26464 18.74883 19.23184 C 17.58929 19.55253 16.30939 19.7206 15.01259 19.7206 C 13.71666 19.7206 12.43646 19.55224 11.27715 19.23184 C 10.66376 20.26464 9.53078 20.92716 8.303195 20.92716 C 6.399878 20.92716 4.851585 19.38424 4.851585 17.48753 C 4.851585 16.3975 5.373732 15.37638 6.238683 14.7315 C 6.23122 14.64065 6.227195 14.54979 6.227195 14.45974 C 6.227195 14.34497 6.22639 14.22677 6.225512 14.10573 C 6.223537 13.83514 6.221488 13.55543 6.228073 13.26004 C 6.255512 12.06574 6.431049 10.55615 7.509439 9.317729 L 7.509439 8.269552 C 7.413073 8.482906 7.310488 8.68999 7.199049 8.887667 C 5.34461 12.17716 2.72561 13.97441 1.106415 13.06834 C .2643659 12.59701 -.1172195 11.51631 .03146341 10.02582 C .1626585 8.711573 .6913902 7.178354 1.520268 5.708646 C 2.538146 3.902792 4.540024 2.273031 6.016317 1.236813 L 2.25 1.236813 C 1.907268 1.236813 1.629512 .9599479 1.629512 .6184063 C 1.629512 .2769375 1.907268 .00007291667 2.25 .00007291667 L 8.121366 .00007291667 C 8.121951 .00007291667 8.122829 .00007291667 8.123634 .00007291667 C 8.12422 .00007291667 8.124805 .00007291667 8.125683 .00007291667 C 8.126268 .00007291667 8.12678 .00007291667 8.127366 .00007291667 C 8.128244 .00007291667 8.129122 .00007291667 8.129927 .00007291667 L 21.89605 .00007291667 C 21.89693 .00007291667 21.8978 .00007291667 21.89832 .00007291667 C 21.8992 .00007291667 21.90007 .00007291667 21.90088 .00007291667 L 27.77283 .00007291667 C 28.11556 .00007291667 28.39339 .2769375 28.39339 .6184063 C 28.39339 .9599479 28.11556 1.236813 27.77283 1.236813 L 24.01002 1.236813 C 25.48654 2.273031 27.4882 3.902792 28.50629 5.708646 C 28.8158 6.258073 29.08624 6.820625 29.30941 7.381135 C 29.43607 7.698469 29.28029 8.057948 28.96163 8.184094 C 28.6432 8.310021 28.28246 8.154781 28.15588 7.837448 C 27.9532 7.328198 27.70683 6.81574 27.42417 6.314438 C 26.34344 4.396729 23.88366 2.615958 22.53029 1.734396 C 22.58202 3.344833 22.82868 6.364604 23.90971 8.281802 C 25.54829 11.18877 27.57849 12.40072 28.31224 11.98998 C 28.57573 11.84247 28.6898 11.48299 28.73927 11.20758 C 28.79956 10.87151 29.12195 10.64788 29.45949 10.70767 C 29.7968 10.76782 30.02144 11.08909 29.96115 11.42546 C 29.7862 12.39933 29.29859 12.85645 28.92015 13.06834 Z M 8.575829 9.987104 C 7.940195 10.6416 7.668366 11.43173 7.551732 12.21558 C 8.934293 11.57844 11.46124 10.69206 13.56146 11.48868 C 14.49754 11.84364 15.52822 11.84364 16.46371 11.48839 C 17.05705 11.26366 17.6839 11.1728 18.3098 11.1728 C 19.89988 11.1728 21.48102 11.75847 22.47373 12.21529 C 22.3568 11.43144 22.08498 10.64131 21.44934 9.986813 C 20.88198 9.402021 20.05105 8.957667 18.97895 8.666292 C 17.91139 8.3755 16.5769 8.22799 15.01259 8.22799 C 13.50059 8.22799 12.2021 8.365802 11.15371 8.638146 C 10.02871 8.929229 9.161488 9.382917 8.575829 9.987104 Z M 11.61812 7.2695 C 12.60534 7.084948 13.74263 6.99125 15.01259 6.99125 C 16.33222 6.99125 17.50807 7.092313 18.52193 7.291448 L 18.52193 1.236813 L 11.61812 1.236813 L 11.61812 7.2695 Z M 19.76327 7.609875 C 20.32573 7.794135 20.83054 8.02149 21.27556 8.290042 L 21.27556 1.236813 L 19.76327 1.236813 L 19.76327 7.609875 Z M 6.092634 17.48753 C 6.092634 18.70232 7.084098 19.69042 8.303195 19.69042 C 9.215488 19.69042 10.04641 19.11875 10.37027 18.26825 C 10.488 17.95894 10.82868 17.79684 11.14398 17.89995 C 12.31156 18.28189 13.6492 18.48386 15.01259 18.48386 C 16.37649 18.48386 17.71449 18.28189 18.88207 17.89995 C 19.19729 17.79684 19.53805 17.95894 19.65578 18.26825 C 19.97963 19.11875 20.8102 19.69042 21.72227 19.69042 C 22.941 19.69042 23.93254 18.70232 23.93254 17.48753 C 23.93254 16.69595 23.50237 15.96109 22.8098 15.56975 C 22.57405 15.43646 22.45229 15.16616 22.50915 14.90213 C 22.5409 14.75542 22.55685 14.60645 22.55685 14.45974 C 22.55685 14.34213 22.55773 14.22108 22.55861 14.09691 C 22.55971 13.94765 22.56029 13.79467 22.56 13.6403 C 21.66395 13.16693 18.9232 11.87922 16.90529 12.64455 C 15.6851 13.10743 14.34088 13.10743 13.12017 12.64455 C 11.10168 11.87922 8.360049 13.1678 7.465098 13.64059 C 7.464878 13.79496 7.46539 13.94765 7.466561 14.09691 C 7.467439 14.22108 7.468244 14.34213 7.468244 14.45974 C 7.468244 14.60477 7.484561 14.75345 7.51661 14.90213 C 7.573463 15.16645 7.451707 15.43675 7.215878 15.56975 C 6.523024 15.96109 6.092634 16.69595 6.092634 17.48753 Z M 2.60239 6.314438 C 1.855537 7.638677 1.38139 9.000396 1.266732 10.14832 C 1.172415 11.09165 1.339902 11.78034 1.71439 11.98969 C 1.806951 12.04153 1.920146 12.06778 2.050756 12.06778 C 2.954561 12.06778 4.685195 10.82193 6.116927 8.281802 C 7.20278 6.356365 7.447098 3.322594 7.497439 1.733229 C 6.144659 2.613698 3.68539 4.39301 2.60239 6.314438 Z M 8.750488 8.28975 C 9.22522 8.003552 9.768 7.763948 10.37707 7.573708 L 10.37707 1.236813 L 8.750488 1.236813 L 8.750488 8.28975 Z " fill-rule="evenodd"/>
</clipPath>
<g clip-path="url(#cp6)">
<clipPath id="cp7">
<path transform="matrix(1,0,0,-1,0,21)" d="M 0 0 L 30 0 L 30 21 L 0 21 Z "/>
</clipPath>
<g clip-path="url(#cp7)">
<path transform="matrix(1,0,0,-1,0,21)" d="M -4.999999 25.92716 L 34.97093 25.92716 L 34.97093 -4.999927 L -4.999999 -4.999927 Z " />
</g>
</g>
</g>
</g>
</g>
<clipPath id="cp8">
<path transform="matrix(1,0,0,-1,0,21)" d="M 29.60247 9.993565 C 29.34073 10.03362 29.09113 9.882536 29.04483 9.65611 C 29.03439 9.605112 29.02287 9.55372 29.01028 9.50174 C 28.95592 9.276639 29.12262 9.056152 29.38283 9.008982 C 29.41608 9.002847 29.4491 9 29.4819 9 C 29.70489 9 29.90501 9.134982 29.95245 9.331123 C 29.96709 9.391693 29.98059 9.452116 29.99256 9.511164 C 30.03886 9.73759 29.86422 9.953463 29.60247 9.993565 Z " fill-rule="evenodd"/>
</clipPath>
<g clip-path="url(#cp8)">
<clipPath id="cp9">
<path transform="matrix(1,0,0,-1,0,21)" d="M -880 -952 L 383 -952 L 383 311 L -880 311 Z "/>
</clipPath>
<g clip-path="url(#cp9)">
<path transform="matrix(1,0,0,-1,0,21)" d="M 24 15 L 35 15 L 35 4 L 24 4 Z " />
</g>
</g>
</g>
</g>
</svg>
