<?xml version="1.0" encoding="UTF-8" standalone="no"?>
<!DOCTYPE svg PUBLIC "-//W3C//DTD SVG 1.1//EN" "http://www.w3.org/Graphics/SVG/1.1/DTD/svg11.dtd">
<svg xmlns="http://www.w3.org/2000/svg" xmlns:xlink="http://www.w3.org/1999/xlink" version="1.1" width="31pt" height="33pt" viewBox="0 0 31 33">
<g enable-background="new">
<g>
<clipPath id="cp0">
<path transform="matrix(1,0,0,-1,0,33)" d="M 0 0 L 31 0 L 31 33 L 0 33 Z "/>
</clipPath>
<g clip-path="url(#cp0)">
<g>
<clipPath id="cp1">
<path transform="matrix(1,0,0,-1,0,33)" d="M -1 0 L 32 0 L 32 34 L -1 34 Z "/>
</clipPath>
<g clip-path="url(#cp1)">
<clipPath id="cp2">
<path transform="matrix(1,0,0,-1,0,33)" d="M 29.7192 7.402969 C 29.85053 7.196479 30.07653 7.083203 30.30762 7.083203 C 30.43311 7.083203 30.55992 7.116557 30.6739 7.186408 C 30.99876 7.385325 31.0973 7.804188 30.8948 8.122665 L 27.47459 13.49295 C 27.37704 13.64651 27.22073 13.75536 27.04092 13.79564 L 20.59257 15.23576 C 20.55921 15.36579 20.52264 15.49357 20.48311 15.62006 L 27.0281 18.28123 C 27.23511 18.36559 27.38797 18.54275 27.43802 18.75706 L 29.2354 26.44072 C 29.32079 26.80649 29.08772 27.17089 28.7147 27.25492 C 28.34102 27.33895 27.96998 27.11014 27.88459 26.74445 L 26.16709 19.40223 L 19.96241 16.87955 C 19.9011 16.99532 19.83823 17.10988 19.77076 17.22163 C 19.76788 17.22662 19.76468 17.23138 19.7618 17.23605 C 19.76049 17.23831 19.75925 17.24016 19.75794 17.24242 C 19.67831 17.37422 19.59423 17.50135 19.50753 17.62478 L 24.4776 22.25821 C 24.61049 22.38221 24.68782 22.55317 24.69267 22.73283 L 24.94883 32.30254 C 24.95878 32.67774 24.65668 32.98993 24.27437 33 C 24.26796 33 24.26188 33 24.25572 33 C 23.88146 33 23.57295 32.7073 23.56334 32.33847 L 23.31482 23.04945 L 18.59869 18.65288 C 18.27613 18.94091 17.92842 19.18228 17.56444 19.37234 L 18.43729 20.9843 C 18.61702 21.31567 18.48832 21.72704 18.15023 21.90292 C 17.81222 22.07887 17.39268 21.95295 17.2132 21.62158 L 16.23828 19.82141 C 16.003 19.86105 15.76443 19.88184 15.52462 19.88184 L 15.47523 19.88184 C 15.2614 19.88184 15.04822 19.86548 14.83767 19.83374 L 13.86916 21.62158 C 13.68968 21.95295 13.27015 22.07887 12.93205 21.90292 C 12.59404 21.72704 12.46567 21.31567 12.64508 20.9843 L 13.50025 19.40537 C 13.11219 19.21024 12.74271 18.95759 12.40141 18.65288 L 7.685359 23.04945 L 7.436843 32.33847 C 7.4269 32.71359 7.110091 33.00975 6.725812 33 C 6.343176 32.98993 6.041078 32.67774 6.051351 32.30254 L 6.30751 22.73283 C 6.312358 22.55317 6.389691 22.38221 6.522578 22.25821 L 11.49265 17.62478 C 11.40143 17.49475 11.31284 17.36133 11.22975 17.22252 C 11.16261 17.11085 11.09875 16.995 11.03712 16.87794 L 4.833097 19.40191 L 3.115593 26.74445 C 3.030206 27.11014 2.658172 27.33863 2.285481 27.2546 C 1.91246 27.17089 1.679394 26.80649 1.764781 26.44072 L 3.562165 18.75673 C 3.612214 18.54275 3.764988 18.36559 3.972085 18.28123 L 10.51609 15.61877 C 10.47656 15.4926 10.43999 15.36482 10.40662 15.23576 L 3.959265 13.79564 C 3.779452 13.75536 3.623144 13.64651 3.525512 13.49295 L .1053782 8.122665 C -.09752716 7.804188 .001418985 7.385003 .3262812 7.186408 C .4401843 7.116557 .5673186 7.083203 .6925627 7.083203 C .9236562 7.083203 1.149654 7.196479 1.28098 7.402969 L 4.548339 12.53365 L 10.16616 13.78839 C 10.14849 13.56345 10.13921 13.33649 10.13921 13.10898 C 10.13921 13.04823 10.14143 12.98781 10.14274 12.92738 L 6.171089 10.53054 C 5.995796 10.42476 5.877373 10.24759 5.848446 10.04779 L 4.50051 .7754479 C 4.446517 .4037969 4.709825 .05977998 5.088598 .006928677 C 5.121964 .002175282 5.154754 0 5.187462 0 C 5.526788 0 5.82338 .2448401 5.872525 .5834591 L 7.174603 9.540466 L 10.3039 11.42901 C 10.5299 10.29448 10.98378 9.250912 11.63712 8.393367 C 12.64795 7.066526 14.01134 6.335792 15.47556 6.335792 C 15.8582 6.335792 16.16827 6.64009 16.16827 7.015205 C 16.16827 7.39032 15.8582 7.694699 15.47556 7.694699 C 13.29743 7.694699 11.52536 10.12328 11.52536 13.10865 C 11.52536 13.5939 11.57253 14.07448 11.66564 14.53653 C 11.75037 14.95756 11.87307 15.36418 12.03003 15.7459 C 12.05378 15.80383 12.07885 15.86111 12.10449 15.91775 C 13.21361 15.32261 14.39562 15.01388 15.57886 15.01388 C 15.73328 15.01388 15.88803 15.01928 16.04212 15.02967 C 17.06363 15.09952 18.05588 15.39882 18.91016 15.88568 C 19.09597 15.46521 19.23855 15.01388 19.33454 14.53653 C 19.42757 14.07448 19.47483 13.5939 19.47483 13.10865 C 19.47483 11.60876 19.00869 10.1601 18.19617 9.133849 C 17.96154 8.837367 18.01644 8.410608 18.31878 8.180592 C 18.62121 7.950576 19.05652 8.004395 19.29115 8.300797 C 19.98427 9.175744 20.46355 10.25203 20.6976 11.42845 L 23.82558 9.540466 L 25.12766 .5837813 C 25.17705 .2448401 25.47339 0 25.81305 0 C 25.84543 0 25.87855 .002497546 25.91158 .007250941 C 26.29069 .06010225 26.55391 .4041191 26.5 .7754479 L 25.15207 10.04811 C 25.12281 10.24792 25.00471 10.42476 24.82909 10.53054 L 20.85744 12.92738 C 20.85867 12.98781 20.86097 13.04823 20.86097 13.10898 C 20.86097 13.33649 20.85194 13.56345 20.83435 13.78839 L 26.45184 12.53365 L 29.7192 7.402969 Z M 12.80821 17.08878 C 12.85373 17.14638 12.90033 17.20213 12.94783 17.25619 C 13.44601 17.82869 14.04092 18.22677 14.6701 18.40804 C 14.93201 18.48426 15.20297 18.52293 15.47523 18.52293 L 15.52462 18.52293 C 15.81743 18.52293 16.10762 18.47854 16.38983 18.39016 C 16.99493 18.2026 17.56987 17.81073 18.05367 17.25498 C 18.10823 17.1923 18.16149 17.12688 18.21417 17.05985 C 16.8922 16.30455 14.89996 15.97882 12.80821 17.08878 Z " fill-rule="evenodd"/>
</clipPath>
<g clip-path="url(#cp2)">
<clipPath id="cp3">
<path transform="matrix(1,0,0,-1,0,33)" d="M 0 0 L 31 0 L 31 33 L 0 33 Z "/>
</clipPath>
<g clip-path="url(#cp3)">
<path transform="matrix(1,0,0,-1,0,33)" d="M -5 38.00023 L 36 38.00023 L 36 -5 L -5 -5 Z " />
</g>
</g>
</g>
</g>
</g>
</g>
</g>
</svg>
