<?xml version="1.0" encoding="UTF-8" standalone="no"?>
<!DOCTYPE svg PUBLIC "-//W3C//DTD SVG 1.1//EN" "http://www.w3.org/Graphics/SVG/1.1/DTD/svg11.dtd">
<svg xmlns="http://www.w3.org/2000/svg" xmlns:xlink="http://www.w3.org/1999/xlink" version="1.1" width="30pt" height="35pt" viewBox="0 0 30 35">
<g enable-background="new">
<g>
<clipPath id="cp0">
<path transform="matrix(1,0,0,-1,0,35)" d="M .3822704 .08515815 L 29.86383 .08515815 L 29.86383 34.96607 L .3822704 34.96607 Z "/>
</clipPath>
<g clip-path="url(#cp0)">
<g>
<clipPath id="cp1">
<path transform="matrix(1,0,0,-1,0,35)" d="M 0 0 L 30 0 L 30 36 L 0 36 Z "/>
</clipPath>
<g clip-path="url(#cp1)">
<clipPath id="cp2">
<path transform="matrix(1,0,0,-1,0,35)" d="M 12.81023 33.06401 C 12.85384 33.04468 12.89714 33.02476 12.93979 33.00449 C 13.0308 32.96089 13.12558 32.94028 13.21907 32.94028 C 13.47795 32.94028 13.72551 33.09791 13.83876 33.36437 C 13.99314 33.72697 13.84125 34.15344 13.49924 34.31746 C 13.4447 34.34335 13.38976 34.36864 13.33426 34.39325 C 12.98814 34.54662 12.58998 34.37332 12.44532 34.00637 C 12.30066 33.63951 12.4642 33.21738 12.81023 33.06401 Z " fill-rule="evenodd"/>
</clipPath>
<g clip-path="url(#cp2)">
<clipPath id="cp3">
<path transform="matrix(1,0,0,-1,0,35)" d="M 0 0 L 30 0 L 30 35 L 0 35 Z "/>
</clipPath>
<g clip-path="url(#cp3)">
<path transform="matrix(1,0,0,-1,0,35)" d="M 7.392643 39.44911 L 18.89913 39.44911 L 18.89913 27.94028 L 7.392643 27.94028 Z " />
</g>
</g>
<clipPath id="cp4">
<path transform="matrix(1,0,0,-1,0,35)" d="M 29.86005 8.765669 C 29.83025 9.061679 29.63129 9.308212 29.3602 9.385365 C 29.33514 9.392348 26.82408 10.11858 24.26347 11.86994 C 20.65079 14.34114 18.77983 17.48408 18.70328 21.21204 C 18.63806 24.4065 18.24801 27.07936 17.5443 29.15704 C 16.9679 30.86055 16.165 32.21013 15.15815 33.16782 C 14.87887 33.4336 14.4493 33.40899 14.19861 33.1129 C 13.94824 32.81689 13.97146 32.36112 14.25074 32.09568 C 15.0163 31.36715 15.6482 30.34023 16.13263 29.04097 C 14.29403 26.52481 12.99786 23.28948 12.5589 20.09536 C 12.08515 16.64876 12.61416 13.66022 14.04801 11.68029 C 14.82649 10.60517 16.33914 9.237701 18.99324 9.238041 C 20.31006 9.238041 21.90872 9.575693 23.83736 10.45155 C 25.13827 9.59792 26.39074 8.994489 27.33767 8.599355 C 26.33363 8.160876 24.90445 7.600365 23.25188 7.139659 C 20.31978 6.322311 16.05889 5.659015 12.41054 7.14 C 9.724706 8.23045 8.164032 9.888054 7.500164 12.35662 C 6.900553 14.5847 7.11357 17.1867 7.319758 19.70279 C 7.491971 21.80381 7.654544 23.78842 7.375904 25.5787 C 7.064653 27.58196 5.85009 29.03893 3.863304 29.79275 C 3.368193 29.98069 2.88473 30.10111 2.462071 30.1786 C 4.909429 32.67118 8.719385 33.81477 11.35815 33.46715 C 11.72997 33.41861 12.07005 33.69836 12.11624 34.09324 C 12.16267 34.48811 11.89816 34.84799 11.52571 34.89687 C 9.853705 35.11709 7.788201 34.80609 5.859167 34.04299 C 4.302911 33.42755 2.113148 32.23236 .518016 30.03426 C .3589767 29.81532 .3328718 29.51931 .4495809 29.27243 C .5650853 29.02863 .8009936 28.87491 1.057706 28.87491 C 1.061159 28.87491 1.064292 28.87491 1.067746 28.87491 C 1.079634 28.87628 2.239336 28.88726 3.439119 28.42358 C 4.933928 27.84578 5.807439 26.80983 6.035476 25.34426 C 6.285922 23.73255 6.130578 21.83574 5.966157 19.8272 C 5.749366 17.181 5.525345 14.44427 6.19331 11.96106 C 6.973968 9.060401 8.848705 7.043175 11.92483 5.794416 C 12.31199 5.637384 12.70452 5.503005 13.10076 5.387616 C 12.55231 4.826423 12.21062 4.040073 12.21062 3.170182 C 12.21062 1.468978 13.51587 .08515815 15.12048 .08515815 C 16.72477 .08515815 18.03025 1.468978 18.03025 3.170182 C 18.03025 3.778552 17.86246 4.345706 17.57474 4.824124 C 19.80081 4.854355 21.92623 5.278187 23.62683 5.754221 C 26.98786 6.694623 29.39377 7.99354 29.4945 8.048467 C 29.74454 8.18455 29.88953 8.469574 29.86005 8.765669 Z M 15.12578 12.55751 C 13.93475 14.20217 13.4892 16.87366 13.90342 19.88741 C 14.26327 22.50636 15.24506 25.15427 16.64629 27.34011 C 17.06108 25.62826 17.2961 23.56522 17.3447 21.18079 C 17.42253 17.38861 19.19309 14.03977 22.48255 11.42882 C 19.14256 10.12283 16.61304 10.50409 15.12578 12.55751 Z M 15.12048 1.525864 C 14.26544 1.525864 13.56952 2.263674 13.56952 3.170523 C 13.56952 4.077287 14.26544 4.814757 15.12048 4.814757 C 15.97575 4.814757 16.67135 4.077287 16.67135 3.170523 C 16.67135 2.263674 15.97575 1.525864 15.12048 1.525864 Z " fill-rule="evenodd"/>
</clipPath>
<g clip-path="url(#cp4)">
<clipPath id="cp5">
<path transform="matrix(1,0,0,-1,0,35)" d="M 0 0 L 30 0 L 30 35 L 0 35 Z "/>
</clipPath>
<g clip-path="url(#cp5)">
<path transform="matrix(1,0,0,-1,0,35)" d="M -4.62264 39.96606 L 34.86383 39.96606 L 34.86383 -4.914842 L -4.62264 -4.914842 Z " />
</g>
</g>
</g>
</g>
</g>
</g>
</g>
</svg>
