<?xml version="1.0" encoding="UTF-8" standalone="no"?>
<!DOCTYPE svg PUBLIC "-//W3C//DTD SVG 1.1//EN" "http://www.w3.org/Graphics/SVG/1.1/DTD/svg11.dtd">
<svg xmlns="http://www.w3.org/2000/svg" xmlns:xlink="http://www.w3.org/1999/xlink" version="1.1" width="24pt" height="24pt" viewBox="0 0 24 24">
<g enable-background="new">
<clipPath id="cp0">
<path transform="matrix(1,0,0,-1,0,24)" d="M 3.149048 20.73151 L 3.144287 20.73151 C 2.885376 20.73151 2.675537 20.52167 2.675537 20.26276 C 2.675537 20.00385 2.885376 19.79401 3.144287 19.79401 L 3.149048 19.79401 C 3.407959 19.79401 3.617798 20.00385 3.617798 20.26276 C 3.617798 20.52167 3.407959 20.73151 3.149048 20.73151 Z " fill-rule="evenodd"/>
</clipPath>
<g clip-path="url(#cp0)">
<clipPath id="cp1">
<path transform="matrix(1,0,0,-1,0,24)" d="M -213 -1068 L 1050 -1068 L 1050 195 L -213 195 Z "/>
</clipPath>
<g clip-path="url(#cp1)">
<path transform="matrix(1,0,0,-1,0,24)" d="M -2.324463 25.73151 L 8.617798 25.73151 L 8.617798 14.79401 L -2.324463 14.79401 Z " />
</g>
</g>
<clipPath id="cp2">
<path transform="matrix(1,0,0,-1,0,24)" d="M 5.470825 20.73151 L 5.466064 20.73151 C 5.207153 20.73151 4.997314 20.52167 4.997314 20.26276 C 4.997314 20.00385 5.207153 19.79401 5.466064 19.79401 L 5.470825 19.79401 C 5.729736 19.79401 5.939575 20.00385 5.939575 20.26276 C 5.939575 20.52167 5.729736 20.73151 5.470825 20.73151 Z " fill-rule="evenodd"/>
</clipPath>
<g clip-path="url(#cp2)">
<clipPath id="cp3">
<path transform="matrix(1,0,0,-1,0,24)" d="M -213 -1068 L 1050 -1068 L 1050 195 L -213 195 Z "/>
</clipPath>
<g clip-path="url(#cp3)">
<path transform="matrix(1,0,0,-1,0,24)" d="M -.002685547 25.73151 L 10.93958 25.73151 L 10.93958 14.79401 L -.002685547 14.79401 Z " />
</g>
</g>
<clipPath id="cp4">
<path transform="matrix(1,0,0,-1,0,24)" d="M 7.792603 20.73151 L 7.787842 20.73151 C 7.528931 20.73151 7.319092 20.52167 7.319092 20.26276 C 7.319092 20.00385 7.528931 19.79401 7.787842 19.79401 L 7.792603 19.79401 C 8.051514 19.79401 8.261353 20.00385 8.261353 20.26276 C 8.261353 20.52167 8.051514 20.73151 7.792603 20.73151 Z " fill-rule="evenodd"/>
</clipPath>
<g clip-path="url(#cp4)">
<clipPath id="cp5">
<path transform="matrix(1,0,0,-1,0,24)" d="M -213 -1068 L 1050 -1068 L 1050 195 L -213 195 Z "/>
</clipPath>
<g clip-path="url(#cp5)">
<path transform="matrix(1,0,0,-1,0,24)" d="M 2.319092 25.73151 L 13.26135 25.73151 L 13.26135 14.79401 L 2.319092 14.79401 Z " />
</g>
</g>
<clipPath id="cp6">
<path transform="matrix(1,0,0,-1,0,24)" d="M 20.82697 20.73151 L 11.78339 20.73151 C 11.52448 20.73151 11.31464 20.52167 11.31464 20.26276 C 11.31464 20.00403 11.52448 19.79401 11.78339 19.79401 L 20.82697 19.79401 C 21.08588 19.79401 21.29572 20.00403 21.29572 20.26276 C 21.29572 20.52167 21.08588 20.73151 20.82697 20.73151 Z " fill-rule="evenodd"/>
</clipPath>
<g clip-path="url(#cp6)">
<clipPath id="cp7">
<path transform="matrix(1,0,0,-1,0,24)" d="M -213 -1068 L 1050 -1068 L 1050 195 L -213 195 Z "/>
</clipPath>
<g clip-path="url(#cp7)">
<path transform="matrix(1,0,0,-1,0,24)" d="M 6.314636 25.73151 L 26.29572 25.73151 L 26.29572 14.79401 L 6.314636 14.79401 Z " />
</g>
</g>
<clipPath id="cp8">
<path transform="matrix(1,0,0,-1,0,24)" d="M 12.323 1.791992 C 12.19977 1.791992 12.07928 1.741821 11.99158 1.654663 C 11.90442 1.567505 11.85425 1.446472 11.85425 1.323242 C 11.85425 1.200012 11.90442 1.078979 11.99158 .9918213 C 12.07928 .9046631 12.19977 .8544922 12.323 .8544922 C 12.44623 .8544922 12.56726 .9046631 12.65442 .9918213 C 12.74194 1.078979 12.79175 1.200012 12.79175 1.323242 C 12.79175 1.446472 12.74194 1.567505 12.65442 1.654663 C 12.56726 1.741821 12.44623 1.791992 12.323 1.791992 Z " fill-rule="evenodd"/>
</clipPath>
<g clip-path="url(#cp8)">
<clipPath id="cp9">
<path transform="matrix(1,0,0,-1,0,24)" d="M -213 -1068 L 1050 -1068 L 1050 195 L -213 195 Z "/>
</clipPath>
<g clip-path="url(#cp9)">
<path transform="matrix(1,0,0,-1,0,24)" d="M 6.854248 6.791992 L 17.79175 6.791992 L 17.79175 -4.145508 L 6.854248 -4.145508 Z " />
</g>
</g>
<clipPath id="cp10">
<path transform="matrix(1,0,0,-1,0,24)" d="M 22.5108 22.97656 L 1.489197 22.97656 C .6681518 22.97656 0 22.30841 0 21.48737 L 0 2.343689 C 0 1.522461 .6681518 .8544922 1.489197 .8544922 L 10.35938 .8544922 C 10.61829 .8544922 10.82812 1.064331 10.82812 1.323242 C 10.82812 1.582153 10.61829 1.791992 10.35938 1.791992 L 1.489197 1.791992 C 1.185059 1.791992 .9375 2.039368 .9375 2.343689 L .9375 17.54895 L 23.0625 17.54895 L 23.0625 2.343689 C 23.0625 2.039551 22.81494 1.791992 22.5108 1.791992 L 14.23444 1.791992 C 13.97552 1.791992 13.76569 1.582153 13.76569 1.323242 C 13.76569 1.064331 13.97552 .8544922 14.23444 .8544922 L 22.5108 .8544922 C 23.33185 .8544922 24 1.522461 24 2.343689 L 24 21.48737 C 24 22.30841 23.33185 22.97656 22.5108 22.97656 Z M .9375 18.48663 L .9375 21.48737 C .9375 21.7915 1.185059 22.03906 1.489197 22.03906 L 22.5108 22.03906 C 22.81494 22.03906 23.0625 21.7915 23.0625 21.48737 L 23.0625 18.48645 L .9375 18.48645 L .9375 18.48663 Z " fill-rule="evenodd"/>
</clipPath>
<g clip-path="url(#cp10)">
<clipPath id="cp11">
<path transform="matrix(1,0,0,-1,0,24)" d="M -213 -1068 L 1050 -1068 L 1050 195 L -213 195 Z "/>
</clipPath>
<g clip-path="url(#cp11)">
<path transform="matrix(1,0,0,-1,0,24)" d="M -5 27.97656 L 29 27.97656 L 29 -4.145508 L -5 -4.145508 Z " />
</g>
</g>
<clipPath id="cp12">
<path transform="matrix(1,0,0,-1,0,24)" d="M 8.345581 12.19531 C 8.345581 13.12585 7.588623 13.88281 6.658081 13.88281 L 5.079895 13.88281 C 4.820984 13.88281 4.611145 13.67297 4.611145 13.41406 L 4.611145 8.539062 C 4.611145 8.280151 4.820984 8.070312 5.079895 8.070312 L 6.658081 8.070312 C 7.588623 8.070312 8.345581 8.827271 8.345581 9.757812 C 8.345581 10.23663 8.144897 10.66913 7.823364 10.97656 C 8.144897 11.284 8.345581 11.71649 8.345581 12.19531 Z M 7.408081 9.757812 C 7.408081 9.34436 7.071533 9.007812 6.658081 9.007812 L 5.548645 9.007812 L 5.548645 10.50781 L 6.658081 10.50781 C 7.071533 10.50781 7.408081 10.17145 7.408081 9.757812 Z M 5.548645 11.44531 L 5.548645 12.94531 L 6.658081 12.94531 C 7.071716 12.94531 7.408081 12.60876 7.408081 12.19531 C 7.408081 11.78186 7.071716 11.44531 6.658081 11.44531 L 5.548645 11.44531 Z " fill-rule="evenodd"/>
</clipPath>
<g clip-path="url(#cp12)">
<clipPath id="cp13">
<path transform="matrix(1,0,0,-1,0,24)" d="M -213 -1068 L 1050 -1068 L 1050 195 L -213 195 Z "/>
</clipPath>
<g clip-path="url(#cp13)">
<path transform="matrix(1,0,0,-1,0,24)" d="M -.388855 18.88281 L 13.34558 18.88281 L 13.34558 3.070312 L -.388855 3.070312 Z " />
</g>
</g>
<clipPath id="cp14">
<path transform="matrix(1,0,0,-1,0,24)" d="M 9.686646 13.88281 C 9.427734 13.88281 9.217896 13.67297 9.217896 13.41406 L 9.217896 9.62323 C 9.217896 8.766846 9.914612 8.070312 10.77081 8.070312 C 11.02972 8.070312 11.23956 8.280151 11.23956 8.539062 C 11.23956 8.797974 11.02972 9.007812 10.77081 9.007812 C 10.43152 9.007812 10.1554 9.283936 10.1554 9.62323 L 10.1554 13.41406 C 10.1554 13.67297 9.945557 13.88281 9.686646 13.88281 Z " fill-rule="evenodd"/>
</clipPath>
<g clip-path="url(#cp14)">
<clipPath id="cp15">
<path transform="matrix(1,0,0,-1,0,24)" d="M -213 -1068 L 1050 -1068 L 1050 195 L -213 195 Z "/>
</clipPath>
<g clip-path="url(#cp15)">
<path transform="matrix(1,0,0,-1,0,24)" d="M 4.217896 18.88281 L 16.23956 18.88281 L 16.23956 3.070312 L 4.217896 3.070312 Z " />
</g>
</g>
<clipPath id="cp16">
<path transform="matrix(1,0,0,-1,0,24)" d="M 15.22815 9.7677 C 15.22815 10.70374 14.4668 11.46527 13.53076 11.46527 C 12.59473 11.46527 11.83337 10.70374 11.83337 9.7677 C 11.83337 8.831665 12.59491 8.070312 13.53076 8.070312 C 14.4668 8.070312 15.22815 8.831665 15.22815 9.7677 Z M 12.77087 9.7677 C 12.77087 10.18683 13.11182 10.52777 13.53076 10.52777 C 13.94971 10.52777 14.29065 10.18683 14.29065 9.7677 C 14.29065 9.348755 13.94989 9.007812 13.53076 9.007812 C 13.11163 9.007812 12.77087 9.348755 12.77087 9.7677 Z " fill-rule="evenodd"/>
</clipPath>
<g clip-path="url(#cp16)">
<clipPath id="cp17">
<path transform="matrix(1,0,0,-1,0,24)" d="M -213 -1068 L 1050 -1068 L 1050 195 L -213 195 Z "/>
</clipPath>
<g clip-path="url(#cp17)">
<path transform="matrix(1,0,0,-1,0,24)" d="M 6.833374 16.46527 L 20.22815 16.46527 L 20.22815 3.070312 L 6.833374 3.070312 Z " />
</g>
</g>
<clipPath id="cp18">
<path transform="matrix(1,0,0,-1,0,24)" d="M 17.69128 6.757812 C 17.27234 6.757812 16.9314 7.098755 16.9314 7.5177 C 16.9314 7.776611 16.72156 7.98645 16.46265 7.98645 C 16.20374 7.98645 15.9939 7.776611 15.9939 7.5177 C 15.9939 6.581665 16.75543 5.820312 17.69128 5.820312 C 18.62732 5.820312 19.38885 6.581665 19.38885 7.5177 L 19.38885 9.7677 C 19.38885 10.70374 18.62732 11.46527 17.69128 11.46527 C 16.75543 11.46527 15.9939 10.70374 15.9939 9.7677 C 15.9939 8.831665 16.75543 8.070312 17.69128 8.070312 C 17.96448 8.070312 18.22247 8.135498 18.45135 8.250671 L 18.45135 7.5177 C 18.45135 7.098755 18.11041 6.757812 17.69128 6.757812 Z M 17.69128 9.007812 C 17.27234 9.007812 16.9314 9.348755 16.9314 9.7677 C 16.9314 10.18683 17.27234 10.52777 17.69128 10.52777 C 18.11041 10.52777 18.45135 10.18683 18.45135 9.7677 C 18.45135 9.348755 18.11041 9.007812 17.69128 9.007812 Z " fill-rule="evenodd"/>
</clipPath>
<g clip-path="url(#cp18)">
<clipPath id="cp19">
<path transform="matrix(1,0,0,-1,0,24)" d="M -213 -1068 L 1050 -1068 L 1050 195 L -213 195 Z "/>
</clipPath>
<g clip-path="url(#cp19)">
<path transform="matrix(1,0,0,-1,0,24)" d="M 10.9939 16.46527 L 24.38885 16.46527 L 24.38885 .8203125 L 10.9939 .8203125 Z " />
</g>
</g>
<clipPath id="cp20">
<path transform="matrix(1,0,0,-1,0,24)" d="M 5.079895 3.476562 L 18.9201 3.476562 C 19.17902 3.476562 19.38885 3.686401 19.38885 3.945312 C 19.38885 4.204224 19.17902 4.414062 18.9201 4.414062 L 5.079895 4.414062 C 4.821167 4.414062 4.611145 4.204224 4.611145 3.945312 C 4.611145 3.686401 4.821167 3.476562 5.079895 3.476562 Z " fill-rule="evenodd"/>
</clipPath>
<g clip-path="url(#cp20)">
<clipPath id="cp21">
<path transform="matrix(1,0,0,-1,0,24)" d="M -213 -1068 L 1050 -1068 L 1050 195 L -213 195 Z "/>
</clipPath>
<g clip-path="url(#cp21)">
<path transform="matrix(1,0,0,-1,0,24)" d="M -.388855 9.414062 L 24.38885 9.414062 L 24.38885 -1.523438 L -.388855 -1.523438 Z " />
</g>
</g>
</g>
</svg>
