<?xml version="1.0" encoding="UTF-8" standalone="no"?>
<!DOCTYPE svg PUBLIC "-//W3C//DTD SVG 1.1//EN" "http://www.w3.org/Graphics/SVG/1.1/DTD/svg11.dtd">
<svg xmlns="http://www.w3.org/2000/svg" xmlns:xlink="http://www.w3.org/1999/xlink" version="1.1" width="24pt" height="24pt" viewBox="0 0 24 24">
<g enable-background="new">
<clipPath id="cp0">
<path transform="matrix(1,0,0,-1,0,24)" d="M 17.92255 21.94468 C 16.24112 23.26992 14.10088 24 11.89586 24 C 11.89556 24 11.89586 24 11.89556 24 C 9.690691 24 7.5503 23.26992 5.869021 21.94468 C 4.302978 20.71011 3.09697 18.89502 2.473083 16.83384 C 1.856512 14.79683 1.842184 12.64365 2.432689 10.77114 C 3.774663 6.515771 7.733213 3.11499 11.33828 .2614746 C 11.7788 -.0871582 12.01293 -.0871582 12.45344 .2614746 C 14.3594 1.771143 16.51976 3.48208 18.26994 5.471045 C 18.68012 5.937451 17.9253 6.551953 17.51435 6.085107 C 15.84313 4.18623 13.75167 2.522314 11.89586 1.052344 C 8.422034 3.805664 4.632984 7.072998 3.379876 11.04697 C 2.844244 12.74531 2.859639 14.70615 3.42347 16.56826 C 3.992025 18.44692 5.083561 20.09531 6.496566 21.20933 C 8.001486 22.3957 9.919027 23.04902 11.89586 23.04902 C 13.87255 23.04873 15.78994 22.39541 17.29486 21.20933 C 18.7571 20.05635 19.86128 18.32153 20.40332 16.32466 C 20.93681 14.35928 20.88865 12.31069 20.2675 10.55566 C 20.09846 10.07783 19.88841 9.596191 19.64316 9.124365 C 19.35919 8.578125 20.24403 8.152295 20.52861 8.699414 C 20.79353 9.209473 21.02111 9.730957 21.20463 10.24937 C 22.64156 14.30903 21.23054 19.33667 17.92255 21.94468 Z " fill-rule="evenodd"/>
</clipPath>
<g clip-path="url(#cp0)">
<clipPath id="cp1">
<path transform="matrix(1,0,0,-1,0,24)" d="M -620 -1156 L 643 -1156 L 643 107 L -620 107 Z "/>
</clipPath>
<g clip-path="url(#cp1)">
<path transform="matrix(1,0,0,-1,0,24)" d="M -3 29 L 26.76471 29 L 26.76471 -5 L -3 -5 Z " />
</g>
</g>
<clipPath id="cp2">
<path transform="matrix(1,0,0,-1,0,24)" d="M 19.64738 8.470588 C 19.2636 8.470588 18.94118 8.148309 18.94118 7.764706 C 18.94118 7.381103 19.2636 7.058824 19.64738 7.058824 C 20.02028 7.058824 20.33574 7.362401 20.35228 7.734044 C 20.36968 8.128955 20.04356 8.470588 19.64738 8.470588 Z " fill-rule="evenodd"/>
</clipPath>
<g clip-path="url(#cp2)">
<clipPath id="cp3">
<path transform="matrix(1,0,0,-1,0,24)" d="M -620 -1156 L 643 -1156 L 643 107 L -620 107 Z "/>
</clipPath>
<g clip-path="url(#cp3)">
<path transform="matrix(1,0,0,-1,0,24)" d="M 13.94118 13.47059 L 25.35294 13.47059 L 25.35294 2.058824 L 13.94118 2.058824 Z " />
</g>
</g>
<clipPath id="cp4">
<path transform="matrix(1,0,0,-1,0,24)" d="M 11.88235 21.17647 C 7.990084 21.17647 4.823529 18.3266 4.823529 14.8236 C 4.823529 14.25369 4.908026 13.68721 5.074628 13.1404 C 5.912262 10.39083 8.711494 8.470588 11.88235 8.470588 C 13.40824 8.470588 14.86062 8.901899 16.08296 9.717602 C 17.28058 10.51709 18.15313 11.61216 18.60558 12.88414 C 18.82846 13.50987 18.94118 14.16257 18.94118 14.8236 C 18.94118 18.3266 15.77478 21.17647 11.88235 21.17647 Z M 5.874796 15.21832 C 6.100068 18.02414 8.708306 20.24498 11.88235 20.24498 C 15.0564 20.24498 17.66464 18.02414 17.89007 15.21832 L 16.44725 15.21832 C 16.24477 15.64906 15.77048 15.95195 15.21902 15.95195 L 14.68206 15.95195 L 14.68206 16.49533 C 14.68206 16.75273 14.45042 16.96136 14.1644 16.96136 L 8.94378 16.96136 C 8.657926 16.96136 8.426119 16.75273 8.426119 16.49533 L 8.426119 15.21646 L 5.874796 15.21832 Z M 13.64706 14.71785 C 13.64706 12.28983 9.461283 12.28954 9.461283 14.71785 L 9.461283 16.02958 L 13.64706 16.02958 L 13.64706 14.71785 Z M 14.68206 15.02032 L 15.21918 15.02032 C 15.59128 15.02032 15.60834 14.48484 15.21918 14.48484 L 14.67059 14.48484 L 14.68206 15.02032 Z M 8.46183 14.29271 C 8.689971 12.94153 9.989786 11.90271 11.55409 11.90271 C 12.81756 11.90271 13.90756 12.58067 14.40067 13.5532 L 15.21918 13.5532 C 15.77048 13.5532 16.24477 13.85624 16.44725 14.28683 L 17.87588 14.28683 C 17.83427 13.9066 17.74929 13.53196 17.62 13.16838 C 17.23371 12.08307 16.48902 11.14842 15.46629 10.46587 C 14.42379 9.770117 13.18456 9.402226 11.88235 9.402226 C 9.176545 9.402226 6.78752 11.04066 6.072805 13.38662 C 5.983207 13.68119 5.921508 13.98221 5.888029 14.28683 L 8.46183 14.29271 Z " fill-rule="evenodd"/>
</clipPath>
<g clip-path="url(#cp4)">
<clipPath id="cp5">
<path transform="matrix(1,0,0,-1,0,24)" d="M -620 -1156 L 643 -1156 L 643 107 L -620 107 Z "/>
</clipPath>
<g clip-path="url(#cp5)">
<path transform="matrix(1,0,0,-1,0,24)" d="M -.1764706 26.17647 L 23.94118 26.17647 L 23.94118 3.470588 L -.1764706 3.470588 Z " />
</g>
</g>
<clipPath id="cp6">
<path transform="matrix(1,0,0,-1,0,24)" d="M 10.69888 17.4192 C 10.47571 17.20497 10.78082 16.93167 11.23405 16.94143 C 11.87493 16.95534 11.99748 17.4409 11.78917 17.69467 C 11.74929 17.74349 11.6474 17.79468 11.65846 17.85219 C 11.68294 17.97745 11.81528 18.03889 11.7027 18.17076 C 11.51814 18.38657 10.96411 18.41665 10.70015 18.22876 C 10.45939 18.05783 10.39576 17.7862 10.56798 17.59052 C 10.60334 17.55067 10.74728 17.46565 10.69888 17.4192 Z " fill-rule="evenodd"/>
</clipPath>
<g clip-path="url(#cp6)">
<clipPath id="cp7">
<path transform="matrix(1,0,0,-1,0,24)" d="M -620 -1156 L 643 -1156 L 643 107 L -620 107 Z "/>
</clipPath>
<g clip-path="url(#cp7)">
<path transform="matrix(1,0,0,-1,0,24)" d="M 5.470588 23.35294 L 16.88235 23.35294 L 16.88235 11.94118 L 5.470588 11.94118 Z " />
</g>
</g>
<clipPath id="cp8">
<path transform="matrix(1,0,0,-1,0,24)" d="M 12.10716 17.41911 C 11.88247 17.20488 12.18955 16.93157 12.64623 16.94144 C 13.27793 16.95505 13.39886 17.42966 13.21728 17.68127 C 13.16284 17.75712 13.07004 17.81571 13.09982 17.90053 C 13.13562 18.00301 13.21362 18.06032 13.11845 18.17078 C 12.93267 18.38669 12.37423 18.41657 12.10826 18.22868 C 11.8726 18.06239 11.81415 17.79569 11.96687 17.59931 C 11.99956 17.55749 12.15813 17.46774 12.10716 17.41911 Z " fill-rule="evenodd"/>
</clipPath>
<g clip-path="url(#cp8)">
<clipPath id="cp9">
<path transform="matrix(1,0,0,-1,0,24)" d="M -620 -1156 L 643 -1156 L 643 107 L -620 107 Z "/>
</clipPath>
<g clip-path="url(#cp9)">
<path transform="matrix(1,0,0,-1,0,24)" d="M 6.882353 23.35294 L 18.29412 23.35294 L 18.29412 11.94118 L 6.882353 11.94118 Z " />
</g>
</g>
</g>
</svg>
