<?xml version="1.0" encoding="UTF-8" standalone="no"?>
<!DOCTYPE svg PUBLIC "-//W3C//DTD SVG 1.1//EN" "http://www.w3.org/Graphics/SVG/1.1/DTD/svg11.dtd">
<svg xmlns="http://www.w3.org/2000/svg" xmlns:xlink="http://www.w3.org/1999/xlink" version="1.1" width="24pt" height="24pt" viewBox="0 0 24 24">
<g enable-background="new">
<clipPath id="cp0">
<path transform="matrix(1,0,0,-1,0,24)" d="M 19.57692 7.192308 C 20.55249 7.192308 21.34615 7.985976 21.34615 8.961538 C 21.34615 9.937101 20.55249 10.73077 19.57692 10.73077 C 18.60136 10.73077 17.80769 9.937101 17.80769 8.961538 C 17.80769 7.985976 18.60136 7.192308 19.57692 7.192308 Z M 19.57692 9.888278 C 20.08794 9.888278 20.50366 9.472551 20.50366 8.961538 C 20.50366 8.450526 20.08794 8.034799 19.57692 8.034799 C 19.06591 8.034799 18.65018 8.450526 18.65018 8.961538 C 18.65018 9.472551 19.06591 9.888278 19.57692 9.888278 Z " fill-rule="evenodd"/>
</clipPath>
<g clip-path="url(#cp0)">
<clipPath id="cp1">
<path transform="matrix(1,0,0,-1,0,24)" d="M -222 -645 L 1041 -645 L 1041 618 L -222 618 Z "/>
</clipPath>
<g clip-path="url(#cp1)">
<path transform="matrix(1,0,0,-1,0,24)" d="M 12.80769 15.73077 L 26.34615 15.73077 L 26.34615 2.192308 L 12.80769 2.192308 Z " />
</g>
</g>
<clipPath id="cp2">
<path transform="matrix(1,0,0,-1,0,24)" d="M 22.10113 17.05267 C 22.1834 17.13494 22.23077 17.24906 22.23077 17.36538 C 22.23077 17.48171 22.18344 17.59583 22.10113 17.6781 C 22.0189 17.76037 21.90479 17.80769 21.78846 17.80769 C 21.67213 17.80769 21.55802 17.76037 21.47575 17.6781 C 21.39348 17.59583 21.34615 17.48171 21.34615 17.36538 C 21.34615 17.24906 21.39344 17.13494 21.47575 17.05267 C 21.55806 16.9704 21.67213 16.92308 21.78846 16.92308 C 21.90479 16.92308 22.0189 16.9704 22.10113 17.05267 Z " fill-rule="evenodd"/>
</clipPath>
<g clip-path="url(#cp2)">
<clipPath id="cp3">
<path transform="matrix(1,0,0,-1,0,24)" d="M -222 -645 L 1041 -645 L 1041 618 L -222 618 Z "/>
</clipPath>
<g clip-path="url(#cp3)">
<path transform="matrix(1,0,0,-1,0,24)" d="M 16.34615 22.80769 L 27.23077 22.80769 L 27.23077 11.92308 L 16.34615 11.92308 Z " />
</g>
</g>
<clipPath id="cp4">
<path transform="matrix(1,0,0,-1,0,24)" d="M 22.65234 22.13401 L 21.11359 22.13401 L 21.11359 22.41391 C 21.11359 23.2885 20.42844 24 19.58625 24 C 18.74405 24 18.0589 23.2885 18.0589 22.41391 L 18.0589 22.13401 L 14.02164 22.13401 L 14.02164 22.41391 C 14.02164 23.2885 13.33649 24 12.49429 24 C 11.6521 24 10.96695 23.2885 10.96695 22.41391 L 10.96695 22.13401 L 6.929687 22.13401 L 6.929687 22.41391 C 6.929687 23.2885 6.244539 24 5.402344 24 C 4.560148 24 3.875 23.2885 3.875 22.41391 L 3.875 22.13401 L 2.347656 22.13401 C 1.604559 22.13401 1 21.5062 1 20.73453 L 1 1.514874 C 1 .7431955 1.604559 .1153846 2.347656 .1153846 L 8.307307 .1153846 C 8.555365 .1153846 8.756525 .3242351 8.756525 .581881 C 8.756525 .839527 8.555365 1.048377 8.307307 1.048377 L 2.347656 1.048377 C 2.099957 1.048377 1.898437 1.257648 1.898437 1.514874 L 1.898437 16.53606 L 19.90088 16.53606 C 20.14894 16.53606 20.3501 16.74491 20.3501 17.00255 C 20.3501 17.2602 20.14894 17.46905 19.90088 17.46905 L 1.898437 17.46905 L 1.898437 20.73453 C 1.898437 20.99175 2.099957 21.20102 2.347656 21.20102 L 3.875 21.20102 L 3.875 20.85115 C 3.875 19.97656 4.560148 19.26506 5.402344 19.26506 C 6.244539 19.26506 6.929687 19.97656 6.929687 20.85115 L 6.929687 21.20102 L 10.96695 21.20102 L 10.96695 20.85115 C 10.96695 19.97656 11.6521 19.26506 12.49429 19.26506 C 13.33649 19.26506 14.02164 19.97656 14.02164 20.85115 L 14.02164 21.20102 L 18.0589 21.20102 L 18.0589 20.85115 C 18.0589 19.97656 18.74405 19.26506 19.58625 19.26506 C 20.42844 19.26506 21.11359 19.97656 21.11359 20.85115 L 21.11359 21.20102 L 22.65234 21.20102 C 22.90004 21.20102 23.10156 20.99175 23.10156 20.73453 L 23.10156 1.514874 C 23.10156 1.257648 22.90004 1.048377 22.65234 1.048377 L 11.90106 1.048377 C 11.653 1.048377 11.45184 .839527 11.45184 .581881 C 11.45184 .3242351 11.653 .1153846 11.90106 .1153846 L 22.65234 .1153846 C 23.39544 .1153846 24 .7431955 24 1.514874 L 24 20.73453 C 24 21.5062 23.39544 22.13401 22.65234 22.13401 Z M 6.03125 20.85115 C 6.03125 20.49101 5.749141 20.19805 5.402344 20.19805 C 5.055547 20.19805 4.773437 20.49101 4.773437 20.85115 L 4.773437 22.41391 C 4.773437 22.77405 5.055547 23.06701 5.402344 23.06701 C 5.749141 23.06701 6.03125 22.77405 6.03125 22.41391 L 6.03125 20.85115 Z M 13.1232 20.85115 C 13.1232 20.49101 12.84109 20.19805 12.49429 20.19805 C 12.1475 20.19805 11.86539 20.49101 11.86539 20.85115 L 11.86539 22.41391 C 11.86539 22.77405 12.1475 23.06701 12.49429 23.06701 C 12.84109 23.06701 13.1232 22.77405 13.1232 22.41391 L 13.1232 20.85115 Z M 20.21515 20.85115 C 20.21515 20.49101 19.93304 20.19805 19.58625 20.19805 C 19.23945 20.19805 18.95734 20.49101 18.95734 20.85115 L 18.95734 22.41391 C 18.95734 22.77405 19.23945 23.06701 19.58625 23.06701 C 19.93304 23.06701 20.21515 22.77405 20.21515 22.41391 L 20.21515 20.85115 Z " fill-rule="evenodd"/>
</clipPath>
<g clip-path="url(#cp4)">
<clipPath id="cp5">
<path transform="matrix(1,0,0,-1,0,24)" d="M -222 -645 L 1041 -645 L 1041 618 L -222 618 Z "/>
</clipPath>
<g clip-path="url(#cp5)">
<path transform="matrix(1,0,0,-1,0,24)" d="M -4 29 L 29 29 L 29 -4.884615 L -4 -4.884615 Z " />
</g>
</g>
<clipPath id="cp6">
<path transform="matrix(1,0,0,-1,0,24)" d="M 5.423077 15.15385 C 4.447515 15.15385 3.653846 14.36018 3.653846 13.38462 C 3.653846 12.40905 4.447515 11.61538 5.423077 11.61538 C 6.398639 11.61538 7.192308 12.40905 7.192308 13.38462 C 7.192308 14.36018 6.398639 15.15385 5.423077 15.15385 Z M 5.423077 12.45788 C 4.912064 12.45788 4.496337 12.8736 4.496337 13.38462 C 4.496337 13.89563 4.912064 14.31136 5.423077 14.31136 C 5.93409 14.31136 6.349817 13.89563 6.349817 13.38462 C 6.349817 12.8736 5.93409 12.45788 5.423077 12.45788 Z " fill-rule="evenodd"/>
</clipPath>
<g clip-path="url(#cp6)">
<clipPath id="cp7">
<path transform="matrix(1,0,0,-1,0,24)" d="M -222 -645 L 1041 -645 L 1041 618 L -222 618 Z "/>
</clipPath>
<g clip-path="url(#cp7)">
<path transform="matrix(1,0,0,-1,0,24)" d="M -1.346154 20.15385 L 12.19231 20.15385 L 12.19231 6.615385 L -1.346154 6.615385 Z " />
</g>
</g>
<clipPath id="cp8">
<path transform="matrix(1,0,0,-1,0,24)" d="M 19.57692 15.15385 C 18.60136 15.15385 17.80769 14.36018 17.80769 13.38462 C 17.80769 12.40905 18.60136 11.61538 19.57692 11.61538 C 20.55249 11.61538 21.34615 12.40905 21.34615 13.38462 C 21.34615 14.36018 20.55249 15.15385 19.57692 15.15385 Z M 19.57692 12.45788 C 19.06591 12.45788 18.65018 12.8736 18.65018 13.38462 C 18.65018 13.89563 19.06591 14.31136 19.57692 14.31136 C 20.08794 14.31136 20.50366 13.89563 20.50366 13.38462 C 20.50366 12.8736 20.08794 12.45788 19.57692 12.45788 Z " fill-rule="evenodd"/>
</clipPath>
<g clip-path="url(#cp8)">
<clipPath id="cp9">
<path transform="matrix(1,0,0,-1,0,24)" d="M -222 -645 L 1041 -645 L 1041 618 L -222 618 Z "/>
</clipPath>
<g clip-path="url(#cp9)">
<path transform="matrix(1,0,0,-1,0,24)" d="M 12.80769 20.15385 L 26.34615 20.15385 L 26.34615 6.615385 L 12.80769 6.615385 Z " />
</g>
</g>
<clipPath id="cp10">
<path transform="matrix(1,0,0,-1,0,24)" d="M 15.15385 11.61538 C 16.12941 11.61538 16.92308 12.40905 16.92308 13.38462 C 16.92308 14.36018 16.12941 15.15385 15.15385 15.15385 C 14.17828 15.15385 13.38462 14.36018 13.38462 13.38462 C 13.38462 12.40905 14.17828 11.61538 15.15385 11.61538 Z M 15.15385 14.31136 C 15.66486 14.31136 16.08059 13.89563 16.08059 13.38462 C 16.08059 12.8736 15.66486 12.45788 15.15385 12.45788 C 14.64283 12.45788 14.22711 12.8736 14.22711 13.38462 C 14.22711 13.89563 14.64283 14.31136 15.15385 14.31136 Z " fill-rule="evenodd"/>
</clipPath>
<g clip-path="url(#cp10)">
<clipPath id="cp11">
<path transform="matrix(1,0,0,-1,0,24)" d="M -222 -645 L 1041 -645 L 1041 618 L -222 618 Z "/>
</clipPath>
<g clip-path="url(#cp11)">
<path transform="matrix(1,0,0,-1,0,24)" d="M 8.384615 20.15385 L 21.92308 20.15385 L 21.92308 6.615385 L 8.384615 6.615385 Z " />
</g>
</g>
<clipPath id="cp12">
<path transform="matrix(1,0,0,-1,0,24)" d="M 9.846154 11.61538 C 10.82172 11.61538 11.61538 12.40905 11.61538 13.38462 C 11.61538 14.36018 10.82172 15.15385 9.846154 15.15385 C 8.870592 15.15385 8.076923 14.36018 8.076923 13.38462 C 8.076923 12.40905 8.870592 11.61538 9.846154 11.61538 Z M 9.846154 14.31136 C 10.35717 14.31136 10.77289 13.89563 10.77289 13.38462 C 10.77289 12.8736 10.35717 12.45788 9.846154 12.45788 C 9.335141 12.45788 8.919414 12.8736 8.919414 13.38462 C 8.919414 13.89563 9.335141 14.31136 9.846154 14.31136 Z " fill-rule="evenodd"/>
</clipPath>
<g clip-path="url(#cp12)">
<clipPath id="cp13">
<path transform="matrix(1,0,0,-1,0,24)" d="M -222 -645 L 1041 -645 L 1041 618 L -222 618 Z "/>
</clipPath>
<g clip-path="url(#cp13)">
<path transform="matrix(1,0,0,-1,0,24)" d="M 3.076923 20.15385 L 16.61538 20.15385 L 16.61538 6.615385 L 3.076923 6.615385 Z " />
</g>
</g>
<clipPath id="cp14">
<path transform="matrix(1,0,0,-1,0,24)" d="M 5.423077 5.423077 C 4.447515 5.423077 3.653846 4.629408 3.653846 3.653846 C 3.653846 2.678284 4.447515 1.884615 5.423077 1.884615 C 6.398639 1.884615 7.192308 2.678284 7.192308 3.653846 C 7.192308 4.629408 6.398639 5.423077 5.423077 5.423077 Z M 5.423077 2.727106 C 4.912064 2.727106 4.496337 3.142833 4.496337 3.653846 C 4.496337 4.164859 4.912064 4.580586 5.423077 4.580586 C 5.93409 4.580586 6.349817 4.164859 6.349817 3.653846 C 6.349817 3.142833 5.93409 2.727106 5.423077 2.727106 Z " fill-rule="evenodd"/>
</clipPath>
<g clip-path="url(#cp14)">
<clipPath id="cp15">
<path transform="matrix(1,0,0,-1,0,24)" d="M -222 -645 L 1041 -645 L 1041 618 L -222 618 Z "/>
</clipPath>
<g clip-path="url(#cp15)">
<path transform="matrix(1,0,0,-1,0,24)" d="M -1.346154 10.42308 L 12.19231 10.42308 L 12.19231 -3.115385 L -1.346154 -3.115385 Z " />
</g>
</g>
<clipPath id="cp16">
<path transform="matrix(1,0,0,-1,0,24)" d="M 19.57692 1.884615 C 20.55249 1.884615 21.34615 2.678284 21.34615 3.653846 C 21.34615 4.629408 20.55249 5.423077 19.57692 5.423077 C 18.60136 5.423077 17.80769 4.629408 17.80769 3.653846 C 17.80769 2.678284 18.60136 1.884615 19.57692 1.884615 Z M 19.57692 4.580586 C 20.08794 4.580586 20.50366 4.164859 20.50366 3.653846 C 20.50366 3.142833 20.08794 2.727106 19.57692 2.727106 C 19.06591 2.727106 18.65018 3.142833 18.65018 3.653846 C 18.65018 4.164859 19.06591 4.580586 19.57692 4.580586 Z " fill-rule="evenodd"/>
</clipPath>
<g clip-path="url(#cp16)">
<clipPath id="cp17">
<path transform="matrix(1,0,0,-1,0,24)" d="M -222 -645 L 1041 -645 L 1041 618 L -222 618 Z "/>
</clipPath>
<g clip-path="url(#cp17)">
<path transform="matrix(1,0,0,-1,0,24)" d="M 12.80769 10.42308 L 26.34615 10.42308 L 26.34615 -3.115385 L 12.80769 -3.115385 Z " />
</g>
</g>
<clipPath id="cp18">
<path transform="matrix(1,0,0,-1,0,24)" d="M 15.15385 1.884615 C 16.12941 1.884615 16.92308 2.678284 16.92308 3.653846 C 16.92308 4.629408 16.12941 5.423077 15.15385 5.423077 C 14.17828 5.423077 13.38462 4.629408 13.38462 3.653846 C 13.38462 2.678284 14.17828 1.884615 15.15385 1.884615 Z M 15.15385 4.580586 C 15.66486 4.580586 16.08059 4.164859 16.08059 3.653846 C 16.08059 3.142833 15.66486 2.727106 15.15385 2.727106 C 14.64283 2.727106 14.22711 3.142833 14.22711 3.653846 C 14.22711 4.164859 14.64283 4.580586 15.15385 4.580586 Z " fill-rule="evenodd"/>
</clipPath>
<g clip-path="url(#cp18)">
<clipPath id="cp19">
<path transform="matrix(1,0,0,-1,0,24)" d="M -222 -645 L 1041 -645 L 1041 618 L -222 618 Z "/>
</clipPath>
<g clip-path="url(#cp19)">
<path transform="matrix(1,0,0,-1,0,24)" d="M 8.384615 10.42308 L 21.92308 10.42308 L 21.92308 -3.115385 L 8.384615 -3.115385 Z " />
</g>
</g>
<clipPath id="cp20">
<path transform="matrix(1,0,0,-1,0,24)" d="M 9.846154 5.423077 C 8.870592 5.423077 8.076923 4.629408 8.076923 3.653846 C 8.076923 2.678284 8.870592 1.884615 9.846154 1.884615 C 10.82172 1.884615 11.61538 2.678284 11.61538 3.653846 C 11.61538 4.629408 10.82172 5.423077 9.846154 5.423077 Z M 9.846154 2.727106 C 9.335141 2.727106 8.919414 3.142833 8.919414 3.653846 C 8.919414 4.164859 9.335141 4.580586 9.846154 4.580586 C 10.35717 4.580586 10.77289 4.164859 10.77289 3.653846 C 10.77289 3.142833 10.35717 2.727106 9.846154 2.727106 Z " fill-rule="evenodd"/>
</clipPath>
<g clip-path="url(#cp20)">
<clipPath id="cp21">
<path transform="matrix(1,0,0,-1,0,24)" d="M -222 -645 L 1041 -645 L 1041 618 L -222 618 Z "/>
</clipPath>
<g clip-path="url(#cp21)">
<path transform="matrix(1,0,0,-1,0,24)" d="M 3.076923 10.42308 L 16.61538 10.42308 L 16.61538 -3.115385 L 3.076923 -3.115385 Z " />
</g>
</g>
<clipPath id="cp22">
<path transform="matrix(1,0,0,-1,0,24)" d="M 5.423077 10.73077 C 4.447515 10.73077 3.653846 9.937101 3.653846 8.961538 C 3.653846 7.985976 4.447515 7.192308 5.423077 7.192308 C 6.398639 7.192308 7.192308 7.985976 7.192308 8.961538 C 7.192308 9.937101 6.398639 10.73077 5.423077 10.73077 Z M 5.423077 8.034799 C 4.912064 8.034799 4.496337 8.450526 4.496337 8.961538 C 4.496337 9.472551 4.912064 9.888278 5.423077 9.888278 C 5.93409 9.888278 6.349817 9.472551 6.349817 8.961538 C 6.349817 8.450526 5.93409 8.034799 5.423077 8.034799 Z " fill-rule="evenodd"/>
</clipPath>
<g clip-path="url(#cp22)">
<clipPath id="cp23">
<path transform="matrix(1,0,0,-1,0,24)" d="M -222 -645 L 1041 -645 L 1041 618 L -222 618 Z "/>
</clipPath>
<g clip-path="url(#cp23)">
<path transform="matrix(1,0,0,-1,0,24)" d="M -1.346154 15.73077 L 12.19231 15.73077 L 12.19231 2.192308 L -1.346154 2.192308 Z " />
</g>
</g>
<clipPath id="cp24">
<path transform="matrix(1,0,0,-1,0,24)" d="M 15.15385 7.192308 C 16.12941 7.192308 16.92308 7.985976 16.92308 8.961538 C 16.92308 9.937101 16.12941 10.73077 15.15385 10.73077 C 14.17828 10.73077 13.38462 9.937101 13.38462 8.961538 C 13.38462 7.985976 14.17828 7.192308 15.15385 7.192308 Z M 15.15385 9.888278 C 15.66486 9.888278 16.08059 9.472551 16.08059 8.961538 C 16.08059 8.450526 15.66486 8.034799 15.15385 8.034799 C 14.64283 8.034799 14.22711 8.450526 14.22711 8.961538 C 14.22711 9.472551 14.64283 9.888278 15.15385 9.888278 Z " fill-rule="evenodd"/>
</clipPath>
<g clip-path="url(#cp24)">
<clipPath id="cp25">
<path transform="matrix(1,0,0,-1,0,24)" d="M -222 -645 L 1041 -645 L 1041 618 L -222 618 Z "/>
</clipPath>
<g clip-path="url(#cp25)">
<path transform="matrix(1,0,0,-1,0,24)" d="M 8.384615 15.73077 L 21.92308 15.73077 L 21.92308 2.192308 L 8.384615 2.192308 Z " />
</g>
</g>
<clipPath id="cp26">
<path transform="matrix(1,0,0,-1,0,24)" d="M 9.846154 7.192308 C 10.82172 7.192308 11.61538 7.985976 11.61538 8.961538 C 11.61538 9.937101 10.82172 10.73077 9.846154 10.73077 C 8.870592 10.73077 8.076923 9.937101 8.076923 8.961538 C 8.076923 7.985976 8.870592 7.192308 9.846154 7.192308 Z M 9.846154 9.888278 C 10.35717 9.888278 10.77289 9.472551 10.77289 8.961538 C 10.77289 8.450526 10.35717 8.034799 9.846154 8.034799 C 9.335141 8.034799 8.919414 8.450526 8.919414 8.961538 C 8.919414 9.472551 9.335141 9.888278 9.846154 9.888278 Z " fill-rule="evenodd"/>
</clipPath>
<g clip-path="url(#cp26)">
<clipPath id="cp27">
<path transform="matrix(1,0,0,-1,0,24)" d="M -222 -645 L 1041 -645 L 1041 618 L -222 618 Z "/>
</clipPath>
<g clip-path="url(#cp27)">
<path transform="matrix(1,0,0,-1,0,24)" d="M 3.076923 15.73077 L 16.61538 15.73077 L 16.61538 2.192308 L 3.076923 2.192308 Z " />
</g>
</g>
<clipPath id="cp28">
<path transform="matrix(1,0,0,-1,0,24)" d="M 10.28846 1 C 10.17169 1 10.05802 .9526731 9.97575 .8704038 C 9.893038 .7881346 9.846154 .6740192 9.846154 .5576923 C 9.846154 .4413654 9.893038 .32725 9.97575 .2449808 C 10.05802 .1627115 10.17174 .1153846 10.28846 .1153846 C 10.40479 .1153846 10.5189 .1627115 10.60117 .2449808 C 10.6834 .32725 10.73077 .4413654 10.73077 .5576923 C 10.73077 .6740192 10.68344 .7881346 10.60117 .8704038 C 10.5189 .9526731 10.40479 1 10.28846 1 Z " fill-rule="evenodd"/>
</clipPath>
<g clip-path="url(#cp28)">
<clipPath id="cp29">
<path transform="matrix(1,0,0,-1,0,24)" d="M -222 -645 L 1041 -645 L 1041 618 L -222 618 Z "/>
</clipPath>
<g clip-path="url(#cp29)">
<path transform="matrix(1,0,0,-1,0,24)" d="M 4.846154 6 L 15.73077 6 L 15.73077 -4.884615 L 4.846154 -4.884615 Z " />
</g>
</g>
</g>
</svg>
