<?xml version="1.0" encoding="UTF-8" standalone="no"?>
<!DOCTYPE svg PUBLIC "-//W3C//DTD SVG 1.1//EN" "http://www.w3.org/Graphics/SVG/1.1/DTD/svg11.dtd">
<svg xmlns="http://www.w3.org/2000/svg" xmlns:xlink="http://www.w3.org/1999/xlink" version="1.1" width="22pt" height="29pt" viewBox="0 0 22 29">
<g enable-background="new">
<clipPath id="cp0">
<path transform="matrix(1,0,0,-1,0,29)" d="M 8 18 C 8.179855 18 8.32546 18.12719 8.32546 18.2843 L 8.32546 18.92174 C 8.705585 19.01695 9 19.26839 9 19.53869 C 9 19.63773 8.956302 19.87723 8.551881 19.9608 C 8.419268 19.98821 8.25426 20 8 20 C 7.745909 20 7.580901 19.98821 7.448119 19.9608 C 7.043698 19.87723 7 19.63773 7 19.53869 C 7 19.26839 7.294415 19.01695 7.67454 18.92174 L 7.67454 18.2843 C 7.67454 18.12719 7.820314 18 8 18 Z " fill-rule="evenodd"/>
</clipPath>
<g clip-path="url(#cp0)">
<clipPath id="cp1">
<path transform="matrix(1,0,0,-1,0,29)" d="M -530 -845 L 733 -845 L 733 418 L -530 418 Z "/>
</clipPath>
<g clip-path="url(#cp1)">
<path transform="matrix(1,0,0,-1,0,29)" d="M 2 25 L 14 25 L 14 13 L 2 13 Z " />
</g>
</g>
<clipPath id="cp2">
<path transform="matrix(1,0,0,-1,0,29)" d="M 17.59662 16.85306 C 18.0482 15.64576 18.61025 14.14345 18.50034 12.46509 C 18.41397 11.14799 18.09072 9.777279 17.58998 8.605499 C 17.50096 8.396984 17.57593 8.145329 17.75759 8.043141 C 17.80941 8.013945 17.86446 8 17.91855 8 C 18.05389 8 18.18392 8.0865 18.2477 8.235315 C 18.78829 9.501002 19.13737 10.98065 19.23057 12.40213 C 19.35414 14.28595 18.7528 15.89328 18.26952 17.1849 C 17.99315 17.92374 17.75436 18.56192 17.73329 19.03974 C 17.71089 19.54828 18.08996 20.06619 18.54476 20.14812 C 18.8086 20.19583 19.71384 20.16206 20.27987 17.73004 C 20.33207 17.50584 20.53271 17.37271 20.72822 17.43241 C 20.92354 17.49233 21.03971 17.72285 20.98751 17.94705 C 20.73031 19.05129 20.36149 19.87336 19.89094 20.3904 C 19.46176 20.86212 18.9428 21.07085 18.43087 20.97869 C 17.60137 20.829 16.96017 19.94025 17.00193 18.99725 C 17.02964 18.36866 17.29235 17.6662 17.59662 16.85306 Z " fill-rule="evenodd"/>
</clipPath>
<g clip-path="url(#cp2)">
<clipPath id="cp3">
<path transform="matrix(1,0,0,-1,0,29)" d="M -530 -845 L 733 -845 L 733 418 L -530 418 Z "/>
</clipPath>
<g clip-path="url(#cp3)">
<path transform="matrix(1,0,0,-1,0,29)" d="M 12 26 L 26 26 L 26 3 L 12 3 Z " />
</g>
</g>
<clipPath id="cp4">
<path transform="matrix(1,0,0,-1,0,29)" d="M 22 13.43511 C 22 14.57588 21.94364 15.61555 21.83178 16.52534 C 21.80328 16.7592 21.59875 16.92403 21.37608 16.89416 C 21.15297 16.86407 20.99552 16.65012 21.02401 16.41648 C 21.13145 15.54253 21.18569 14.5396 21.18548 13.43533 C 21.18506 11.3206 20.75279 9.420703 19.9007 7.788082 C 19.21957 6.482694 18.26786 5.340146 17.07214 4.392301 C 16.5489 3.977453 16.02313 3.636282 15.52964 3.357725 C 15.71707 3.794035 15.80952 4.29495 15.80952 4.866666 C 15.80952 4.923528 15.80826 4.983709 15.80615 5.045438 C 16.45687 5.514493 17.04471 6.111653 17.55571 6.824971 C 17.69079 7.013478 17.65449 7.280972 17.47466 7.422573 C 17.29482 7.564175 17.03964 7.52612 16.90455 7.337613 C 16.54721 6.83891 16.14956 6.404813 15.7175 6.039968 C 15.3306 9.038158 13.83222 14.48296 13.39404 16.03969 C 14.10809 16.32068 14.79343 16.93753 15.22233 17.82763 L 15.80214 17.4973 C 15.99738 17.38645 16.24855 17.46433 16.35429 17.66877 C 16.46173 17.87586 16.38849 18.13495 16.19093 18.24757 L 15.51529 18.63232 C 15.59571 18.94252 15.64721 19.2755 15.66431 19.62973 L 16.33403 19.74965 C 16.55587 19.78925 16.70488 20.00962 16.6671 20.24216 C 16.62911 20.47447 16.41888 20.63045 16.19705 20.59107 L 15.60647 20.48553 C 15.30612 22.25157 14.01965 24.47228 13.69565 25.01147 C 13.70621 25.29799 13.72098 25.97923 13.66083 26.68635 C 13.54094 28.09617 13.18339 28.84644 12.56791 28.97985 C 11.96361 29.11061 11.35573 28.60417 10.70943 27.43064 C 10.43758 26.93725 10.22038 26.43811 10.0986 26.14074 L 6.574148 26.14074 C 6.45236 26.43811 6.235169 26.93725 5.963311 27.43064 C 5.317014 28.60417 4.709132 29.11083 4.104838 28.97985 C 3.489357 28.84644 3.131804 28.09617 3.011917 26.68635 C 2.951761 25.97945 2.966536 25.29799 2.977301 25.01147 C 2.653097 24.47228 1.366836 22.25157 1.066272 20.48553 L .4756974 20.59107 C .2540737 20.63067 .04363679 20.47447 .005855218 20.24216 C -.03192635 20.00962 .1170892 19.78925 .3387129 19.74965 L 1.008438 19.62973 C 1.025535 19.2755 1.077247 18.94252 1.157454 18.63232 L .4818184 18.24757 C .2842568 18.13495 .2112265 17.87586 .3184501 17.66877 C .4244074 17.46433 .6753698 17.38623 .8706097 17.4973 L 1.450419 17.82763 C 1.879525 16.93731 2.56487 16.32046 3.279131 16.03969 C 3.163043 15.62639 2.970547 14.93254 2.745124 14.08802 C 2.684547 13.86102 2.810978 13.62538 3.027536 13.56188 C 3.244094 13.49816 3.468883 13.63091 3.52946 13.85792 C 3.895034 15.22836 4.173436 16.19833 4.176179 16.20806 C 4.244988 16.44701 4.096395 16.70345 3.86274 16.75035 C 2.892029 16.94483 1.878259 18.03118 1.818737 19.73062 C 1.794253 20.43155 2.111702 21.49887 2.736892 22.81687 C 3.22362 23.84259 3.726178 24.65481 3.731244 24.66278 C 3.778734 24.73933 3.80153 24.8296 3.796464 24.92076 C 3.796042 24.92894 3.751084 25.76196 3.823059 26.61046 C 3.925217 27.81098 4.18019 28.12449 4.269895 28.14374 C 4.358966 28.16365 4.709554 27.99727 5.254115 27.01093 C 5.64164 26.30912 5.920252 25.56615 5.922996 25.55863 C 5.983784 25.3949 6.134488 25.28715 6.302289 25.28715 L 10.37067 25.28715 C 10.53847 25.28715 10.68896 25.3949 10.74996 25.55863 C 10.7527 25.56615 11.02794 26.30159 11.41462 27.00363 C 11.9615 27.99616 12.31378 28.16321 12.40306 28.14374 C 12.49234 28.12449 12.74647 27.81253 12.84905 26.61843 C 12.92187 25.7697 12.87691 24.92894 12.87628 24.92054 C 12.87143 24.8296 12.89422 24.73911 12.94171 24.66278 C 12.94678 24.65481 13.44934 23.84259 13.93606 22.81665 C 14.56125 21.49887 14.8787 20.43155 14.85401 19.73062 C 14.7947 18.03118 13.78072 16.94483 12.81 16.75035 C 12.57635 16.70345 12.42797 16.44679 12.49657 16.20784 C 12.52168 16.12089 14.99521 7.482975 14.99521 4.866666 C 14.99521 3.991392 14.7356 3.369231 14.17837 2.908583 C 13.70452 2.516967 13.00292 2.234427 12.04593 2.050567 C 12.27178 2.985137 12.47208 4.280569 12.64157 5.900579 C 12.92863 8.644329 13.03057 11.4237 13.03163 11.45136 C 13.04007 11.68699 12.86488 11.88523 12.64009 11.89408 C 12.41699 11.90404 12.2264 11.71929 12.21774 11.48366 C 12.2169 11.45799 12.12234 8.88483 11.85977 6.264096 C 11.70632 4.734358 11.52691 3.490034 11.32639 2.565863 C 11.03638 1.230163 10.78035 .9261623 10.70711 .8637691 C 10.59651 .949615 10.06314 1.571998 9.755186 5.674238 C 9.577887 8.036327 9.567334 10.35859 9.567334 10.38182 C 9.566489 10.61701 9.384336 10.80707 9.160179 10.80707 C 9.159757 10.80707 9.159124 10.80707 9.158491 10.80707 C 8.933701 10.80619 8.752181 10.61436 8.753025 10.37873 C 8.753025 10.3535 8.764212 7.844502 8.961984 5.368024 C 9.078917 3.901342 9.237853 2.728263 9.434359 1.881087 C 9.440691 1.853652 9.447446 1.825996 9.453989 1.797897 C 9.104668 1.786613 8.735295 1.78086 8.336372 1.78086 C 7.93745 1.78086 7.568288 1.786613 7.218756 1.797897 C 7.22551 1.825996 7.232053 1.853873 7.238385 1.881087 C 7.434892 2.728263 7.594039 3.901342 7.710971 5.368024 C 7.908533 7.844502 7.91972 10.3535 7.919931 10.37873 C 7.920775 10.61436 7.739044 10.80619 7.514254 10.80707 C 7.513621 10.80707 7.513199 10.80707 7.512566 10.80707 C 7.288409 10.80707 7.106255 10.61701 7.105411 10.38182 C 7.105411 10.35859 7.095069 8.040531 6.917981 5.678441 C 6.61003 1.572219 6.076233 .949615 5.965632 .8637691 C 5.914764 .9071346 5.776091 1.066879 5.599215 1.605849 C 5.592249 1.643241 5.580851 1.679084 5.565232 1.712493 C 5.496423 1.935515 5.422549 2.214736 5.346352 2.565863 C 5.145836 3.490034 4.966426 4.734358 4.812978 6.264096 C 4.550407 8.88483 4.455847 11.45799 4.455003 11.48366 C 4.446349 11.71929 4.25723 11.90426 4.032652 11.89408 C 3.807862 11.88523 3.632674 11.68699 3.641117 11.45136 C 3.642172 11.4237 3.74433 8.644329 4.031174 5.900579 C 4.200664 4.280348 4.40118 2.985137 4.627025 2.050567 C 3.671933 2.233985 2.971391 2.515418 2.49775 2.905707 C 1.938203 3.366797 1.677531 3.989843 1.677531 4.866666 C 1.677531 6.020497 2.170169 8.563129 3.101832 12.21955 C 3.159877 12.44744 3.030913 12.6813 2.81351 12.74214 C 2.59653 12.80277 2.373218 12.6678 2.314963 12.43991 C 1.351639 8.659595 .8632222 6.111432 .8632222 4.866666 C .8632222 3.722792 1.233228 2.861899 1.994347 2.234649 C 2.643177 1.700103 3.593415 1.340789 4.893607 1.139228 C 5.124307 .5113142 5.453154 0 5.960778 0 C 6.438641 0 6.748703 .4316633 6.959351 .9531551 C 7.385923 .9358974 7.839091 .9272686 8.336372 .9272686 C 8.833654 .9272686 9.286821 .9358974 9.713394 .9531551 C 9.924042 .4316633 10.2341 0 10.71197 0 C 11.2198 0 11.54844 .5113142 11.77935 1.139228 C 12.25341 1.212905 12.68041 1.307823 13.06371 1.424201 C 13.24312 1.463363 21.99789 3.55464 22 13.43511 Z " fill-rule="evenodd"/>
</clipPath>
<g clip-path="url(#cp4)">
<clipPath id="cp5">
<path transform="matrix(1,0,0,-1,0,29)" d="M -530 -845 L 733 -845 L 733 418 L -530 418 Z "/>
</clipPath>
<g clip-path="url(#cp5)">
<path transform="matrix(1,0,0,-1,0,29)" d="M -5 34 L 27 34 L 27 -5 L -5 -5 Z " />
</g>
</g>
</g>
</svg>
