<?xml version="1.0" encoding="utf-8"?>
<!-- Generator: Adobe Illustrator 25.2.0, SVG Export Plug-In . SVG Version: 6.00 Build 0)  -->
<svg version="1.1" id="Capa_1" xmlns="http://www.w3.org/2000/svg" xmlns:xlink="http://www.w3.org/1999/xlink" x="0px" y="0px"
	 viewBox="0 0 22 29" style="enable-background:new 0 0 22 29;" xml:space="preserve">
<style type="text/css">
	.st0{enable-background:new    ;}
	.st1{clip-path:url(#SVGID_2_);}
	.st2{clip-path:url(#SVGID_4_);}
	.st3{clip-path:url(#SVGID_6_);}
	.st4{clip-path:url(#SVGID_8_);}
	.st5{clip-path:url(#SVGID_10_);}
	.st6{clip-path:url(#SVGID_12_);}
</style>
<g class="st0">
	<g>
		<g>
			<defs>
				<path id="SVGID_1_" d="M8,11c0.2,0,0.3-0.1,0.3-0.3v-0.6C8.7,10,9,9.7,9,9.5C9,9.4,9,9.1,8.6,9C8.4,9,8.3,9,8,9S7.6,9,7.4,9
					C7,9.1,7,9.4,7,9.5c0,0.3,0.3,0.5,0.7,0.6v0.6C7.7,10.9,7.8,11,8,11z"/>
			</defs>
			<clipPath id="SVGID_2_">
				<use xlink:href="#SVGID_1_"  style="overflow:visible;"/>
			</clipPath>
			<g class="st1">
				<g>
					<g>
						<defs>
							<rect id="SVGID_3_" x="-530" y="-389" width="1263" height="1263"/>
						</defs>
						<clipPath id="SVGID_4_">
							<use xlink:href="#SVGID_3_"  style="overflow:visible;"/>
						</clipPath>
						<g class="st2">
							<path d="M2,4h12v12H2V4z"/>
						</g>
					</g>
				</g>
			</g>
		</g>
	</g>
	<g>
		<g>
			<defs>
				<path id="SVGID_5_" d="M17.6,12.1c0.5,1.2,1,2.7,0.9,4.4c-0.1,1.3-0.4,2.7-0.9,3.9c-0.1,0.2,0,0.5,0.2,0.6c0.1,0,0.1,0,0.2,0
					s0.3-0.1,0.3-0.2c0.5-1.3,0.9-2.7,1-4.2c0.1-1.9-0.5-3.5-1-4.8c-0.3-0.7-0.5-1.4-0.5-1.9s0.4-1,0.8-1.1c0.3,0,1.2,0,1.7,2.4
					c0.1,0.2,0.3,0.4,0.4,0.3c0.2-0.1,0.3-0.3,0.3-0.5c-0.3-1.1-0.6-1.9-1.1-2.4C19.5,8.1,19,7.9,18.4,8c-0.8,0.1-1.5,1-1.4,2
					C17,10.6,17.3,11.3,17.6,12.1z"/>
			</defs>
			<clipPath id="SVGID_6_">
				<use xlink:href="#SVGID_5_"  style="overflow:visible;"/>
			</clipPath>
			<g class="st3">
				<g>
					<g>
						<defs>
							<rect id="SVGID_7_" x="-530" y="-389" width="1263" height="1263"/>
						</defs>
						<clipPath id="SVGID_8_">
							<use xlink:href="#SVGID_7_"  style="overflow:visible;"/>
						</clipPath>
						<g class="st4">
							<path d="M12,3h14v23H12V3z"/>
						</g>
					</g>
				</g>
			</g>
		</g>
	</g>
	<g>
		<g>
			<defs>
				<path id="SVGID_9_" d="M22,15.6c0-1.1-0.1-2.2-0.2-3.1c0-0.2-0.2-0.4-0.5-0.4c-0.2,0-0.4,0.2-0.4,0.5c0.1,0.9,0.2,1.9,0.2,3
					c0,2.1-0.4,4-1.3,5.6c-0.7,1.3-1.6,2.4-2.8,3.4c-0.5,0.4-1,0.8-1.5,1c0.2-0.4,0.3-0.9,0.3-1.5c0-0.1,0-0.1,0-0.2
					c0.7-0.5,1.2-1.1,1.7-1.8c0.1-0.2,0.1-0.5-0.1-0.6s-0.4-0.1-0.6,0.1c-0.4,0.5-0.8,0.9-1.2,1.3c-0.4-3-1.9-8.4-2.3-10
					c0.7-0.3,1.4-0.9,1.8-1.8l0.6,0.3c0.2,0.1,0.4,0,0.6-0.2c0.1-0.2,0-0.5-0.2-0.6l-0.7-0.4c0.1-0.3,0.1-0.6,0.1-1l0.7-0.1
					c0.2,0,0.4-0.3,0.3-0.5c0-0.2-0.2-0.4-0.5-0.3l-0.6,0.1c-0.3-1.8-1.6-4-1.9-4.5c0-0.3,0-1,0-1.7C13.4,0.8,13,0,12.4-0.1
					s-1.2,0.4-1.9,1.5c-0.3,0.5-0.5,1-0.6,1.3H6.6C6.5,2.6,6.2,2.1,6,1.6C5.3,0.4,4.7-0.1,4.1,0C3.5,0.2,3.1,0.9,3,2.3
					C3,3,3,3.7,3,4C2.7,4.5,1.4,6.7,1.1,8.5L0.5,8.4C0.3,8.4,0,8.5,0,8.8C0,9,0.1,9.2,0.3,9.3L1,9.4c0,0.4,0.1,0.7,0.1,1l-0.7,0.4
					c-0.2,0.1-0.3,0.4-0.2,0.6c0.1,0.2,0.4,0.3,0.6,0.2l0.6-0.3c0.4,0.9,1.1,1.5,1.8,1.8c-0.1,0.4-0.3,1.1-0.5,2
					c-0.1,0.2,0.1,0.5,0.3,0.5c0.2,0.1,0.4-0.1,0.5-0.3c0.4-1.4,0.6-2.3,0.6-2.4c0.1-0.2-0.1-0.5-0.3-0.5c-1-0.2-2-1.3-2-3
					c0-0.7,0.3-1.8,0.9-3.1c0.5-1,1-1.8,1-1.8c0-0.1,0.1-0.2,0.1-0.3c0,0,0-0.8,0-1.7C3.9,1.3,4.2,1,4.2,1c0.1,0,0.4,0.1,1,1.1
					c0.4,0.7,0.7,1.4,0.7,1.5c0.1,0,0.2,0.1,0.4,0.1h4.1c0.2,0,0.3-0.1,0.4-0.3c0,0,0.3-0.7,0.7-1.4c0.5-1,0.9-1.2,1-1.1
					c0.1,0,0.3,0.3,0.4,1.5c0.1,0.8,0,1.7,0,1.7c0,0.1,0,0.2,0.1,0.3c0,0,0.5,0.8,1,1.8c0.6,1.3,0.9,2.4,0.9,3.1
					c-0.1,1.7-1.1,2.8-2,3c-0.2,0-0.4,0.3-0.3,0.5c0,0.1,2.5,8.7,2.5,11.3c0,0.9-0.3,1.5-0.8,2c-0.5,0.4-1.2,0.7-2.1,0.9
					c0.2-0.9,0.4-2.2,0.6-3.9c0.3-2.7,0.4-5.5,0.4-5.6c0-0.2-0.2-0.4-0.4-0.4s-0.4,0.2-0.4,0.4c0,0-0.1,2.6-0.4,5.2
					c-0.2,1.5-0.3,2.8-0.5,3.7c-0.3,1.3-0.5,1.6-0.6,1.7c-0.1-0.1-0.6-0.7-1-4.8c-0.2-2.4-0.2-4.7-0.2-4.7c0-0.2-0.2-0.4-0.4-0.4
					l0,0c-0.2,0-0.4,0.2-0.4,0.4c0,0,0,2.5,0.2,5c0.1,1.5,0.3,2.6,0.5,3.5v0.1c-0.3,0-0.7,0-1.1,0c-0.4,0-0.8,0-1.1,0v-0.1
					c0.2-0.8,0.4-2,0.5-3.5c0.2-2.5,0.2-5,0.2-5c0-0.2-0.2-0.4-0.4-0.4l0,0c-0.2,0-0.4,0.2-0.4,0.4c0,0,0,2.3-0.2,4.7
					c-0.3,4.1-0.8,4.7-1,4.8c-0.1,0-0.2-0.2-0.4-0.7v-0.1c-0.1-0.2-0.1-0.5-0.2-0.9c-0.2-0.9-0.4-2.2-0.5-3.7
					c-0.3-2.6-0.4-5.2-0.4-5.2c0-0.2-0.2-0.4-0.4-0.4c-0.2,0-0.4,0.2-0.4,0.4c0,0,0.1,2.8,0.4,5.6C4.4,24.7,4.6,26,4.8,27
					c-1-0.2-1.7-0.5-2.1-0.9c-0.6-0.5-0.8-1.1-0.8-2c0-1.2,0.5-3.7,1.4-7.4c0.1-0.2-0.1-0.5-0.3-0.5c-0.2-0.1-0.4,0.1-0.5,0.3
					c-1,3.8-1.5,6.3-1.5,7.6c0,1.1,0.4,2,1.1,2.6c0.6,0.5,1.6,0.9,2.9,1.1C5.1,28.5,5.5,29,6,29s0.8-0.4,1-1c0.4,0,0.9,0,1.4,0
					s1,0,1.4,0c0.2,0.5,0.5,1,1,1s0.8-0.5,1.1-1.1c0.5-0.1,0.9-0.2,1.3-0.3C13.2,27.5,22,25.4,22,15.6z"/>
			</defs>
			<clipPath id="SVGID_10_">
				<use xlink:href="#SVGID_9_"  style="overflow:visible;"/>
			</clipPath>
			<g class="st5">
				<g>
					<g>
						<defs>
							<rect id="SVGID_11_" x="-530" y="-389" width="1263" height="1263"/>
						</defs>
						<clipPath id="SVGID_12_">
							<use xlink:href="#SVGID_11_"  style="overflow:visible;"/>
						</clipPath>
						<g class="st6">
							<path d="M-5-5h32v39H-5V-5z"/>
						</g>
					</g>
				</g>
			</g>
		</g>
	</g>
</g>
</svg>
