<?xml version="1.0" encoding="UTF-8" standalone="no"?>
<!DOCTYPE svg PUBLIC "-//W3C//DTD SVG 1.1//EN" "http://www.w3.org/Graphics/SVG/1.1/DTD/svg11.dtd">
<svg xmlns="http://www.w3.org/2000/svg" xmlns:xlink="http://www.w3.org/1999/xlink" version="1.1" width="29pt" height="29pt" viewBox="0 0 29 29">
<g enable-background="new">
<clipPath id="cp0">
<path transform="matrix(1,0,0,-1,0,29)" d="M 21.3239 18.35545 C 20.88792 18.77109 20.30852 19 19.69231 19 C 19.0761 19 18.49669 18.77109 18.06071 18.35545 L 12.76923 13.31091 L 10.93929 15.05545 C 10.50331 15.47109 9.923904 15.7 9.307692 15.7 C 8.691481 15.7 8.112077 15.47109 7.676269 15.05562 C 7.240173 14.6402 7 14.08778 7 13.5 C 7 12.91221 7.240173 12.35979 7.676096 11.94454 L 11.13763 8.644545 C 11.57362 8.22891 12.15308 8 12.76923 8 C 13.38538 8 13.96485 8.22891 14.40083 8.644545 L 21.32373 15.24438 C 21.75983 15.65979 22 16.21221 22 16.8 C 22 17.38778 21.75983 17.9402 21.3239 18.35545 Z M 20.50802 16.02235 L 13.58494 9.422355 C 13.36687 9.21451 13.07719 9.1 12.76923 9.1 C 12.46127 9.1 12.1716 9.21451 11.95352 9.422355 L 8.491808 12.72252 C 8.273904 12.93014 8.153846 13.20624 8.153846 13.5 C 8.153846 13.79375 8.273904 14.06985 8.491981 14.27764 C 8.710058 14.48549 8.999731 14.6 9.307692 14.6 C 9.615654 14.6 9.905327 14.48549 10.1234 14.27764 L 12.76923 11.75529 L 18.8766 17.57764 C 19.09467 17.78549 19.38435 17.9 19.69231 17.9 C 20.00027 17.9 20.28994 17.78549 20.50819 17.57748 C 20.7261 17.36985 20.84615 17.09375 20.84615 16.8 C 20.84615 16.50624 20.7261 16.23014 20.50802 16.02235 Z " fill-rule="evenodd"/>
</clipPath>
<g clip-path="url(#cp0)">
<clipPath id="cp1">
<path transform="matrix(1,0,0,-1,0,29)" d="M -531 -948 L 732 -948 L 732 315 L -531 315 Z "/>
</clipPath>
<g clip-path="url(#cp1)">
<path transform="matrix(1,0,0,-1,0,29)" d="M 2 24 L 27 24 L 27 3 L 2 3 Z " />
</g>
</g>
<clipPath id="cp2">
<path transform="matrix(1,0,0,-1,0,29)" d="M 27.83179 20.06993 C 27.08702 21.78597 26.0275 23.33792 24.68268 24.68268 C 23.33792 26.02744 21.78597 27.08696 20.06993 27.83179 C 18.2841 28.60697 16.41009 29 14.5 29 C 12.58991 29 10.7159 28.60697 8.930074 27.83179 C 7.214033 27.08696 5.66208 26.02744 4.317318 24.68268 C 2.972557 23.33792 1.913037 21.78597 1.168213 20.06993 C .3930293 18.2841 0 16.41009 0 14.5 C 0 12.58991 .3930293 10.7159 1.168213 8.930074 C 1.913037 7.214033 2.972557 5.66208 4.317318 4.317318 C 5.66208 2.972557 7.214033 1.913037 8.930074 1.168213 C 10.7159 .3930293 12.58991 0 14.5 0 C 16.41009 0 18.2841 .3930293 20.06993 1.168213 C 21.78597 1.913037 23.33792 2.972557 24.68268 4.317318 C 26.02744 5.66208 27.08696 7.214033 27.83179 8.930074 C 28.60697 10.7159 29 12.58991 29 14.5 C 29 16.41009 28.60697 18.2841 27.83179 20.06993 Z M 14.5 1.132812 C 7.254248 1.132812 1.132813 7.254248 1.132813 14.5 C 1.132813 21.74575 7.254248 27.86719 14.5 27.86719 C 21.74575 27.86719 27.86719 21.74575 27.86719 14.5 C 27.86719 7.254248 21.74575 1.132812 14.5 1.132812 Z " fill-rule="evenodd"/>
</clipPath>
<g clip-path="url(#cp2)">
<clipPath id="cp3">
<path transform="matrix(1,0,0,-1,0,29)" d="M -531 -948 L 732 -948 L 732 315 L -531 315 Z "/>
</clipPath>
<g clip-path="url(#cp3)">
<path transform="matrix(1,0,0,-1,0,29)" d="M -5 34 L 34 34 L 34 -5 L -5 -5 Z " />
</g>
</g>
<clipPath id="cp4">
<path transform="matrix(1,0,0,-1,0,29)" d="M 25.67761 19.18812 C 25.05763 20.62862 24.17397 21.92836 23.05117 23.05111 C 21.92836 24.17397 20.62868 25.05757 19.18812 25.67761 C 17.69105 26.32195 16.11372 26.64865 14.5 26.64865 C 12.30628 26.64865 10.01954 25.89954 7.886972 24.48237 C 7.624606 24.30801 7.553254 23.95399 7.727613 23.69168 C 7.901972 23.42931 8.256051 23.35802 8.518302 23.53232 C 10.46323 24.82475 12.53163 25.50793 14.5 25.50793 C 20.46693 25.50793 25.50793 20.46693 25.50793 14.5 C 25.50793 8.533074 20.46693 3.49207 14.5 3.49207 C 8.533074 3.49207 3.49207 8.533074 3.49207 14.5 C 3.49207 16.46797 4.175075 18.53649 5.467166 20.48176 C 5.641468 20.74418 5.570059 21.09814 5.307694 21.27244 C 5.045214 21.44675 4.69125 21.37528 4.517005 21.11291 C 3.100233 18.97994 2.351351 16.69326 2.351351 14.5 C 2.351351 12.88628 2.678053 11.30895 3.322388 9.811876 C 3.942368 8.371377 4.826025 7.071643 5.948834 5.948891 C 7.071643 4.826082 8.37132 3.942425 9.811819 3.322445 C 11.30895 2.678053 12.88628 2.351351 14.5 2.351351 C 16.11372 2.351351 17.69105 2.678053 19.18812 3.322388 C 20.62862 3.942368 21.92836 4.826025 23.05111 5.948834 C 24.17392 7.071643 25.05757 8.37132 25.67756 9.811819 C 26.32195 11.30895 26.64865 12.88628 26.64865 14.5 C 26.64865 16.11372 26.32195 17.69105 25.67761 19.18812 Z " fill-rule="evenodd"/>
</clipPath>
<g clip-path="url(#cp4)">
<clipPath id="cp5">
<path transform="matrix(1,0,0,-1,0,29)" d="M -531 -948 L 732 -948 L 732 315 L -531 315 Z "/>
</clipPath>
<g clip-path="url(#cp5)">
<path transform="matrix(1,0,0,-1,0,29)" d="M -2.648649 31.64865 L 31.64865 31.64865 L 31.64865 -2.648649 L -2.648649 -2.648649 Z " />
</g>
</g>
<clipPath id="cp6">
<path transform="matrix(1,0,0,-1,0,29)" d="M 6.662162 22.72973 C 6.445838 22.72973 6.27027 22.55416 6.27027 22.33784 C 6.27027 22.12151 6.445838 21.94595 6.662162 21.94595 C 6.878486 21.94595 7.054054 22.12151 7.054054 22.33784 C 7.054054 22.55416 6.878486 22.72973 6.662162 22.72973 Z " fill-rule="evenodd"/>
</clipPath>
<g clip-path="url(#cp6)">
<clipPath id="cp7">
<path transform="matrix(1,0,0,-1,0,29)" d="M -531 -948 L 732 -948 L 732 315 L -531 315 Z "/>
</clipPath>
<g clip-path="url(#cp7)">
<path transform="matrix(1,0,0,-1,0,29)" d="M 1.27027 27.72973 L 12.05405 27.72973 L 12.05405 16.94595 L 1.27027 16.94595 Z " />
</g>
</g>
</g>
</svg>
