<?xml version="1.0" encoding="utf-8"?>
<!-- Generator: Adobe Illustrator 25.2.0, SVG Export Plug-In . SVG Version: 6.00 Build 0)  -->
<svg version="1.1" id="Capa_1" xmlns="http://www.w3.org/2000/svg" xmlns:xlink="http://www.w3.org/1999/xlink" x="0px" y="0px"
	 viewBox="0 0 29 29" style="enable-background:new 0 0 29 29;" xml:space="preserve">
<style type="text/css">
	.st0{enable-background:new    ;}
	.st1{clip-path:url(#SVGID_2_);}
	.st2{clip-path:url(#SVGID_4_);}
	.st3{clip-path:url(#SVGID_6_);}
	.st4{clip-path:url(#SVGID_8_);}
	.st5{clip-path:url(#SVGID_10_);}
	.st6{clip-path:url(#SVGID_12_);}
	.st7{clip-path:url(#SVGID_14_);}
	.st8{clip-path:url(#SVGID_16_);}
</style>
<g class="st0">
	<g>
		<defs>
			<path id="SVGID_1_" d="M21.3,10.6c-0.4-0.4-1-0.6-1.6-0.6c-0.6,0-1.2,0.2-1.6,0.6l-5.3,5l-1.8-1.7c-0.4-0.4-1-0.6-1.6-0.6
				c-0.6,0-1.2,0.2-1.6,0.6c-0.4,0.4-0.7,1-0.7,1.6c0,0.6,0.2,1.1,0.7,1.6l3.5,3.3c0.4,0.4,1,0.6,1.6,0.6s1.2-0.2,1.6-0.6l6.9-6.6
				c0.4-0.4,0.7-1,0.7-1.6C22,11.6,21.8,11.1,21.3,10.6z M20.5,13l-6.9,6.6c-0.2,0.2-0.5,0.3-0.8,0.3c-0.3,0-0.6-0.1-0.8-0.3
				l-3.5-3.3c-0.2-0.2-0.3-0.5-0.3-0.8c0-0.3,0.1-0.6,0.3-0.8c0.2-0.2,0.5-0.3,0.8-0.3c0.3,0,0.6,0.1,0.8,0.3l2.6,2.5l6.1-5.8
				c0.2-0.2,0.5-0.3,0.8-0.3s0.6,0.1,0.8,0.3c0.2,0.2,0.3,0.5,0.3,0.8C20.8,12.5,20.7,12.8,20.5,13z"/>
		</defs>
		<clipPath id="SVGID_2_">
			<use xlink:href="#SVGID_1_"  style="overflow:visible;"/>
		</clipPath>
		<g class="st1">
			<g>
				<defs>
					<rect id="SVGID_3_" x="-531" y="-286" width="1263" height="1263"/>
				</defs>
				<clipPath id="SVGID_4_">
					<use xlink:href="#SVGID_3_"  style="overflow:visible;"/>
				</clipPath>
				<g class="st2">
					<path d="M2,5h25v21H2V5z"/>
				</g>
			</g>
		</g>
	</g>
	<g>
		<defs>
			<path id="SVGID_5_" d="M27.8,8.9c-0.7-1.7-1.8-3.3-3.1-4.6c-1.3-1.3-2.9-2.4-4.6-3.1C18.3,0.4,16.4,0,14.5,0s-3.8,0.4-5.6,1.2
				C7.2,1.9,5.7,3,4.3,4.3C3,5.7,1.9,7.2,1.2,8.9C0.4,10.7,0,12.6,0,14.5s0.4,3.8,1.2,5.6c0.7,1.7,1.8,3.3,3.1,4.6s2.9,2.4,4.6,3.1
				c1.8,0.8,3.7,1.2,5.6,1.2s3.8-0.4,5.6-1.2c1.7-0.7,3.3-1.8,4.6-3.1c1.3-1.3,2.4-2.9,3.1-4.6c0.8-1.8,1.2-3.7,1.2-5.6
				S28.6,10.7,27.8,8.9z M14.5,27.9c-7.2,0-13.4-6.1-13.4-13.4S7.3,1.1,14.5,1.1s13.4,6.1,13.4,13.4S21.7,27.9,14.5,27.9z"/>
		</defs>
		<clipPath id="SVGID_6_">
			<use xlink:href="#SVGID_5_"  style="overflow:visible;"/>
		</clipPath>
		<g class="st3">
			<g>
				<defs>
					<rect id="SVGID_7_" x="-531" y="-286" width="1263" height="1263"/>
				</defs>
				<clipPath id="SVGID_8_">
					<use xlink:href="#SVGID_7_"  style="overflow:visible;"/>
				</clipPath>
				<g class="st4">
					<path d="M-5-5h39v39H-5V-5z"/>
				</g>
			</g>
		</g>
	</g>
	<g>
		<defs>
			<path id="SVGID_9_" d="M25.7,9.8c-0.6-1.4-1.5-2.7-2.6-3.9c-1.1-1.1-2.4-2-3.9-2.6c-1.5-0.6-3.1-1-4.7-1c-2.2,0-4.5,0.7-6.6,2.2
				C7.6,4.7,7.6,5,7.7,5.3c0.2,0.3,0.5,0.3,0.8,0.2c1.9-1.3,4-2,6-2c6,0,11,5,11,11s-5,11-11,11s-11-5-11-11c0-2,0.7-4,2-6
				c0.2-0.3,0.1-0.6-0.2-0.8C5,7.6,4.7,7.6,4.5,7.9c-1.4,2.1-2.2,4.4-2.2,6.6c0,1.6,0.3,3.2,1,4.7c0.6,1.4,1.5,2.7,2.6,3.9
				c1.1,1.1,2.4,2,3.9,2.6c1.5,0.6,3.1,1,4.7,1s3.2-0.3,4.7-1c1.4-0.6,2.7-1.5,3.9-2.6c1.1-1.1,2-2.4,2.6-3.9c0.6-1.5,1-3.1,1-4.7
				S26.3,11.3,25.7,9.8z"/>
		</defs>
		<clipPath id="SVGID_10_">
			<use xlink:href="#SVGID_9_"  style="overflow:visible;"/>
		</clipPath>
		<g class="st5">
			<g>
				<defs>
					<rect id="SVGID_11_" x="-531" y="-286" width="1263" height="1263"/>
				</defs>
				<clipPath id="SVGID_12_">
					<use xlink:href="#SVGID_11_"  style="overflow:visible;"/>
				</clipPath>
				<g class="st6">
					<path d="M-2.6-2.6h34.3v34.3H-2.6V-2.6z"/>
				</g>
			</g>
		</g>
	</g>
	<g>
		<defs>
			<circle id="SVGID_13_" cx="6.7" cy="6.7" r="0.4"/>
		</defs>
		<clipPath id="SVGID_14_">
			<use xlink:href="#SVGID_13_"  style="overflow:visible;"/>
		</clipPath>
		<g class="st7">
			<g>
				<defs>
					<rect id="SVGID_15_" x="-531" y="-286" width="1263" height="1263"/>
				</defs>
				<clipPath id="SVGID_16_">
					<use xlink:href="#SVGID_15_"  style="overflow:visible;"/>
				</clipPath>
				<g class="st8">
					<path d="M1.3,1.3h10.8v10.8H1.3V1.3z"/>
				</g>
			</g>
		</g>
	</g>
</g>
</svg>
