<?xml version="1.0" encoding="utf-8"?>
<!-- Generator: Adobe Illustrator 25.2.0, SVG Export Plug-In . SVG Version: 6.00 Build 0)  -->
<svg version="1.1" id="Capa_1" xmlns="http://www.w3.org/2000/svg" xmlns:xlink="http://www.w3.org/1999/xlink" x="0px" y="0px"
	 viewBox="0 0 24 24" style="enable-background:new 0 0 24 24;" xml:space="preserve">
<style type="text/css">
	.st0{enable-background:new    ;}
	.st1{clip-path:url(#SVGID_2_);}
	.st2{clip-path:url(#SVGID_4_);}
	.st3{clip-path:url(#SVGID_6_);}
	.st4{clip-path:url(#SVGID_8_);}
	.st5{clip-path:url(#SVGID_10_);}
	.st6{clip-path:url(#SVGID_12_);}
	.st7{clip-path:url(#SVGID_14_);}
	.st8{clip-path:url(#SVGID_16_);}
	.st9{clip-path:url(#SVGID_18_);}
	.st10{clip-path:url(#SVGID_20_);}
	.st11{clip-path:url(#SVGID_22_);}
	.st12{clip-path:url(#SVGID_24_);}
</style>
<g class="st0">
	<g>
		<defs>
			<path id="SVGID_1_" d="M4.2,18.6c-0.3,0-0.7,0.1-0.9,0.2c-1.5-1.9-2.3-4.3-2.3-6.8c0-6.1,5-11.1,11.1-11.1c0.7,0,1.5,0.1,2.2,0.2
				c0.3,0.1,0.5-0.1,0.6-0.4c0.1-0.3-0.1-0.5-0.4-0.6C13.6,0.1,12.8,0,12,0C8.8,0,5.8,1.2,3.5,3.5S0,8.8,0,12c0,2.7,0.9,5.3,2.6,7.4
				c-0.2,0.3-0.3,0.7-0.3,1.1c0,0.5,0.2,1,0.6,1.4c0.4,0.4,0.9,0.6,1.4,0.6s1-0.2,1.4-0.6c0.4-0.4,0.6-0.9,0.6-1.4
				c0-0.5-0.2-1-0.6-1.4C5.2,18.8,4.7,18.6,4.2,18.6z M5,21.3c-0.2,0.2-0.5,0.3-0.7,0.3c-0.3,0-0.5-0.1-0.7-0.3
				c-0.2-0.2-0.3-0.5-0.3-0.7c0-0.3,0.1-0.5,0.3-0.7c0.2-0.2,0.5-0.3,0.7-0.3c0.3,0,0.5,0.1,0.7,0.3c0.2,0.2,0.3,0.5,0.3,0.7
				C5.3,20.8,5.1,21.1,5,21.3z"/>
		</defs>
		<clipPath id="SVGID_2_">
			<use xlink:href="#SVGID_1_"  style="overflow:visible;"/>
		</clipPath>
		<g class="st1">
			<g>
				<defs>
					<rect id="SVGID_3_" x="-300" y="-171" width="1263" height="1263"/>
				</defs>
				<clipPath id="SVGID_4_">
					<use xlink:href="#SVGID_3_"  style="overflow:visible;"/>
				</clipPath>
				<g class="st2">
					<path d="M-5-5h24.8v32.5H-5V-5z"/>
				</g>
			</g>
		</g>
	</g>
	<g>
		<defs>
			<path id="SVGID_5_" d="M21.4,4.6c0.5-0.8,0.4-1.8-0.2-2.5c-0.4-0.4-0.9-0.6-1.4-0.6c-0.5,0-1,0.2-1.4,0.6
				c-0.4,0.4-0.6,0.9-0.6,1.4c0,0.5,0.2,1,0.6,1.4c0.4,0.4,0.9,0.6,1.4,0.6c0.3,0,0.7-0.1,0.9-0.2c1.5,1.9,2.3,4.3,2.3,6.8
				c0,6.1-5,11.1-11.1,11.1c-0.7,0-1.5-0.1-2.2-0.2c-0.3-0.1-0.5,0.1-0.6,0.4c-0.1,0.3,0.1,0.5,0.4,0.6c0.8,0.2,1.6,0.2,2.4,0.2
				c3.2,0,6.2-1.2,8.5-3.5S24,15.2,24,12C24,9.3,23.1,6.7,21.4,4.6z M19,4.2c-0.2-0.2-0.3-0.5-0.3-0.7c0-0.3,0.1-0.5,0.3-0.7
				c0.2-0.2,0.5-0.3,0.7-0.3c0.3,0,0.5,0.1,0.7,0.3c0.4,0.4,0.4,1.1,0,1.5c-0.2,0.2-0.5,0.3-0.7,0.3C19.5,4.5,19.2,4.4,19,4.2z"/>
		</defs>
		<clipPath id="SVGID_6_">
			<use xlink:href="#SVGID_5_"  style="overflow:visible;"/>
		</clipPath>
		<g class="st3">
			<g>
				<defs>
					<rect id="SVGID_7_" x="-300" y="-171" width="1263" height="1263"/>
				</defs>
				<clipPath id="SVGID_8_">
					<use xlink:href="#SVGID_7_"  style="overflow:visible;"/>
				</clipPath>
				<g class="st4">
					<path d="M4.3-3.5H29V29H4.3V-3.5z"/>
				</g>
			</g>
		</g>
	</g>
	<g>
		<defs>
			<path id="SVGID_9_" d="M10.1,20.1c0,0.3,0.2,0.5,0.5,0.5h2.9c0.3,0,0.5-0.2,0.5-0.5v-0.9c0.6-0.2,1.2-0.4,1.8-0.7l0.6,0.6
				c0.1,0.1,0.2,0.1,0.3,0.1c0.1,0,0.2,0,0.3-0.1l2.1-2.1c0.2-0.2,0.2-0.5,0-0.7l-0.6-0.6c0.3-0.6,0.6-1.1,0.7-1.8h0.9
				c0.3,0,0.5-0.2,0.5-0.5v-2.9c0-0.3-0.2-0.5-0.5-0.5h-0.9c-0.2-0.6-0.4-1.2-0.7-1.8l0.6-0.6c0.1-0.1,0.1-0.2,0.1-0.3
				c0-0.1,0-0.2-0.1-0.3L17,4.9c-0.2-0.2-0.5-0.2-0.7,0l-0.6,0.6c-0.6-0.3-1.1-0.6-1.8-0.7V3.9c0-0.3-0.2-0.5-0.5-0.5h-2.9
				c-0.3,0-0.5,0.2-0.5,0.5v0.9C9.4,5,8.9,5.2,8.3,5.6L7.7,4.9C7.5,4.7,7.2,4.7,7,4.9L4.9,7C4.8,7.1,4.8,7.2,4.8,7.3
				c0,0.1,0,0.2,0.1,0.3l0.6,0.6C5.3,8.9,5,9.4,4.8,10.1H3.9c-0.3,0-0.5,0.2-0.5,0.5l0,2.9c0,0.1,0,0.2,0.1,0.3
				c0.1,0.1,0.2,0.1,0.3,0.1h0.9c0.2,0.6,0.4,1.2,0.7,1.8l-0.6,0.6c-0.2,0.2-0.2,0.5,0,0.7L7,19.1c0.1,0.1,0.2,0.1,0.3,0.1h0
				c0.1,0,0.2,0,0.3-0.1l0.6-0.6c0.6,0.3,1.1,0.6,1.8,0.7V20.1z M8.5,17.4c-0.2-0.1-0.4-0.1-0.6,0.1l-0.6,0.6l-1.4-1.4l0.6-0.6
				c0.2-0.2,0.2-0.4,0.1-0.6c-0.4-0.7-0.7-1.4-0.9-2.1c0-0.2-0.2-0.4-0.5-0.4H4.4l0-2h0.8c0.2,0,0.4-0.2,0.5-0.4
				c0.2-0.8,0.5-1.5,0.9-2.1c0.1-0.2,0.1-0.4-0.1-0.6L5.9,7.3l1.4-1.4l0.6,0.6c0.2,0.2,0.4,0.2,0.6,0.1c0.7-0.4,1.4-0.7,2.1-0.9
				c0.2,0,0.4-0.2,0.4-0.5V4.4h2v0.8c0,0.2,0.2,0.4,0.4,0.5c0.8,0.2,1.5,0.5,2.1,0.9c0.2,0.1,0.4,0.1,0.6-0.1l0.6-0.6l1.4,1.4
				l-0.6,0.6c-0.2,0.2-0.2,0.4-0.1,0.6c0.4,0.7,0.7,1.4,0.9,2.1c0,0.2,0.2,0.4,0.5,0.4h0.8v2h-0.8c-0.2,0-0.4,0.2-0.5,0.4
				c-0.2,0.8-0.5,1.5-0.9,2.1c-0.1,0.2-0.1,0.4,0.1,0.6l0.6,0.6l-1.4,1.4l-0.6-0.6c-0.2-0.2-0.4-0.2-0.6-0.1
				c-0.7,0.4-1.4,0.7-2.1,0.9c-0.2,0-0.4,0.2-0.4,0.5v0.8h-2v-0.8c0-0.2-0.2-0.4-0.4-0.5C9.9,18.2,9.1,17.9,8.5,17.4z"/>
		</defs>
		<clipPath id="SVGID_10_">
			<use xlink:href="#SVGID_9_"  style="overflow:visible;"/>
		</clipPath>
		<g class="st5">
			<g>
				<defs>
					<rect id="SVGID_11_" x="-300" y="-171" width="1263" height="1263"/>
				</defs>
				<clipPath id="SVGID_12_">
					<use xlink:href="#SVGID_11_"  style="overflow:visible;"/>
				</clipPath>
				<g class="st6">
					<path d="M-1.5-1.5h27.1v27.1H-1.5V-1.5z"/>
				</g>
			</g>
		</g>
	</g>
	<g>
		<defs>
			<path id="SVGID_13_" d="M15.9,12c0-2.1-1.7-3.9-3.9-3.9S8.1,9.9,8.1,12s1.7,3.9,3.9,3.9S15.9,14.1,15.9,12z M9.1,12
				c0-1.6,1.3-2.9,2.9-2.9s2.9,1.3,2.9,2.9s-1.3,2.9-2.9,2.9S9.1,13.6,9.1,12z"/>
		</defs>
		<clipPath id="SVGID_14_">
			<use xlink:href="#SVGID_13_"  style="overflow:visible;"/>
		</clipPath>
		<g class="st7">
			<g>
				<defs>
					<rect id="SVGID_15_" x="-300" y="-171" width="1263" height="1263"/>
				</defs>
				<clipPath id="SVGID_16_">
					<use xlink:href="#SVGID_15_"  style="overflow:visible;"/>
				</clipPath>
				<g class="st8">
					<path d="M3.1,3.1h17.7v17.7H3.1V3.1z"/>
				</g>
			</g>
		</g>
	</g>
	<g>
		<defs>
			<path id="SVGID_17_" d="M16.3,1.8c0.1,0,0.2-0.1,0.3-0.1c0.1-0.1,0.1-0.2,0.1-0.3c0-0.1,0-0.2-0.1-0.3c-0.1-0.1-0.2-0.1-0.3-0.1
				c-0.1,0-0.2,0.1-0.3,0.1c-0.1,0.1-0.1,0.2-0.1,0.3c0,0.1,0.1,0.2,0.1,0.3C16.1,1.7,16.2,1.8,16.3,1.8z"/>
		</defs>
		<clipPath id="SVGID_18_">
			<use xlink:href="#SVGID_17_"  style="overflow:visible;"/>
		</clipPath>
		<g class="st9">
			<g>
				<defs>
					<rect id="SVGID_19_" x="-300" y="-171" width="1263" height="1263"/>
				</defs>
				<clipPath id="SVGID_20_">
					<use xlink:href="#SVGID_19_"  style="overflow:visible;"/>
				</clipPath>
				<g class="st10">
					<path d="M10.8-4.2h10.9V6.8H10.8V-4.2z"/>
				</g>
			</g>
		</g>
	</g>
	<g>
		<defs>
			<path id="SVGID_21_" d="M7.7,22.2c-0.1,0-0.2,0.1-0.3,0.1c-0.1,0.1-0.1,0.2-0.1,0.3c0,0.1,0.1,0.2,0.1,0.3
				c0.1,0.1,0.2,0.1,0.3,0.1S7.9,23.1,8,23c0.1-0.1,0.1-0.2,0.1-0.3S8.1,22.5,8,22.4C7.9,22.3,7.8,22.2,7.7,22.2z"/>
		</defs>
		<clipPath id="SVGID_22_">
			<use xlink:href="#SVGID_21_"  style="overflow:visible;"/>
		</clipPath>
		<g class="st11">
			<g>
				<defs>
					<rect id="SVGID_23_" x="-300" y="-171" width="1263" height="1263"/>
				</defs>
				<clipPath id="SVGID_24_">
					<use xlink:href="#SVGID_23_"  style="overflow:visible;"/>
				</clipPath>
				<g class="st12">
					<path d="M2.2,17.2h10.9v10.9H2.2V17.2z"/>
				</g>
			</g>
		</g>
	</g>
</g>
</svg>
