<?xml version="1.0" encoding="UTF-8" standalone="no"?>
<!DOCTYPE svg PUBLIC "-//W3C//DTD SVG 1.1//EN" "http://www.w3.org/Graphics/SVG/1.1/DTD/svg11.dtd">
<svg xmlns="http://www.w3.org/2000/svg" xmlns:xlink="http://www.w3.org/1999/xlink" version="1.1" width="24pt" height="24pt" viewBox="0 0 24 24">
<g enable-background="new">
<clipPath id="cp0">
<path transform="matrix(1,0,0,-1,0,24)" d="M 4.22113 5.43988 C 3.885132 5.43988 3.562134 5.356018 3.275574 5.198547 C 1.766052 7.133606 .9375 9.537415 .9375 12 C .9375 18.09998 5.900024 23.0625 12 23.0625 C 12.74158 23.0625 13.48279 22.98871 14.20312 22.84314 C 14.45654 22.79187 14.7041 22.95593 14.75537 23.20972 C 14.80664 23.4635 14.64258 23.71069 14.38879 23.76215 C 13.60748 23.91998 12.80383 24 12 24 C 8.794739 24 5.781189 22.75177 3.514709 20.48529 C 1.24823 18.21881 0 15.20526 0 12 C 0 9.303772 .9155273 6.672546 2.582336 4.563171 C 2.367737 4.242554 2.25238 3.865723 2.25238 3.47113 C 2.25238 2.945251 2.457275 2.450867 2.829163 2.079163 C 3.200867 1.707275 3.695251 1.50238 4.22113 1.50238 C 4.747009 1.50238 5.241394 1.707275 5.613281 2.079163 C 5.985168 2.450867 6.18988 2.945435 6.18988 3.471314 C 6.18988 3.997009 5.985168 4.491577 5.613281 4.863281 C 5.241394 5.235168 4.747009 5.43988 4.22113 5.43988 Z M 4.950256 2.742004 C 4.755615 2.54718 4.496521 2.43988 4.22113 2.43988 C 3.94574 2.43988 3.686829 2.54718 3.492004 2.742004 C 3.29718 2.936829 3.18988 3.19574 3.18988 3.47113 C 3.18988 3.746704 3.29718 4.005615 3.492004 4.200439 C 3.686646 4.395264 3.94574 4.50238 4.22113 4.50238 C 4.496521 4.50238 4.755432 4.395081 4.950256 4.200439 C 5.145081 4.005615 5.25238 3.746704 5.25238 3.47113 C 5.25238 3.19574 5.145081 2.936829 4.950256 2.742004 Z " fill-rule="evenodd"/>
</clipPath>
<g clip-path="url(#cp0)">
<clipPath id="cp1">
<path transform="matrix(1,0,0,-1,0,24)" d="M -300 -1068 L 963 -1068 L 963 195 L -300 195 Z "/>
</clipPath>
<g clip-path="url(#cp1)">
<path transform="matrix(1,0,0,-1,0,24)" d="M -5 29 L 19.76475 29 L 19.76475 -3.49762 L -5 -3.49762 Z " />
</g>
</g>
<clipPath id="cp2">
<path transform="matrix(1,0,0,-1,0,24)" d="M 21.4173 19.43738 C 21.92688 20.20184 21.84503 21.24701 21.17102 21.92102 C 20.79913 22.29272 20.30475 22.49762 19.77887 22.49762 C 19.25299 22.49762 18.75861 22.29272 18.38672 21.92102 C 18.01483 21.54913 17.81012 21.05475 17.81012 20.52887 C 17.81012 20.00299 18.01483 19.50861 18.38672 19.13672 C 18.75861 18.76483 19.25299 18.56012 19.77887 18.56012 C 20.11487 18.56012 20.43787 18.64398 20.72443 18.80145 C 22.23395 16.86621 23.0625 14.46259 23.0625 12 C 23.0625 5.900024 18.09998 .9375 12 .9375 C 11.26575 .9375 10.53149 1.009827 9.817932 1.152649 C 9.564148 1.203369 9.317139 1.038757 9.266235 .7849732 C 9.215515 .5310059 9.380127 .2841797 9.633911 .2332763 C 10.4079 .07855223 11.20404 0 12 0 C 15.20526 0 18.21881 1.24823 20.48529 3.514709 C 22.75177 5.781189 24 8.794739 24 12 C 24 14.69641 23.08429 17.32782 21.4173 19.43738 Z M 19.04974 19.79956 C 18.85492 19.99438 18.74762 20.2533 18.74762 20.52887 C 18.74762 20.80426 18.85492 21.06317 19.04974 21.258 C 19.24438 21.45282 19.50348 21.56012 19.77887 21.56012 C 20.05426 21.56012 20.31335 21.45282 20.50818 21.258 C 20.9101 20.8559 20.9101 20.20166 20.50818 19.79956 C 20.31335 19.60492 20.05426 19.49762 19.77887 19.49762 C 19.5033 19.49762 19.24438 19.60492 19.04974 19.79956 Z " fill-rule="evenodd"/>
</clipPath>
<g clip-path="url(#cp2)">
<clipPath id="cp3">
<path transform="matrix(1,0,0,-1,0,24)" d="M -300 -1068 L 963 -1068 L 963 195 L -300 195 Z "/>
</clipPath>
<g clip-path="url(#cp3)">
<path transform="matrix(1,0,0,-1,0,24)" d="M 4.257058 27.49762 L 29 27.49762 L 29 -5 L 4.257058 -5 Z " />
</g>
</g>
<clipPath id="cp4">
<path transform="matrix(1,0,0,-1,0,24)" d="M 10.06567 3.9375 C 10.06567 3.678589 10.2757 3.46875 10.53442 3.46875 L 13.46539 3.46875 C 13.7243 3.46875 13.93414 3.678589 13.93414 3.9375 L 13.93414 4.846252 C 14.55048 5.012146 15.13971 5.256409 15.69342 5.575378 L 16.33502 4.933777 C 16.42291 4.845886 16.54211 4.796448 16.66663 4.796448 C 16.79077 4.796448 16.91016 4.845886 16.99805 4.93396 L 19.0697 7.00708 C 19.25262 7.190186 19.25262 7.486999 19.0697 7.669922 L 18.42883 8.310791 C 18.7478 8.864502 18.99207 9.453735 19.15796 10.07007 L 20.06323 10.07007 C 20.32214 10.07007 20.53198 10.27991 20.53198 10.53882 L 20.53198 13.46979 C 20.53198 13.7287 20.32214 13.93854 20.06323 13.93854 L 19.15778 13.93854 C 18.99188 14.55469 18.7478 15.14392 18.42883 15.69763 L 19.06622 16.33502 C 19.15411 16.42291 19.20355 16.5423 19.20355 16.66663 C 19.20337 16.79095 19.15393 16.91034 19.06604 16.99823 L 16.99274 19.06989 C 16.80981 19.25281 16.513 19.25281 16.3299 19.0697 L 15.69342 18.43304 C 15.13971 18.75201 14.55048 18.99628 13.93414 19.16217 L 13.93414 20.0625 C 13.93414 20.32141 13.7243 20.53125 13.46539 20.53125 L 10.53442 20.53125 C 10.2757 20.53125 10.06567 20.32141 10.06567 20.0625 L 10.06567 19.16199 C 9.449524 18.99628 8.860291 18.75201 8.30658 18.43304 L 7.669922 19.0697 C 7.487 19.25262 7.190186 19.25281 7.00708 19.06989 L 4.93396 16.99805 C 4.845886 16.91016 4.796448 16.79095 4.796448 16.66663 C 4.796448 16.5423 4.845886 16.42291 4.933777 16.33502 L 5.571167 15.69763 C 5.252197 15.14392 5.007935 14.55487 4.842041 13.93854 L 3.938416 13.93854 C 3.679504 13.93854 3.469666 13.7287 3.469666 13.46997 L 3.468017 10.539 C 3.467834 10.41467 3.517273 10.29529 3.605164 10.2074 C 3.693054 10.11951 3.812256 10.07007 3.936768 10.07007 L 4.842041 10.07007 C 5.007935 9.453735 5.252197 8.864502 5.571167 8.310791 L 4.930298 7.669922 C 4.747376 7.486999 4.747192 7.190186 4.930298 7.00708 L 7.001953 4.93396 C 7.089844 4.846069 7.209045 4.796448 7.333374 4.796448 L 7.333557 4.796448 C 7.457886 4.796448 7.577087 4.845886 7.664978 4.933777 L 8.306396 5.575378 C 8.860291 5.256409 9.449524 5.012146 10.06567 4.846252 L 10.06567 3.9375 Z M 8.490234 6.561218 C 8.304749 6.681152 8.060669 6.655151 7.904297 6.498962 L 7.333557 5.928223 L 5.924561 7.338318 L 6.494751 7.908691 C 6.65094 8.06488 6.676941 8.30896 6.557007 8.494446 C 6.132019 9.152161 5.833191 9.873047 5.669128 10.63733 C 5.62262 10.85321 5.431824 11.00757 5.210815 11.00757 L 4.405701 11.00757 L 4.406799 13.00104 L 5.210815 13.00104 C 5.431824 13.00104 5.62262 13.15521 5.669128 13.37128 C 5.833191 14.13538 6.132019 14.85626 6.557007 15.51398 C 6.676941 15.69946 6.65094 15.94354 6.494751 16.09973 L 5.928223 16.66644 L 7.338318 18.07544 L 7.904297 17.50928 C 8.060669 17.35309 8.304565 17.32727 8.490234 17.44702 C 9.147766 17.87201 9.868652 18.17084 10.63293 18.3349 C 10.84882 18.38141 11.00317 18.57239 11.00317 18.79321 L 11.00317 19.59375 L 12.99664 19.59375 L 12.99664 18.7934 C 12.99664 18.57239 13.15082 18.38141 13.36688 18.33508 C 14.13098 18.17084 14.85205 17.87219 15.50958 17.4472 C 15.69507 17.32727 15.93915 17.35309 16.09534 17.50946 L 16.6615 18.07544 L 18.07159 16.66644 L 17.50507 16.09991 C 17.34869 15.94354 17.32288 15.69946 17.44281 15.51398 C 17.8678 14.85626 18.16644 14.13538 18.33069 13.37128 C 18.37701 13.15521 18.56799 13.00104 18.789 13.00104 L 19.59448 13.00104 L 19.59448 11.00757 L 18.789 11.00757 C 18.56799 11.00757 18.3772 10.85321 18.33069 10.63733 C 18.16663 9.87323 17.8678 9.152161 17.44281 8.494629 C 17.32288 8.30896 17.34888 8.06488 17.50507 7.908691 L 18.07526 7.338501 L 16.66626 5.928406 L 16.09552 6.498962 C 15.93915 6.655334 15.69507 6.681152 15.50958 6.561218 C 14.85187 6.13623 14.13098 5.837585 13.36688 5.67334 C 13.15082 5.626831 12.99664 5.436035 12.99664 5.215027 L 12.99664 4.40625 L 11.00317 4.40625 L 11.00317 5.215027 C 11.00317 5.435852 10.84882 5.626831 10.63293 5.67334 C 9.868835 5.837402 9.147949 6.13623 8.490234 6.561218 Z " fill-rule="evenodd"/>
</clipPath>
<g clip-path="url(#cp4)">
<clipPath id="cp5">
<path transform="matrix(1,0,0,-1,0,24)" d="M -300 -1068 L 963 -1068 L 963 195 L -300 195 Z "/>
</clipPath>
<g clip-path="url(#cp5)">
<path transform="matrix(1,0,0,-1,0,24)" d="M -1.531983 25.53125 L 25.53198 25.53125 L 25.53198 -1.53125 L -1.531983 -1.53125 Z " />
</g>
</g>
<clipPath id="cp6">
<path transform="matrix(1,0,0,-1,0,24)" d="M 15.87323 12 C 15.87323 14.13574 14.13574 15.87323 12 15.87323 C 9.864258 15.87323 8.12677 14.13574 8.12677 12 C 8.12677 9.864258 9.864258 8.12677 12 8.12677 C 14.13574 8.12677 15.87323 9.864258 15.87323 12 Z M 9.06427 12 C 9.06427 13.61884 10.38116 14.93573 12 14.93573 C 13.61884 14.93573 14.93573 13.61865 14.93573 12 C 14.93573 10.38135 13.61884 9.06427 12 9.06427 C 10.38116 9.06427 9.06427 10.38116 9.06427 12 Z " fill-rule="evenodd"/>
</clipPath>
<g clip-path="url(#cp6)">
<clipPath id="cp7">
<path transform="matrix(1,0,0,-1,0,24)" d="M -300 -1068 L 963 -1068 L 963 195 L -300 195 Z "/>
</clipPath>
<g clip-path="url(#cp7)">
<path transform="matrix(1,0,0,-1,0,24)" d="M 3.12677 20.87323 L 20.87323 20.87323 L 20.87323 3.12677 L 3.12677 3.12677 Z " />
</g>
</g>
<clipPath id="cp8">
<path transform="matrix(1,0,0,-1,0,24)" d="M 16.31616 22.22717 C 16.43958 22.22717 16.56042 22.27734 16.64758 22.3645 C 16.73474 22.45221 16.78491 22.57306 16.78491 22.69647 C 16.78491 22.81915 16.73492 22.94019 16.64758 23.02789 C 16.56042 23.11505 16.43958 23.16522 16.31616 23.16522 C 16.19238 23.16522 16.07208 23.11505 15.98492 23.02789 C 15.89758 22.94019 15.84741 22.8197 15.84741 22.69647 C 15.84741 22.57269 15.89758 22.45221 15.98492 22.3645 C 16.07208 22.27734 16.19238 22.22717 16.31616 22.22717 Z " fill-rule="evenodd"/>
</clipPath>
<g clip-path="url(#cp8)">
<clipPath id="cp9">
<path transform="matrix(1,0,0,-1,0,24)" d="M -300 -1068 L 963 -1068 L 963 195 L -300 195 Z "/>
</clipPath>
<g clip-path="url(#cp9)">
<path transform="matrix(1,0,0,-1,0,24)" d="M 10.84741 28.16522 L 21.78491 28.16522 L 21.78491 17.22717 L 10.84741 17.22717 Z " />
</g>
</g>
<clipPath id="cp10">
<path transform="matrix(1,0,0,-1,0,24)" d="M 7.704346 1.764404 C 7.581116 1.764404 7.460083 1.714233 7.372925 1.627075 C 7.285767 1.539917 7.235596 1.418884 7.235596 1.295654 C 7.235596 1.171875 7.285767 1.051392 7.372925 .9642334 C 7.460083 .8770752 7.581116 .8269043 7.704346 .8269043 C 7.827576 .8269043 7.948608 .8770752 8.035767 .9642334 C 8.122925 1.051392 8.173096 1.172424 8.173096 1.295654 C 8.173096 1.418884 8.122925 1.539917 8.035767 1.627075 C 7.948608 1.714233 7.827576 1.764404 7.704346 1.764404 Z " fill-rule="evenodd"/>
</clipPath>
<g clip-path="url(#cp10)">
<clipPath id="cp11">
<path transform="matrix(1,0,0,-1,0,24)" d="M -300 -1068 L 963 -1068 L 963 195 L -300 195 Z "/>
</clipPath>
<g clip-path="url(#cp11)">
<path transform="matrix(1,0,0,-1,0,24)" d="M 2.235596 6.764404 L 13.1731 6.764404 L 13.1731 -4.173096 L 2.235596 -4.173096 Z " />
</g>
</g>
</g>
</svg>
