<?xml version="1.0" encoding="UTF-8" standalone="no"?>
<!DOCTYPE svg PUBLIC "-//W3C//DTD SVG 1.1//EN" "http://www.w3.org/Graphics/SVG/1.1/DTD/svg11.dtd">
<svg xmlns="http://www.w3.org/2000/svg" xmlns:xlink="http://www.w3.org/1999/xlink" version="1.1" width="24pt" height="24pt" viewBox="0 0 24 24">
<g enable-background="new">
<clipPath id="cp0">
<path transform="matrix(1,0,0,-1,0,24)" d="M 11.06269 15.79608 L 9.187687 15.79608 C 8.928844 15.79608 8.718937 15.58617 8.718937 15.32728 L 8.718937 13.45209 C 8.718937 13.1932 8.928844 12.9833 9.187687 12.9833 L 11.06269 12.9833 C 11.32153 12.9833 11.53144 13.1932 11.53144 13.45209 L 11.53144 15.32728 C 11.53144 15.58617 11.32153 15.79608 11.06269 15.79608 Z M 10.59389 13.92089 L 9.656391 13.92089 L 9.656391 14.85848 L 10.59389 14.85848 L 10.59389 13.92089 Z " fill-rule="evenodd"/>
</clipPath>
<g clip-path="url(#cp0)">
<clipPath id="cp1">
<path transform="matrix(1,0,0,-1,0,24)" d="M -985 -1155 L 278 -1155 L 278 108 L -985 108 Z "/>
</clipPath>
<g clip-path="url(#cp1)">
<path transform="matrix(1,0,0,-1,0,24)" d="M 3.718937 20.79608 L 16.53144 20.79608 L 16.53144 7.983297 L 3.718937 7.983297 Z " />
</g>
</g>
<clipPath id="cp2">
<path transform="matrix(1,0,0,-1,0,24)" d="M 14.81269 15.79608 L 12.93769 15.79608 C 12.67884 15.79608 12.46894 15.58617 12.46894 15.32728 L 12.46894 13.45209 C 12.46894 13.1932 12.67884 12.9833 12.93769 12.9833 L 14.81269 12.9833 C 15.07153 12.9833 15.28144 13.1932 15.28144 13.45209 L 15.28144 15.32728 C 15.28144 15.58617 15.07153 15.79608 14.81269 15.79608 Z M 14.34394 13.92089 L 13.40644 13.92089 L 13.40644 14.85848 L 14.34394 14.85848 L 14.34394 13.92089 Z " fill-rule="evenodd"/>
</clipPath>
<g clip-path="url(#cp2)">
<clipPath id="cp3">
<path transform="matrix(1,0,0,-1,0,24)" d="M -985 -1155 L 278 -1155 L 278 108 L -985 108 Z "/>
</clipPath>
<g clip-path="url(#cp3)">
<path transform="matrix(1,0,0,-1,0,24)" d="M 7.468937 20.79608 L 20.28144 20.79608 L 20.28144 7.983297 L 7.468937 7.983297 Z " />
</g>
</g>
<clipPath id="cp4">
<path transform="matrix(1,0,0,-1,0,24)" d="M 11.06269 19.54641 L 9.187687 19.54641 C 8.928844 19.54641 8.718937 19.3365 8.718937 19.07761 L 8.718937 17.20242 C 8.718937 16.94353 8.928844 16.73362 9.187687 16.73362 L 11.06269 16.73362 C 11.32153 16.73362 11.53144 16.94353 11.53144 17.20242 L 11.53144 19.07761 C 11.53144 19.3365 11.32153 19.54641 11.06269 19.54641 Z M 10.59389 17.67127 L 9.656391 17.67127 L 9.656391 18.60886 L 10.59389 18.60886 L 10.59389 17.67127 Z " fill-rule="evenodd"/>
</clipPath>
<g clip-path="url(#cp4)">
<clipPath id="cp5">
<path transform="matrix(1,0,0,-1,0,24)" d="M -985 -1155 L 278 -1155 L 278 108 L -985 108 Z "/>
</clipPath>
<g clip-path="url(#cp5)">
<path transform="matrix(1,0,0,-1,0,24)" d="M 3.718937 24.54641 L 16.53144 24.54641 L 16.53144 11.73362 L 3.718937 11.73362 Z " />
</g>
</g>
<clipPath id="cp6">
<path transform="matrix(1,0,0,-1,0,24)" d="M 14.81269 19.54641 L 12.93769 19.54641 C 12.67884 19.54641 12.46894 19.3365 12.46894 19.07761 L 12.46894 17.20242 C 12.46894 16.94353 12.67884 16.73362 12.93769 16.73362 L 14.81269 16.73362 C 15.07153 16.73362 15.28144 16.94353 15.28144 17.20242 L 15.28144 19.07761 C 15.28144 19.3365 15.07153 19.54641 14.81269 19.54641 Z M 14.34394 17.67127 L 13.40644 17.67127 L 13.40644 18.60886 L 14.34394 18.60886 L 14.34394 17.67127 Z " fill-rule="evenodd"/>
</clipPath>
<g clip-path="url(#cp6)">
<clipPath id="cp7">
<path transform="matrix(1,0,0,-1,0,24)" d="M -985 -1155 L 278 -1155 L 278 108 L -985 108 Z "/>
</clipPath>
<g clip-path="url(#cp7)">
<path transform="matrix(1,0,0,-1,0,24)" d="M 7.468937 24.54641 L 20.28144 24.54641 L 20.28144 11.73362 L 7.468937 11.73362 Z " />
</g>
</g>
<clipPath id="cp8">
<path transform="matrix(1,0,0,-1,0,24)" d="M 5.437641 14.34281 L 3.562641 14.34281 C 3.303797 14.34281 3.093891 14.13291 3.093891 13.87402 L 3.093891 11.99883 C 3.093891 11.73994 3.303797 11.53003 3.562641 11.53003 L 5.437641 11.53003 C 5.696484 11.53003 5.906391 11.73994 5.906391 11.99883 L 5.906391 13.87402 C 5.906391 14.13291 5.696531 14.34281 5.437641 14.34281 Z M 4.968891 12.46762 L 4.031391 12.46762 L 4.031391 13.40522 L 4.968891 13.40522 L 4.968891 12.46762 Z " fill-rule="evenodd"/>
</clipPath>
<g clip-path="url(#cp8)">
<clipPath id="cp9">
<path transform="matrix(1,0,0,-1,0,24)" d="M -985 -1155 L 278 -1155 L 278 108 L -985 108 Z "/>
</clipPath>
<g clip-path="url(#cp9)">
<path transform="matrix(1,0,0,-1,0,24)" d="M -1.906109 19.34281 L 10.90639 19.34281 L 10.90639 6.530031 L -1.906109 6.530031 Z " />
</g>
</g>
<clipPath id="cp10">
<path transform="matrix(1,0,0,-1,0,24)" d="M 23.87644 16.06659 L 21.72019 18.41058 C 21.63141 18.50709 21.5063 18.56198 21.37523 18.56198 L 17.15648 18.56198 L 17.15648 20.484 C 17.15648 20.484 17.62355 20.484 17.62523 20.484 C 18.10439 20.484 18.26283 21.1762 17.82056 21.37898 L 12.19556 23.95734 C 12.07153 24.0142 11.92894 24.0142 11.80491 23.95734 C 11.80491 23.95734 6.192656 21.38484 6.179906 21.37898 C 5.745094 21.17967 5.873859 20.484 6.375234 20.484 L 6.843984 20.484 L 6.843984 18.56194 L 2.625234 18.56194 C 2.494125 18.56194 2.369016 18.50705 2.280281 18.41053 C 2.280281 18.41053 .1303594 16.07348 .1240312 16.06659 C -.1457813 15.7733 .07232812 15.28041 .4689844 15.28041 L 1.218984 15.28041 L 1.218984 10.17056 C 1.218984 9.911672 1.428891 9.701766 1.687734 9.701766 L 6.843984 9.701766 L 6.843984 8.764172 C 6.843984 8.505281 7.053891 8.295375 7.312734 8.295375 L 16.68778 8.295375 C 16.94662 8.295375 17.15653 8.505281 17.15653 8.764172 L 17.15653 9.701719 L 22.31278 9.701719 C 22.57162 9.701719 22.78153 9.911625 22.78153 10.17052 L 22.78153 15.28036 C 22.78153 15.28036 23.52853 15.28036 23.53153 15.28036 C 23.92425 15.28041 24.14362 15.77616 23.87644 16.06659 Z M 6.843891 10.63931 L 2.156391 10.63931 L 2.156391 15.28041 L 6.843891 15.28041 L 6.843891 10.63931 Z M 6.843937 16.21795 L 1.537078 16.21795 L 2.830875 17.62434 L 6.843937 17.62434 L 6.843937 16.21795 Z M 12.00019 23.01548 L 15.47742 21.42159 L 8.522953 21.42159 L 12.00019 23.01548 Z M 12.46894 9.232922 L 11.34394 9.232922 L 11.34394 10.54655 C 11.34394 10.8562 11.59627 11.10811 11.90644 11.10811 C 12.21661 11.10811 12.46894 10.8562 12.46894 10.54655 L 12.46894 9.232922 Z M 16.21894 9.232922 L 13.40644 9.232922 L 13.40644 10.54655 C 13.40644 11.37319 12.73355 12.0457 11.90644 12.0457 C 11.07933 12.0457 10.40644 11.37319 10.40644 10.54655 L 10.40644 9.232922 L 7.781437 9.232922 L 7.781437 20.484 L 16.21894 20.484 L 16.21894 9.232922 Z M 21.84394 10.63931 L 17.15644 10.63931 L 17.15644 15.28041 L 21.84394 15.28041 L 21.84394 10.63931 Z M 17.15644 16.21795 L 17.15644 17.62434 L 21.16945 17.62434 L 22.46325 16.21795 L 17.15644 16.21795 Z " fill-rule="evenodd"/>
</clipPath>
<g clip-path="url(#cp10)">
<clipPath id="cp11">
<path transform="matrix(1,0,0,-1,0,24)" d="M -985 -1155 L 278 -1155 L 278 108 L -985 108 Z "/>
</clipPath>
<g clip-path="url(#cp11)">
<path transform="matrix(1,0,0,-1,0,24)" d="M -4.99546 28.99999 L 28.99401 28.99999 L 28.99401 3.295375 L -4.99546 3.295375 Z " />
</g>
</g>
<clipPath id="cp12">
<path transform="matrix(1,0,0,-1,0,24)" d="M 20.43769 14.34281 L 18.56269 14.34281 C 18.30384 14.34281 18.09394 14.13291 18.09394 13.87402 L 18.09394 11.99883 C 18.09394 11.73994 18.30384 11.53003 18.56269 11.53003 L 20.43769 11.53003 C 20.69653 11.53003 20.90644 11.73994 20.90644 11.99883 L 20.90644 13.87402 C 20.90644 14.13291 20.69653 14.34281 20.43769 14.34281 Z M 19.96894 12.46762 L 19.03144 12.46762 L 19.03144 13.40522 L 19.96894 13.40522 L 19.96894 12.46762 Z " fill-rule="evenodd"/>
</clipPath>
<g clip-path="url(#cp12)">
<clipPath id="cp13">
<path transform="matrix(1,0,0,-1,0,24)" d="M -985 -1155 L 278 -1155 L 278 108 L -985 108 Z "/>
</clipPath>
<g clip-path="url(#cp13)">
<path transform="matrix(1,0,0,-1,0,24)" d="M 13.09394 19.34281 L 25.90644 19.34281 L 25.90644 6.530031 L 13.09394 6.530031 Z " />
</g>
</g>
<clipPath id="cp14">
<path transform="matrix(1,0,0,-1,0,24)" d="M 12.48633 5.083781 L 11.86987 6.854719 C 11.78475 7.099125 11.5177 7.228406 11.27306 7.143328 L 9.502312 6.526781 C 9.257812 6.441609 9.128625 6.174422 9.21375 5.929875 L 9.376031 5.463703 L 7.827562 4.806281 C 7.767 4.995047 7.590187 5.131781 7.381312 5.131781 L 5.506312 5.131781 C 5.247469 5.131781 5.037562 4.921875 5.037562 4.662984 L 5.037562 3.62175 L 2.800266 2.671875 L 2.682375 3.010594 C 2.597297 3.255 2.330203 3.384375 2.085562 3.299203 L .3147656 2.682656 C .07026562 2.597484 -.05892188 2.330297 .02620312 2.08575 C .02620312 2.08575 .6408281 .3201562 .6426562 .3148125 C .7216406 .0879375 .99975 -.05732813 1.239516 .02620312 L 3.010266 .64275 C 3.254766 .7279219 3.383953 .9951094 3.298828 1.239656 L 3.109172 1.784437 L 5.037516 2.603156 L 5.037516 1.381453 L 4.826578 1.381453 C 4.567734 1.381453 4.357828 1.171547 4.357828 .9126562 C 4.357828 .6537656 4.567734 .4438594 4.826578 .4438594 L 8.060953 .4438594 C 8.319797 .4438594 8.529703 .6537656 8.529703 .9126562 C 8.529703 1.171547 8.319797 1.381453 8.060953 1.381453 L 7.850016 1.381453 L 7.850016 3.79725 L 9.684891 4.576312 C 9.684891 4.576312 9.830156 4.158984 9.830203 4.158937 C 9.89475 3.973734 10.07747 3.844219 10.27289 3.844219 C 10.32398 3.844172 12.19777 4.486875 12.19777 4.486875 C 12.44227 4.572047 12.57145 4.839234 12.48633 5.083781 Z M 1.373953 1.065844 L 1.065703 1.951312 L 1.951125 2.259609 L 2.259375 1.374141 L 1.373953 1.065844 Z M 6.912516 1.381453 L 5.975016 1.381453 L 5.975016 2.319047 L 6.912516 2.319047 L 6.912516 1.381453 Z M 6.912516 3.256594 L 5.975016 3.256594 L 5.975016 4.194187 L 6.912516 4.194187 L 6.912516 3.256594 Z M 10.56145 4.909922 L 10.2532 5.795391 L 11.13862 6.103734 L 11.44687 5.218219 L 10.56145 4.909922 Z " fill-rule="evenodd"/>
</clipPath>
<g clip-path="url(#cp14)">
<clipPath id="cp15">
<path transform="matrix(1,0,0,-1,0,24)" d="M -985 -1155 L 278 -1155 L 278 108 L -985 108 Z "/>
</clipPath>
<g clip-path="url(#cp15)">
<path transform="matrix(1,0,0,-1,0,24)" d="M -4.99999 12.16949 L 17.51252 12.16949 L 17.51252 -4.997654 L -4.99999 -4.997654 Z " />
</g>
</g>
<clipPath id="cp16">
<path transform="matrix(1,0,0,-1,0,24)" d="M 23.99316 .5499844 L 23.06269 5.854219 C 23.0625 6.393375 23.0557 7.053563 22.77877 7.606922 C 22.42472 8.314266 21.73167 8.672906 20.71894 8.672906 C 19.7062 8.672906 19.01316 8.314266 18.65911 7.606922 C 18.43767 7.164516 18.38911 6.653812 18.37838 6.191203 C 16.68764 5.388844 15.76331 4.613906 14.62186 3.472875 C 13.32952 2.179922 12.37327 1.563938 11.79806 1.274672 C 11.46202 1.105594 11.06986 .9375938 10.68764 .9375938 C 10.44605 .9375938 10.23595 .740625 10.21983 .4997813 C 10.20352 .2558438 10.3845 .03567188 10.62675 .004265625 C 10.64456 .001875 13.23675 0 13.23675 0 C 13.49545 0 13.7055 .2104688 13.7055 .46875 C 13.70555 .8422969 13.37208 .9375938 13.068 .9375938 C 13.76222 1.403156 14.508 2.032734 15.28467 2.809547 C 16.18388 3.709125 17.19628 4.668938 18.37519 5.188125 L 18.37519 .4689844 C 18.37519 .2100938 18.58509 .0001875 18.84394 .0001875 C 18.84394 .0001875 23.52356 .0001875 23.53144 .0001875 C 23.81784 .0001875 24.04256 .2684062 23.99316 .5499844 Z M 22.5292 3.469266 L 22.69369 2.531672 L 21.18769 2.531672 L 21.18769 3.469266 L 22.5292 3.469266 Z M 22.36477 4.406859 L 21.18773 4.406859 L 21.18773 5.344453 L 22.20028 5.344453 L 22.36477 4.406859 Z M 20.71894 7.735313 C 21.8715 7.735313 22.08183 7.193578 22.11806 6.282047 L 19.31986 6.282047 C 19.35605 7.193578 19.56638 7.735313 20.71894 7.735313 Z M 20.25019 .9377813 L 19.31269 .9377813 L 19.31269 5.344453 L 20.25019 5.344453 L 20.25019 .9377813 Z M 21.18769 .9377812 L 21.18769 1.594078 L 22.85817 1.594078 L 22.9733 .9377812 L 21.18769 .9377812 Z " fill-rule="evenodd"/>
</clipPath>
<g clip-path="url(#cp16)">
<clipPath id="cp17">
<path transform="matrix(1,0,0,-1,0,24)" d="M -985 -1155 L 278 -1155 L 278 108 L -985 108 Z "/>
</clipPath>
<g clip-path="url(#cp17)">
<path transform="matrix(1,0,0,-1,0,24)" d="M 5.218807 13.67291 L 29 13.67291 L 29 -5 L 5.218807 -5 Z " />
</g>
</g>
<clipPath id="cp18">
<path transform="matrix(1,0,0,-1,0,24)" d="M 15.11175 .9375938 C 14.85347 .9375938 14.643 .7275938 14.643 .4687969 C 14.643 .2105156 14.85347 0 15.11175 0 C 15.3705 0 15.5805 .2105156 15.5805 .4687969 C 15.5805 .7275938 15.37045 .9375938 15.11175 .9375938 Z " fill-rule="evenodd"/>
</clipPath>
<g clip-path="url(#cp18)">
<clipPath id="cp19">
<path transform="matrix(1,0,0,-1,0,24)" d="M -985 -1155 L 278 -1155 L 278 108 L -985 108 Z "/>
</clipPath>
<g clip-path="url(#cp19)">
<path transform="matrix(1,0,0,-1,0,24)" d="M 9.643 5.937594 L 20.5805 5.937594 L 20.5805 -5 L 9.643 -5 Z " />
</g>
</g>
</g>
</svg>
