<?xml version="1.0" encoding="UTF-8" standalone="no"?>
<!DOCTYPE svg PUBLIC "-//W3C//DTD SVG 1.1//EN" "http://www.w3.org/Graphics/SVG/1.1/DTD/svg11.dtd">
<svg xmlns="http://www.w3.org/2000/svg" xmlns:xlink="http://www.w3.org/1999/xlink" version="1.1" width="29pt" height="29pt" viewBox="0 0 29 29">
<g enable-background="new">
<clipPath id="cp0">
<path transform="matrix(1,0,0,-1,0,29)" d="M 27.83179 20.06993 C 27.08702 21.78597 26.0275 23.33792 24.68268 24.68268 C 23.33792 26.02744 21.78597 27.08696 20.06993 27.83179 C 18.2841 28.60697 16.41009 29 14.5 29 C 12.58991 29 10.7159 28.60697 8.930074 27.83179 C 7.214033 27.08696 5.66208 26.02744 4.317318 24.68268 C 2.972557 23.33792 1.913037 21.78597 1.168213 20.06993 C .3930293 18.2841 0 16.41009 0 14.5 C 0 12.58991 .3930293 10.7159 1.168213 8.930074 C 1.913037 7.214033 2.972557 5.66208 4.317318 4.317318 C 5.66208 2.972557 7.214033 1.913037 8.930074 1.168213 C 10.7159 .3930293 12.58991 0 14.5 0 C 16.41009 0 18.2841 .3930293 20.06993 1.168213 C 21.78597 1.913037 23.33792 2.972557 24.68268 4.317318 C 26.02744 5.66208 27.08696 7.214033 27.83179 8.930074 C 28.60697 10.7159 29 12.58991 29 14.5 C 29 16.41009 28.60697 18.2841 27.83179 20.06993 Z M 14.5 1.132812 C 7.254248 1.132812 1.132813 7.254248 1.132813 14.5 C 1.132813 21.74575 7.254248 27.86719 14.5 27.86719 C 21.74575 27.86719 27.86719 21.74575 27.86719 14.5 C 27.86719 7.254248 21.74575 1.132812 14.5 1.132812 Z " fill-rule="evenodd"/>
</clipPath>
<g clip-path="url(#cp0)">
<clipPath id="cp1">
<path transform="matrix(1,0,0,-1,0,29)" d="M -704 -949 L 559 -949 L 559 314 L -704 314 Z "/>
</clipPath>
<g clip-path="url(#cp1)">
<path transform="matrix(1,0,0,-1,0,29)" d="M -5 34 L 34 34 L 34 -5 L -5 -5 Z " />
</g>
</g>
<clipPath id="cp2">
<path transform="matrix(1,0,0,-1,0,29)" d="M 25.67761 19.18812 C 25.05763 20.62862 24.17397 21.92836 23.05117 23.05111 C 21.92836 24.17397 20.62868 25.05757 19.18812 25.67761 C 17.69105 26.32195 16.11372 26.64865 14.5 26.64865 C 12.30628 26.64865 10.01954 25.89954 7.886972 24.48237 C 7.624606 24.30801 7.553254 23.95399 7.727613 23.69168 C 7.901972 23.42931 8.256051 23.35802 8.518302 23.53232 C 10.46323 24.82475 12.53163 25.50793 14.5 25.50793 C 20.46693 25.50793 25.50793 20.46693 25.50793 14.5 C 25.50793 8.533074 20.46693 3.49207 14.5 3.49207 C 8.533074 3.49207 3.49207 8.533074 3.49207 14.5 C 3.49207 16.46797 4.175075 18.53649 5.467166 20.48176 C 5.641468 20.74418 5.570059 21.09814 5.307694 21.27244 C 5.045214 21.44675 4.69125 21.37528 4.517005 21.11291 C 3.100233 18.97994 2.351351 16.69326 2.351351 14.5 C 2.351351 12.88628 2.678053 11.30895 3.322388 9.811876 C 3.942368 8.371377 4.826025 7.071643 5.948834 5.948891 C 7.071643 4.826082 8.37132 3.942425 9.811819 3.322445 C 11.30895 2.678053 12.88628 2.351351 14.5 2.351351 C 16.11372 2.351351 17.69105 2.678053 19.18812 3.322388 C 20.62862 3.942368 21.92836 4.826025 23.05111 5.948834 C 24.17392 7.071643 25.05757 8.37132 25.67756 9.811819 C 26.32195 11.30895 26.64865 12.88628 26.64865 14.5 C 26.64865 16.11372 26.32195 17.69105 25.67761 19.18812 Z " fill-rule="evenodd"/>
</clipPath>
<g clip-path="url(#cp2)">
<clipPath id="cp3">
<path transform="matrix(1,0,0,-1,0,29)" d="M -704 -949 L 559 -949 L 559 314 L -704 314 Z "/>
</clipPath>
<g clip-path="url(#cp3)">
<path transform="matrix(1,0,0,-1,0,29)" d="M -2.648649 31.64865 L 31.64865 31.64865 L 31.64865 -2.648649 L -2.648649 -2.648649 Z " />
</g>
</g>
<clipPath id="cp4">
<path transform="matrix(1,0,0,-1,0,29)" d="M 18.11606 14.10811 L 20.49398 16.48602 C 20.92486 16.91656 21.16216 17.48909 21.16216 18.09828 C 21.16216 18.70747 20.92486 19.28 20.49415 19.71037 C 20.06338 20.14113 19.49091 20.37838 18.88206 20.37838 C 18.27322 20.37838 17.70074 20.14113 17.26998 19.71037 L 14.89189 17.33228 L 12.51381 19.71037 C 12.08304 20.14113 11.51056 20.37838 10.90172 20.37838 C 10.29288 20.37838 9.720401 20.14113 9.289804 19.71054 C 8.858923 19.28 8.621622 18.70747 8.621622 18.09828 C 8.621622 17.48909 8.858923 16.91656 9.289633 16.48619 L 11.66772 14.10811 L 9.289804 11.73019 C 8.858923 11.29965 8.621622 10.72712 8.621622 10.11794 C 8.621622 9.508751 8.858923 8.936218 9.289633 8.50585 C 9.720401 8.075082 10.29293 7.837838 10.90172 7.837838 C 11.51051 7.837838 12.08304 8.075082 12.51381 8.50585 L 14.89189 10.88394 L 17.26998 8.50585 C 17.70074 8.075082 18.27328 7.837838 18.88206 7.837838 C 19.49085 7.837838 20.06338 8.075082 20.49398 8.505679 C 20.92486 8.936218 21.16216 9.508751 21.16216 10.11794 C 21.16216 10.72712 20.92486 11.29965 20.49415 11.73002 L 18.11606 14.10811 Z M 19.68802 9.311978 C 19.47255 9.096566 19.18634 8.977887 18.88206 8.977887 C 18.57778 8.977887 18.29158 9.096566 18.07611 9.311978 L 15.29496 12.09313 C 15.18363 12.20445 15.03776 12.26009 14.89189 12.26009 C 14.74602 12.26009 14.6001 12.20445 14.48883 12.09313 L 11.70768 9.311978 C 11.49221 9.096566 11.206 8.977887 10.90172 8.977887 C 10.59744 8.977887 10.31123 9.096566 10.09559 9.312149 C 9.880293 9.527334 9.761671 9.813486 9.761671 10.11794 C 9.761671 10.42239 9.880293 10.70854 10.09576 10.92389 L 12.87691 13.70504 C 13.09951 13.92764 13.09951 14.28858 12.87691 14.51117 L 10.09559 17.29249 C 9.880293 17.50768 9.761671 17.79383 9.761671 18.09828 C 9.761671 18.40273 9.880293 18.68888 10.09576 18.90424 C 10.31123 19.11965 10.59744 19.23833 10.90172 19.23833 C 11.206 19.23833 11.49221 19.11965 11.70768 18.90424 L 14.48883 16.12309 C 14.71142 15.90049 15.07236 15.90049 15.29501 16.12309 L 18.07616 18.90429 C 18.29158 19.11965 18.57778 19.23833 18.88206 19.23833 C 19.18634 19.23833 19.47255 19.11965 19.68819 18.90407 C 19.90349 18.68888 20.02211 18.40273 20.02211 18.09828 C 20.02211 17.79383 19.90349 17.50768 19.68802 17.29232 L 16.90687 14.51112 C 16.68428 14.28852 16.68428 13.92758 16.90687 13.70499 L 19.68819 10.92367 C 19.90349 10.70854 20.02211 10.42239 20.02211 10.11794 C 20.02211 9.813486 19.90349 9.527334 19.68802 9.311978 Z " fill-rule="evenodd"/>
</clipPath>
<g clip-path="url(#cp4)">
<clipPath id="cp5">
<path transform="matrix(1,0,0,-1,0,29)" d="M -704 -949 L 559 -949 L 559 314 L -704 314 Z "/>
</clipPath>
<g clip-path="url(#cp5)">
<path transform="matrix(1,0,0,-1,0,29)" d="M 3.621622 25.37838 L 26.16216 25.37838 L 26.16216 2.837838 L 3.621622 2.837838 Z " />
</g>
</g>
<clipPath id="cp6">
<path transform="matrix(1,0,0,-1,0,29)" d="M 6.662162 22.72973 C 6.445838 22.72973 6.27027 22.55416 6.27027 22.33784 C 6.27027 22.12151 6.445838 21.94595 6.662162 21.94595 C 6.878486 21.94595 7.054054 22.12151 7.054054 22.33784 C 7.054054 22.55416 6.878486 22.72973 6.662162 22.72973 Z " fill-rule="evenodd"/>
</clipPath>
<g clip-path="url(#cp6)">
<clipPath id="cp7">
<path transform="matrix(1,0,0,-1,0,29)" d="M -704 -949 L 559 -949 L 559 314 L -704 314 Z "/>
</clipPath>
<g clip-path="url(#cp7)">
<path transform="matrix(1,0,0,-1,0,29)" d="M 1.27027 27.72973 L 12.05405 27.72973 L 12.05405 16.94595 L 1.27027 16.94595 Z " />
</g>
</g>
</g>
</svg>
