<?xml version="1.0" encoding="UTF-8" standalone="no"?>
<!DOCTYPE svg PUBLIC "-//W3C//DTD SVG 1.1//EN" "http://www.w3.org/Graphics/SVG/1.1/DTD/svg11.dtd">
<svg xmlns="http://www.w3.org/2000/svg" xmlns:xlink="http://www.w3.org/1999/xlink" version="1.1" width="27pt" height="28pt" viewBox="0 0 27 28">
<g enable-background="new">
<clipPath id="cp0">
<path transform="matrix(1,0,0,-1,0,28)" d="M 18 17 L 20 17 L 20 19 L 18 19 Z "/>
</clipPath>
<g clip-path="url(#cp0)">
<path transform="matrix(1,0,0,-1,0,28)" d="M 13 24 L 25 24 L 25 12 L 13 12 Z " />
</g>
<clipPath id="cp1">
<path transform="matrix(1,0,0,-1,0,28)" d="M 21.65036 13.70157 L 21.65036 20.0585 L 22.47226 20.0585 C 24.75474 20.0585 26.6118 21.88876 26.6118 24.13876 C 26.6118 24.45971 26.34764 24.71982 26.0223 24.71982 L 21.1662 24.71982 L 21.1662 27.41894 C 21.1662 27.73996 20.90238 28 20.5767 28 C 19.08159 28 17.86521 26.80104 17.86521 25.32733 L 17.86521 16.8961 L 16.10211 16.67099 C 15.77893 16.62957 15.55103 16.33822 15.59306 16.01966 C 15.63155 15.72674 15.88511 15.51311 16.17715 15.51311 C 16.20233 15.51311 16.22778 15.51496 16.25351 15.51817 L 18.49264 15.80419 L 20.47108 15.80419 L 20.47108 13.70157 C 20.47108 12.01609 19.07965 10.64486 17.36968 10.64486 L 17.31225 10.64486 C 16.98664 10.64486 16.72275 10.38455 16.72275 10.06353 L 16.72275 2.688184 C 16.72275 2.367166 16.98664 2.106851 17.31225 2.106851 L 17.79634 2.106851 C 18.44139 2.106851 18.99545 1.716175 19.22785 1.162118 L 15.59847 1.162118 L 15.59847 11.67402 C 15.59847 11.99497 15.3343 12.25508 15.00869 12.25508 C 14.68336 12.25508 14.41919 11.99497 14.41919 11.67402 L 14.41919 10.64486 L 8.762341 10.64486 L 8.762341 11.67402 C 8.762341 11.99497 8.498453 12.25508 8.17284 12.25508 C 7.847158 12.25508 7.583339 11.99497 7.583339 11.67402 L 7.583339 8.652036 C 7.583339 7.547614 6.671693 6.649023 5.550948 6.649023 C 5.225613 6.649023 4.961447 6.388709 4.961447 6.067691 L 4.961447 2.68791 C 4.961447 2.366961 5.225613 2.106851 5.550948 2.106851 L 6.035102 2.106851 C 6.680085 2.106851 7.234147 1.715901 7.466549 1.162118 L 3.837165 1.162118 L 3.837165 9.482472 L 4.75422 9.482472 C 5.079833 9.482472 5.343999 9.742581 5.343999 10.06353 L 5.343999 12.60782 C 5.343999 12.92877 5.079833 13.18915 4.75422 13.18915 L 2.435193 13.18915 C 1.889038 13.18915 1.423333 13.53444 1.250782 14.01507 L 4.451841 14.01507 C 4.477086 14.01507 4.502538 14.01671 4.527436 14.01986 L 12.73655 15.06877 C 13.0598 15.1102 13.28763 15.40148 13.2456 15.72004 C 13.20364 16.03839 12.9075 16.26295 12.58515 16.22153 L 4.413697 15.17746 L .5895009 15.17746 C .2641657 15.17746 0 14.91736 0 14.59641 L 0 14.42687 C 0 13.10343 1.09231 12.02676 2.435193 12.02676 L 4.16472 12.02676 L 4.16472 10.64486 L 3.247664 10.64486 C 2.922052 10.64486 2.658163 10.38482 2.658163 10.0638 L 2.658163 .5810589 C 2.658163 .260041 2.922052 0 3.247664 0 L 8.17284 0 C 8.498453 0 8.762618 .260041 8.762618 .5810589 C 8.762618 2.028579 7.595753 3.212367 6.140726 3.267329 L 6.140726 5.540089 C 7.630707 5.813734 8.762618 7.10512 8.762618 8.652036 L 8.762618 9.482472 L 14.41919 9.482472 L 14.41919 .5810589 C 14.41919 .260041 14.68336 0 15.00897 0 L 19.93415 0 C 20.25976 0 20.52365 .260041 20.52365 .5810589 C 20.52365 2.028579 19.35706 3.212367 17.90203 3.267329 L 17.90203 9.515079 C 20.01217 9.774095 21.65036 11.55282 21.65036 13.70157 Z M 19.98692 26.72147 L 19.98692 24.13849 C 19.98692 23.81781 20.25109 23.55743 20.5767 23.55743 L 21.56013 23.55743 L 21.56013 22.97555 C 21.56013 22.6546 21.82429 22.39449 22.14991 22.39449 C 22.47524 22.39449 22.73941 22.6546 22.73941 22.97555 L 22.73941 23.55743 L 25.37371 23.55743 C 25.09956 22.22598 23.90267 21.22061 22.47226 21.22061 L 21.06085 21.22061 C 20.73517 21.22061 20.47108 20.96057 20.47108 20.63956 L 20.47108 18.99441 L 19.04448 18.99441 L 19.04448 25.32733 C 19.04421 25.95426 19.43404 26.49314 19.98692 26.72147 Z " fill-rule="evenodd"/>
</clipPath>
<g clip-path="url(#cp1)">
<clipPath id="cp2">
<path transform="matrix(1,0,0,-1,0,28)" d="M -805 -949 L 458 -949 L 458 314 L -805 314 Z "/>
</clipPath>
<g clip-path="url(#cp2)">
<path transform="matrix(1,0,0,-1,0,28)" d="M -5 33 L 31.6118 33 L 31.6118 -5 L -5 -5 Z " />
</g>
</g>
<clipPath id="cp3">
<path transform="matrix(1,0,0,-1,0,28)" d="M 14.41239 16 C 14.43002 16 14.44784 16.00137 14.46585 16.00424 L 14.64034 16.03085 C 14.8664 16.06531 15.02589 16.30943 14.99651 16.57599 C 14.96729 16.84249 14.76022 17.03052 14.53411 16.99589 L 14.35981 16.96927 C 14.13357 16.93482 13.97407 16.6907 14.0035 16.42414 C 14.03039 16.17887 14.20795 16 14.41239 16 Z " fill-rule="evenodd"/>
</clipPath>
<g clip-path="url(#cp3)">
<clipPath id="cp4">
<path transform="matrix(1,0,0,-1,0,28)" d="M -805 -949 L 458 -949 L 458 314 L -805 314 Z "/>
</clipPath>
<g clip-path="url(#cp4)">
<path transform="matrix(1,0,0,-1,0,28)" d="M 9 22 L 20 22 L 20 11 L 9 11 Z " />
</g>
</g>
</g>
</svg>
