<?xml version="1.0" encoding="utf-8"?>
<!-- Generator: Adobe Illustrator 25.2.0, SVG Export Plug-In . SVG Version: 6.00 Build 0)  -->
<svg version="1.1" id="Capa_1" xmlns="http://www.w3.org/2000/svg" xmlns:xlink="http://www.w3.org/1999/xlink" x="0px" y="0px"
	 viewBox="0 0 27 28" style="enable-background:new 0 0 27 28;" xml:space="preserve">
<style type="text/css">
	.st0{enable-background:new    ;}
	.st1{clip-path:url(#SVGID_2_);}
	.st2{clip-path:url(#SVGID_4_);}
	.st3{clip-path:url(#SVGID_6_);}
	.st4{clip-path:url(#SVGID_8_);}
	.st5{clip-path:url(#SVGID_10_);}
</style>
<g class="st0">
	<g>
		<defs>
			<rect id="SVGID_1_" x="18" y="9" width="2" height="2"/>
		</defs>
		<clipPath id="SVGID_2_">
			<use xlink:href="#SVGID_1_"  style="overflow:visible;"/>
		</clipPath>
		<g class="st1">
			<path d="M13,4h12v12H13V4z"/>
		</g>
	</g>
	<g>
		<defs>
			<path id="SVGID_3_" d="M21.7,14.3V7.9h0.8c2.3,0,4.1-1.8,4.1-4.1c0-0.3-0.3-0.6-0.6-0.6h-4.9V0.6c0-0.3-0.3-0.6-0.6-0.6
				c-1.5,0-2.7,1.2-2.7,2.7v8.4l-1.8,0.2c-0.3,0-0.6,0.3-0.5,0.7c0,0.3,0.3,0.5,0.6,0.5c0,0,0.1,0,0.1,0l2.2-0.3h2v2.1
				c0,1.7-1.4,3.1-3.1,3.1h-0.1c-0.3,0-0.6,0.3-0.6,0.6v7.4c0,0.3,0.3,0.6,0.6,0.6h0.5c0.6,0,1.2,0.4,1.4,0.9h-3.6V16.3
				c0-0.3-0.3-0.6-0.6-0.6c-0.3,0-0.6,0.3-0.6,0.6v1H8.8v-1c0-0.3-0.3-0.6-0.6-0.6c-0.3,0-0.6,0.3-0.6,0.6v3c0,1.1-0.9,2-2,2
				c-0.3,0-0.6,0.3-0.6,0.6v3.4c0,0.3,0.3,0.6,0.6,0.6H6c0.6,0,1.2,0.4,1.4,0.9H3.8v-8.3h0.9c0.3,0,0.6-0.3,0.6-0.6v-2.5
				c0-0.3-0.3-0.6-0.6-0.6H2.4c-0.5,0-1-0.3-1.2-0.8h3.2c0,0,0.1,0,0.1,0l8.2-1c0.3,0,0.6-0.3,0.5-0.7c0-0.3-0.3-0.5-0.7-0.5l-8.2,1
				H0.6c-0.3,0-0.6,0.3-0.6,0.6v0.2C0,14.9,1.1,16,2.4,16h1.7v1.4H3.2c-0.3,0-0.6,0.3-0.6,0.6v9.5c0,0.3,0.3,0.6,0.6,0.6h4.9
				c0.3,0,0.6-0.3,0.6-0.6c0-1.4-1.2-2.6-2.6-2.7v-2.3c1.5-0.3,2.6-1.6,2.6-3.1v-0.8h5.7v8.9c0,0.3,0.3,0.6,0.6,0.6h4.9
				c0.3,0,0.6-0.3,0.6-0.6c0-1.4-1.2-2.6-2.6-2.7v-6.2C20,18.2,21.7,16.4,21.7,14.3z M20,1.3v2.6c0,0.3,0.3,0.6,0.6,0.6h1V5
				c0,0.3,0.3,0.6,0.6,0.6c0.3,0,0.6-0.3,0.6-0.6V4.4h2.6c-0.3,1.3-1.5,2.3-2.9,2.3h-1.4c-0.3,0-0.6,0.3-0.6,0.6V9H19V2.7
				C19,2,19.4,1.5,20,1.3z"/>
		</defs>
		<clipPath id="SVGID_4_">
			<use xlink:href="#SVGID_3_"  style="overflow:visible;"/>
		</clipPath>
		<g class="st2">
			<g>
				<defs>
					<rect id="SVGID_5_" x="-805" y="-286" width="1263" height="1263"/>
				</defs>
				<clipPath id="SVGID_6_">
					<use xlink:href="#SVGID_5_"  style="overflow:visible;"/>
				</clipPath>
				<g class="st3">
					<path d="M-5-5h36.6v38H-5V-5z"/>
				</g>
			</g>
		</g>
	</g>
	<g>
		<defs>
			<path id="SVGID_7_" d="M14.4,12C14.4,12,14.4,12,14.4,12l0.2,0c0.2,0,0.4-0.3,0.4-0.5c0-0.3-0.2-0.5-0.5-0.4l-0.2,0
				c-0.2,0-0.4,0.3-0.4,0.5C14,11.8,14.2,12,14.4,12z"/>
		</defs>
		<clipPath id="SVGID_8_">
			<use xlink:href="#SVGID_7_"  style="overflow:visible;"/>
		</clipPath>
		<g class="st4">
			<g>
				<defs>
					<rect id="SVGID_9_" x="-805" y="-286" width="1263" height="1263"/>
				</defs>
				<clipPath id="SVGID_10_">
					<use xlink:href="#SVGID_9_"  style="overflow:visible;"/>
				</clipPath>
				<g class="st5">
					<path d="M9,6h11v11H9V6z"/>
				</g>
			</g>
		</g>
	</g>
</g>
</svg>
