<?xml version="1.0" encoding="UTF-8" standalone="no"?>
<!DOCTYPE svg PUBLIC "-//W3C//DTD SVG 1.1//EN" "http://www.w3.org/Graphics/SVG/1.1/DTD/svg11.dtd">
<svg xmlns="http://www.w3.org/2000/svg" xmlns:xlink="http://www.w3.org/1999/xlink" version="1.1" width="24pt" height="24pt" viewBox="0 0 24 24">
<g enable-background="new">
<clipPath id="cp0">
<path transform="matrix(1,0,0,-1,0,24)" d="M 15.98822 20.41822 C 15.72844 20.41822 15.51764 20.20738 15.51764 19.94764 C 15.51764 19.68786 15.72848 19.47706 15.98822 19.47706 C 16.248 19.47706 16.4588 19.68791 16.4588 19.94764 C 16.45884 20.20738 16.248 20.41822 15.98822 20.41822 Z " fill-rule="evenodd"/>
</clipPath>
<g clip-path="url(#cp0)">
<clipPath id="cp1">
<path transform="matrix(1,0,0,-1,0,24)" d="M -105 -1068 L 1158 -1068 L 1158 195 L -105 195 Z "/>
</clipPath>
<g clip-path="url(#cp1)">
<path transform="matrix(1,0,0,-1,0,24)" d="M 10.51764 25.41822 L 21.4588 25.41822 L 21.4588 14.47706 L 10.51764 14.47706 Z " />
</g>
</g>
<clipPath id="cp2">
<path transform="matrix(1,0,0,-1,0,24)" d="M 14.97225 22.96644 C 13.70663 22.96644 12.59822 22.27986 12 21.25972 C 11.40178 22.27986 10.29338 22.96644 9.02775 22.96644 C 7.129406 22.96644 5.584922 21.422 5.584922 19.52361 C 5.584922 17.61186 6.673594 15.72786 8.733188 14.07514 C 10.2502 12.85789 11.74758 12.19339 11.81058 12.16573 C 11.87091 12.13925 11.93536 12.12598 11.99991 12.12598 C 12.06441 12.12598 12.12895 12.13925 12.18923 12.16573 C 12.25223 12.19339 13.7497 12.85789 15.26686 14.07514 C 17.32673 15.72786 18.41545 17.61191 18.41545 19.52361 C 18.41545 21.42195 16.87087 22.96644 14.97225 22.96644 Z M 12 13.11688 C 11.01394 13.59856 6.526125 15.98637 6.526125 19.52361 C 6.526125 20.90305 7.648359 22.02523 9.027797 22.02523 C 10.40723 22.02523 11.52942 20.903 11.52942 19.52361 C 11.52942 19.26369 11.74013 19.05303 12 19.05303 C 12.25992 19.05303 12.47058 19.26373 12.47058 19.52361 C 12.47058 20.90305 13.59286 22.02523 14.9722 22.02523 C 16.35187 22.02523 17.47434 20.903 17.47434 19.52361 C 17.47434 15.98637 12.9862 13.59856 12 13.11688 Z " fill-rule="evenodd"/>
</clipPath>
<g clip-path="url(#cp2)">
<clipPath id="cp3">
<path transform="matrix(1,0,0,-1,0,24)" d="M -105 -1068 L 1158 -1068 L 1158 195 L -105 195 Z "/>
</clipPath>
<g clip-path="url(#cp3)">
<path transform="matrix(1,0,0,-1,0,24)" d="M .5849219 27.96644 L 23.41545 27.96644 L 23.41545 7.125984 L .5849219 7.125984 Z " />
</g>
</g>
<clipPath id="cp4">
<path transform="matrix(1,0,0,-1,0,24)" d="M 16.08014 18.93378 C 15.83587 19.0228 15.56583 18.89684 15.47691 18.65272 C 15.11559 17.66075 14.21845 16.79361 13.52953 16.24081 C 13.3268 16.07811 13.29431 15.782 13.45697 15.57927 C 13.54997 15.46339 13.68647 15.40316 13.82433 15.40316 C 13.92764 15.40316 14.03166 15.43705 14.11852 15.50675 C 15.25683 16.42006 16.01138 17.37013 16.36125 18.33059 C 16.45017 18.57477 16.32431 18.84481 16.08014 18.93378 Z " fill-rule="evenodd"/>
</clipPath>
<g clip-path="url(#cp4)">
<clipPath id="cp5">
<path transform="matrix(1,0,0,-1,0,24)" d="M -105 -1068 L 1158 -1068 L 1158 195 L -105 195 Z "/>
</clipPath>
<g clip-path="url(#cp5)">
<path transform="matrix(1,0,0,-1,0,24)" d="M 8.353406 23.96235 L 21.38978 23.96235 L 21.38978 10.40316 L 8.353406 10.40316 Z " />
</g>
</g>
<clipPath id="cp6">
<path transform="matrix(1,0,0,-1,0,24)" d="M 10.16367 7.576578 C 10.1633 7.584547 10.16325 7.592469 10.16245 7.600437 C 10.15144 7.718 10.09706 7.822484 10.01559 7.898703 L 6.654984 11.25927 L 4.727016 14.2918 C 4.417078 14.77944 3.889406 15.05872 3.341203 15.06688 L 3.341203 20.09352 C 3.341203 21.0147 2.591812 21.76409 1.670625 21.76409 C 1.223766 21.76409 .8041406 21.59014 .4890937 21.27434 C .173625 20.95836 0 20.53897 0 20.09338 L .00328125 10.619 C .003328125 10.51273 .03932813 10.40961 .1054688 10.32641 L 4.453172 4.854969 L 4.453172 2.222938 C 4.453172 1.963016 4.663875 1.752359 4.92375 1.752359 L 9.694125 1.752359 C 9.954047 1.752359 10.1647 1.963063 10.1647 2.222938 L 10.1647 7.556094 C 10.1647 7.562984 10.16395 7.569781 10.16367 7.576578 Z M 9.223547 2.693469 L 5.394375 2.693469 L 5.394375 5.019125 C 5.394375 5.125437 5.358375 5.228609 5.292187 5.311859 L .9444375 10.78344 L .9411562 20.09352 C .9411562 20.28795 1.017141 20.47123 1.155234 20.60961 C 1.292484 20.74714 1.475531 20.82294 1.670578 20.82294 C 2.072812 20.82294 2.4 20.49575 2.4 20.09352 L 2.4 14.7912 C 1.927734 14.48113 1.646109 13.96133 1.646109 13.3947 C 1.646109 13.07736 1.736531 12.7677 1.907344 12.49939 L 3.969 9.25625 C 3.991594 9.209797 4.021922 9.167 4.059281 9.129641 L 6.831984 6.356938 C 6.923906 6.265016 7.044328 6.219125 7.16475 6.219125 C 7.285172 6.219125 7.405641 6.265063 7.497516 6.356938 C 7.681266 6.540688 7.681266 6.838672 7.497516 7.022469 L 4.771125 9.748812 L 2.701406 13.00466 C 2.626734 13.12189 2.587266 13.25675 2.587266 13.3947 C 2.587266 13.64605 2.713781 13.87648 2.926172 14.01139 C 2.964281 14.03567 3.004172 14.05616 3.046406 14.07298 C 3.371391 14.20381 3.744141 14.08363 3.932719 13.78686 L 5.888484 10.71064 C 5.906953 10.68163 5.928516 10.65467 5.952844 10.63034 L 9.223547 7.359641 L 9.223547 2.693469 Z " fill-rule="evenodd"/>
</clipPath>
<g clip-path="url(#cp6)">
<clipPath id="cp7">
<path transform="matrix(1,0,0,-1,0,24)" d="M -105 -1068 L 1158 -1068 L 1158 195 L -105 195 Z "/>
</clipPath>
<g clip-path="url(#cp7)">
<path transform="matrix(1,0,0,-1,0,24)" d="M -5 26.76409 L 15.1647 26.76409 L 15.1647 -3.247641 L -5 -3.247641 Z " />
</g>
</g>
<clipPath id="cp8">
<path transform="matrix(1,0,0,-1,0,24)" d="M 23.511 21.27434 C 23.19591 21.59014 22.77628 21.76409 22.32942 21.76409 C 21.40823 21.76409 20.65884 21.0147 20.65884 20.09352 L 20.65884 15.06664 C 20.11022 15.05858 19.58278 14.7793 19.27298 14.29189 L 17.34497 11.25931 L 13.97686 7.89125 C 13.95328 7.868141 13.93209 7.842641 13.91381 7.815078 C 13.91095 7.810813 13.90856 7.806266 13.90584 7.801906 C 13.90059 7.793328 13.89525 7.784844 13.89052 7.775938 C 13.88742 7.770078 13.8848 7.764078 13.88194 7.758125 C 13.87819 7.750297 13.8743 7.742563 13.87097 7.7345 C 13.8683 7.727984 13.86619 7.721422 13.86375 7.714813 C 13.86094 7.706984 13.85789 7.69925 13.8555 7.691234 C 13.85339 7.684156 13.8518 7.676984 13.85002 7.669813 C 13.84809 7.662125 13.84594 7.654531 13.84439 7.646703 C 13.8427 7.638031 13.84167 7.629359 13.84041 7.620641 C 13.83952 7.614125 13.83825 7.607797 13.83759 7.601188 C 13.83605 7.585625 13.83525 7.570016 13.83525 7.554406 L 13.83525 2.222844 C 13.83525 1.962922 14.04595 1.752266 14.30583 1.752266 L 19.0762 1.752266 C 19.33613 1.752266 19.54678 1.962969 19.54678 2.222844 L 19.54678 4.854875 L 23.89448 10.32631 C 23.96063 10.40952 23.99662 10.51264 23.99667 10.61891 L 24 20.09352 C 24 20.53897 23.82638 20.95836 23.511 21.27434 Z M 23.05556 10.78344 L 18.70781 5.311906 C 18.64163 5.228656 18.60563 5.125438 18.60563 5.019172 L 18.60563 2.693516 L 14.77645 2.693516 L 14.77645 7.359688 L 18.04711 10.63034 C 18.07144 10.65467 18.09305 10.68158 18.11147 10.71064 L 20.06728 13.78691 C 20.25586 14.08358 20.62856 14.20386 20.95523 14.07228 C 20.99578 14.05611 21.03567 14.03563 21.07425 14.01106 C 21.28622 13.87644 21.41269 13.646 21.41269 13.39466 C 21.41269 13.2567 21.37327 13.12184 21.29841 13.00428 L 19.22892 9.748859 L 16.50253 7.022516 C 16.31878 6.838766 16.31878 6.540781 16.50253 6.356984 C 16.59445 6.265063 16.71488 6.219172 16.8353 6.219172 C 16.95572 6.219172 17.07619 6.265109 17.16806 6.356984 L 19.94077 9.129688 C 19.97695 9.165922 20.00644 9.207453 20.02861 9.2525 L 22.09242 12.49906 C 22.26342 12.76766 22.35384 13.07731 22.35384 13.3947 C 22.35384 13.96147 22.07213 14.4815 21.59995 14.79125 L 21.59995 20.09352 C 21.59995 20.49575 21.92714 20.82294 22.32938 20.82294 C 22.52442 20.82294 22.70747 20.74719 22.84472 20.60956 C 22.98277 20.47123 23.0588 20.28795 23.0588 20.09366 L 23.05556 10.78344 Z " fill-rule="evenodd"/>
</clipPath>
<g clip-path="url(#cp8)">
<clipPath id="cp9">
<path transform="matrix(1,0,0,-1,0,24)" d="M -105 -1068 L 1158 -1068 L 1158 195 L -105 195 Z "/>
</clipPath>
<g clip-path="url(#cp9)">
<path transform="matrix(1,0,0,-1,0,24)" d="M 8.83525 26.76409 L 29 26.76409 L 29 -3.247734 L 8.83525 -3.247734 Z " />
</g>
</g>
</g>
</svg>
