<?xml version="1.0" encoding="UTF-8" standalone="no"?>
<!DOCTYPE svg PUBLIC "-//W3C//DTD SVG 1.1//EN" "http://www.w3.org/Graphics/SVG/1.1/DTD/svg11.dtd">
<svg xmlns="http://www.w3.org/2000/svg" xmlns:xlink="http://www.w3.org/1999/xlink" version="1.1" width="24pt" height="24pt" viewBox="0 0 24 24">
<g enable-background="new">
<clipPath id="cp0">
<path transform="matrix(1,0,0,-1,0,24)" d="M 7.336121 23.0625 C 7.595032 23.0625 7.804871 23.27234 7.804871 23.53125 C 7.804871 23.79016 7.595032 24 7.336121 24 L 7.335754 24 C 7.076843 24 6.867188 23.79016 6.867188 23.53125 C 6.867188 23.27234 7.077209 23.0625 7.336121 23.0625 Z " fill-rule="evenodd"/>
</clipPath>
<g clip-path="url(#cp0)">
<clipPath id="cp1">
<path transform="matrix(1,0,0,-1,0,24)" d="M -899 -1155 L 364 -1155 L 364 108 L -899 108 Z "/>
</clipPath>
<g clip-path="url(#cp1)">
<path transform="matrix(1,0,0,-1,0,24)" d="M 1.867188 29 L 12.80487 29 L 12.80487 18.0625 L 1.867188 18.0625 Z " />
</g>
</g>
<clipPath id="cp2">
<path transform="matrix(1,0,0,-1,0,24)" d="M 16.80487 .9375 L 16.8045 .9375 C 16.54559 .9375 16.33594 .7276612 16.33594 .46875 C 16.33594 .2098388 16.54596 0 16.80487 0 C 17.06378 0 17.27362 .2098388 17.27362 .46875 C 17.27362 .7276612 17.06378 .9375 16.80487 .9375 Z " fill-rule="evenodd"/>
</clipPath>
<g clip-path="url(#cp2)">
<clipPath id="cp3">
<path transform="matrix(1,0,0,-1,0,24)" d="M -899 -1155 L 364 -1155 L 364 108 L -899 108 Z "/>
</clipPath>
<g clip-path="url(#cp3)">
<path transform="matrix(1,0,0,-1,0,24)" d="M 11.33594 5.9375 L 22.27362 5.9375 L 22.27362 -5 L 11.33594 -5 Z " />
</g>
</g>
<clipPath id="cp4">
<path transform="matrix(1,0,0,-1,0,24)" d="M 20.83594 4.21875 L 20.83594 22.78125 C 20.83594 23.45325 20.28918 24 19.61719 24 L 9.210938 24 C 8.952026 24 8.742188 23.79016 8.742188 23.53125 C 8.742188 23.27234 8.952026 23.0625 9.210938 23.0625 L 19.61719 23.0625 C 19.76971 23.0625 19.89844 22.93378 19.89844 22.78125 L 19.89844 4.21875 C 19.89844 4.066223 19.76971 3.9375 19.61719 3.9375 L 5.929688 3.9375 L 5.929688 23.53125 C 5.929688 23.79016 5.719849 24 5.460938 24 L 4.992188 24 C 3.906555 24 3.023438 23.11688 3.023438 22.03125 L 3.023438 1.96875 C 3.023438 .8831177 3.906555 0 4.992188 0 L 14.92969 0 C 15.1886 0 15.39844 .2098388 15.39844 .46875 C 15.39844 .7276612 15.1886 .9375 14.92969 .9375 L 4.992188 .9375 C 4.423645 .9375 3.960938 1.400024 3.960938 1.96875 C 3.960938 2.537476 4.423462 3 4.992188 3 L 19.14844 3 L 19.14844 .9375 L 18.67969 .9375 C 18.42078 .9375 18.21094 .7276612 18.21094 .46875 C 18.21094 .2098388 18.42078 0 18.67969 0 L 20.36719 0 C 20.6261 0 20.83594 .2098388 20.83594 .46875 C 20.83594 .7276612 20.6261 .9375 20.36719 .9375 L 20.08594 .9375 L 20.08594 3.093933 C 20.52594 3.277954 20.83594 3.712646 20.83594 4.21875 Z M 4.992188 3.9375 C 4.614441 3.9375 4.261047 3.830566 3.960938 3.645264 L 3.960938 22.03125 C 3.960938 22.59998 4.423462 23.0625 4.992188 23.0625 L 4.992188 3.9375 Z " fill-rule="evenodd"/>
</clipPath>
<g clip-path="url(#cp4)">
<clipPath id="cp5">
<path transform="matrix(1,0,0,-1,0,24)" d="M -899 -1155 L 364 -1155 L 364 108 L -899 108 Z "/>
</clipPath>
<g clip-path="url(#cp5)">
<path transform="matrix(1,0,0,-1,0,24)" d="M -1.976562 29 L 25.83594 29 L 25.83594 -5 L -1.976562 -5 Z " />
</g>
</g>
<clipPath id="cp6">
<path transform="matrix(1,0,0,-1,0,24)" d="M 9.19043 10.81696 C 9.19043 10.18781 9.348816 9.73114 9.674927 9.420959 C 10.21655 8.905518 11.04034 8.946716 11.99432 8.994141 C 12.29095 9.008972 12.59784 9.02417 12.91406 9.02417 C 13.23029 9.02417 13.53717 9.008972 13.8338 8.994141 C 14.10315 8.980774 14.36206 8.967773 14.60724 8.967773 C 15.23053 8.967773 15.76447 9.051086 16.1532 9.420959 C 16.47931 9.73114 16.6377 10.18781 16.6377 10.81696 C 16.6377 12.87012 14.96722 14.54059 12.91406 14.54059 C 10.86072 14.54059 9.19043 12.87012 9.19043 10.81696 Z M 12.91406 13.60309 C 14.45032 13.60309 15.7002 12.35321 15.7002 10.81696 C 15.7002 10.4632 15.63519 10.22223 15.50702 10.1001 C 15.25671 9.862061 14.5882 9.895203 13.88031 9.930359 C 13.57233 9.94574 13.25354 9.96167 12.91406 9.96167 C 12.5744 9.96167 12.2558 9.94574 11.94763 9.930359 C 11.23993 9.895203 10.57141 9.861877 10.32111 10.1001 C 10.19293 10.22223 10.12793 10.4632 10.12793 10.81696 C 10.12793 12.35321 11.37781 13.60309 12.91406 13.60309 Z " fill-rule="evenodd"/>
</clipPath>
<g clip-path="url(#cp6)">
<clipPath id="cp7">
<path transform="matrix(1,0,0,-1,0,24)" d="M -899 -1155 L 364 -1155 L 364 108 L -899 108 Z "/>
</clipPath>
<g clip-path="url(#cp7)">
<path transform="matrix(1,0,0,-1,0,24)" d="M 4.19043 19.54059 L 21.6377 19.54059 L 21.6377 3.967773 L 4.19043 3.967773 Z " />
</g>
</g>
<clipPath id="cp8">
<path transform="matrix(1,0,0,-1,0,24)" d="M 14.38953 16.45532 C 14.38953 17.32489 13.7276 18.03223 12.91406 18.03223 C 12.10052 18.03223 11.4386 17.32489 11.4386 16.45532 C 11.4386 15.58594 12.10052 14.87842 12.91406 14.87842 C 13.7276 14.87842 14.38953 15.58594 14.38953 16.45532 Z M 12.3761 16.45532 C 12.3761 16.80194 12.62238 17.09473 12.91406 17.09473 C 13.20557 17.09473 13.45203 16.80194 13.45203 16.45532 C 13.45203 16.10889 13.20557 15.81592 12.91406 15.81592 C 12.62238 15.81592 12.3761 16.10889 12.3761 16.45532 Z " fill-rule="evenodd"/>
</clipPath>
<g clip-path="url(#cp8)">
<clipPath id="cp9">
<path transform="matrix(1,0,0,-1,0,24)" d="M -899 -1155 L 364 -1155 L 364 108 L -899 108 Z "/>
</clipPath>
<g clip-path="url(#cp9)">
<path transform="matrix(1,0,0,-1,0,24)" d="M 6.438599 23.03223 L 19.38953 23.03223 L 19.38953 9.878418 L 6.438599 9.878418 Z " />
</g>
</g>
<clipPath id="cp10">
<path transform="matrix(1,0,0,-1,0,24)" d="M 7.981934 14.50836 C 8.281677 13.98926 8.815063 13.69409 9.348633 13.69409 C 9.588867 13.69409 9.829285 13.75415 10.0481 13.88049 C 10.39691 14.08191 10.6377 14.41681 10.72614 14.82404 C 10.81091 15.21442 10.7439 15.6264 10.53754 15.98383 C 10.10284 16.73676 9.175964 17.01855 8.471374 16.61169 C 8.122559 16.41046 7.881775 16.07538 7.793335 15.66833 C 7.708557 15.27777 7.775574 14.86578 7.981934 14.50836 Z M 8.709595 15.4693 C 8.741089 15.61487 8.822937 15.73224 8.939941 15.7998 C 9.196838 15.9483 9.549316 15.8205 9.725647 15.51508 C 9.815186 15.35999 9.845215 15.18512 9.809876 15.02289 C 9.778381 14.87732 9.696533 14.75995 9.579346 14.69238 C 9.322449 14.54407 8.970154 14.67188 8.793823 14.97711 C 8.704285 15.1322 8.674255 15.30707 8.709595 15.4693 Z " fill-rule="evenodd"/>
</clipPath>
<g clip-path="url(#cp10)">
<clipPath id="cp11">
<path transform="matrix(1,0,0,-1,0,24)" d="M -899 -1155 L 364 -1155 L 364 108 L -899 108 Z "/>
</clipPath>
<g clip-path="url(#cp11)">
<path transform="matrix(1,0,0,-1,0,24)" d="M 2.757547 21.79802 L 15.76192 21.79802 L 15.76192 8.694092 L 2.757547 8.694092 Z " />
</g>
</g>
<clipPath id="cp12">
<path transform="matrix(1,0,0,-1,0,24)" d="M 15.7126 14.18016 C 15.93128 14.05805 16.17116 14 16.41123 14 C 16.94384 14 17.47663 14.28528 17.77594 14.78701 C 17.982 15.13246 18.04892 15.53066 17.96426 15.90797 C 17.87595 16.30138 17.63552 16.62525 17.28721 16.81992 C 16.58365 17.21316 15.65812 16.94079 15.22406 16.21307 C 15.018 15.86744 14.95108 15.46942 15.03574 15.09193 C 15.12405 14.69852 15.36448 14.37466 15.7126 14.18016 Z M 16.08744 15.71844 C 16.19933 15.89633 16.39147 16 16.57519 16 C 16.64767 16 16.71885 15.98379 16.78322 15.94973 C 16.88684 15.89484 16.95932 15.7995 16.98721 15.68126 C 17.0185 15.54948 16.99191 15.40758 16.91262 15.28146 C 16.75647 15.03336 16.44433 14.92984 16.21684 15.05017 C 16.11323 15.10506 16.04074 15.20039 16.01269 15.31864 C 15.98156 15.45042 16.00815 15.59246 16.08744 15.71844 Z " fill-rule="evenodd"/>
</clipPath>
<g clip-path="url(#cp12)">
<clipPath id="cp13">
<path transform="matrix(1,0,0,-1,0,24)" d="M -899 -1155 L 364 -1155 L 364 108 L -899 108 Z "/>
</clipPath>
<g clip-path="url(#cp13)">
<path transform="matrix(1,0,0,-1,0,24)" d="M 10 22 L 23 22 L 23 9 L 10 9 Z " />
</g>
</g>
</g>
</svg>
