<?xml version="1.0" encoding="UTF-8" standalone="no"?>
<!DOCTYPE svg PUBLIC "-//W3C//DTD SVG 1.1//EN" "http://www.w3.org/Graphics/SVG/1.1/DTD/svg11.dtd">
<svg xmlns="http://www.w3.org/2000/svg" xmlns:xlink="http://www.w3.org/1999/xlink" version="1.1" width="24pt" height="24pt" viewBox="0 0 24 24">
<g enable-background="new">
<clipPath id="cp0">
<path transform="matrix(1,0,0,-1,0,24)" d="M 21.65625 21 L 2.34375 21 C 1.051406 21 0 19.93753 0 18.63158 L 0 5.368421 C 0 4.062474 1.051406 3 2.34375 3 L 21.65625 3 C 22.94859 3 24 4.062474 24 5.368421 L 24 18.63158 C 24 19.93753 22.94859 21 21.65625 21 Z M 21.13139 20.05263 L 19.53764 18.44211 L 11.30878 18.44211 C 11.04989 18.44211 10.84003 18.22999 10.84003 17.96842 C 10.84003 17.70685 11.04989 17.49474 11.30878 17.49474 L 18.60014 17.49474 L 17.28764 16.16842 L 13.82002 16.16842 C 13.56112 16.16842 13.35127 15.95631 13.35127 15.69474 C 13.35127 15.43317 13.56112 15.22105 13.82002 15.22105 L 16.35014 15.22105 L 14.05791 12.90469 C 12.92316 11.75804 11.07684 11.75804 9.942094 12.90469 L 2.868609 20.05263 L 21.13139 20.05263 Z M 21.65625 3.947368 L 2.34375 3.947368 C 2.112422 3.947368 1.894125 4.004495 1.701422 4.104916 L 3.934031 6.361026 C 4.117078 6.546 4.117078 6.845937 3.934031 7.030911 C 3.842484 7.123421 3.722531 7.169653 3.602578 7.169653 C 3.482625 7.169653 3.362625 7.123374 3.271125 7.030911 L 1.057828 4.794316 C .9807187 4.970005 .9375 5.164168 .9375 5.368421 L .9375 18.63158 C .9375 19.18153 1.248469 19.65914 1.701844 19.89527 C 1.711734 19.88305 1.722328 19.87116 1.733625 19.85975 L 8.85 12.66851 L 5.890031 9.677384 C 5.706984 9.492411 5.706984 9.192474 5.890031 9.007453 C 6.073078 8.822432 6.369891 8.822479 6.552984 9.007453 L 9.523641 12.00943 C 10.95009 10.79514 13.04995 10.79514 14.47645 12.00943 L 22.29863 4.104868 C 22.10587 4.004495 21.88758 3.947368 21.65625 3.947368 Z M 23.0625 5.368421 C 23.0625 5.164168 23.01928 4.970005 22.94217 4.794316 L 15.15005 12.66856 L 22.26642 19.85979 C 22.27772 19.87121 22.28827 19.88305 22.2982 19.89532 C 22.75153 19.65914 23.0625 19.18153 23.0625 18.63158 L 23.0625 5.368421 Z " fill-rule="evenodd"/>
</clipPath>
<g clip-path="url(#cp0)">
<clipPath id="cp1">
<path transform="matrix(1,0,0,-1,0,24)" d="M -51 -644 L 1212 -644 L 1212 619 L -51 619 Z "/>
</clipPath>
<g clip-path="url(#cp1)">
<path transform="matrix(1,0,0,-1,0,24)" d="M -5 26 L 29 26 L 29 -2 L -5 -2 Z " />
</g>
</g>
<clipPath id="cp2">
<path transform="matrix(1,0,0,-1,0,24)" d="M 9.8535 17.85345 C 9.7605 17.9465 9.632 18 9.5 18 C 9.3685 18 9.2395 17.9465 9.1465 17.85345 C 9.0535 17.7605 9 17.6315 9 17.5 C 9 17.3685 9.0535 17.2395 9.1465 17.1465 C 9.2395 17.0535 9.3685 17 9.5 17 C 9.632 17 9.7605 17.05345 9.8535 17.1465 C 9.947 17.2395 10 17.3685 10 17.5 C 10 17.6315 9.947 17.7605 9.8535 17.85345 Z " fill-rule="evenodd"/>
</clipPath>
<g clip-path="url(#cp2)">
<clipPath id="cp3">
<path transform="matrix(1,0,0,-1,0,24)" d="M -51 -644 L 1212 -644 L 1212 619 L -51 619 Z "/>
</clipPath>
<g clip-path="url(#cp3)">
<path transform="matrix(1,0,0,-1,0,24)" d="M 4 23 L 15 23 L 15 12 L 4 12 Z " />
</g>
</g>
<clipPath id="cp4">
<path transform="matrix(1,0,0,-1,0,24)" d="M 4.853927 7.8535 C 4.76088 7.9465 4.631816 8 4.49975 8 C 4.368184 8 4.23962 7.9465 4.146073 7.8535 C 4.053027 7.7605 4 7.6315 4 7.5 C 4 7.368 4.053027 7.2395 4.146073 7.1465 C 4.23962 7.053 4.368184 7 4.49975 7 C 4.631816 7 4.76088 7.053 4.853927 7.1465 C 4.946973 7.2395 5 7.368 5 7.5 C 5 7.6315 4.946973 7.7605 4.853927 7.8535 Z " fill-rule="evenodd"/>
</clipPath>
<g clip-path="url(#cp4)">
<clipPath id="cp5">
<path transform="matrix(1,0,0,-1,0,24)" d="M -51 -644 L 1212 -644 L 1212 619 L -51 619 Z "/>
</clipPath>
<g clip-path="url(#cp5)">
<path transform="matrix(1,0,0,-1,0,24)" d="M -1 13 L 10 13 L 10 2 L -1 2 Z " />
</g>
</g>
</g>
</svg>
