<?xml version="1.0" encoding="UTF-8" standalone="no"?>
<!DOCTYPE svg PUBLIC "-//W3C//DTD SVG 1.1//EN" "http://www.w3.org/Graphics/SVG/1.1/DTD/svg11.dtd">
<svg xmlns="http://www.w3.org/2000/svg" xmlns:xlink="http://www.w3.org/1999/xlink" version="1.1" width="24pt" height="24pt" viewBox="0 0 24 24">
<g enable-background="new">
<clipPath id="cp0">
<path transform="matrix(1,0,0,-1,0,24)" d="M 22.875 7.343672 L 22.875 20.69531 C 22.875 21.48366 22.23361 22.125 21.44531 22.125 L 18.04688 22.125 L 18.04688 22.59375 C 18.04688 23.36916 17.41603 24 16.64062 24 C 15.86522 24 15.23438 23.36916 15.23438 22.59375 L 15.23438 22.125 L 7.640625 22.125 L 7.640625 22.59375 C 7.640625 23.36916 7.009781 24 6.234375 24 C 5.458969 24 4.828125 23.36916 4.828125 22.59375 L 4.828125 22.125 L 1.429688 22.125 C .6413906 22.125 0 21.48366 0 20.69531 L 0 3.304688 C 0 2.516344 .6413906 1.875 1.429688 1.875 L 7.818797 1.875 C 8.077641 1.875 8.287547 2.084859 8.287547 2.34375 C 8.287547 2.602641 8.077641 2.8125 7.818797 2.8125 L 1.429688 2.8125 C 1.158281 2.8125 .9375 3.033281 .9375 3.304688 L .9375 20.69531 C .9375 20.96672 1.158281 21.1875 1.429688 21.1875 L 4.828125 21.1875 L 4.828125 20.71875 C 4.828125 19.94334 5.458969 19.3125 6.234375 19.3125 C 7.009781 19.3125 7.640625 19.94334 7.640625 20.71875 L 7.640625 21.1875 L 15.23438 21.1875 L 15.23438 20.71875 C 15.23438 19.94334 15.86522 19.3125 16.64062 19.3125 C 17.41603 19.3125 18.04688 19.94334 18.04688 20.71875 L 18.04688 21.1875 L 21.44531 21.1875 C 21.71672 21.1875 21.9375 20.96672 21.9375 20.69531 L 21.9375 18.375 L 4.21875 18.375 C 3.959906 18.375 3.75 18.16514 3.75 17.90625 C 3.75 17.64736 3.959906 17.4375 4.21875 17.4375 L 21.9375 17.4375 L 21.9375 8.135766 C 21.53841 8.387484 21.09637 8.576859 20.625 8.690344 L 20.625 15.65625 C 20.625 15.91514 20.41509 16.125 20.15625 16.125 L 2.71875 16.125 C 2.459906 16.125 2.25 15.91514 2.25 15.65625 L 2.25 4.59375 C 2.25 4.334859 2.459906 4.125 2.71875 4.125 L 15.19673 4.125 C 15.22584 3.664922 15.32573 3.223828 15.48591 2.8125 L 11.56875 2.8125 C 11.30991 2.8125 11.1 2.602641 11.1 2.34375 C 11.1 2.084859 11.30991 1.875 11.56875 1.875 L 15.9892 1.875 C 16.78734 .7418438 18.10547 0 19.59375 0 C 22.02338 0 24 1.976625 24 4.40625 C 24 5.533781 23.57409 6.563531 22.875 7.343672 Z M 6.703125 20.71875 C 6.703125 20.46028 6.492844 20.25 6.234375 20.25 C 5.975906 20.25 5.765625 20.46028 5.765625 20.71875 L 5.765625 22.59375 C 5.765625 22.85222 5.975906 23.0625 6.234375 23.0625 C 6.492844 23.0625 6.703125 22.85222 6.703125 22.59375 L 6.703125 20.71875 Z M 17.10938 20.71875 C 17.10938 20.46028 16.89909 20.25 16.64063 20.25 C 16.38216 20.25 16.17188 20.46028 16.17188 20.71875 L 16.17188 22.59375 C 16.17188 22.85222 16.38216 23.0625 16.64063 23.0625 C 16.89909 23.0625 17.10938 22.85222 17.10938 22.59375 L 17.10938 20.71875 Z M 19.59375 8.8125 C 19.37583 8.8125 19.16161 8.796328 18.95203 8.765625 L 17.1375 8.765625 L 17.1375 11.48437 L 19.6875 11.48437 L 19.6875 8.811328 C 19.65633 8.811984 19.62511 8.8125 19.59375 8.8125 Z M 15.23639 5.0625 L 13.65 5.0625 L 13.65 7.828125 L 16.2 7.828125 L 16.2 7.213406 C 15.70017 6.610172 15.3578 5.871984 15.23639 5.0625 Z M 3.1875 11.48437 L 5.7375 11.48437 L 5.7375 8.765625 L 3.1875 8.765625 L 3.1875 11.48437 Z M 6.675 11.48437 L 9.225 11.48437 L 9.225 8.765625 L 6.675 8.765625 L 6.675 11.48437 Z M 13.65 11.48437 L 16.2 11.48437 L 16.2 8.765625 L 13.65 8.765625 L 13.65 11.48437 Z M 12.7125 8.765625 L 10.1625 8.765625 L 10.1625 11.48437 L 12.7125 11.48437 L 12.7125 8.765625 Z M 13.65 12.42187 L 13.65 15.1875 L 16.2 15.1875 L 16.2 12.42187 L 13.65 12.42187 Z M 12.7125 12.42187 L 10.1625 12.42187 L 10.1625 15.1875 L 12.7125 15.1875 L 12.7125 12.42187 Z M 9.225 12.42187 L 6.675 12.42187 L 6.675 15.1875 L 9.225 15.1875 L 9.225 12.42187 Z M 9.225 7.828125 L 9.225 5.0625 L 6.675 5.0625 L 6.675 7.828125 L 9.225 7.828125 Z M 10.1625 7.828125 L 12.7125 7.828125 L 12.7125 5.0625 L 10.1625 5.0625 L 10.1625 7.828125 Z M 19.6875 12.42187 L 17.1375 12.42187 L 17.1375 15.1875 L 19.6875 15.1875 L 19.6875 12.42187 Z M 5.7375 15.1875 L 5.7375 12.42187 L 3.1875 12.42187 L 3.1875 15.1875 L 5.7375 15.1875 Z M 3.1875 7.828125 L 5.7375 7.828125 L 5.7375 5.0625 L 3.1875 5.0625 L 3.1875 7.828125 Z M 19.59375 .9375 C 17.68106 .9375 16.125 2.493562 16.125 4.40625 C 16.125 6.318937 17.68106 7.875 19.59375 7.875 C 21.50644 7.875 23.0625 6.318937 23.0625 4.40625 C 23.0625 2.493562 21.50644 .9375 19.59375 .9375 Z " fill-rule="evenodd"/>
</clipPath>
<g clip-path="url(#cp0)">
<clipPath id="cp1">
<path transform="matrix(1,0,0,-1,0,24)" d="M -336 -1068 L 927 -1068 L 927 195 L -336 195 Z "/>
</clipPath>
<g clip-path="url(#cp1)">
<path transform="matrix(1,0,0,-1,0,24)" d="M -5 29 L 29 29 L 29 -5 L -5 -5 Z " />
</g>
</g>
<clipPath id="cp2">
<path transform="matrix(1,0,0,-1,0,24)" d="M 20.9145 5.620626 L 19.455 4.148829 L 18.80559 4.803711 C 18.62137 4.989536 18.32266 4.989536 18.1382 4.803711 C 17.95393 4.617887 17.95393 4.31657 18.1382 4.130746 L 19.12129 3.13938 C 19.20981 3.050156 19.32981 3 19.45496 3 C 19.5801 3 19.7001 3.050156 19.78863 3.13938 L 21.5818 4.94766 C 21.76607 5.133485 21.76607 5.434801 21.5818 5.620673 C 21.39752 5.80645 21.09882 5.80645 20.9145 5.620626 Z " fill-rule="evenodd"/>
</clipPath>
<g clip-path="url(#cp2)">
<clipPath id="cp3">
<path transform="matrix(1,0,0,-1,0,24)" d="M -336 -1068 L 927 -1068 L 927 195 L -336 195 Z "/>
</clipPath>
<g clip-path="url(#cp3)">
<path transform="matrix(1,0,0,-1,0,24)" d="M 13 10.76 L 26.72 10.76 L 26.72 -2 L 13 -2 Z " />
</g>
</g>
<clipPath id="cp4">
<path transform="matrix(1,0,0,-1,0,24)" d="M 9.72 2.88 C 9.59376 2.88 9.46992 2.82864 9.38064 2.73936 C 9.291408 2.65008 9.24 2.52624 9.24 2.4 C 9.24 2.27376 9.29136 2.14992 9.38064 2.06064 C 9.46992 1.97136 9.59376 1.92 9.72 1.92 C 9.84624 1.92 9.97008 1.97136 10.05936 2.06064 C 10.14859 2.14992 10.2 2.27376 10.2 2.4 C 10.2 2.52624 10.14864 2.65008 10.05936 2.73936 C 9.97008 2.82864 9.84624 2.88 9.72 2.88 Z " fill-rule="evenodd"/>
</clipPath>
<g clip-path="url(#cp4)">
<clipPath id="cp5">
<path transform="matrix(1,0,0,-1,0,24)" d="M -336 -1068 L 927 -1068 L 927 195 L -336 195 Z "/>
</clipPath>
<g clip-path="url(#cp5)">
<path transform="matrix(1,0,0,-1,0,24)" d="M 4.24 7.88 L 15.2 7.88 L 15.2 -3.08 L 4.24 -3.08 Z " />
</g>
</g>
<clipPath id="cp6">
<path transform="matrix(1,0,0,-1,0,24)" d="M 2.739312 17.54064 C 2.82864 17.62992 2.88 17.75376 2.88 17.88 C 2.88 18.00624 2.82864 18.13008 2.739312 18.21936 C 2.65008 18.30864 2.52624 18.36 2.4 18.36 C 2.273232 18.36 2.14992 18.30864 2.06064 18.21936 C 1.97136 18.13008 1.92 18.00624 1.92 17.88 C 1.92 17.75376 1.971312 17.62992 2.06064 17.54064 C 2.149968 17.45136 2.273232 17.4 2.4 17.4 C 2.52624 17.4 2.65008 17.45136 2.739312 17.54064 Z " fill-rule="evenodd"/>
</clipPath>
<g clip-path="url(#cp6)">
<clipPath id="cp7">
<path transform="matrix(1,0,0,-1,0,24)" d="M -336 -1068 L 927 -1068 L 927 195 L -336 195 Z "/>
</clipPath>
<g clip-path="url(#cp7)">
<path transform="matrix(1,0,0,-1,0,24)" d="M -3.08 23.36 L 7.88 23.36 L 7.88 12.4 L -3.08 12.4 Z " />
</g>
</g>
</g>
</svg>
