<?xml version="1.0" encoding="UTF-8" standalone="no"?>
<!DOCTYPE svg PUBLIC "-//W3C//DTD SVG 1.1//EN" "http://www.w3.org/Graphics/SVG/1.1/DTD/svg11.dtd">
<svg xmlns="http://www.w3.org/2000/svg" xmlns:xlink="http://www.w3.org/1999/xlink" version="1.1" width="24pt" height="25pt" viewBox="0 0 24 25">
<g enable-background="new">
<clipPath id="cp0">
<path transform="matrix(1,0,0,-1,0,25)" d="M 23.62317 22.09241 L 14.24817 23.96741 C 14.11047 23.99506 13.96765 23.95935 13.85907 23.87036 C 13.75049 23.78119 13.6875 23.64825 13.6875 23.50781 L 13.6875 22.10156 L 4.78125 22.10156 C 4.522339 22.10156 4.3125 21.89172 4.3125 21.63281 L 4.3125 14.08594 L .46875 14.08594 C .2098388 14.08594 0 13.8761 0 13.61719 L 0 10.99219 C 0 10.73328 .2098388 10.52344 .46875 10.52344 L 4.3125 10.52344 L 4.3125 2.976565 C 4.3125 2.717651 4.522339 2.507812 4.78125 2.507812 L 13.6875 2.507812 L 13.6875 1.101562 C 13.6875 .9611206 13.75049 .8280029 13.85907 .7390137 C 13.94366 .6697998 14.04877 .6328125 14.15625 .6328125 C 14.18683 .6328125 14.21759 .6357422 14.24817 .6419677 L 23.62317 2.516968 C 23.84235 2.56073 24 2.753174 24 2.976565 L 24 10.19531 C 24 10.45422 23.79016 10.66406 23.53125 10.66406 C 23.27234 10.66406 23.0625 10.45422 23.0625 10.19531 L 23.0625 3.360901 L 14.625 1.673401 L 14.625 22.93597 L 23.0625 21.24847 L 23.0625 14.41406 C 23.0625 14.15515 23.27234 13.94531 23.53125 13.94531 C 23.79016 13.94531 24 14.15515 24 14.41406 L 24 21.63281 C 24 21.8562 23.84235 22.04865 23.62317 22.09241 Z M .9375 13.14844 L 7.109253 13.14844 C 7.368164 13.14844 7.578003 13.35828 7.578003 13.61719 L 7.578003 13.99182 L 10.50037 12.30469 L 7.578003 10.61755 L 7.578003 10.99219 C 7.578003 11.2511 7.368164 11.46094 7.109253 11.46094 L .9375 11.46094 L .9375 13.14844 Z M 5.25 3.445312 L 5.25 10.52344 L 6.640503 10.52344 L 6.640503 9.805664 C 6.640503 9.638123 6.729858 9.483398 6.874878 9.399719 C 6.947571 9.357788 7.02832 9.336914 7.109253 9.336914 C 7.190369 9.336914 7.271118 9.357788 7.343628 9.399719 L 11.67224 11.89874 C 11.81726 11.98242 11.90662 12.13715 11.90662 12.30469 C 11.90662 12.47223 11.81726 12.62695 11.67224 12.71063 L 7.343628 15.20966 C 7.198608 15.29333 7.020081 15.29333 6.874878 15.20966 C 6.729858 15.12598 6.640503 14.97125 6.640503 14.80371 L 6.640503 14.08594 L 5.25 14.08594 L 5.25 21.16406 L 13.6875 21.16406 L 13.6875 3.445312 L 5.25 3.445312 Z " fill-rule="evenodd"/>
</clipPath>
<g clip-path="url(#cp0)">
<clipPath id="cp1">
<path transform="matrix(1,0,0,-1,0,25)" d="M -421 -645 L 842 -645 L 842 618 L -421 618 Z "/>
</clipPath>
<g clip-path="url(#cp1)">
<path transform="matrix(1,0,0,-1,0,25)" d="M -5 28.97656 L 29 28.97656 L 29 -4.367188 L -5 -4.367188 Z " />
</g>
</g>
<clipPath id="cp2">
<path transform="matrix(1,0,0,-1,0,25)" d="M 16.21875 12.63281 L 16.21875 11.97656 C 16.21875 11.71765 16.42859 11.50781 16.6875 11.50781 C 16.94641 11.50781 17.15625 11.71765 17.15625 11.97656 L 17.15625 12.63281 C 17.15625 12.89172 16.94641 13.10156 16.6875 13.10156 C 16.42859 13.10156 16.21875 12.89172 16.21875 12.63281 Z " fill-rule="evenodd"/>
</clipPath>
<g clip-path="url(#cp2)">
<clipPath id="cp3">
<path transform="matrix(1,0,0,-1,0,25)" d="M -421 -645 L 842 -645 L 842 618 L -421 618 Z "/>
</clipPath>
<g clip-path="url(#cp3)">
<path transform="matrix(1,0,0,-1,0,25)" d="M 11.21875 18.10156 L 22.15625 18.10156 L 22.15625 6.507812 L 11.21875 6.507812 Z " />
</g>
</g>
<clipPath id="cp4">
<path transform="matrix(1,0,0,-1,0,25)" d="M 23.53125 12.77344 C 23.40802 12.77344 23.28699 12.72327 23.19983 12.63611 C 23.11267 12.54895 23.0625 12.42792 23.0625 12.30469 C 23.0625 12.18146 23.11267 12.06042 23.19983 11.97327 C 23.28699 11.88611 23.40802 11.83594 23.53125 11.83594 C 23.65448 11.83594 23.77551 11.88611 23.86267 11.97327 C 23.94983 12.06042 24 12.18146 24 12.30469 C 24 12.42792 23.94983 12.54895 23.86267 12.63611 C 23.77551 12.72327 23.65448 12.77344 23.53125 12.77344 Z " fill-rule="evenodd"/>
</clipPath>
<g clip-path="url(#cp4)">
<clipPath id="cp5">
<path transform="matrix(1,0,0,-1,0,25)" d="M -421 -645 L 842 -645 L 842 618 L -421 618 Z "/>
</clipPath>
<g clip-path="url(#cp5)">
<path transform="matrix(1,0,0,-1,0,25)" d="M 18.0625 17.77344 L 29 17.77344 L 29 6.835938 L 18.0625 6.835938 Z " />
</g>
</g>
</g>
</svg>
