<?xml version="1.0" encoding="UTF-8" standalone="no"?>
<!DOCTYPE svg PUBLIC "-//W3C//DTD SVG 1.1//EN" "http://www.w3.org/Graphics/SVG/1.1/DTD/svg11.dtd">
<svg xmlns="http://www.w3.org/2000/svg" xmlns:xlink="http://www.w3.org/1999/xlink" version="1.1" width="24pt" height="24pt" viewBox="0 0 24 24">
<g enable-background="new">
<clipPath id="cp0">
<path transform="matrix(1,0,0,-1,0,24)" d="M 10.23004 11.16754 C 10.12038 11.27749 9.942116 11.27749 9.832456 11.16754 C 9.722515 11.05788 9.722515 10.87962 9.832456 10.76996 C 9.942116 10.66001 10.12038 10.66001 10.23004 10.76996 C 10.33999 10.87962 10.33999 11.05788 10.23004 11.16754 Z "/>
</clipPath>
<g clip-path="url(#cp0)">
<clipPath id="cp1">
<path transform="matrix(1,0,0,-1,0,24)" d="M -33 -1068 L 1230 -1068 L 1230 195 L -33 195 Z "/>
</clipPath>
<g clip-path="url(#cp1)">
<path transform="matrix(1,0,0,-1,0,24)" d="M 4.75 16.25 L 15.3125 16.25 L 15.3125 5.6875 L 4.75 5.6875 Z " />
</g>
</g>
<clipPath id="cp2">
<path transform="matrix(1,0,0,-1,0,24)" d="M 12 10.6875 C 11.37967 10.6875 10.875 10.18282 10.875 9.5625 C 10.875 8.942175 11.37967 8.4375 12 8.4375 C 12.62032 8.4375 13.125 8.942175 13.125 9.5625 C 13.125 10.18282 12.62032 10.6875 12 10.6875 Z M 12 9.1875 C 11.79322 9.1875 11.625 9.355725 11.625 9.5625 C 11.625 9.769275 11.79322 9.9375 12 9.9375 C 12.20677 9.9375 12.375 9.769275 12.375 9.5625 C 12.375 9.355725 12.20677 9.1875 12 9.1875 Z "/>
</clipPath>
<g clip-path="url(#cp2)">
<clipPath id="cp3">
<path transform="matrix(1,0,0,-1,0,24)" d="M -33 -1068 L 1230 -1068 L 1230 195 L -33 195 Z "/>
</clipPath>
<g clip-path="url(#cp3)">
<path transform="matrix(1,0,0,-1,0,24)" d="M 5.875 15.6875 L 18.125 15.6875 L 18.125 3.4375 L 5.875 3.4375 Z " />
</g>
</g>
<clipPath id="cp4">
<path transform="matrix(1,0,0,-1,0,24)" d="M 12 12.375 C 11.60702 12.375 11.22702 12.29558 10.87064 12.13893 C 10.69289 12.06077 10.61214 11.85335 10.69025 11.6756 C 10.76837 11.49785 10.97583 11.41713 11.15358 11.49521 C 11.42024 11.61243 11.70504 11.67188 12 11.67188 C 13.16311 11.67188 14.10937 10.72561 14.10937 9.5625 C 14.10937 8.399391 13.16311 7.453125 12 7.453125 C 10.83689 7.453125 9.890625 8.399391 9.890625 9.5625 C 9.890625 9.574523 9.89059 9.586266 9.890871 9.598289 C 9.895371 9.792387 9.741668 9.953402 9.54757 9.957902 C 9.353156 9.962754 9.192457 9.808734 9.187957 9.614602 C 9.1875 9.597094 9.1875 9.580008 9.1875 9.5625 C 9.1875 8.011687 10.44919 6.75 12 6.75 C 13.55081 6.75 14.8125 8.011687 14.8125 9.5625 C 14.8125 11.11331 13.55081 12.375 12 12.375 Z "/>
</clipPath>
<g clip-path="url(#cp4)">
<clipPath id="cp5">
<path transform="matrix(1,0,0,-1,0,24)" d="M -33 -1068 L 1230 -1068 L 1230 195 L -33 195 Z "/>
</clipPath>
<g clip-path="url(#cp5)">
<path transform="matrix(1,0,0,-1,0,24)" d="M 4.1875 17.375 L 19.8125 17.375 L 19.8125 1.75 L 4.1875 1.75 Z " />
</g>
</g>
<clipPath id="cp6">
<path transform="matrix(1,0,0,-1,0,24)" d="M 11.71875 18 C 11.56342 18 11.4375 17.84261 11.4375 17.64844 L 11.4375 15.53906 C 11.4375 15.34489 11.56342 15.1875 11.71875 15.1875 C 11.87408 15.1875 12 15.34489 12 15.53906 L 12 17.64844 C 12 17.84261 11.87408 18 11.71875 18 Z "/>
</clipPath>
<g clip-path="url(#cp6)">
<clipPath id="cp7">
<path transform="matrix(1,0,0,-1,0,24)" d="M -33 -1068 L 1230 -1068 L 1230 195 L -33 195 Z "/>
</clipPath>
<g clip-path="url(#cp7)">
<path transform="matrix(1,0,0,-1,0,24)" d="M 6.4375 23 L 17 23 L 17 10.1875 L 6.4375 10.1875 Z " />
</g>
</g>
<clipPath id="cp8">
<path transform="matrix(1,0,0,-1,0,24)" d="M 7.956931 15.24038 L 6.427866 16.76943 C 6.287107 16.91019 6.058864 16.91019 5.918069 16.76943 C 5.77731 16.62867 5.77731 16.40043 5.918069 16.25964 L 7.447134 14.73058 C 7.587893 14.58982 7.816172 14.58979 7.956931 14.73058 C 8.09769 14.87134 8.09769 15.09958 7.956931 15.24038 Z "/>
</clipPath>
<g clip-path="url(#cp8)">
<clipPath id="cp9">
<path transform="matrix(1,0,0,-1,0,24)" d="M -33 -1068 L 1230 -1068 L 1230 195 L -33 195 Z "/>
</clipPath>
<g clip-path="url(#cp9)">
<path transform="matrix(1,0,0,-1,0,24)" d="M .8125 21.875 L 13.0625 21.875 L 13.0625 9.625 L .8125 9.625 Z " />
</g>
</g>
<clipPath id="cp10">
<path transform="matrix(1,0,0,-1,0,24)" d="M 18.08193 16.76943 C 17.94117 16.91019 17.71293 16.91019 17.57213 16.76943 L 16.04307 15.24038 C 15.90231 15.09962 15.90231 14.87138 16.04307 14.73058 C 16.18379 14.58982 16.41207 14.58979 16.55287 14.73058 L 18.08193 16.25964 C 18.22269 16.4004 18.22269 16.62864 18.08193 16.76943 Z "/>
</clipPath>
<g clip-path="url(#cp10)">
<clipPath id="cp11">
<path transform="matrix(1,0,0,-1,0,24)" d="M -33 -1068 L 1230 -1068 L 1230 195 L -33 195 Z "/>
</clipPath>
<g clip-path="url(#cp11)">
<path transform="matrix(1,0,0,-1,0,24)" d="M 10.9375 21.875 L 23.1875 21.875 L 23.1875 9.625 L 10.9375 9.625 Z " />
</g>
</g>
<clipPath id="cp12">
<path transform="matrix(1,0,0,-1,0,24)" d="M 20.91194 9.780858 C 18.67864 12.42596 15.36256 14.625 12 14.625 C 8.636987 14.625 5.320943 12.4254 3.088063 9.780858 C 2.959532 9.628594 2.973313 9.396188 3.118825 9.261725 C 3.264372 9.127261 3.48656 9.141679 3.615056 9.293906 C 3.689974 9.382654 3.76672 9.47107 3.84445 9.558935 C 5.581697 6.812879 8.730925 5.0625 12 5.0625 C 15.26908 5.0625 18.4183 6.812879 20.15555 9.558935 C 20.23328 9.471033 20.31003 9.382617 20.38494 9.293906 C 20.51305 9.142157 20.73521 9.126857 20.88117 9.261725 C 21.02669 9.396188 21.04047 9.628631 20.91194 9.780858 Z M 12 5.798077 C 8.909237 5.798077 5.936564 7.478098 4.346868 10.10047 C 5.599416 11.38445 8.49355 13.88942 12 13.88942 C 15.50649 13.88942 18.40058 11.38445 19.65313 10.1005 C 18.06344 7.478098 15.09076 5.798077 12 5.798077 Z "/>
</clipPath>
<g clip-path="url(#cp12)">
<clipPath id="cp13">
<path transform="matrix(1,0,0,-1,0,24)" d="M -33 -1068 L 1230 -1068 L 1230 195 L -33 195 Z "/>
</clipPath>
<g clip-path="url(#cp13)">
<path transform="matrix(1,0,0,-1,0,24)" d="M -2 19.625 L 26 19.625 L 26 .0625 L -2 .0625 Z " />
</g>
</g>
</g>
</svg>
