<?xml version="1.0" encoding="UTF-8" standalone="no"?>
<!DOCTYPE svg PUBLIC "-//W3C//DTD SVG 1.1//EN" "http://www.w3.org/Graphics/SVG/1.1/DTD/svg11.dtd">
<svg xmlns="http://www.w3.org/2000/svg" xmlns:xlink="http://www.w3.org/1999/xlink" version="1.1" width="24pt" height="24pt" viewBox="0 0 24 24">
<g enable-background="new">
<clipPath id="cp0">
<path transform="matrix(1,0,0,-1,0,24)" d="M 11.41693 2.016861 C 11.57947 1.876236 11.7808 1.806093 11.98246 1.806093 C 12.18413 1.806093 12.38579 1.876236 12.548 2.016861 C 19.59173 8.121403 23.94874 11.21077 23.94874 16.01158 C 23.94874 19.80946 21.26 22.95683 17.48269 22.95683 C 15.00202 22.95683 13.10241 21.52698 11.87893 19.38118 C 10.65816 21.52226 8.760567 22.95683 6.276192 22.95683 C 3.384442 22.95683 .9668391 21.08285 .1170189 18.183 C -.01719876 17.72538 .2451664 17.24584 .7027878 17.11162 C 1.160409 16.97741 1.639951 17.23977 1.773831 17.69739 C 2.402765 19.84353 4.169852 21.23022 6.276192 21.23022 C 8.738984 21.23022 10.46661 19.04328 11.04699 17.00708 C 11.15052 16.63309 11.49112 16.3741 11.87893 16.3741 C 12.26709 16.3741 12.60735 16.63309 12.71088 17.00708 C 12.72268 17.04924 13.92188 21.23022 17.48269 21.23022 C 20.18458 21.23022 22.22212 18.98696 22.22212 16.01158 C 22.22212 12.1712 18.46808 9.40254 11.98179 3.809915 C 8.029789 7.203799 4.890513 9.592738 3.106228 11.92974 C 2.816884 12.30879 2.275292 12.38163 1.896246 12.09229 C 1.517199 11.80295 1.444694 11.26135 1.733701 10.88197 C 3.744942 8.247864 7.140175 5.724033 11.41693 2.016861 Z " fill-rule="evenodd"/>
</clipPath>
<g clip-path="url(#cp0)">
<clipPath id="cp1">
<path transform="matrix(1,0,0,-1,0,24)" d="M -234 -607 L 1029 -607 L 1029 656 L -234 656 Z "/>
</clipPath>
<g clip-path="url(#cp1)">
<path transform="matrix(1,0,0,-1,0,24)" d="M -4.918093 27.95683 L 28.94874 27.95683 L 28.94874 -3.193907 L -4.918093 -3.193907 Z " />
</g>
</g>
<clipPath id="cp2">
<path transform="matrix(1,0,0,-1,0,24)" d="M .8633094 15.35128 C .3868031 15.35128 0 14.96448 0 14.48797 C 0 14.01147 .3868031 13.62466 .8633094 13.62466 C 1.339816 13.62466 1.726619 14.01147 1.726619 14.48797 C 1.726619 14.96448 1.339816 15.35128 .8633094 15.35128 Z " fill-rule="evenodd"/>
</clipPath>
<g clip-path="url(#cp2)">
<clipPath id="cp3">
<path transform="matrix(1,0,0,-1,0,24)" d="M -234 -607 L 1029 -607 L 1029 656 L -234 656 Z "/>
</clipPath>
<g clip-path="url(#cp3)">
<path transform="matrix(1,0,0,-1,0,24)" d="M -5 20.35128 L 6.726619 20.35128 L 6.726619 8.624663 L -5 8.624663 Z " />
</g>
</g>
</g>
</svg>
