<?xml version="1.0" encoding="UTF-8" standalone="no"?>
<!DOCTYPE svg PUBLIC "-//W3C//DTD SVG 1.1//EN" "http://www.w3.org/Graphics/SVG/1.1/DTD/svg11.dtd">
<svg xmlns="http://www.w3.org/2000/svg" xmlns:xlink="http://www.w3.org/1999/xlink" version="1.1" width="27pt" height="37pt" viewBox="0 0 27 37">
<g enable-background="new">
<clipPath id="cp0">
<path transform="matrix(1,0,0,-1,0,37)" d="M 13.49996 13 C 19.28968 13 24 17.7103 24 23.5 C 24 29.2897 19.28968 34 13.49996 34 C 7.710246 34 3 29.2897 3 23.5 C 3 17.7103 7.710246 13 13.49996 13 Z M 13.49996 32.6 C 18.51779 32.6 22.6 28.51781 22.6 23.5 C 22.6 18.48219 18.51779 14.4 13.49996 14.4 C 8.482208 14.4 4.400005 18.48219 4.400005 23.5 C 4.400005 28.51781 8.482208 32.6 13.49996 32.6 Z " fill-rule="evenodd"/>
</clipPath>
<g clip-path="url(#cp0)">
<clipPath id="cp1">
<path transform="matrix(1,0,0,-1,0,37)" d="M -527 -1048 L 736 -1048 L 736 215 L -527 215 Z "/>
</clipPath>
<g clip-path="url(#cp1)">
<path transform="matrix(1,0,0,-1,0,37)" d="M -2 39 L 29 39 L 29 8 L -2 8 Z " />
</g>
</g>
<clipPath id="cp2">
<path transform="matrix(1,0,0,-1,0,37)" d="M 13.5 37 C 11.08414 37 8.7129 36.34224 6.642568 35.0979 C 6.304713 34.89476 6.192734 34.4517 6.392392 34.10807 C 6.59205 33.76445 7.027674 33.65056 7.3656 33.85363 C 9.217089 34.96645 11.33829 35.55469 13.5 35.55469 C 20.16033 35.55469 25.57895 30.04357 25.57895 23.26953 C 25.57895 16.99702 20.96351 11.74786 14.84297 11.0596 C 14.48294 11.01906 14.21053 10.70969 14.21053 10.34136 L 14.21053 7.226707 C 14.21053 6.827656 14.5287 6.504051 14.92105 6.504051 L 16.34211 6.504051 C 16.73389 6.504051 17.05263 6.179867 17.05263 5.781395 C 17.05263 5.382922 16.73389 5.058738 16.34211 5.058738 L 14.92105 5.058738 C 14.5287 5.058738 14.21053 4.735133 14.21053 4.336082 L 14.21053 2.167969 C 14.21053 1.769496 13.89178 1.445312 13.5 1.445312 C 13.10822 1.445312 12.78947 1.769496 12.78947 2.167969 L 12.78947 4.336082 C 12.78947 4.735133 12.4713 5.058738 12.07895 5.058738 L 10.65789 5.058738 C 10.26611 5.058738 9.947368 5.382922 9.947368 5.781395 C 9.947368 6.179867 10.26611 6.504051 10.65789 6.504051 L 12.07895 6.504051 C 12.4713 6.504051 12.78947 6.827656 12.78947 7.226707 L 12.78947 10.34136 C 12.78947 10.70977 12.51706 11.01913 12.15703 11.0596 C 6.036489 11.74786 1.421053 16.99702 1.421053 23.26953 C 1.421053 25.468 1.999563 27.62563 3.093916 29.50916 C 3.293574 29.85279 3.181453 30.29599 2.843739 30.49898 C 2.505884 30.70198 2.070118 30.58802 1.870532 30.24454 C .6468632 28.13836 0 25.72649 0 23.26953 C 0 19.88779 1.222105 16.63562 3.441221 14.1121 C 5.518018 11.75046 8.3133 10.20275 11.36842 9.709537 L 11.36842 7.949363 L 10.65789 7.949363 C 9.482542 7.949363 8.526316 6.976812 8.526316 5.781395 C 8.526316 4.585977 9.482542 3.613426 10.65789 3.613426 L 11.36842 3.613426 L 11.36842 2.167969 C 11.36842 .9725508 12.32465 0 13.5 0 C 14.67535 0 15.63158 .9725508 15.63158 2.167969 L 15.63158 3.613426 L 16.34211 3.613426 C 17.51746 3.613426 18.47368 4.585977 18.47368 5.781395 C 18.47368 6.976812 17.51746 7.949363 16.34211 7.949363 L 15.63158 7.949363 L 15.63158 9.709537 C 18.6867 10.20275 21.48205 11.75046 23.55878 14.1121 C 25.77789 16.63555 27 19.88772 27 23.26953 C 27 30.84058 20.94397 37 13.5 37 Z " fill-rule="evenodd"/>
</clipPath>
<g clip-path="url(#cp2)">
<clipPath id="cp3">
<path transform="matrix(1,0,0,-1,0,37)" d="M -527 -1048 L 736 -1048 L 736 215 L -527 215 Z "/>
</clipPath>
<g clip-path="url(#cp3)">
<path transform="matrix(1,0,0,-1,0,37)" d="M -5 42 L 32 42 L 32 -5 L -5 -5 Z " />
</g>
</g>
<clipPath id="cp4">
<path transform="matrix(1,0,0,-1,0,37)" d="M 4.179893 32.11584 C 4.273324 32.03795 4.386802 32 4.499629 32 C 4.6428 32 4.785021 32.0613 4.883951 32.17994 L 4.884201 32.18024 C 5.060916 32.39232 5.032122 32.70744 4.820064 32.88423 C 4.607907 33.06091 4.29262 33.03212 4.115856 32.82003 C 3.939142 32.6079 3.967786 32.29263 4.179893 32.11584 Z " fill-rule="evenodd"/>
</clipPath>
<g clip-path="url(#cp4)">
<clipPath id="cp5">
<path transform="matrix(1,0,0,-1,0,37)" d="M -527 -1048 L 736 -1048 L 736 215 L -527 215 Z "/>
</clipPath>
<g clip-path="url(#cp5)">
<path transform="matrix(1,0,0,-1,0,37)" d="M -1 38 L 10 38 L 10 27 L -1 27 Z " />
</g>
</g>
</g>
</svg>
