<?xml version="1.0" encoding="utf-8"?>
<!-- Generator: Adobe Illustrator 25.2.0, SVG Export Plug-In . SVG Version: 6.00 Build 0)  -->
<svg version="1.1" id="Capa_1" xmlns="http://www.w3.org/2000/svg" xmlns:xlink="http://www.w3.org/1999/xlink" x="0px" y="0px"
	 viewBox="0 0 27 37" style="enable-background:new 0 0 27 37;" xml:space="preserve">
<style type="text/css">
	.st0{enable-background:new    ;}
	.st1{clip-path:url(#SVGID_2_);}
	.st2{clip-path:url(#SVGID_4_);}
	.st3{clip-path:url(#SVGID_6_);}
	.st4{clip-path:url(#SVGID_8_);}
	.st5{clip-path:url(#SVGID_10_);}
	.st6{clip-path:url(#SVGID_12_);}
</style>
<g class="st0">
	<g>
		<defs>
			<path id="SVGID_1_" d="M13.5,24C19.3,24,24,19.3,24,13.5S19.3,3,13.5,3C7.7,3,3,7.7,3,13.5S7.7,24,13.5,24z M13.5,4.4
				c5,0,9.1,4.1,9.1,9.1s-4.1,9.1-9.1,9.1c-5,0-9.1-4.1-9.1-9.1S8.5,4.4,13.5,4.4z"/>
		</defs>
		<clipPath id="SVGID_2_">
			<use xlink:href="#SVGID_1_"  style="overflow:visible;"/>
		</clipPath>
		<g class="st1">
			<g>
				<defs>
					<rect id="SVGID_3_" x="-527" y="-178" width="1263" height="1263"/>
				</defs>
				<clipPath id="SVGID_4_">
					<use xlink:href="#SVGID_3_"  style="overflow:visible;"/>
				</clipPath>
				<g class="st2">
					<path d="M-2-2h31v31H-2V-2z"/>
				</g>
			</g>
		</g>
	</g>
	<g>
		<defs>
			<path id="SVGID_5_" d="M13.5,0c-2.4,0-4.8,0.7-6.9,1.9c-0.3,0.2-0.4,0.6-0.3,1c0.2,0.3,0.6,0.5,1,0.3c1.9-1.1,4-1.7,6.1-1.7
				c6.7,0,12.1,5.5,12.1,12.3c0,6.3-4.6,11.5-10.7,12.2c-0.4,0-0.6,0.3-0.6,0.7v3.1c0,0.4,0.3,0.7,0.7,0.7h1.4
				c0.4,0,0.7,0.3,0.7,0.7s-0.3,0.7-0.7,0.7h-1.4c-0.4,0-0.7,0.3-0.7,0.7v2.2c0,0.4-0.3,0.7-0.7,0.7s-0.7-0.3-0.7-0.7v-2.2
				c0-0.4-0.3-0.7-0.7-0.7h-1.4c-0.4,0-0.7-0.3-0.7-0.7s0.3-0.7,0.7-0.7h1.4c0.4,0,0.7-0.3,0.7-0.7v-3.1c0-0.4-0.3-0.7-0.6-0.7
				C6,25.3,1.4,20,1.4,13.7c0-2.2,0.6-4.4,1.7-6.2c0.2-0.3,0.1-0.8-0.3-1c-0.3-0.2-0.8-0.1-1,0.3C0.6,8.9,0,11.3,0,13.7
				c0,3.4,1.2,6.6,3.4,9.2c2.1,2.4,4.9,3.9,7.9,4.4v1.8h-0.7c-1.2,0-2.1,1-2.1,2.2c0,1.2,1,2.2,2.1,2.2h0.7v1.4c0,1.2,1,2.2,2.1,2.2
				s2.1-1,2.1-2.2v-1.4h0.7c1.2,0,2.1-1,2.1-2.2c0-1.2-1-2.2-2.1-2.2h-0.7v-1.8c3.1-0.5,5.9-2,7.9-4.4c2.2-2.5,3.4-5.8,3.4-9.2
				C27,6.2,20.9,0,13.5,0z"/>
		</defs>
		<clipPath id="SVGID_6_">
			<use xlink:href="#SVGID_5_"  style="overflow:visible;"/>
		</clipPath>
		<g class="st3">
			<g>
				<defs>
					<rect id="SVGID_7_" x="-527" y="-178" width="1263" height="1263"/>
				</defs>
				<clipPath id="SVGID_8_">
					<use xlink:href="#SVGID_7_"  style="overflow:visible;"/>
				</clipPath>
				<g class="st4">
					<path d="M-5-5h37v47H-5V-5z"/>
				</g>
			</g>
		</g>
	</g>
	<g>
		<defs>
			<path id="SVGID_9_" d="M4.2,4.9C4.3,5,4.4,5,4.5,5c0.1,0,0.3-0.1,0.4-0.2l0,0C5.1,4.6,5,4.3,4.8,4.1C4.6,3.9,4.3,4,4.1,4.2
				C3.9,4.4,4,4.7,4.2,4.9z"/>
		</defs>
		<clipPath id="SVGID_10_">
			<use xlink:href="#SVGID_9_"  style="overflow:visible;"/>
		</clipPath>
		<g class="st5">
			<g>
				<defs>
					<rect id="SVGID_11_" x="-527" y="-178" width="1263" height="1263"/>
				</defs>
				<clipPath id="SVGID_12_">
					<use xlink:href="#SVGID_11_"  style="overflow:visible;"/>
				</clipPath>
				<g class="st6">
					<path d="M-1-1h11v11H-1V-1z"/>
				</g>
			</g>
		</g>
	</g>
</g>
</svg>
