<?xml version="1.0" encoding="UTF-8" standalone="no"?>
<!DOCTYPE svg PUBLIC "-//W3C//DTD SVG 1.1//EN" "http://www.w3.org/Graphics/SVG/1.1/DTD/svg11.dtd">
<svg xmlns="http://www.w3.org/2000/svg" xmlns:xlink="http://www.w3.org/1999/xlink" version="1.1" width="32pt" height="23pt" viewBox="0 0 32 23">
<g enable-background="new">
<g>
<clipPath id="cp0">
<path transform="matrix(1,0,0,-1,0,23)" d="M 0 0 L 32 0 L 32 23 L 0 23 Z "/>
</clipPath>
<g clip-path="url(#cp0)">
<g>
<clipPath id="cp1">
<path transform="matrix(1,0,0,-1,0,23)" d="M 0 0 L 33 0 L 33 23 L 0 23 Z "/>
</clipPath>
<g clip-path="url(#cp1)">
<clipPath id="cp2">
<path transform="matrix(1,0,0,-1,0,23)" d="M 30.96082 18.66683 C 30.96051 18.66683 30.96051 18.66683 30.9602 18.66714 C 29.94856 19.45996 28.55605 20.36286 26.63004 20.47193 C 26.63129 20.51021 26.63191 20.54848 26.63191 20.58684 C 26.63191 21.96251 25.68214 23 24.42269 23 C 23.16847 23 22.25807 21.98499 22.25807 20.58684 C 22.25807 19.75053 22.60112 18.9826 23.14589 18.50454 C 22.73479 17.7251 22.40581 16.69734 22.12776 15.33831 C 22.05487 14.98061 22.28651 14.63177 22.64565 14.5591 C 22.69057 14.54969 22.73479 14.54541 22.7787 14.54541 C 23.08761 14.54541 23.36433 14.76153 23.42847 15.07451 C 23.74214 16.6095 24.12456 17.67827 24.59667 18.34257 C 24.71816 18.51302 24.75105 18.73093 24.68605 18.92939 C 24.62105 19.12816 24.46542 19.28429 24.26644 19.35089 C 23.928 19.46424 23.58534 19.92495 23.58534 20.58653 C 23.58534 21.23955 23.92191 21.6784 24.42269 21.6784 C 24.94214 21.6784 25.30464 21.2292 25.30464 20.58653 C 25.30464 20.38713 25.27261 20.19599 25.20949 20.01854 C 25.13253 19.8025 25.17347 19.56242 25.31745 19.38403 C 25.46152 19.20533 25.68738 19.11353 25.91628 19.14177 C 26.02152 19.15461 26.13019 19.16122 26.23972 19.16122 C 27.96215 19.16122 29.22863 18.34195 30.13926 17.6284 C 30.40871 17.41718 30.68707 16.89058 30.67215 16.44356 C 30.66145 16.11293 30.49692 15.96341 30.37426 15.87954 C 29.55121 15.31793 28.3134 14.89884 26.10238 14.43362 C 25.79574 14.36889 25.57597 14.09933 25.57597 13.7869 L 25.57597 5.456319 C 25.47253 2.810701 23.48034 2.727382 23.25815 2.726526 C 23.25542 2.726526 23.25269 2.726526 23.25026 2.726526 C 23.07565 2.726526 22.90815 2.658143 22.78393 2.535925 C 22.65761 2.411684 22.58675 2.2424 22.58675 2.065802 L 22.58675 1.335918 C 22.50526 1.349843 22.42776 1.373571 22.35878 1.409746 C 21.66909 1.767376 21.28823 2.320196 21.19487 3.10057 C 21.07096 4.131371 21.50096 5.162794 21.50979 5.183721 C 21.65385 5.518945 21.49823 5.906682 21.16221 6.05076 C 20.82526 6.195072 20.43526 6.040102 20.29034 5.704956 C 20.26987 5.658123 19.85971 4.692982 19.84627 3.54152 C 18.58072 3.32758 17.12135 3.582829 16.38377 3.747835 C 16.32642 4.39969 16.08408 5.083442 15.65775 5.788509 C 15.46884 6.101172 15.06111 6.201763 14.74712 6.013963 C 14.43306 5.82554 14.33173 5.41991 14.52064 5.106858 C 14.92626 4.435865 15.10908 3.82322 15.06353 3.286892 L 15.06353 3.285959 C 14.96408 2.118392 13.7629 1.493922 13.40985 1.334984 L 12.77142 1.334984 C 12.22329 1.334984 11.38587 1.462881 11.01297 1.653482 C 10.36657 1.984349 9.925629 2.511964 9.700706 3.221232 C 9.621331 3.539419 9.321643 3.750636 8.996017 3.719284 C 8.986564 3.718428 8.977424 3.716561 8.967971 3.715316 C 8.956955 3.713838 8.94633 3.712905 8.935002 3.710804 C 8.921017 3.708393 7.508046 3.475315 5.589058 4.429175 C 5.270464 4.58749 4.9564 4.769845 4.646947 4.973749 C 5.142573 4.860088 5.679371 4.789605 6.2507 4.789605 C 7.551952 4.789605 9.029299 5.153069 10.59118 6.195072 C 13.27095 7.98322 13.88954 7.981119 15.9315 7.982597 L 16.03095 7.982597 C 17.98353 7.982597 18.74158 7.824282 19.29487 7.708521 C 19.65338 7.633448 19.99213 7.562964 20.48682 7.562964 C 21.44362 7.562964 22.10034 8.192569 22.43846 9.434276 C 22.43878 9.434587 22.43878 9.434898 22.43878 9.435209 C 22.60573 10.04933 22.73143 10.78816 22.83245 11.42998 C 22.88948 11.79065 22.64198 12.12891 22.27979 12.18539 C 21.91815 12.24225 21.57815 11.99548 21.52143 11.63505 C 21.42588 11.02817 21.30807 10.33383 21.15792 9.781014 C 21.1576 9.781014 21.1576 9.780702 21.1576 9.780702 C 20.91346 8.884567 20.6144 8.884567 20.48682 8.884567 C 20.1301 8.884567 19.90612 8.931323 19.56737 9.002195 C 18.95697 9.129781 18.12111 9.3042 16.03095 9.3042 L 15.93181 9.3042 C 13.76415 9.3042 12.86751 9.304823 9.852347 7.2934 C 7.863203 5.966274 5.813668 5.751712 3.761086 6.655782 C 2.177801 7.353226 1.173503 8.482827 1.164596 8.493174 C 1.134674 8.527171 1.102018 8.55759 1.067252 8.584274 C 1.057174 8.592209 1.046549 8.598899 1.035846 8.605901 C 1.028502 8.611036 1.021471 8.616248 1.014127 8.621071 C .9974085 8.631418 .9806116 8.64052 .9631897 8.649 C .9613928 8.649934 .9598303 8.651178 .9580335 8.652112 C .9399866 8.660903 .9217053 8.66876 .9031115 8.675762 C .9018615 8.676384 .9006115 8.677007 .8994396 8.677318 C .8820177 8.684008 .8642833 8.689454 .846627 8.694589 C .8438926 8.695211 .8411582 8.696456 .8383457 8.697078 C .8224863 8.701279 .8066269 8.704624 .7907675 8.707659 C .7856113 8.708592 .7810019 8.710148 .7758456 8.711004 C .7624081 8.713182 .7486581 8.714349 .7352205 8.715905 C .7273299 8.716838 .7199861 8.718317 .7120174 8.718939 C .7010798 8.719561 .6900642 8.719561 .6790486 8.719873 C .668736 8.719873 .6583454 8.720728 .6479547 8.720417 C .6391266 8.720184 .6305328 8.71925 .6217047 8.718628 C .6092047 8.718005 .5967047 8.717383 .5838921 8.715905 C .5762359 8.714971 .5688921 8.713493 .561314 8.712249 C .5475639 8.710148 .5341264 8.708281 .5206889 8.705247 C .5118607 8.703458 .5030326 8.700423 .4941263 8.698245 C .4822513 8.6949 .4703763 8.692488 .4587356 8.688521 C .4441262 8.683697 .4297512 8.67794 .4153762 8.672106 C .4095949 8.670005 .4038137 8.667905 .3980324 8.665415 C .3577198 8.648144 .3186572 8.626206 .2817041 8.600144 L .2814697 8.600144 C .2246727 8.560312 .1764695 8.513479 .1364694 8.461511 C .1352194 8.460033 .13436 8.458477 .1334225 8.456999 C .1215475 8.441206 .1099069 8.425102 .09951621 8.408687 C .09342245 8.398652 .08826619 8.388305 .08279743 8.378269 C .07787554 8.369789 .07271928 8.361543 .0684224 8.352752 C .06201614 8.339682 .05654738 8.32599 .05100049 8.312609 C .04826611 8.306541 .04553173 8.300784 .04310985 8.294405 C .03787547 8.280713 .03365671 8.26702 .02967233 8.253095 C .02756295 8.246716 .02506294 8.240336 .02326606 8.233646 C .01990668 8.221121 .0174848 8.208362 .01475042 8.195603 C .01318792 8.187435 .01076604 8.1795 .009516038 8.171331 C .00771916 8.160673 .006781658 8.14947 .005219155 8.138812 C .004047278 8.128465 .002484775 8.11843 .001625399 8.108083 C .001000397 8.098981 .001312898 8.09019 .001000397 8.081087 C .0006878967 8.068873 0 8.056426 0 8.04429 C .0003753961 8.036666 .001312898 8.029431 .001625399 8.021807 C .002484775 8.008114 .002797276 7.994422 .004672279 7.980808 C .005531656 7.973495 .007094159 7.966493 .008031661 7.959492 C .01014104 7.945488 .01225042 7.931563 .0152973 7.917871 C .0171723 7.908457 .02021918 7.899355 .02264106 7.890253 C .02568794 7.878661 .02842232 7.867459 .03209421 7.856178 C .03756297 7.83883 .04459423 7.821559 .05162549 7.804522 C .0528755 7.801799 .053813 7.798765 .05498487 7.796042 C .07271928 7.755588 .09467245 7.716378 .1209225 7.679347 C 1.575691 5.623192 3.216006 4.131993 4.996088 3.247061 C 6.495153 2.501928 7.755546 2.362128 8.490079 2.362128 C 8.532188 2.362128 8.572189 2.36275 8.610939 2.363606 C 8.980158 1.540988 9.592659 .8949683 10.40625 .4782915 C 11.07337 .1369992 12.18602 .01338096 12.77142 .01338096 L 13.53892 .01338096 C 13.5404 .01338096 13.54228 .01338096 13.54376 .01338096 C 13.54532 .01338096 13.54681 .01338096 13.54837 .01338096 L 16.83509 .01338096 C 17.20166 .01338096 17.49885 .309318 17.49885 .6743381 C 17.49885 1.038969 17.20166 1.334984 16.83509 1.334984 L 15.59853 1.334984 C 15.85767 1.637923 16.0847 2.000531 16.23025 2.427477 C 16.844 2.296468 17.78603 2.139709 18.78369 2.139942 C 19.19627 2.139942 19.6183 2.167015 20.03034 2.233609 C 20.30682 1.364158 20.8894 .6812619 21.74542 .2375898 C 22.04417 .08230845 22.38776 0 22.73847 0 L 25.13167 0 C 25.49785 0 25.79511 .295937 25.79511 .6609571 C 25.79511 1.025899 25.49785 1.321603 25.13167 1.321603 L 23.9137 1.321603 L 23.9137 1.481786 C 24.23042 1.548613 24.62534 1.672309 25.02784 1.902352 C 25.84121 2.366951 26.8266 3.354342 26.90285 5.419599 C 26.90316 5.427768 26.90316 5.435703 26.90316 5.443872 L 26.90316 13.25454 C 29.00004 13.72132 30.20825 14.16406 31.12473 14.78946 C 31.66606 15.1593 31.97645 15.73126 31.99872 16.39976 C 32.02653 17.23366 31.59958 18.16574 30.96082 18.66683 Z " fill-rule="evenodd"/>
</clipPath>
<g clip-path="url(#cp2)">
<clipPath id="cp3">
<path transform="matrix(1,0,0,-1,0,23)" d="M 0 0 L 32 0 L 32 23 L 0 23 Z "/>
</clipPath>
<g clip-path="url(#cp3)">
<path transform="matrix(1,0,0,-1,0,23)" d="M -5 28 L 37 28 L 37 -5 L -5 -5 Z " />
</g>
</g>
</g>
</g>
</g>
</g>
</g>
</svg>
