<?xml version="1.0" encoding="UTF-8" standalone="no"?>
<!DOCTYPE svg PUBLIC "-//W3C//DTD SVG 1.1//EN" "http://www.w3.org/Graphics/SVG/1.1/DTD/svg11.dtd">
<svg xmlns="http://www.w3.org/2000/svg" xmlns:xlink="http://www.w3.org/1999/xlink" version="1.1" width="24pt" height="24pt" viewBox="0 0 24 24">
<g enable-background="new">
<clipPath id="cp0">
<path transform="matrix(1,0,0,-1,0,24)" d="M 7.111111 11.1 C 6.652825 12.10511 5.749285 12.84603 4.662222 13.10813 L 4.662222 22.125 C 4.662222 22.60825 4.264253 23 3.773333 23 C 3.282414 23 2.884444 22.60825 2.884444 22.125 L 2.884444 13.1125 C 2.671683 13.05894 2.463612 12.98871 2.262222 12.9025 C .8426971 12.26971 -.01457694 10.82197 .1256018 9.294244 C .2657805 7.766515 1.372708 6.493418 2.884444 6.12125 L 2.884444 2.875 C 2.884444 2.391751 3.282414 2 3.773333 2 C 4.264253 2 4.662222 2.391751 4.662222 2.875 L 4.662222 6.116875 C 5.831026 6.397968 6.782848 7.230085 7.204444 8.339375 C 7.550379 9.234718 7.516754 10.22928 7.111111 11.1 Z M 5.542222 8.95625 C 5.240826 8.168724 4.439662 7.678653 3.588888 7.761398 C 2.738114 7.844142 2.049867 8.479071 1.910858 9.30943 C 1.771849 10.13979 2.21674 10.95853 2.995556 11.30563 C 3.238028 11.41561 3.501911 11.47234 3.768889 11.47188 C 4.511934 11.47197 5.186348 11.04422 5.493333 10.37813 C 5.705319 9.930924 5.726133 9.418689 5.551111 8.95625 L 5.542222 8.95625 Z " fill-rule="evenodd"/>
</clipPath>
<g clip-path="url(#cp0)">
<clipPath id="cp1">
<path transform="matrix(1,0,0,-1,0,24)" d="M -93 -644 L 1170 -644 L 1170 619 L -93 619 Z "/>
</clipPath>
<g clip-path="url(#cp1)">
<path transform="matrix(1,0,0,-1,0,24)" d="M -4.889328 28 L 12.44163 28 L 12.44163 -3 L -4.889328 -3 Z " />
</g>
</g>
<clipPath id="cp2">
<path transform="matrix(1,0,0,-1,0,24)" d="M 23.55556 11.1 C 23.09727 12.10511 22.19373 12.84603 21.10667 13.10813 L 21.10667 22.125 C 21.10667 22.60825 20.7087 23 20.21778 23 C 19.72686 23 19.32889 22.60825 19.32889 22.125 L 19.32889 13.1125 C 19.11613 13.05894 18.90806 12.98871 18.70667 12.9025 C 17.28714 12.26971 16.42987 10.82197 16.57005 9.294244 C 16.71022 7.766515 17.81715 6.493418 19.32889 6.12125 L 19.32889 2.875 C 19.32889 2.391751 19.72686 2 20.21778 2 C 20.7087 2 21.10667 2.391751 21.10667 2.875 L 21.10667 6.116875 C 22.27547 6.397968 23.22729 7.230085 23.64889 8.339375 C 23.99482 9.234718 23.9612 10.22928 23.55556 11.1 Z M 21.98667 8.95625 C 21.68527 8.168724 20.88411 7.678653 20.03333 7.761398 C 19.18256 7.844142 18.49431 8.479071 18.3553 9.30943 C 18.21629 10.13979 18.66118 10.95853 19.44 11.30563 C 19.68261 11.41522 19.9464 11.47193 20.21333 11.47188 C 20.95638 11.47197 21.63079 11.04422 21.93778 10.37813 C 22.14687 9.929741 22.16448 9.417525 21.98667 8.95625 Z " fill-rule="evenodd"/>
</clipPath>
<g clip-path="url(#cp2)">
<clipPath id="cp3">
<path transform="matrix(1,0,0,-1,0,24)" d="M -93 -644 L 1170 -644 L 1170 619 L -93 619 Z "/>
</clipPath>
<g clip-path="url(#cp3)">
<path transform="matrix(1,0,0,-1,0,24)" d="M 11.55512 28 L 28.88607 28 L 28.88607 -3 L 11.55512 -3 Z " />
</g>
</g>
<clipPath id="cp4">
<path transform="matrix(1,0,0,-1,0,24)" d="M 13.28889 18.625 C 13.15556 18.67312 13.02222 18.7125 12.88444 18.7475 L 12.88444 22.125 C 12.88444 22.60825 12.48648 23 11.99556 23 C 11.50464 23 11.10667 22.60825 11.10667 22.125 L 11.10667 18.73438 C 10.05373 18.47272 9.172513 17.76561 8.699936 16.80313 C 8.227358 15.84066 8.211922 14.72162 8.657778 13.74688 C 9.05585 12.87364 9.791903 12.19319 10.70222 11.85688 C 10.83556 11.80875 10.97333 11.76938 11.10667 11.73438 L 11.10667 2.875 C 11.10667 2.391751 11.50464 2 11.99556 2 C 12.48648 2 12.88444 2.391751 12.88444 2.875 L 12.88444 11.73875 C 13.09821 11.78895 13.30658 11.85927 13.50667 11.94875 C 14.8686 12.54428 15.72811 13.89281 15.68028 15.35902 C 15.63245 16.82524 14.68683 18.1167 13.28889 18.625 Z M 13.77778 14.57813 C 13.50817 13.87424 12.83428 13.39961 12.07047 13.37567 C 11.30666 13.35172 10.60344 13.78318 10.28889 14.46875 C 10.02485 15.04397 10.0753 15.71177 10.42287 16.24221 C 10.77044 16.77266 11.36765 17.09331 12.00889 17.09375 C 12.23647 17.09358 12.4622 17.05358 12.67556 16.97563 C 13.14002 16.79918 13.51417 16.44819 13.71556 16 C 13.92899 15.55339 13.95141 15.04115 13.77778 14.57813 Z " fill-rule="evenodd"/>
</clipPath>
<g clip-path="url(#cp4)">
<clipPath id="cp5">
<path transform="matrix(1,0,0,-1,0,24)" d="M -93 -644 L 1170 -644 L 1170 619 L -93 619 Z "/>
</clipPath>
<g clip-path="url(#cp5)">
<path transform="matrix(1,0,0,-1,0,24)" d="M 3.334105 28 L 20.68218 28 L 20.68218 -3 L 3.334105 -3 Z " />
</g>
</g>
</g>
</svg>
