<?xml version="1.0" encoding="utf-8"?>
<!-- Generator: Adobe Illustrator 25.2.0, SVG Export Plug-In . SVG Version: 6.00 Build 0)  -->
<svg version="1.1" id="Capa_1" xmlns="http://www.w3.org/2000/svg" xmlns:xlink="http://www.w3.org/1999/xlink" x="0px" y="0px"
	 viewBox="0 0 31 21" style="enable-background:new 0 0 31 21;" xml:space="preserve">
<style type="text/css">
	.st0{enable-background:new    ;}
	.st1{clip-path:url(#SVGID_2_);}
	.st2{clip-path:url(#SVGID_4_);}
	.st3{clip-path:url(#SVGID_6_);}
	.st4{clip-path:url(#SVGID_8_);}
	.st5{clip-path:url(#SVGID_10_);}
	.st6{clip-path:url(#SVGID_12_);}
	.st7{clip-path:url(#SVGID_14_);}
	.st8{clip-path:url(#SVGID_16_);}
</style>
<g class="st0">
	<g>
		<g>
			<defs>
				<rect id="SVGID_1_" x="0" y="0" width="31" height="21"/>
			</defs>
			<clipPath id="SVGID_2_">
				<use xlink:href="#SVGID_1_"  style="overflow:visible;"/>
			</clipPath>
			<g class="st1">
				<g>
					<g>
						<defs>
							<rect id="SVGID_3_" width="32" height="21"/>
						</defs>
						<clipPath id="SVGID_4_">
							<use xlink:href="#SVGID_3_"  style="overflow:visible;"/>
						</clipPath>
						<g class="st2">
							<g>
								<defs>
									<path id="SVGID_5_" d="M17.2,0.1L17.2,0.1c-0.4,0-0.7,0.4-0.7,0.7c0,0.3,0.3,0.6,0.6,0.6c0,0,0,0,0.1,0l0.1,0
										c0.4,0,0.6-0.3,0.6-0.7C17.9,0.3,17.5,0.1,17.2,0.1z"/>
								</defs>
								<clipPath id="SVGID_6_">
									<use xlink:href="#SVGID_5_"  style="overflow:visible;"/>
								</clipPath>
								<g class="st3">
									<g>
										<defs>
											<rect id="SVGID_7_" width="31" height="21"/>
										</defs>
										<clipPath id="SVGID_8_">
											<use xlink:href="#SVGID_7_"  style="overflow:visible;"/>
										</clipPath>
										<g class="st4">
											<path d="M11.5-4.9h11.4V6.4H11.5V-4.9z"/>
										</g>
									</g>
								</g>
							</g>
							<g>
								<defs>
									<path id="SVGID_9_" d="M30.9,13.4l-0.6-2.2c-0.1-0.5-0.1-0.9,0-1.4l0.6-2.1c0.2-0.6,0-1.3-0.5-1.7
										c-0.5-0.4-1.1-0.5-1.7-0.3c-1.3,0.6-2.3,1.6-2.8,2.9c0-1.2,0-2.7-0.4-4.2c-0.5-2-1.4-3.2-2.7-3.8c-0.9-0.4-2.4-0.6-4-0.6h0
										c-0.4,0-0.6,0.3-0.6,0.6c0,0.4,0.3,0.6,0.6,0.7c1.4,0,2.7,0.2,3.5,0.5c1.7,0.7,2.2,3.5,2.2,5.5c-0.5-0.4-1-0.9-1.6-1.3V4.2
										c0-0.4-0.3-0.6-0.6-0.6c-0.4,0-0.6,0.3-0.6,0.6v1.1c-0.5-0.3-1-0.6-1.6-0.8V3c0-0.4-0.3-0.6-0.6-0.6
										c-0.4,0-0.6,0.3-0.6,0.6v0.8c-1.7-0.7-3.7-1.2-5.8-1.3c-0.3,0-0.7,0-1,0c1.3-0.4,2.5-0.7,3.5-0.9c0.4-0.1,0.6-0.4,0.5-0.7
										c-0.1-0.4-0.4-0.6-0.7-0.5C12.8,0.8,9.1,1.8,6,4.4c-1.5,1.1-2.6,2.5-3.1,4H2.1C1,8.4,0,9.3,0,10.5c0,0.6,0.2,1.1,0.6,1.5
										c0.4,0.4,0.9,0.6,1.5,0.6h0.8c0.5,1.5,1.6,2.8,3.1,3.8c2.4,2,5.8,3.5,9.3,4.2c1.3,0.2,2.5,0.3,3.7,0.3
										c1.5,0,2.9-0.2,3.8-0.6c2.7-1.2,3.1-5.3,3-8c0.5,1.3,1.5,2.3,2.8,2.9c0.2,0.1,0.4,0.1,0.6,0.1c0.4,0,0.8-0.1,1.1-0.4
										C30.9,14.6,31.1,14,30.9,13.4z M4.3,12.7h0.7c0.4,0,0.6-0.3,0.6-0.6s-0.3-0.6-0.6-0.6H2.1c-0.2,0-0.4-0.1-0.6-0.2
										c-0.2-0.2-0.2-0.4-0.2-0.6c0-0.5,0.4-0.9,0.8-0.9h1.3C3.7,9.7,4,9.5,4,9.2c0.4-1.4,1.4-2.8,2.8-3.8
										c1.7-1.2,3.9-1.8,6.1-1.6c5.5,0.4,9.8,3.2,11.8,5.5c0,0,0,0,0,0c0.5,0.6,0.7,1,0.8,1.2c0,0.1-0.2,0.4-0.8,0.9
										c-1,1-2.8,2.4-5.2,3.7c-1.8,1-4.3,2.1-6.6,2.1c-2.3,0-4.5-0.6-6.2-1.8v0c0,0,0,0,0,0C5.7,14.7,4.8,13.7,4.3,12.7z
										 M22.4,19.2c-1.1,0.5-3.7,0.7-6.8,0.2c-1.1-0.2-2.3-0.5-3.3-0.9c0.2,0,0.5,0,0.7,0c2,0,4.1-0.8,5.9-1.6v0.8
										c0,0.4,0.3,0.6,0.6,0.6c0.4,0,0.6-0.3,0.6-0.6v-1.4c0,0,0,0,0,0c0.5-0.3,1.1-0.6,1.6-0.9v1.3c0,0.4,0.3,0.6,0.6,0.6
										c0.4,0,0.6-0.3,0.6-0.6v-2.1c0.6-0.4,1.1-0.8,1.6-1.2C24.6,15.4,24.2,18.4,22.4,19.2z M29.6,14.1c-0.1,0.1-0.2,0.1-0.3,0.1
										c-1.5-0.6-2.4-2-2.4-3.6c0-1.6,0.9-3,2.4-3.6c0,0,0.1,0,0.1,0c0.1,0,0.2,0,0.2,0.1c0,0,0.2,0.2,0.1,0.4l-0.6,2.1
										c-0.2,0.7-0.2,1.4,0,2.1l0.6,2.2C29.7,13.9,29.6,14,29.6,14.1z"/>
								</defs>
								<clipPath id="SVGID_10_">
									<use xlink:href="#SVGID_9_"  style="overflow:visible;"/>
								</clipPath>
								<g class="st5">
									<g>
										<defs>
											<rect id="SVGID_11_" width="31" height="21"/>
										</defs>
										<clipPath id="SVGID_12_">
											<use xlink:href="#SVGID_11_"  style="overflow:visible;"/>
										</clipPath>
										<g class="st6">
											<path d="M-5-5h41v31H-5V-5z"/>
										</g>
									</g>
								</g>
							</g>
						</g>
					</g>
				</g>
			</g>
		</g>
		<g>
			<defs>
				<path id="SVGID_13_" d="M15.5,12.6c-0.3,0-0.9-0.3-1.4-0.9c-0.2-0.3-0.6-0.3-0.8,0c-0.2,0.3-0.3,0.7,0,1
					c0.7,0.8,1.6,1.4,2.3,1.4c1.4,0,2.5-1.8,2.5-4c0-2.2-1.1-4-2.5-4c-0.8,0-1.6,0.5-2.3,1.4c-0.2,0.3-0.2,0.7,0,1
					c0.2,0.3,0.6,0.2,0.8,0c0.5-0.6,1.1-0.9,1.4-0.9c0.7,0,1.3,1.2,1.3,2.6C16.8,11.4,16.2,12.6,15.5,12.6z"/>
			</defs>
			<clipPath id="SVGID_14_">
				<use xlink:href="#SVGID_13_"  style="overflow:visible;"/>
			</clipPath>
			<g class="st7">
				<g>
					<defs>
						<rect id="SVGID_15_" x="-679" y="-393" width="1263" height="1263"/>
					</defs>
					<clipPath id="SVGID_16_">
						<use xlink:href="#SVGID_15_"  style="overflow:visible;"/>
					</clipPath>
					<g class="st8">
						<path d="M8,1h15v18H8V1z"/>
					</g>
				</g>
			</g>
		</g>
	</g>
</g>
</svg>
