<?xml version="1.0" encoding="UTF-8" standalone="no"?>
<!DOCTYPE svg PUBLIC "-//W3C//DTD SVG 1.1//EN" "http://www.w3.org/Graphics/SVG/1.1/DTD/svg11.dtd">
<svg xmlns="http://www.w3.org/2000/svg" xmlns:xlink="http://www.w3.org/1999/xlink" version="1.1" width="31pt" height="21pt" viewBox="0 0 31 21">
<g enable-background="new">
<g>
<clipPath id="cp0">
<path transform="matrix(1,0,0,-1,0,21)" d="M .004536585 0 L 30.969756 0 L 30.969756 20.97565 L .004536585 20.97565 Z "/>
</clipPath>
<g clip-path="url(#cp0)">
<g>
<clipPath id="cp1">
<path transform="matrix(1,0,0,-1,0,21)" d="M 0 0 L 32 0 L 32 21 L 0 21 Z "/>
</clipPath>
<g clip-path="url(#cp1)">
<clipPath id="cp2">
<path transform="matrix(1,0,0,-1,0,21)" d="M 17.19177 20.90816 L 17.10996 20.90132 C 16.7555 20.87103 16.49268 20.55748 16.52277 20.20078 C 16.55113 19.86288 16.83262 19.60784 17.16341 19.60784 C 17.18171 19.60784 17.20031 19.60845 17.21861 19.60997 L 17.29664 19.61651 C 17.65102 19.64588 17.91482 19.9586 17.88587 20.31522 C 17.85691 20.67161 17.54645 20.937 17.19177 20.90816 Z " fill-rule="evenodd"/>
</clipPath>
<g clip-path="url(#cp2)">
<clipPath id="cp3">
<path transform="matrix(1,0,0,-1,0,21)" d="M 0 0 L 31 0 L 31 21 L 0 21 Z "/>
</clipPath>
<g clip-path="url(#cp3)">
<path transform="matrix(1,0,0,-1,0,21)" d="M 11.52043 25.91031 L 22.88804 25.91031 L 22.88804 14.60784 L 11.52043 14.60784 Z " />
</g>
</g>
<clipPath id="cp4">
<path transform="matrix(1,0,0,-1,0,21)" d="M 30.90609 7.625359 L 30.2929 9.791174 C 30.1624 10.25158 30.163 10.73808 30.29471 11.19817 L 30.89959 13.31164 C 31.07531 13.92483 30.88923 14.56982 30.41402 14.99507 C 29.94441 15.41537 29.29432 15.52471 28.7184 15.2807 C 27.39848 14.72283 26.39847 13.66332 25.89808 12.37547 C 25.9312 13.53191 25.88659 15.09733 25.54634 16.53468 C 25.0818 18.49628 24.18181 19.77667 22.87135 20.34017 C 21.93069 20.74442 20.51149 20.97002 18.8756 20.97565 L 18.87318 20.97565 C 18.5188 20.97565 18.2308 20.68705 18.22966 20.32983 C 18.22845 19.97199 18.51554 19.68096 18.87144 19.67982 C 20.31748 19.67472 21.59127 19.48123 22.36544 19.14865 C 24.10741 18.39942 24.53801 15.66471 24.60772 13.63501 C 24.13637 14.0592 23.60204 14.48597 23.00986 14.90148 L 23.00986 16.84345 C 23.00986 17.20136 22.72164 17.4914 22.36605 17.4914 C 22.01038 17.4914 21.72215 17.20136 21.72215 16.84345 L 21.72215 15.72984 C 21.22033 16.02521 20.68811 16.30878 20.12724 16.57448 L 20.12724 17.96786 C 20.12724 18.3257 19.83902 18.61574 19.48342 18.61574 C 19.12776 18.61574 18.83953 18.3257 18.83953 17.96786 L 18.83953 17.13151 C 17.10996 17.81005 15.15885 18.30401 13.03769 18.46927 C 12.70955 18.49484 12.38231 18.50549 12.05681 18.50252 C 13.32032 18.94778 14.51586 19.2236 15.52041 19.39358 C 15.87094 19.453 16.10752 19.7871 16.04878 20.13991 C 15.98972 20.49296 15.65772 20.73042 15.30682 20.67161 C 12.78841 20.24537 9.139027 19.19324 6.042883 16.60271 C 4.557529 15.54966 3.47011 14.15012 2.937817 12.61857 L 2.133027 12.61857 C .9569171 12.61857 0 11.65561 0 10.47177 C 0 9.897848 .2221415 9.358696 .6246878 8.954826 C 1.027234 8.548826 1.562702 8.325283 2.133027 8.325283 L 2.947041 8.325283 C 3.477746 6.845772 4.540744 5.532054 6.046437 4.500772 C 8.491051 2.457076 11.80578 .9802283 15.38485 .3406413 C 16.6622 .1126848 17.91656 0 19.06107 0 C 20.6001 0 21.94074 .2036087 22.87135 .6033696 C 25.6125 1.781804 25.97755 5.86288 25.89838 8.566935 C 26.3996 7.277946 27.40173 6.217446 28.724 5.65988 C 28.92693 5.574587 29.13871 5.532663 29.34868 5.532663 C 29.73505 5.532663 30.11453 5.674413 30.41849 5.945815 C 30.89279 6.36962 31.07947 7.013087 30.90609 7.625359 Z M 4.339849 8.325283 L 5.054361 8.325283 C 5.409954 8.325283 5.698178 8.615402 5.698178 8.973239 C 5.698178 9.331076 5.409954 9.621196 5.054361 9.621196 L 2.133027 9.621196 C 1.907407 9.621196 1.695322 9.709761 1.535256 9.871141 C 1.37572 10.0313 1.28771 10.24473 1.28771 10.47208 C 1.28771 10.94108 1.666968 11.32273 2.133027 11.32273 L 3.412495 11.32273 C 3.703668 11.32273 3.958851 11.51949 4.034461 11.80238 C 4.416668 13.23533 5.400805 14.56921 6.805483 15.55864 C 8.53241 16.77573 10.71058 17.35079 12.93842 17.17724 C 18.48008 16.74537 22.75702 13.94324 24.7445 11.66748 C 24.74919 11.66154 24.75395 11.65591 24.75894 11.65021 C 25.29237 11.03679 25.48639 10.64388 25.53251 10.5 C 25.48404 10.40428 25.31452 10.12702 24.77959 9.600957 C 23.81239 8.648043 21.93182 7.16762 19.55457 5.869424 C 17.7999 4.911185 15.23627 3.768967 12.98802 3.768967 C 10.68812 3.768967 8.489237 4.402924 6.796637 5.553739 L 6.796637 5.554043 C 6.796334 5.554348 6.796032 5.554348 6.795729 5.554652 C 5.660676 6.326554 4.825415 7.272848 4.339849 8.325283 Z M 22.36574 1.795196 C 21.2319 1.308087 18.70336 1.064076 15.60986 1.616543 C 14.46452 1.821065 13.34958 2.116207 12.28689 2.491011 C 12.51961 2.479065 12.75355 2.47313 12.98802 2.47313 C 14.96483 2.47313 17.10051 3.229283 18.83953 4.052543 L 18.83953 3.267326 C 18.83953 2.909489 19.12776 2.61937 19.48342 2.61937 C 19.83902 2.61937 20.12724 2.909489 20.12724 3.267326 L 20.12724 4.70788 C 20.14115 4.715337 20.15499 4.722793 20.1689 4.730174 C 20.71208 5.027141 21.2316 5.333543 21.72215 5.642076 L 21.72215 4.391359 C 21.72215 4.033522 22.01068 3.743478 22.36605 3.743478 C 22.72164 3.743478 23.01017 4.033522 23.01017 4.391359 L 23.01017 6.4995 C 23.61474 6.925435 24.15497 7.340641 24.61839 7.724348 C 24.59502 5.599239 24.21962 2.592054 22.36574 1.795196 Z M 29.56372 6.915011 C 29.5058 6.863272 29.38414 6.786652 29.22166 6.855283 C 27.76889 7.467859 26.82997 8.887337 26.82997 10.47177 C 26.82997 12.05446 27.76678 13.4731 29.21727 14.08621 C 29.26332 14.10553 29.30589 14.11352 29.34483 14.11352 C 29.44289 14.11352 29.51707 14.06361 29.55842 14.02678 C 29.60772 13.9828 29.71637 13.85977 29.66239 13.6707 L 29.05721 11.55692 C 28.85873 10.86324 28.85782 10.12968 29.05479 9.436 L 29.66768 7.270489 C 29.72114 7.081489 29.61271 6.958685 29.56372 6.915011 Z " fill-rule="evenodd"/>
</clipPath>
<g clip-path="url(#cp4)">
<clipPath id="cp5">
<path transform="matrix(1,0,0,-1,0,21)" d="M 0 0 L 31 0 L 31 21 L 0 21 Z "/>
</clipPath>
<g clip-path="url(#cp5)">
<path transform="matrix(1,0,0,-1,0,21)" d="M -5 25.97565 L 35.96975 25.97565 L 35.96975 -5 L -5 -5 Z " />
</g>
</g>
</g>
</g>
</g>
<clipPath id="cp6">
<path transform="matrix(1,0,0,-1,0,21)" d="M 15.47493 8.402753 C 15.13172 8.402753 14.53578 8.690041 14.03847 9.320708 C 13.81407 9.605442 13.43543 9.622821 13.1924 9.359913 C 12.94965 9.097087 12.93453 8.653389 13.15886 8.368654 C 13.82482 7.524416 14.71209 7 15.47493 7 C 16.89086 7 18 8.757004 18 11.00012 C 18 13.243 16.89086 15 15.47493 15 C 14.71237 15 13.82511 14.47525 13.15886 13.63069 C 12.93453 13.34628 12.94965 12.90258 13.1924 12.63943 C 13.43543 12.37685 13.81407 12.39423 14.03847 12.67896 C 14.53606 13.30988 15.132 13.59716 15.47493 13.59716 C 16.18237 13.59716 16.8027 12.3836 16.8027 11.00012 C 16.8027 9.616314 16.18237 8.402753 15.47493 8.402753 Z " fill-rule="evenodd"/>
</clipPath>
<g clip-path="url(#cp6)">
<clipPath id="cp7">
<path transform="matrix(1,0,0,-1,0,21)" d="M -679 -849 L 584 -849 L 584 414 L -679 414 Z "/>
</clipPath>
<g clip-path="url(#cp7)">
<path transform="matrix(1,0,0,-1,0,21)" d="M 8 20 L 23 20 L 23 2 L 8 2 Z " />
</g>
</g>
</g>
</g>
</svg>
