<?xml version="1.0" encoding="UTF-8" standalone="no"?>
<!DOCTYPE svg PUBLIC "-//W3C//DTD SVG 1.1//EN" "http://www.w3.org/Graphics/SVG/1.1/DTD/svg11.dtd">
<svg xmlns="http://www.w3.org/2000/svg" xmlns:xlink="http://www.w3.org/1999/xlink" version="1.1" width="30pt" height="17pt" viewBox="0 0 30 17">
<g enable-background="new">
<g>
<clipPath id="cp0">
<path transform="matrix(1,0,0,-1,0,17)" d="M .004390244 .4723691 L 29.970742 .4723691 L 29.970742 16.987809 L .004390244 16.987809 Z "/>
</clipPath>
<g clip-path="url(#cp0)">
<g>
<clipPath id="cp1">
<path transform="matrix(1,0,0,-1,0,17)" d="M -1 0 L 31 0 L 31 17 L -1 17 Z "/>
</clipPath>
<g clip-path="url(#cp1)">
<clipPath id="cp2">
<path transform="matrix(1,0,0,-1,0,17)" d="M 1.399098 5.43724 C 2.254537 4.444472 3.473634 3.921092 5.125976 3.837278 L 6.369878 3.712181 C 5.745585 3.09294 5.358293 2.234157 5.358293 1.285536 C 5.358293 .9420519 5.635829 .6637241 5.977976 .6637241 L 10.93961 .6637241 C 11.94285 .6637241 12.75856 1.48262 12.75856 2.489493 L 12.75856 3.45567 L 15.22434 3.45567 C 14.63759 2.841865 14.27576 2.01004 14.27576 1.094107 C 14.27576 .7506969 14.55329 .4723691 14.89537 .4723691 L 24.1849 .4723691 C 25.79466 .4723691 27.31383 1.399173 28.35198 3.014929 C 29.03846 4.082036 29.8751 5.799676 29.96312 7.923018 C 30.05085 10.03578 29.3809 12.03719 27.97266 13.87221 C 26.37059 15.95853 24.20839 16.97774 21.36212 16.98781 C 21.34785 16.98781 21.3338 16.98781 21.31954 16.98781 C 18.78944 16.98781 15.92378 16.20417 13.16502 15.31351 C 12.71429 16.11088 11.99832 16.58636 11.20141 16.58636 C 9.730024 16.58636 8.585854 15.54761 8.380317 14.10345 C 4.732098 12.8765 1.809512 11.5758 1.394561 11.38871 C .6433902 11.17032 -.07119512 10.13216 .005707317 9.339632 C .1729024 7.608843 .6285366 6.332238 1.399098 5.43724 Z M 1.729829 10.19158 C 1.773805 10.20106 1.816976 10.21509 1.857878 10.23404 C 1.889561 10.24837 5.060488 11.6926 9.052317 13.01651 C 9.353854 13.05838 9.586537 13.31783 9.586537 13.63201 C 9.586537 14.62309 10.26593 15.34215 11.20171 15.34215 C 11.62273 15.34215 12.03344 14.94989 12.24863 14.34189 C 12.34756 14.06386 12.39988 13.74939 12.39988 13.43228 C 12.39988 12.39676 11.8511 11.52181 11.20171 11.52181 C 10.85956 11.52181 10.58202 11.24319 10.58202 10.89978 C 10.58202 10.5563 10.85956 10.27768 11.20171 10.27768 C 12.56854 10.27768 13.63917 11.66358 13.63917 13.43228 C 13.63917 13.67388 13.61832 13.91004 13.578 14.13989 C 16.22934 14.995 18.96578 15.7436 21.31924 15.7436 C 21.33183 15.7436 21.345 15.7436 21.35788 15.7436 C 23.82937 15.735 25.61949 14.89884 26.99085 13.11267 C 30.12432 9.030893 28.25846 5.163246 27.31068 3.689483 C 26.83705 2.952638 25.80154 1.716213 24.1849 1.716213 L 15.60563 1.716213 C 15.87293 2.610623 16.70063 3.264241 17.67761 3.264241 L 19.89241 3.264241 C 19.93873 3.264241 19.98359 3.269751 20.02676 3.279447 C 20.3389 3.311915 20.58212 3.576433 20.58212 3.8981 C 20.58212 4.241584 20.30459 4.520206 19.96244 4.520206 C 19.94502 4.520206 19.92761 4.519912 19.91012 4.520499 C 19.90815 4.520499 19.90588 4.520499 19.9039 4.520499 C 19.60032 4.526229 19.30193 4.576473 19.01554 4.670572 C 18.56137 4.81866 18.14151 5.077449 17.80163 5.418582 C 17.22454 5.997936 16.90646 6.768644 16.90646 7.588496 C 16.90646 9.605619 18.16837 11.44123 20.0468 12.15567 C 20.36663 12.27739 20.52783 12.63659 20.40666 12.95767 C 20.28512 13.27905 19.92732 13.44087 19.60749 13.31893 C 18.46134 12.88311 17.4818 12.11843 16.7741 11.10781 C 16.05015 10.07369 15.66739 8.856727 15.66739 7.588496 C 15.66739 6.510738 16.05841 5.493214 16.77322 4.699807 L 12.75856 4.699807 L 12.75856 6.481428 C 12.75856 6.825206 12.48102 7.103534 12.13888 7.103534 C 11.7968 7.103534 11.51927 6.825206 11.51927 6.481428 L 11.51927 2.489493 C 11.51927 2.168707 11.25944 1.907641 10.93961 1.907641 L 6.687951 1.907641 C 6.955244 2.801978 7.782951 3.45567 8.759927 3.45567 L 8.949439 3.45567 C 8.949659 3.45567 8.950244 3.45567 8.950537 3.45567 C 8.971098 3.45567 8.991732 3.456772 9.012 3.458828 C 9.015732 3.459122 9.019171 3.45993 9.022829 3.460224 C 9.038854 3.462281 9.055171 3.464558 9.071195 3.467717 C 9.078 3.469112 9.084585 3.470875 9.091171 3.472565 C 9.103756 3.47543 9.116049 3.478294 9.128049 3.482041 C 9.136024 3.484318 9.144073 3.487477 9.152049 3.490341 C 9.162366 3.493794 9.17261 3.497246 9.182927 3.50158 C 9.191195 3.505033 9.199537 3.508999 9.207805 3.512746 C 9.217244 3.51708 9.22639 3.52134 9.235537 3.525968 C 9.243805 3.530228 9.25178 3.53515 9.259829 3.539704 C 9.26839 3.54492 9.276951 3.550062 9.285512 3.555498 C 9.293268 3.560419 9.300659 3.565561 9.308415 3.570997 C 9.316683 3.57702 9.324951 3.583044 9.333 3.589361 C 9.339878 3.594797 9.346683 3.600527 9.353561 3.60633 C 9.361537 3.613455 9.369293 3.620654 9.376976 3.627852 C 9.383268 3.633876 9.389268 3.639606 9.394976 3.645923 C 9.402732 3.65393 9.410122 3.66223 9.417585 3.670604 C 9.423 3.676922 9.428195 3.682651 9.433024 3.688969 C 9.440488 3.698151 9.447293 3.707627 9.453878 3.717029 C 9.458488 3.723346 9.463024 3.72937 9.467341 3.735981 C 9.473927 3.745751 9.479927 3.756108 9.485634 3.766392 C 9.489585 3.773003 9.49361 3.779614 9.497341 3.786519 C 9.502756 3.796803 9.507659 3.807454 9.512488 3.818326 C 9.515634 3.825525 9.519366 3.832723 9.522512 3.840436 C 9.526463 3.8505 9.530195 3.861078 9.533927 3.871435 C 9.53678 3.88003 9.539927 3.88811 9.542488 3.896704 C 9.545634 3.906474 9.54761 3.916758 9.550244 3.926528 C 9.552512 3.936298 9.555366 3.945773 9.557341 3.955543 C 9.55939 3.965533 9.560488 3.976185 9.561951 3.986762 C 9.563341 3.996238 9.56539 4.005714 9.566195 4.015484 C 9.566195 4.015778 9.566195 4.015778 9.566195 4.016072 C 9.567366 4.027237 9.567366 4.038402 9.567951 4.049641 C 9.568537 4.059117 9.569341 4.068593 9.569341 4.077996 L 9.569341 4.07829 C 9.569341 4.14205 9.559902 4.203974 9.54161 4.262225 C 9.538171 4.273978 9.533634 4.285217 9.529317 4.296383 C 9.526463 4.303875 9.524195 4.311588 9.521049 4.319081 C 9.515341 4.332817 9.508756 4.34604 9.501878 4.359262 C 9.49961 4.363816 9.497634 4.368738 9.495366 4.372998 C 9.488488 4.385633 9.480732 4.39768 9.473049 4.41002 C 9.470195 4.414869 9.467634 4.41979 9.464488 4.424344 C 9.457317 4.434996 9.449634 4.444765 9.442171 4.454462 C 9.437561 4.460559 9.43361 4.466802 9.428707 4.472606 C 9.422195 4.480319 9.415024 4.487811 9.408439 4.49523 C 9.401854 4.502429 9.395561 4.510142 9.388463 4.517047 C 9.382976 4.522483 9.377268 4.527404 9.371561 4.532546 C 9.362707 4.541141 9.353854 4.549735 9.344122 4.557522 C 9.340098 4.561268 9.335268 4.564133 9.330951 4.567585 C 9.319537 4.576473 9.308415 4.585362 9.296415 4.593662 C 9.29239 4.596233 9.287854 4.59851 9.283537 4.601375 C 9.270951 4.609456 9.258366 4.617462 9.245268 4.624661 C 9.23839 4.628701 9.23122 4.631566 9.224049 4.635019 C 9.21322 4.640454 9.202683 4.646184 9.191195 4.651032 C 9.13522 4.674832 9.074854 4.690625 9.011707 4.696943 L 9.011415 4.696943 L 5.233683 5.076861 C 5.223439 5.078036 5.212829 5.078844 5.202293 5.079432 C 3.898317 5.143119 2.960854 5.52649 2.336341 6.251068 C 1.739488 6.944573 1.380512 7.994198 1.239073 9.459881 C 1.225024 9.652117 1.552317 10.13818 1.729829 10.19158 Z " fill-rule="evenodd"/>
</clipPath>
<g clip-path="url(#cp2)">
<clipPath id="cp3">
<path transform="matrix(1,0,0,-1,0,17)" d="M 0 0 L 30 0 L 30 17 L 0 17 Z "/>
</clipPath>
<g clip-path="url(#cp3)">
<path transform="matrix(1,0,0,-1,0,17)" d="M -4.999986 21.98781 L 34.97074 21.98781 L 34.97074 -4.527631 L -4.999986 -4.527631 Z " />
</g>
</g>
</g>
</g>
</g>
<clipPath id="cp4">
<path transform="matrix(1,0,0,-1,0,17)" d="M 20.86612 12 C 20.87615 12 20.88649 12.00047 20.89652 12.00094 C 20.97534 12.00377 21.05405 12.00554 21.13357 12.00554 C 21.61218 12.00554 22 12.4518 22 13.003 C 22 13.55374 21.61218 14 21.13357 14 C 21.03409 14 20.93532 13.99812 20.83695 13.99446 C 20.35876 13.97562 19.98414 13.51369 20.00052 12.96343 C 20.01648 12.42471 20.40154 12 20.86612 12 Z " fill-rule="evenodd"/>
</clipPath>
<g clip-path="url(#cp4)">
<clipPath id="cp5">
<path transform="matrix(1,0,0,-1,0,17)" d="M -1033 -954 L 230 -954 L 230 309 L -1033 309 Z "/>
</clipPath>
<g clip-path="url(#cp5)">
<path transform="matrix(1,0,0,-1,0,17)" d="M 15 19 L 27 19 L 27 7 L 15 7 Z " />
</g>
</g>
</g>
</g>
</svg>
