<?xml version="1.0" encoding="utf-8"?>
<!-- Generator: Adobe Illustrator 25.2.0, SVG Export Plug-In . SVG Version: 6.00 Build 0)  -->
<svg version="1.1" id="Capa_1" xmlns="http://www.w3.org/2000/svg" xmlns:xlink="http://www.w3.org/1999/xlink" x="0px" y="0px"
	 viewBox="0 0 30 17" style="enable-background:new 0 0 30 17;" xml:space="preserve">
<style type="text/css">
	.st0{enable-background:new    ;}
	.st1{clip-path:url(#SVGID_2_);}
	.st2{clip-path:url(#SVGID_4_);}
	.st3{clip-path:url(#SVGID_6_);}
	.st4{clip-path:url(#SVGID_8_);}
	.st5{clip-path:url(#SVGID_10_);}
	.st6{clip-path:url(#SVGID_12_);}
</style>
<g class="st0">
	<g>
		<g>
			<defs>
				<rect id="SVGID_1_" x="0" y="0" width="30" height="16.5"/>
			</defs>
			<clipPath id="SVGID_2_">
				<use xlink:href="#SVGID_1_"  style="overflow:visible;"/>
			</clipPath>
			<g class="st1">
				<g>
					<g>
						<defs>
							<rect id="SVGID_3_" x="-1" width="32" height="17"/>
						</defs>
						<clipPath id="SVGID_4_">
							<use xlink:href="#SVGID_3_"  style="overflow:visible;"/>
						</clipPath>
						<g class="st2">
							<g>
								<defs>
									<path id="SVGID_5_" d="M1.4,11.6c0.9,1,2.1,1.5,3.7,1.6l1.2,0.1c-0.6,0.6-1,1.5-1,2.4c0,0.3,0.3,0.6,0.6,0.6h5
										c1,0,1.8-0.8,1.8-1.8v-1h2.5c-0.6,0.6-0.9,1.4-0.9,2.4c0,0.3,0.3,0.6,0.6,0.6h9.3c1.6,0,3.1-0.9,4.2-2.5
										c0.7-1.1,1.5-2.8,1.6-4.9C30.1,7,29.4,5,28,3.1C26.4,1,24.2,0,21.4,0c0,0,0,0,0,0c-2.5,0-5.4,0.8-8.2,1.7
										c-0.5-0.8-1.2-1.3-2-1.3c-1.5,0-2.6,1-2.8,2.5c-3.6,1.2-6.6,2.5-7,2.7C0.6,5.8-0.1,6.9,0,7.7C0.2,9.4,0.6,10.7,1.4,11.6z
										 M1.7,6.8c0,0,0.1,0,0.1,0c0,0,3.2-1.5,7.2-2.8c0.3,0,0.5-0.3,0.5-0.6c0-1,0.7-1.7,1.6-1.7c0.4,0,0.8,0.4,1,1
										c0.1,0.3,0.2,0.6,0.2,0.9c0,1-0.5,1.9-1.2,1.9c-0.3,0-0.6,0.3-0.6,0.6c0,0.3,0.3,0.6,0.6,0.6c1.4,0,2.4-1.4,2.4-3.2
										c0-0.2,0-0.5-0.1-0.7C16.2,2,19,1.3,21.3,1.3c0,0,0,0,0,0c2.5,0,4.3,0.8,5.6,2.6c3.1,4.1,1.3,7.9,0.3,9.4
										c-0.5,0.7-1.5,2-3.1,2h-8.6c0.3-0.9,1.1-1.5,2.1-1.5h2.2c0,0,0.1,0,0.1,0c0.3,0,0.6-0.3,0.6-0.6c0-0.3-0.3-0.6-0.6-0.6
										c0,0,0,0-0.1,0c0,0,0,0,0,0c-0.3,0-0.6-0.1-0.9-0.2c-0.5-0.1-0.9-0.4-1.2-0.7c-0.6-0.6-0.9-1.4-0.9-2.2
										c0-2,1.3-3.9,3.1-4.6c0.3-0.1,0.5-0.5,0.4-0.8c-0.1-0.3-0.5-0.5-0.8-0.4c-1.1,0.4-2.1,1.2-2.8,2.2c-0.7,1-1.1,2.3-1.1,3.5
										c0,1.1,0.4,2.1,1.1,2.9h-4v-1.8c0-0.3-0.3-0.6-0.6-0.6c-0.3,0-0.6,0.3-0.6,0.6v4c0,0.3-0.3,0.6-0.6,0.6H6.7
										c0.3-0.9,1.1-1.5,2.1-1.5h0.2c0,0,0,0,0,0c0,0,0,0,0.1,0c0,0,0,0,0,0c0,0,0,0,0,0c0,0,0,0,0,0c0,0,0,0,0,0c0,0,0,0,0,0
										c0,0,0,0,0,0c0,0,0,0,0,0c0,0,0,0,0,0c0,0,0,0,0,0c0,0,0,0,0,0c0,0,0,0,0,0c0,0,0,0,0,0c0,0,0,0,0,0c0,0,0,0,0,0
										c0,0,0,0,0,0c0,0,0,0,0,0c0,0,0,0,0,0c0,0,0,0,0,0c0,0,0,0,0,0c0,0,0,0,0,0c0,0,0,0,0,0c0,0,0,0,0,0c0,0,0,0,0,0
										c0,0,0,0,0,0c0,0,0,0,0,0c0,0,0,0,0,0c0,0,0,0,0,0c0,0,0,0,0,0c0,0,0,0,0,0c0,0,0,0,0,0c0,0,0,0,0,0c0,0,0,0,0,0v0
										c0-0.1,0-0.1,0-0.2c0,0,0,0,0,0c0,0,0,0,0,0c0,0,0,0,0,0c0,0,0,0,0,0c0,0,0,0,0,0c0,0,0,0,0,0c0,0,0,0,0,0c0,0,0,0,0,0
										c0,0,0,0,0,0c0,0,0,0,0,0c0,0,0,0,0,0c0,0,0,0,0,0c0,0,0,0,0,0c0,0,0,0,0,0c0,0,0,0,0,0c0,0,0,0,0,0c0,0,0,0,0,0
										c0,0,0,0,0,0c-0.1,0-0.1,0-0.2,0h0l-3.8-0.4c0,0,0,0,0,0c-1.3-0.1-2.2-0.4-2.9-1.2c-0.6-0.7-1-1.7-1.1-3.2
										C1.2,7.3,1.6,6.9,1.7,6.8z"/>
								</defs>
								<clipPath id="SVGID_6_">
									<use xlink:href="#SVGID_5_"  style="overflow:visible;"/>
								</clipPath>
								<g class="st3">
									<g>
										<defs>
											<rect id="SVGID_7_" width="30" height="17"/>
										</defs>
										<clipPath id="SVGID_8_">
											<use xlink:href="#SVGID_7_"  style="overflow:visible;"/>
										</clipPath>
										<g class="st4">
											<path d="M-5-5h40v26.5H-5V-5z"/>
										</g>
									</g>
								</g>
							</g>
						</g>
					</g>
				</g>
			</g>
		</g>
		<g>
			<defs>
				<path id="SVGID_9_" d="M20.9,5C20.9,5,20.9,5,20.9,5c0.1,0,0.2,0,0.3,0C21.6,5,22,4.5,22,4c0-0.6-0.4-1-0.9-1
					c-0.1,0-0.2,0-0.3,0C20.4,3,20,3.5,20,4C20,4.6,20.4,5,20.9,5z"/>
			</defs>
			<clipPath id="SVGID_10_">
				<use xlink:href="#SVGID_9_"  style="overflow:visible;"/>
			</clipPath>
			<g class="st5">
				<g>
					<defs>
						<rect id="SVGID_11_" x="-1033" y="-292" width="1263" height="1263"/>
					</defs>
					<clipPath id="SVGID_12_">
						<use xlink:href="#SVGID_11_"  style="overflow:visible;"/>
					</clipPath>
					<g class="st6">
						<path d="M15-2h12v12H15V-2z"/>
					</g>
				</g>
			</g>
		</g>
	</g>
</g>
</svg>
