<?xml version="1.0" encoding="UTF-8" standalone="no"?>
<!DOCTYPE svg PUBLIC "-//W3C//DTD SVG 1.1//EN" "http://www.w3.org/Graphics/SVG/1.1/DTD/svg11.dtd">
<svg xmlns="http://www.w3.org/2000/svg" xmlns:xlink="http://www.w3.org/1999/xlink" version="1.1" width="24pt" height="24pt" viewBox="0 0 24 24">
<g enable-background="new">
<clipPath id="cp0">
<path transform="matrix(1,0,0,-1,0,24)" d="M 10.96917 19.63939 C 10.26629 21.12795 8.748912 22.08978 7.103485 22.08978 C 6.845099 22.08978 6.635649 21.88028 6.635649 21.62194 C 6.635649 21.3636 6.845146 21.15406 7.103532 21.15406 C 8.388772 21.15406 9.574035 20.40267 10.12313 19.23986 C 10.20299 19.07074 10.37109 18.9717 10.54648 18.9717 C 10.61338 18.9717 10.6814 18.98615 10.74592 19.01656 C 10.97956 19.12688 11.07953 19.40575 10.96917 19.63939 Z " fill-rule="evenodd"/>
</clipPath>
<g clip-path="url(#cp0)">
<clipPath id="cp1">
<path transform="matrix(1,0,0,-1,0,24)" d="M -534 -1155 L 729 -1155 L 729 108 L -534 108 Z "/>
</clipPath>
<g clip-path="url(#cp1)">
<path transform="matrix(1,0,0,-1,0,24)" d="M 1.635649 27.08978 L 16.01409 27.08978 L 16.01409 13.9717 L 1.635649 13.9717 Z " />
</g>
</g>
<clipPath id="cp2">
<path transform="matrix(1,0,0,-1,0,24)" d="M 11.37633 17.83949 C 11.3745 18.09778 11.16299 18.30713 10.90522 18.304 C 10.64683 18.30218 10.43888 18.09123 10.4407 17.83284 L 10.4407 17.8168 C 10.4407 17.55846 10.65015 17.34896 10.90854 17.34896 C 11.16692 17.34896 11.37637 17.55846 11.37637 17.8168 L 11.37633 17.83949 Z " fill-rule="evenodd"/>
</clipPath>
<g clip-path="url(#cp2)">
<clipPath id="cp3">
<path transform="matrix(1,0,0,-1,0,24)" d="M -534 -1155 L 729 -1155 L 729 108 L -534 108 Z "/>
</clipPath>
<g clip-path="url(#cp3)">
<path transform="matrix(1,0,0,-1,0,24)" d="M 5.44069 23.30403 L 16.37637 23.30403 L 16.37637 12.34896 L 5.44069 12.34896 Z " />
</g>
</g>
<clipPath id="cp4">
<path transform="matrix(1,0,0,-1,0,24)" d="M 8.507088 18.74423 C 8.248702 18.74423 8.039251 18.53474 8.039251 18.2764 L 8.039251 16.2684 C 8.039251 16.01006 8.248702 15.80056 8.507088 15.80056 C 8.765474 15.80056 8.974924 16.01006 8.974924 16.2684 L 8.974924 18.2764 C 8.974924 18.53478 8.765474 18.74423 8.507088 18.74423 Z " fill-rule="evenodd"/>
</clipPath>
<g clip-path="url(#cp4)">
<clipPath id="cp5">
<path transform="matrix(1,0,0,-1,0,24)" d="M -534 -1155 L 729 -1155 L 729 108 L -534 108 Z "/>
</clipPath>
<g clip-path="url(#cp5)">
<path transform="matrix(1,0,0,-1,0,24)" d="M 3.039251 23.74423 L 13.97492 23.74423 L 13.97492 10.80056 L 3.039251 10.80056 Z " />
</g>
</g>
<clipPath id="cp6">
<path transform="matrix(1,0,0,-1,0,24)" d="M 6.635743 18.74423 C 6.377357 18.74423 6.167906 18.53474 6.167906 18.2764 L 6.167906 16.2684 C 6.167906 16.01006 6.377357 15.80056 6.635743 15.80056 C 6.894129 15.80056 7.103579 16.01006 7.103579 16.2684 L 7.103579 18.2764 C 7.103579 18.53474 6.894129 18.74423 6.635743 18.74423 Z " fill-rule="evenodd"/>
</clipPath>
<g clip-path="url(#cp6)">
<clipPath id="cp7">
<path transform="matrix(1,0,0,-1,0,24)" d="M -534 -1155 L 729 -1155 L 729 108 L -534 108 Z "/>
</clipPath>
<g clip-path="url(#cp7)">
<path transform="matrix(1,0,0,-1,0,24)" d="M 1.167906 23.74423 L 12.10358 23.74423 L 12.10358 10.80056 L 1.167906 10.80056 Z " />
</g>
</g>
<clipPath id="cp8">
<path transform="matrix(1,0,0,-1,0,24)" d="M 4.764398 18.74423 C 4.506012 18.74423 4.296561 18.53474 4.296561 18.2764 L 4.296561 16.2684 C 4.296561 16.01006 4.506012 15.80056 4.764398 15.80056 C 5.022784 15.80056 5.232234 16.01006 5.232234 16.2684 L 5.232234 18.2764 C 5.232234 18.53474 5.022784 18.74423 4.764398 18.74423 Z " fill-rule="evenodd"/>
</clipPath>
<g clip-path="url(#cp8)">
<clipPath id="cp9">
<path transform="matrix(1,0,0,-1,0,24)" d="M -534 -1155 L 729 -1155 L 729 108 L -534 108 Z "/>
</clipPath>
<g clip-path="url(#cp9)">
<path transform="matrix(1,0,0,-1,0,24)" d="M -.7034386 23.74423 L 10.23223 23.74423 L 10.23223 10.80056 L -.7034386 10.80056 Z " />
</g>
</g>
<clipPath id="cp10">
<path transform="matrix(1,0,0,-1,0,24)" d="M 23.70157 15.70335 C 23.10068 16.01712 22.38269 16.0182 21.78232 15.7069 C 21.78185 15.70667 21.77736 15.70437 21.77689 15.70409 C 21.44281 15.53085 21.04388 15.5309 20.70975 15.70414 C 20.70788 15.70512 20.70601 15.70611 20.70409 15.70704 C 20.10147 16.0174 19.38297 16.01647 18.78096 15.70433 C 18.55158 15.5854 18.46204 15.30302 18.58096 15.07368 C 18.69993 14.84426 18.98232 14.75476 19.21165 14.87368 C 19.54578 15.04692 19.94465 15.04692 20.27874 14.87368 C 20.28061 14.8727 20.28253 14.87177 20.2844 14.87078 C 20.58508 14.71593 20.91453 14.6386 21.24379 14.6386 C 21.57455 14.6386 21.90522 14.71668 22.20618 14.8728 C 22.20664 14.87303 22.21109 14.87532 22.2116 14.87556 C 22.5426 15.04725 22.93768 15.04669 23.26835 14.87396 C 23.4974 14.75443 23.78002 14.84304 23.8996 15.07205 C 24.01927 15.3011 23.93057 15.58372 23.70157 15.70335 Z " fill-rule="evenodd"/>
</clipPath>
<g clip-path="url(#cp10)">
<clipPath id="cp11">
<path transform="matrix(1,0,0,-1,0,24)" d="M -534 -1155 L 729 -1155 L 729 108 L -534 108 Z "/>
</clipPath>
<g clip-path="url(#cp11)">
<path transform="matrix(1,0,0,-1,0,24)" d="M 13.52836 20.93953 L 28.95289 20.93953 L 28.95289 9.638596 L 13.52836 9.638596 Z " />
</g>
</g>
<clipPath id="cp12">
<path transform="matrix(1,0,0,-1,0,24)" d="M 23.70157 17.79981 C 23.10073 18.11359 22.38274 18.11467 21.77694 17.80061 C 21.44337 17.6276 21.04501 17.62742 20.71116 17.79991 C 20.7106 17.80019 20.71008 17.80047 20.70957 17.80075 C 20.10582 18.11382 19.38484 18.11392 18.78101 17.80084 C 18.55163 17.68192 18.46208 17.39953 18.58101 17.1702 C 18.69998 16.94082 18.98236 16.85127 19.2117 16.9702 C 19.54531 17.14316 19.94358 17.14339 20.27729 16.97099 C 20.27789 16.97067 20.27846 16.97034 20.27906 16.97001 C 20.58049 16.81371 20.91111 16.73544 21.24225 16.73544 C 21.57446 16.73544 21.90723 16.81427 22.2116 16.97207 C 22.54274 17.14377 22.93782 17.1432 23.2684 16.97048 C 23.49745 16.85099 23.78007 16.93956 23.89965 17.16856 C 24.01927 17.39752 23.93057 17.68014 23.70157 17.79981 Z " fill-rule="evenodd"/>
</clipPath>
<g clip-path="url(#cp12)">
<clipPath id="cp13">
<path transform="matrix(1,0,0,-1,0,24)" d="M -534 -1155 L 729 -1155 L 729 108 L -534 108 Z "/>
</clipPath>
<g clip-path="url(#cp13)">
<path transform="matrix(1,0,0,-1,0,24)" d="M 13.52841 23.03565 L 28.9529 23.03565 L 28.9529 11.73544 L 13.52841 11.73544 Z " />
</g>
</g>
<clipPath id="cp14">
<path transform="matrix(1,0,0,-1,0,24)" d="M 23.70157 19.85389 C 23.10082 20.16758 22.38283 20.1687 21.77694 19.85469 C 21.44374 19.68196 21.04604 19.68145 20.71247 19.85333 C 20.71149 19.85385 20.71055 19.85432 20.70957 19.85483 C 20.10582 20.16791 19.38484 20.168 18.78101 19.85492 C 18.55163 19.736 18.46208 19.45361 18.58101 19.22428 C 18.69998 18.99485 18.98232 18.90531 19.2117 19.02423 C 19.54489 19.19701 19.9426 19.19743 20.27607 19.02564 C 20.27705 19.02508 20.27804 19.02461 20.27906 19.02405 C 20.58049 18.86774 20.91111 18.78947 21.24225 18.78947 C 21.57446 18.78947 21.90723 18.8683 22.2116 19.02611 C 22.54274 19.19785 22.93782 19.19724 23.2684 19.02451 C 23.49745 18.90498 23.78007 18.99354 23.89965 19.2226 C 24.01927 19.45165 23.93057 19.73427 23.70157 19.85389 Z " fill-rule="evenodd"/>
</clipPath>
<g clip-path="url(#cp14)">
<clipPath id="cp15">
<path transform="matrix(1,0,0,-1,0,24)" d="M -534 -1155 L 729 -1155 L 729 108 L -534 108 Z "/>
</clipPath>
<g clip-path="url(#cp15)">
<path transform="matrix(1,0,0,-1,0,24)" d="M 13.52841 25.08968 L 28.9529 25.08968 L 28.9529 13.78947 L 13.52841 13.78947 Z " />
</g>
</g>
<clipPath id="cp16">
<path transform="matrix(1,0,0,-1,0,24)" d="M 16.00402 21.00477 L 12.19504 21.00477 C 11.62377 21.87228 10.85287 22.59953 9.95214 23.11813 C 8.942924 23.69923 7.78952 24.00594 6.619415 23.99999 C 2.995368 23.98699 .02610526 21.02835 .0003442628 17.40458 C -.01207018 15.62063 .6729825 13.94133 1.929497 12.67593 C 2.310971 12.29174 2.731088 11.96033 3.180912 11.68458 L 3.180912 5.706854 C 3.180912 4.132304 4.348351 2.825778 5.863018 2.606129 C 6.014924 1.169778 7.232421 .04683041 8.707275 .04683041 C 10.27855 .04683041 11.55691 1.331041 11.55691 2.90952 L 11.55691 7.298292 C 11.55691 7.88014 11.7651 8.441216 12.14311 8.878222 C 12.31209 9.073497 12.29071 9.368936 12.0953 9.537965 C 11.89988 9.706947 11.60444 9.685614 11.43542 9.490199 C 10.91036 8.883275 10.62119 8.104795 10.62119 7.298199 L 10.62119 2.909427 C 10.62119 1.84683 9.762573 .9824094 8.707228 .9824094 C 7.746994 .9824094 6.948865 1.690058 6.805474 2.611789 C 8.301006 2.848094 9.448281 4.145871 9.448281 5.706807 L 9.448281 11.33446 C 9.622971 11.41581 9.794573 11.50423 9.961918 11.60094 C 10.85839 12.11911 11.62582 12.84435 12.19499 13.70858 L 16.00402 13.70858 C 16.80561 13.70858 17.45778 14.3607 17.45778 15.16229 L 17.45778 19.55106 C 17.45778 20.35265 16.80566 21.00477 16.00402 21.00477 Z M 8.512702 5.706807 C 8.512702 4.494784 7.526643 3.508772 6.314667 3.508772 C 5.102596 3.508772 4.116585 4.494737 4.116585 5.706807 L 4.116585 11.20903 C 4.907509 10.88398 5.762199 10.7134 6.643696 10.7134 C 7.279064 10.7134 7.908585 10.80515 8.512702 10.98194 L 8.512702 5.706807 Z M 16.52211 15.16229 C 16.52211 14.87668 16.28968 14.64426 16.00402 14.64426 L 11.93689 14.64426 C 11.77282 14.64426 11.62073 14.55832 11.53609 14.41773 C 10.49226 12.68407 8.663298 11.64908 6.643602 11.64908 C 5.69876 11.64908 4.789754 11.8771 3.978339 12.30667 C 3.918924 12.36571 3.843602 12.40842 3.759532 12.42891 C 3.338667 12.67626 2.946713 12.97937 2.593357 13.3352 C 1.513918 14.42232 .9253801 15.86522 .9360409 17.39799 C .9581754 20.51125 3.509193 23.05315 6.622784 23.06428 C 6.62952 23.06428 6.636211 23.06428 6.642901 23.06428 C 8.633591 23.06428 10.50713 22.00482 11.53619 20.29563 C 11.62082 20.15504 11.77291 20.0691 11.93698 20.0691 L 14.74358 20.0691 L 14.74358 15.8356 C 14.74358 15.57726 14.95303 15.36777 15.21142 15.36777 C 15.4698 15.36777 15.67925 15.57726 15.67925 15.8356 L 15.67925 20.06915 L 16.00402 20.06915 C 16.28968 20.06915 16.52211 19.83673 16.52211 19.55111 L 16.52211 15.16229 Z " fill-rule="evenodd"/>
</clipPath>
<g clip-path="url(#cp16)">
<clipPath id="cp17">
<path transform="matrix(1,0,0,-1,0,24)" d="M -534 -1155 L 729 -1155 L 729 108 L -534 108 Z "/>
</clipPath>
<g clip-path="url(#cp17)">
<path transform="matrix(1,0,0,-1,0,24)" d="M -4.999822 29.00008 L 22.45778 29.00008 L 22.45778 -4.95317 L -4.999822 -4.95317 Z " />
</g>
</g>
<clipPath id="cp18">
<path transform="matrix(1,0,0,-1,0,24)" d="M 16.31949 9.662596 C 15.68346 10.29287 14.84182 10.63986 13.94957 10.63986 C 13.54746 10.63986 13.15453 10.56884 12.78171 10.42891 C 12.53984 10.33811 12.41736 10.06835 12.50816 9.82648 C 12.59897 9.584561 12.86868 9.462129 13.1106 9.552889 C 13.37787 9.653287 13.66016 9.70414 13.94961 9.70414 C 14.59359 9.704187 15.20131 9.45338 15.66091 8.997942 C 16.12065 8.542363 16.37385 7.938667 16.37385 7.298199 L 16.37385 5.831485 L 16.3738 5.831485 C 16.3738 5.573146 16.58325 5.363649 16.84164 5.363649 C 17.10002 5.363649 17.30947 5.573146 17.30947 5.831485 L 17.30947 7.298246 C 17.30947 8.190269 16.95789 9.029988 16.31949 9.662596 Z " fill-rule="evenodd"/>
</clipPath>
<g clip-path="url(#cp18)">
<clipPath id="cp19">
<path transform="matrix(1,0,0,-1,0,24)" d="M -534 -1155 L 729 -1155 L 729 108 L -534 108 Z "/>
</clipPath>
<g clip-path="url(#cp19)">
<path transform="matrix(1,0,0,-1,0,24)" d="M 7.478192 15.63986 L 22.30947 15.63986 L 22.30947 .3636491 L 7.478192 .3636491 Z " />
</g>
</g>
<clipPath id="cp20">
<path transform="matrix(1,0,0,-1,0,24)" d="M 17.17249 4.672702 C 17.08547 4.759719 16.96473 4.809825 16.84173 4.809825 C 16.71869 4.809825 16.59799 4.759766 16.51097 4.672702 C 16.42395 4.585216 16.37389 4.465029 16.37389 4.341988 C 16.37389 4.218433 16.42395 4.098246 16.51097 4.01076 C 16.59799 3.923743 16.71869 3.873637 16.84173 3.873637 C 16.96477 3.873637 17.08547 3.923696 17.17249 4.01076 C 17.25951 4.098246 17.30957 4.218433 17.30957 4.341988 C 17.30957 4.465029 17.25951 4.585216 17.17249 4.672702 Z " fill-rule="evenodd"/>
</clipPath>
<g clip-path="url(#cp20)">
<clipPath id="cp21">
<path transform="matrix(1,0,0,-1,0,24)" d="M -534 -1155 L 729 -1155 L 729 108 L -534 108 Z "/>
</clipPath>
<g clip-path="url(#cp21)">
<path transform="matrix(1,0,0,-1,0,24)" d="M 11.37389 9.809825 L 22.30957 9.809825 L 22.30957 -1.126363 L 11.37389 -1.126363 Z " />
</g>
</g>
<clipPath id="cp22">
<path transform="matrix(1,0,0,-1,0,24)" d="M 23.48501 6.502877 L 23.01839 6.502877 C 21.98718 6.502877 21.14826 5.663906 21.14826 4.632702 L 21.14826 2.909427 C 21.14826 1.84683 20.28964 .9824094 19.23425 .9824094 C 18.17291 .9824094 17.30947 1.846877 17.30947 2.909427 C 17.30947 3.167766 17.10002 3.377263 16.84164 3.377263 C 16.58325 3.377263 16.3738 3.167766 16.3738 2.909427 C 16.3738 1.330947 17.65698 .04673684 19.23425 .04673684 C 20.80557 .04673684 22.08393 1.330947 22.08393 2.909427 L 22.08393 4.632702 C 22.08393 5.147977 22.50311 5.567205 23.01839 5.567205 L 23.48501 5.567205 C 23.74339 5.567205 23.95284 5.776702 23.95284 6.035041 C 23.95284 6.29338 23.74335 6.502877 23.48501 6.502877 Z " fill-rule="evenodd"/>
</clipPath>
<g clip-path="url(#cp22)">
<clipPath id="cp23">
<path transform="matrix(1,0,0,-1,0,24)" d="M -534 -1155 L 729 -1155 L 729 108 L -534 108 Z "/>
</clipPath>
<g clip-path="url(#cp23)">
<path transform="matrix(1,0,0,-1,0,24)" d="M 11.3738 11.50288 L 28.95284 11.50288 L 28.95284 -4.953263 L 11.3738 -4.953263 Z " />
</g>
</g>
</g>
</svg>
