<?xml version="1.0" encoding="UTF-8" standalone="no"?>
<!DOCTYPE svg PUBLIC "-//W3C//DTD SVG 1.1//EN" "http://www.w3.org/Graphics/SVG/1.1/DTD/svg11.dtd">
<svg xmlns="http://www.w3.org/2000/svg" xmlns:xlink="http://www.w3.org/1999/xlink" version="1.1" width="24pt" height="24pt" viewBox="0 0 24 24">
<g enable-background="new">
<clipPath id="cp0">
<path transform="matrix(1,0,0,-1,0,24)" d="M 20.48527 20.48522 C 18.21877 22.75181 15.20536 24 12 24 C 8.794641 24 5.781234 22.75181 3.514781 20.48522 C 1.248188 18.21877 0 15.20536 0 12 C 0 8.794641 1.248188 5.781234 3.514781 3.514734 C 5.781234 1.248188 8.794641 0 12 0 C 15.20536 0 18.21877 1.248188 20.48527 3.514734 C 22.75181 5.781234 24 8.794641 24 12 C 24 15.20536 22.75181 18.21877 20.48527 20.48522 Z M 12 .9561562 C 5.910422 .9561562 .9561563 5.910375 .9561563 12 C .9561563 18.08962 5.910422 23.04384 12 23.04384 C 18.08958 23.04384 23.04384 18.08958 23.04384 12 C 23.04384 5.910422 18.08958 .9561562 12 .9561562 Z " fill-rule="evenodd"/>
</clipPath>
<g clip-path="url(#cp0)">
<clipPath id="cp1">
<path transform="matrix(1,0,0,-1,0,24)" d="M -348 -645 L 915 -645 L 915 618 L -348 618 Z "/>
</clipPath>
<g clip-path="url(#cp1)">
<path transform="matrix(1,0,0,-1,0,24)" d="M -5 29 L 29 29 L 29 -5 L -5 -5 Z " />
</g>
</g>
<clipPath id="cp2">
<path transform="matrix(1,0,0,-1,0,24)" d="M 21.56491 10.19766 C 21.28581 10.26367 21.00242 10.10722 20.93153 9.848274 C 20.64094 8.788791 20.15727 7.791104 19.49406 6.882861 C 19.33259 6.661717 19.39481 6.360992 19.63294 6.211033 C 19.72248 6.154692 19.82418 6.12766 19.92486 6.12766 C 20.09178 6.12766 20.25585 6.202023 20.35653 6.34003 C 21.08762 7.34118 21.62079 8.441258 21.94121 9.609534 C 22.01221 9.86843 21.8438 10.13178 21.56491 10.19766 Z " fill-rule="evenodd"/>
</clipPath>
<g clip-path="url(#cp2)">
<clipPath id="cp3">
<path transform="matrix(1,0,0,-1,0,24)" d="M -348 -645 L 915 -645 L 915 618 L -348 618 Z "/>
</clipPath>
<g clip-path="url(#cp3)">
<path transform="matrix(1,0,0,-1,0,24)" d="M 14.40426 15.21277 L 26.95745 15.21277 L 26.95745 1.12766 L 14.40426 1.12766 Z " />
</g>
</g>
<clipPath id="cp4">
<path transform="matrix(1,0,0,-1,0,24)" d="M 21.96235 12.76596 C 21.68308 12.76596 21.45661 12.52942 21.45661 12.23773 C 21.45661 12.08675 21.45349 11.93448 21.44729 11.78511 C 21.43519 11.49363 21.65164 11.24715 21.93071 11.23456 C 21.93815 11.2342 21.94554 11.23404 21.95293 11.23404 C 22.22218 11.23404 22.44607 11.45582 22.45782 11.73948 C 22.46466 11.90398 22.46809 12.07158 22.46809 12.23773 C 22.46809 12.52942 22.24162 12.76596 21.96235 12.76596 Z " fill-rule="evenodd"/>
</clipPath>
<g clip-path="url(#cp4)">
<clipPath id="cp5">
<path transform="matrix(1,0,0,-1,0,24)" d="M -348 -645 L 915 -645 L 915 618 L -348 618 Z "/>
</clipPath>
<g clip-path="url(#cp5)">
<path transform="matrix(1,0,0,-1,0,24)" d="M 16.44681 17.76596 L 27.46809 17.76596 L 27.46809 6.234043 L 16.44681 6.234043 Z " />
</g>
</g>
<clipPath id="cp6">
<path transform="matrix(1,0,0,-1,0,24)" d="M 12 15.82979 C 11.01454 15.82979 10.21277 15.07402 10.21277 14.14511 L 10.21277 5.769788 C 10.21277 4.84087 11.01454 4.085106 12 4.085106 C 12.98546 4.085106 13.78723 4.84087 13.78723 5.769788 L 13.78723 14.14511 C 13.78723 15.07407 12.98546 15.82979 12 15.82979 Z M 12.76597 5.769788 C 12.76597 5.37166 12.42236 5.047768 12 5.047768 C 11.57764 5.047768 11.23403 5.37166 11.23403 5.769788 L 11.23403 14.14511 C 11.23403 14.54323 11.57764 14.86713 12 14.86713 C 12.42236 14.86713 12.76597 14.54323 12.76597 14.14511 L 12.76597 5.769788 Z " fill-rule="evenodd"/>
</clipPath>
<g clip-path="url(#cp6)">
<clipPath id="cp7">
<path transform="matrix(1,0,0,-1,0,24)" d="M -348 -645 L 915 -645 L 915 618 L -348 618 Z "/>
</clipPath>
<g clip-path="url(#cp7)">
<path transform="matrix(1,0,0,-1,0,24)" d="M 5.212766 20.82979 L 18.78723 20.82979 L 18.78723 -.9148936 L 5.212766 -.9148936 Z " />
</g>
</g>
<clipPath id="cp8">
<path transform="matrix(1,0,0,-1,0,24)" d="M 13.26344 19.392 C 12.93039 19.72434 12.46983 19.91489 12 19.91489 C 11.53012 19.91489 11.06956 19.72434 10.73601 19.39155 C 10.40347 19.0589 10.21277 18.59829 10.21277 18.12766 C 10.21277 17.65783 10.40332 17.19727 10.73646 16.86342 C 11.06951 16.53103 11.53007 16.34043 12 16.34043 C 12.46988 16.34043 12.93044 16.53103 13.26424 16.86417 C 13.59663 17.19722 13.78723 17.65778 13.78723 18.12766 C 13.78723 18.59829 13.59653 19.05895 13.26344 19.392 Z M 12.54207 17.58629 C 12.39898 17.4436 12.20142 17.36169 12 17.36169 C 11.79843 17.36169 11.60087 17.4436 11.45863 17.58549 C 11.31594 17.72858 11.23403 17.92619 11.23403 18.12761 C 11.23403 18.32948 11.31579 18.52694 11.45778 18.66898 C 11.60087 18.81167 11.79848 18.89358 12 18.89358 C 12.20147 18.89358 12.39908 18.81167 12.54167 18.66938 C 12.68421 18.52684 12.76592 18.32943 12.76592 18.12766 C 12.76597 17.92614 12.68406 17.72858 12.54207 17.58629 Z " fill-rule="evenodd"/>
</clipPath>
<g clip-path="url(#cp8)">
<clipPath id="cp9">
<path transform="matrix(1,0,0,-1,0,24)" d="M -348 -645 L 915 -645 L 915 618 L -348 618 Z "/>
</clipPath>
<g clip-path="url(#cp9)">
<path transform="matrix(1,0,0,-1,0,24)" d="M 5.212766 24.91489 L 18.78723 24.91489 L 18.78723 11.34043 L 5.212766 11.34043 Z " />
</g>
</g>
</g>
</svg>
