<?xml version="1.0" encoding="UTF-8" standalone="no"?>
<!DOCTYPE svg PUBLIC "-//W3C//DTD SVG 1.1//EN" "http://www.w3.org/Graphics/SVG/1.1/DTD/svg11.dtd">
<svg xmlns="http://www.w3.org/2000/svg" xmlns:xlink="http://www.w3.org/1999/xlink" version="1.1" width="29pt" height="29pt" viewBox="0 0 29 29">
<g enable-background="new">
<clipPath id="cp0">
<path transform="matrix(1,0,0,-1,0,29)" d="M 16.44016 17.69988 L 16.43415 17.70565 C 15.84866 18.06054 15.17421 18.25 14.49399 18.25 C 13.72505 18.25 12.98567 18.01918 12.35883 17.58158 C 12.18715 17.46329 12.0275 17.3272 11.87962 17.18534 C 11.15203 16.47556 10.75 15.52319 10.75 14.49988 C 10.75 12.43572 12.42976 10.75 14.5 10.75 C 16.57024 10.75 18.25 12.42971 18.25 14.49988 C 18.23244 15.79536 17.54621 17.01968 16.44016 17.69988 Z M 14.48822 11.93296 C 13.0744 11.93296 11.92098 13.08634 11.92098 14.49988 C 11.92098 15.19788 12.19917 15.8485 12.69593 16.33948 C 12.79644 16.43998 12.90896 16.5287 13.02726 16.61142 C 13.45887 16.90716 13.96165 17.06704 14.48822 17.06704 C 14.95541 17.06704 15.41081 16.93673 15.81909 16.69436 C 16.58202 16.22696 17.05522 15.3871 17.05522 14.49988 C 17.05522 13.08634 15.9018 11.93296 14.48822 11.93296 Z " fill-rule="evenodd"/>
</clipPath>
<g clip-path="url(#cp0)">
<clipPath id="cp1">
<path transform="matrix(1,0,0,-1,0,29)" d="M -617 -949 L 646 -949 L 646 314 L -617 314 Z "/>
</clipPath>
<g clip-path="url(#cp1)">
<path transform="matrix(1,0,0,-1,0,29)" d="M 5.75 23.25 L 23.25 23.25 L 23.25 5.75 L 5.75 5.75 Z " />
</g>
</g>
<clipPath id="cp2">
<path transform="matrix(1,0,0,-1,0,29)" d="M 21.35367 15.31293 L 21.41761 15.31293 C 21.59238 15.31293 21.75553 15.3874 21.86612 15.52472 C 21.97694 15.65644 22.02359 15.83401 21.98855 15.99996 C 21.67407 17.52854 20.88764 18.90258 19.71665 19.97896 C 19.58853 20.09928 19.41377 20.15072 19.23901 20.12791 C 19.06425 20.10487 18.9127 20.00177 18.81963 19.85864 C 18.74954 19.74414 18.65647 19.65267 18.54565 19.5782 C 18.53997 19.57238 18.52836 19.56679 18.52244 19.56098 C 18.51653 19.55539 18.01568 19.20025 17.46227 19.60101 C 17.42723 19.62405 17.42154 19.62964 17.39241 19.64686 C 17.33416 19.68689 17.0661 19.89308 17.08362 20.44279 C 17.08362 20.54567 17.13027 20.66599 17.20013 20.7919 C 17.28751 20.94084 17.30503 21.124 17.24086 21.28435 C 17.17669 21.4447 17.04289 21.57061 16.87973 21.62786 C 16.11652 21.87409 15.31848 22 14.50885 22 C 13.76315 22 13.02338 21.89109 12.3125 21.68511 C 12.14957 21.63927 12.01554 21.51895 11.94568 21.36441 C 11.87559 21.20988 11.88151 21.03231 11.95728 20.88359 C 12.17278 20.4542 12.00962 19.93312 11.59024 19.69852 L 11.56111 19.6813 C 11.13013 19.43507 10.5824 19.56679 10.32026 19.98478 C 10.22719 20.12791 10.08156 20.22519 9.906796 20.248 C 9.737724 20.27104 9.562962 20.21938 9.434849 20.11069 C 8.269773 19.09156 7.460136 17.77476 7.093091 16.29762 C 7.052359 16.13168 7.087175 15.95992 7.186161 15.8282 C 7.285374 15.69088 7.442614 15.60501 7.611459 15.59338 C 8.089095 15.55916 8.462056 15.1584 8.462056 14.68898 L 8.462056 14.65454 C 8.462056 14.16208 8.065885 13.76132 7.564811 13.74991 C 7.395966 13.74432 7.232809 13.66403 7.127907 13.53812 C 7.023232 13.4064 6.976584 13.23464 7.011399 13.0687 C 7.308585 11.56293 8.059968 10.20029 9.184312 9.129726 C 9.312425 9.009408 9.481498 8.952156 9.656259 8.969376 C 9.831021 8.986596 9.982344 9.08388 10.08156 9.22701 C 10.34939 9.633588 10.89119 9.765312 11.32218 9.524675 L 11.35131 9.507678 C 11.79413 9.255636 11.94568 8.700337 11.68923 8.265133 L 11.67762 8.248136 C 11.59024 8.099192 11.57864 7.921622 11.63689 7.761495 C 11.69514 7.601145 11.82917 7.475236 11.9921 7.417984 C 12.80197 7.14313 13.64665 7 14.50885 7 C 15.22519 7 15.93607 7.097283 16.62328 7.291851 C 16.79804 7.343511 16.93799 7.463606 17.00193 7.629771 C 17.07202 7.790121 17.05449 7.978873 16.96711 8.127818 C 16.71066 8.563022 16.86221 9.118321 17.30503 9.364549 L 17.33416 9.381545 C 17.77675 9.633588 18.34177 9.484643 18.5923 9.049663 L 18.62735 8.986596 C 18.71473 8.837652 18.86605 8.734778 19.03512 8.706152 C 19.20397 8.677526 19.38465 8.728963 19.51276 8.837652 C 20.72448 9.874001 21.56325 11.23083 21.93029 12.76522 C 21.97102 12.93698 21.93029 13.11455 21.8197 13.25186 C 21.70888 13.38918 21.54004 13.46947 21.36528 13.46947 L 21.34775 13.46947 C 20.84099 13.46947 20.4273 13.87582 20.4273 14.37409 L 20.4273 14.40831 C 20.4273 14.90635 20.84668 15.31293 21.35367 15.31293 Z M 20.6371 12.45034 C 20.33423 11.58015 19.85068 10.78422 19.19828 10.11441 C 18.54565 10.69275 17.55534 10.82447 16.75162 10.36646 L 16.72249 10.34924 C 15.95336 9.914033 15.57471 9.061069 15.70305 8.242322 C 15.31257 8.167849 14.91071 8.133632 14.50885 8.133632 C 13.97865 8.133632 13.45436 8.196475 12.94168 8.322385 C 13.10484 9.158352 12.72027 10.03435 11.93385 10.48096 L 11.90472 10.49796 C 11.15334 10.92176 10.24449 10.84147 9.598005 10.35483 C 8.992029 11.04767 8.549437 11.84919 8.292983 12.72519 C 9.07941 13.01704 9.632821 13.76132 9.632821 14.64313 L 9.632821 14.67735 C 9.632821 15.5075 9.12037 16.23478 8.386281 16.55525 C 8.683466 17.41403 9.161102 18.19275 9.801894 18.85674 C 10.45429 18.34147 11.38044 18.25 12.14957 18.68498 L 12.17869 18.7022 C 12.91847 19.12018 13.30281 19.93312 13.20974 20.72324 C 14.10676 20.9064 15.05634 20.89499 15.94767 20.69461 C 15.93607 20.62014 15.93015 20.54567 15.92423 20.47142 C 15.89511 19.45229 16.44852 18.86255 16.80987 18.65635 C 17.78267 17.97515 18.79619 18.33588 19.20988 18.63354 C 19.25653 18.66217 19.29727 18.69661 19.338 18.72524 C 19.96127 18.03821 20.42161 17.23669 20.69536 16.35487 C 19.86228 16.08583 19.26222 15.31293 19.26222 14.40831 L 19.26222 14.37409 C 19.26814 13.49228 19.83907 12.7366 20.6371 12.45034 Z " fill-rule="evenodd"/>
</clipPath>
<g clip-path="url(#cp2)">
<clipPath id="cp3">
<path transform="matrix(1,0,0,-1,0,29)" d="M -617 -949 L 646 -949 L 646 314 L -617 314 Z "/>
</clipPath>
<g clip-path="url(#cp3)">
<path transform="matrix(1,0,0,-1,0,29)" d="M 2 27 L 27 27 L 27 2 L 2 2 Z " />
</g>
</g>
<clipPath id="cp4">
<path transform="matrix(1,0,0,-1,0,29)" d="M 27.83179 20.06993 C 27.08702 21.78597 26.0275 23.33792 24.68268 24.68268 C 23.33792 26.02744 21.78597 27.08696 20.06993 27.83179 C 18.2841 28.60697 16.41009 29 14.5 29 C 12.58991 29 10.7159 28.60697 8.930074 27.83179 C 7.214033 27.08696 5.66208 26.02744 4.317318 24.68268 C 2.972557 23.33792 1.913037 21.78597 1.168213 20.06993 C .3930293 18.2841 0 16.41009 0 14.5 C 0 12.58991 .3930293 10.7159 1.168213 8.930074 C 1.913037 7.214033 2.972557 5.66208 4.317318 4.317318 C 5.66208 2.972557 7.214033 1.913037 8.930074 1.168213 C 10.7159 .3930293 12.58991 0 14.5 0 C 16.41009 0 18.2841 .3930293 20.06993 1.168213 C 21.78597 1.913037 23.33792 2.972557 24.68268 4.317318 C 26.02744 5.66208 27.08696 7.214033 27.83179 8.930074 C 28.60697 10.7159 29 12.58991 29 14.5 C 29 16.41009 28.60697 18.2841 27.83179 20.06993 Z M 14.5 1.132812 C 7.254248 1.132812 1.132813 7.254248 1.132813 14.5 C 1.132813 21.74575 7.254248 27.86719 14.5 27.86719 C 21.74575 27.86719 27.86719 21.74575 27.86719 14.5 C 27.86719 7.254248 21.74575 1.132812 14.5 1.132812 Z " fill-rule="evenodd"/>
</clipPath>
<g clip-path="url(#cp4)">
<clipPath id="cp5">
<path transform="matrix(1,0,0,-1,0,29)" d="M -617 -949 L 646 -949 L 646 314 L -617 314 Z "/>
</clipPath>
<g clip-path="url(#cp5)">
<path transform="matrix(1,0,0,-1,0,29)" d="M -5 34 L 34 34 L 34 -5 L -5 -5 Z " />
</g>
</g>
<clipPath id="cp6">
<path transform="matrix(1,0,0,-1,0,29)" d="M 25.67761 19.18812 C 25.05763 20.62862 24.17397 21.92836 23.05117 23.05111 C 21.92836 24.17397 20.62868 25.05757 19.18812 25.67761 C 17.69105 26.32195 16.11372 26.64865 14.5 26.64865 C 12.30628 26.64865 10.01954 25.89954 7.886972 24.48237 C 7.624606 24.30801 7.553254 23.95399 7.727613 23.69168 C 7.901972 23.42931 8.256051 23.35802 8.518302 23.53232 C 10.46323 24.82475 12.53163 25.50793 14.5 25.50793 C 20.46693 25.50793 25.50793 20.46693 25.50793 14.5 C 25.50793 8.533074 20.46693 3.49207 14.5 3.49207 C 8.533074 3.49207 3.49207 8.533074 3.49207 14.5 C 3.49207 16.46797 4.175075 18.53649 5.467166 20.48176 C 5.641468 20.74418 5.570059 21.09814 5.307694 21.27244 C 5.045214 21.44675 4.69125 21.37528 4.517005 21.11291 C 3.100233 18.97994 2.351351 16.69326 2.351351 14.5 C 2.351351 12.88628 2.678053 11.30895 3.322388 9.811876 C 3.942368 8.371377 4.826025 7.071643 5.948834 5.948891 C 7.071643 4.826082 8.37132 3.942425 9.811819 3.322445 C 11.30895 2.678053 12.88628 2.351351 14.5 2.351351 C 16.11372 2.351351 17.69105 2.678053 19.18812 3.322388 C 20.62862 3.942368 21.92836 4.826025 23.05111 5.948834 C 24.17392 7.071643 25.05757 8.37132 25.67756 9.811819 C 26.32195 11.30895 26.64865 12.88628 26.64865 14.5 C 26.64865 16.11372 26.32195 17.69105 25.67761 19.18812 Z " fill-rule="evenodd"/>
</clipPath>
<g clip-path="url(#cp6)">
<clipPath id="cp7">
<path transform="matrix(1,0,0,-1,0,29)" d="M -617 -949 L 646 -949 L 646 314 L -617 314 Z "/>
</clipPath>
<g clip-path="url(#cp7)">
<path transform="matrix(1,0,0,-1,0,29)" d="M -2.648649 31.64865 L 31.64865 31.64865 L 31.64865 -2.648649 L -2.648649 -2.648649 Z " />
</g>
</g>
<clipPath id="cp8">
<path transform="matrix(1,0,0,-1,0,29)" d="M 6.662162 22.72973 C 6.445838 22.72973 6.27027 22.55416 6.27027 22.33784 C 6.27027 22.12151 6.445838 21.94595 6.662162 21.94595 C 6.878486 21.94595 7.054054 22.12151 7.054054 22.33784 C 7.054054 22.55416 6.878486 22.72973 6.662162 22.72973 Z " fill-rule="evenodd"/>
</clipPath>
<g clip-path="url(#cp8)">
<clipPath id="cp9">
<path transform="matrix(1,0,0,-1,0,29)" d="M -617 -949 L 646 -949 L 646 314 L -617 314 Z "/>
</clipPath>
<g clip-path="url(#cp9)">
<path transform="matrix(1,0,0,-1,0,29)" d="M 1.27027 27.72973 L 12.05405 27.72973 L 12.05405 16.94595 L 1.27027 16.94595 Z " />
</g>
</g>
</g>
</svg>
