<?xml version="1.0" encoding="utf-8"?>
<!-- Generator: Adobe Illustrator 25.2.0, SVG Export Plug-In . SVG Version: 6.00 Build 0)  -->
<svg version="1.1" id="Capa_1" xmlns="http://www.w3.org/2000/svg" xmlns:xlink="http://www.w3.org/1999/xlink" x="0px" y="0px"
	 viewBox="0 0 29 29" style="enable-background:new 0 0 29 29;" xml:space="preserve">
<style type="text/css">
	.st0{enable-background:new    ;}
	.st1{clip-path:url(#SVGID_2_);}
	.st2{clip-path:url(#SVGID_4_);}
	.st3{clip-path:url(#SVGID_6_);}
	.st4{clip-path:url(#SVGID_8_);}
	.st5{clip-path:url(#SVGID_10_);}
	.st6{clip-path:url(#SVGID_12_);}
	.st7{clip-path:url(#SVGID_14_);}
	.st8{clip-path:url(#SVGID_16_);}
	.st9{clip-path:url(#SVGID_18_);}
	.st10{clip-path:url(#SVGID_20_);}
</style>
<g class="st0">
	<g>
		<defs>
			<path id="SVGID_1_" d="M16.4,11.3L16.4,11.3c-0.6-0.4-1.3-0.6-1.9-0.6c-0.8,0-1.5,0.2-2.1,0.7c-0.2,0.1-0.3,0.3-0.5,0.4
				c-0.7,0.7-1.1,1.7-1.1,2.7c0,2.1,1.7,3.7,3.8,3.7s3.8-1.7,3.8-3.7C18.2,13.2,17.5,12,16.4,11.3z M14.5,17.1
				c-1.4,0-2.6-1.2-2.6-2.6c0-0.7,0.3-1.3,0.8-1.8c0.1-0.1,0.2-0.2,0.3-0.3c0.4-0.3,0.9-0.5,1.5-0.5c0.5,0,0.9,0.1,1.3,0.4
				c0.8,0.5,1.2,1.3,1.2,2.2C17.1,15.9,15.9,17.1,14.5,17.1z"/>
		</defs>
		<clipPath id="SVGID_2_">
			<use xlink:href="#SVGID_1_"  style="overflow:visible;"/>
		</clipPath>
		<g class="st1">
			<g>
				<defs>
					<rect id="SVGID_3_" x="-617" y="-285" width="1263" height="1263"/>
				</defs>
				<clipPath id="SVGID_4_">
					<use xlink:href="#SVGID_3_"  style="overflow:visible;"/>
				</clipPath>
				<g class="st2">
					<path d="M5.8,5.8h17.5v17.5H5.8V5.8z"/>
				</g>
			</g>
		</g>
	</g>
	<g>
		<defs>
			<path id="SVGID_5_" d="M21.4,13.7L21.4,13.7c0.2,0,0.4-0.1,0.5-0.2C22,13.3,22,13.2,22,13c-0.3-1.5-1.1-2.9-2.3-4
				c-0.1-0.1-0.3-0.2-0.5-0.1c-0.2,0-0.3,0.1-0.4,0.3c-0.1,0.1-0.2,0.2-0.3,0.3c0,0,0,0,0,0c0,0-0.5,0.4-1.1,0c0,0,0,0-0.1,0
				c-0.1,0-0.3-0.2-0.3-0.8c0-0.1,0-0.2,0.1-0.3c0.1-0.1,0.1-0.3,0-0.5c-0.1-0.2-0.2-0.3-0.4-0.3C16.1,7.1,15.3,7,14.5,7
				c-0.7,0-1.5,0.1-2.2,0.3c-0.2,0-0.3,0.2-0.4,0.3c-0.1,0.2-0.1,0.3,0,0.5c0.2,0.4,0.1,1-0.4,1.2l0,0c-0.4,0.2-1,0.1-1.2-0.3
				c-0.1-0.1-0.2-0.2-0.4-0.3c-0.2,0-0.3,0-0.5,0.1c-1.2,1-2,2.3-2.3,3.8c0,0.2,0,0.3,0.1,0.5c0.1,0.1,0.3,0.2,0.4,0.2
				c0.5,0,0.9,0.4,0.9,0.9v0c0,0.5-0.4,0.9-0.9,0.9c-0.2,0-0.3,0.1-0.4,0.2C7,15.6,7,15.8,7,15.9c0.3,1.5,1,2.9,2.2,3.9
				C9.3,20,9.5,20,9.7,20c0.2,0,0.3-0.1,0.4-0.3c0.3-0.4,0.8-0.5,1.2-0.3l0,0c0.4,0.3,0.6,0.8,0.3,1.2l0,0c-0.1,0.1-0.1,0.3,0,0.5
				c0.1,0.2,0.2,0.3,0.4,0.3c0.8,0.3,1.7,0.4,2.5,0.4c0.7,0,1.4-0.1,2.1-0.3c0.2-0.1,0.3-0.2,0.4-0.3c0.1-0.2,0.1-0.3,0-0.5
				c-0.3-0.4-0.1-1,0.3-1.2l0,0c0.4-0.3,1-0.1,1.3,0.3l0,0.1c0.1,0.1,0.2,0.3,0.4,0.3c0.2,0,0.3,0,0.5-0.1c1.2-1,2.1-2.4,2.4-3.9
				c0-0.2,0-0.3-0.1-0.5c-0.1-0.1-0.3-0.2-0.5-0.2h0c-0.5,0-0.9-0.4-0.9-0.9v0C20.4,14.1,20.8,13.7,21.4,13.7z M20.6,16.5
				c-0.3,0.9-0.8,1.7-1.4,2.3c-0.7-0.6-1.6-0.7-2.4-0.3l0,0c-0.8,0.4-1.1,1.3-1,2.1c-0.4,0.1-0.8,0.1-1.2,0.1
				c-0.5,0-1.1-0.1-1.6-0.2c0.2-0.8-0.2-1.7-1-2.2l0,0c-0.8-0.4-1.7-0.3-2.3,0.1c-0.6-0.7-1-1.5-1.3-2.4c0.8-0.3,1.3-1,1.3-1.9v0
				c0-0.8-0.5-1.6-1.2-1.9c0.3-0.9,0.8-1.6,1.4-2.3c0.7,0.5,1.6,0.6,2.3,0.2l0,0c0.7-0.4,1.1-1.2,1-2c0.9-0.2,1.8-0.2,2.7,0
				c0,0.1,0,0.1,0,0.2c0,1,0.5,1.6,0.9,1.8c1,0.7,2,0.3,2.4,0c0,0,0.1-0.1,0.1-0.1c0.6,0.7,1.1,1.5,1.4,2.4c-0.8,0.3-1.4,1-1.4,1.9
				v0C19.3,15.5,19.8,16.3,20.6,16.5z"/>
		</defs>
		<clipPath id="SVGID_6_">
			<use xlink:href="#SVGID_5_"  style="overflow:visible;"/>
		</clipPath>
		<g class="st3">
			<g>
				<defs>
					<rect id="SVGID_7_" x="-617" y="-285" width="1263" height="1263"/>
				</defs>
				<clipPath id="SVGID_8_">
					<use xlink:href="#SVGID_7_"  style="overflow:visible;"/>
				</clipPath>
				<g class="st4">
					<path d="M2,2h25v25H2V2z"/>
				</g>
			</g>
		</g>
	</g>
	<g>
		<defs>
			<path id="SVGID_9_" d="M27.8,8.9c-0.7-1.7-1.8-3.3-3.1-4.6c-1.3-1.3-2.9-2.4-4.6-3.1C18.3,0.4,16.4,0,14.5,0s-3.8,0.4-5.6,1.2
				C7.2,1.9,5.7,3,4.3,4.3C3,5.7,1.9,7.2,1.2,8.9C0.4,10.7,0,12.6,0,14.5s0.4,3.8,1.2,5.6c0.7,1.7,1.8,3.3,3.1,4.6s2.9,2.4,4.6,3.1
				c1.8,0.8,3.7,1.2,5.6,1.2s3.8-0.4,5.6-1.2c1.7-0.7,3.3-1.8,4.6-3.1c1.3-1.3,2.4-2.9,3.1-4.6c0.8-1.8,1.2-3.7,1.2-5.6
				S28.6,10.7,27.8,8.9z M14.5,27.9c-7.2,0-13.4-6.1-13.4-13.4S7.3,1.1,14.5,1.1s13.4,6.1,13.4,13.4S21.7,27.9,14.5,27.9z"/>
		</defs>
		<clipPath id="SVGID_10_">
			<use xlink:href="#SVGID_9_"  style="overflow:visible;"/>
		</clipPath>
		<g class="st5">
			<g>
				<defs>
					<rect id="SVGID_11_" x="-617" y="-285" width="1263" height="1263"/>
				</defs>
				<clipPath id="SVGID_12_">
					<use xlink:href="#SVGID_11_"  style="overflow:visible;"/>
				</clipPath>
				<g class="st6">
					<path d="M-5-5h39v39H-5V-5z"/>
				</g>
			</g>
		</g>
	</g>
	<g>
		<defs>
			<path id="SVGID_13_" d="M25.7,9.8c-0.6-1.4-1.5-2.7-2.6-3.9c-1.1-1.1-2.4-2-3.9-2.6c-1.5-0.6-3.1-1-4.7-1c-2.2,0-4.5,0.7-6.6,2.2
				C7.6,4.7,7.6,5,7.7,5.3c0.2,0.3,0.5,0.3,0.8,0.2c1.9-1.3,4-2,6-2c6,0,11,5,11,11s-5,11-11,11s-11-5-11-11c0-2,0.7-4,2-6
				c0.2-0.3,0.1-0.6-0.2-0.8C5,7.6,4.7,7.6,4.5,7.9c-1.4,2.1-2.2,4.4-2.2,6.6c0,1.6,0.3,3.2,1,4.7c0.6,1.4,1.5,2.7,2.6,3.9
				c1.1,1.1,2.4,2,3.9,2.6c1.5,0.6,3.1,1,4.7,1s3.2-0.3,4.7-1c1.4-0.6,2.7-1.5,3.9-2.6c1.1-1.1,2-2.4,2.6-3.9c0.6-1.5,1-3.1,1-4.7
				S26.3,11.3,25.7,9.8z"/>
		</defs>
		<clipPath id="SVGID_14_">
			<use xlink:href="#SVGID_13_"  style="overflow:visible;"/>
		</clipPath>
		<g class="st7">
			<g>
				<defs>
					<rect id="SVGID_15_" x="-617" y="-285" width="1263" height="1263"/>
				</defs>
				<clipPath id="SVGID_16_">
					<use xlink:href="#SVGID_15_"  style="overflow:visible;"/>
				</clipPath>
				<g class="st8">
					<path d="M-2.6-2.6h34.3v34.3H-2.6V-2.6z"/>
				</g>
			</g>
		</g>
	</g>
	<g>
		<defs>
			<circle id="SVGID_17_" cx="6.7" cy="6.7" r="0.4"/>
		</defs>
		<clipPath id="SVGID_18_">
			<use xlink:href="#SVGID_17_"  style="overflow:visible;"/>
		</clipPath>
		<g class="st9">
			<g>
				<defs>
					<rect id="SVGID_19_" x="-617" y="-285" width="1263" height="1263"/>
				</defs>
				<clipPath id="SVGID_20_">
					<use xlink:href="#SVGID_19_"  style="overflow:visible;"/>
				</clipPath>
				<g class="st10">
					<path d="M1.3,1.3h10.8v10.8H1.3V1.3z"/>
				</g>
			</g>
		</g>
	</g>
</g>
</svg>
