<?xml version="1.0" encoding="UTF-8" standalone="no"?>
<!DOCTYPE svg PUBLIC "-//W3C//DTD SVG 1.1//EN" "http://www.w3.org/Graphics/SVG/1.1/DTD/svg11.dtd">
<svg xmlns="http://www.w3.org/2000/svg" xmlns:xlink="http://www.w3.org/1999/xlink" version="1.1" width="42pt" height="36pt" viewBox="0 0 42 36">
<g enable-background="new">
<clipPath id="cp0">
<path transform="matrix(1,0,0,-1,0,36)" d="M 17.29412 21.85714 C 17.61886 21.85714 17.93782 21.99325 18.16751 22.23382 C 18.3972 22.47288 18.52941 22.80335 18.52941 23.14286 C 18.52941 23.48086 18.3972 23.81283 18.16751 24.0519 C 17.93782 24.29096 17.61886 24.42857 17.29412 24.42857 C 16.96937 24.42857 16.65041 24.29096 16.42073 24.0519 C 16.19104 23.81283 16.05882 23.48086 16.05882 23.14286 C 16.05882 22.80335 16.19104 22.47288 16.42073 22.23382 C 16.65041 21.99325 16.96937 21.85714 17.29412 21.85714 Z " fill-rule="evenodd"/>
</clipPath>
<g clip-path="url(#cp0)">
<clipPath id="cp1">
<path transform="matrix(1,0,0,-1,0,36)" d="M -798 -1048 L 465 -1048 L 465 215 L -798 215 Z "/>
</clipPath>
<g clip-path="url(#cp1)">
<path transform="matrix(1,0,0,-1,0,36)" d="M 11.05882 29.42857 L 23.52941 29.42857 L 23.52941 16.85714 L 11.05882 16.85714 Z " />
</g>
</g>
<clipPath id="cp2">
<path transform="matrix(1,0,0,-1,0,36)" d="M 33.35294 24.42857 C 33.67769 24.42857 33.99616 24.5661 34.22585 24.80502 C 34.45602 25.04545 34.58824 25.37573 34.58824 25.71504 C 34.58824 26.05284 34.45602 26.38412 34.22585 26.62304 C 33.99616 26.86197 33.67769 27 33.35294 27 C 33.02771 27 32.70924 26.86247 32.47955 26.62304 C 32.24938 26.38412 32.11765 26.05284 32.11765 25.71504 C 32.11765 25.37573 32.24938 25.04545 32.47955 24.80502 C 32.70924 24.5661 33.02771 24.42857 33.35294 24.42857 Z " fill-rule="evenodd"/>
</clipPath>
<g clip-path="url(#cp2)">
<clipPath id="cp3">
<path transform="matrix(1,0,0,-1,0,36)" d="M -798 -1048 L 465 -1048 L 465 215 L -798 215 Z "/>
</clipPath>
<g clip-path="url(#cp3)">
<path transform="matrix(1,0,0,-1,0,36)" d="M 27.11765 32 L 39.58824 32 L 39.58824 19.42857 L 27.11765 19.42857 Z " />
</g>
</g>
<clipPath id="cp4">
<path transform="matrix(1,0,0,-1,0,36)" d="M 34.52863 19.68334 L 37.02197 19.68334 C 39.02105 19.68334 40.78792 20.91936 41.52303 22.83263 L 41.92929 23.88913 C 42.09273 24.31367 41.96622 24.79845 41.61811 25.08188 L 35.84406 29.78256 L 35.84406 34.9648 C 35.84406 35.24216 35.73601 35.5078 35.54428 35.70228 C 35.35254 35.89676 35.09559 36.00431 34.82331 36 C 32.61443 35.9655 30.60671 34.60131 29.70815 32.5247 L 28.97539 30.83017 L 24.68964 23.61378 L 21.46001 23.61378 C 20.90445 23.61378 20.45419 23.15043 20.45419 22.57871 C 20.45419 22.00699 20.90445 21.54364 21.46001 21.54364 L 24.3985 21.54364 L 31.37247 14.36728 C 31.0114 13.48585 30.4857 12.69297 29.82209 12.02947 C 29.79341 12.0044 29.7663 11.97812 29.74037 11.95063 C 29.285 11.50951 28.76912 11.12702 28.19941 10.81771 C 27.96564 10.69116 27.79001 10.47525 27.70986 10.21648 L 25.20984 2.154647 C 25.19452 2.104106 25.14934 2.070143 25.09747 2.070143 L 22.61317 2.070143 C 22.59863 2.070143 22.55423 2.070143 22.51887 2.118662 C 22.48351 2.167181 22.49608 2.210848 22.50001 2.225404 L 24.56745 9.544087 C 24.65546 9.85663 24.59574 10.19384 24.40597 10.45422 C 24.21581 10.71501 23.91799 10.86785 23.6017 10.86785 L 11.47132 10.86785 C 11.07096 10.86785 10.70871 10.62363 10.5488 10.24559 C 10.21051 9.444623 8.378026 4.088937 7.689666 2.070143 L 5.240723 2.070143 C 5.205362 2.070143 5.175895 2.08389 5.152714 2.110575 C 5.12914 2.137665 5.119317 2.169607 5.123639 2.205592 L 6.69563 15.97245 C 7.058276 19.14842 9.674987 21.54364 12.78243 21.54364 L 13.41343 21.54364 C 13.96899 21.54364 14.41925 22.00699 14.41925 22.57871 C 14.41925 23.15002 13.96899 23.61378 13.41343 23.61378 L 12.78243 23.61378 C 10.62463 23.61378 8.645983 22.74287 7.179289 21.31034 C 7.167895 21.30104 7.156108 21.29296 7.1455 21.28325 C 5.494929 19.81879 3.312765 19.17268 1.157318 19.51029 C .6076519 19.59681 .09491789 19.20826 .01162329 18.64301 C -.07206439 18.07817 .3051192 17.55012 .8543928 17.464 C 1.331373 17.3892 1.809139 17.35241 2.284154 17.35241 C 3.217683 17.35241 4.139819 17.49635 5.023843 17.7721 C 4.869826 17.27235 4.759028 16.75158 4.697736 16.21423 L 3.125745 2.447378 C 3.05463 1.826335 3.245579 1.202462 3.64948 .7350624 C 4.053381 .2680673 4.6333 0 5.240723 0 L 8.402779 0 C 8.830253 0 9.210973 .2781755 9.352024 .6934171 C 9.567726 1.327398 9.889117 2.269475 10.2443 3.304951 L 10.80929 1.514601 C 11.09493 .6085088 11.90901 0 12.83469 0 L 15.34256 0 C 16.01364 0 16.63167 .314969 17.03792 .8648508 C 17.44418 1.414733 17.57423 2.111384 17.39507 2.776903 L 15.77279 8.797703 L 22.26192 8.797703 L 20.56852 2.803184 C 20.37953 2.134835 20.50448 1.432118 20.91034 .8757675 C 21.3166 .3190122 21.93738 0 22.61356 0 L 25.09787 0 C 26.02825 0 26.84352 .6129564 27.1268 1.525113 L 27.4423 2.543607 L 28.27721 1.081164 C 28.65832 .4144329 29.36161 0 30.11362 0 L 32.63682 0 C 33.33893 0 33.99468 .3549971 34.3923 .9505675 C 34.78991 1.545734 34.87674 2.303438 34.62489 2.977448 L 31.63611 10.98308 C 32.73505 12.2381 33.48666 13.79435 33.79077 15.51313 L 34.52863 19.68334 Z M 15.4565 2.224191 C 15.46004 2.209635 15.47183 2.165968 15.43647 2.118258 C 15.4011 2.070143 15.3571 2.070143 15.34256 2.070143 L 12.83469 2.070143 C 12.78322 2.070143 12.73842 2.104106 12.72232 2.154243 L 11.34913 6.506799 C 11.67092 7.431894 11.9597 8.251865 12.15811 8.798108 L 13.68531 8.798108 L 15.4565 2.224191 Z M 27.27296 23.99344 L 32.20306 18.91997 C 32.24274 18.87914 32.28518 18.84356 32.32918 18.81121 L 31.95514 16.69498 L 26.35868 22.45418 L 27.27296 23.99344 Z M 30.72576 29.80804 C 30.74855 29.84604 30.76898 29.88607 30.78666 29.92691 L 31.54613 31.68289 C 31.98422 32.69573 32.83013 33.44615 33.83241 33.76355 L 33.83241 29.28161 C 33.83241 28.96542 33.97307 28.66663 34.21431 28.47013 L 39.78366 23.93522 L 39.65244 23.59397 C 39.223 22.47601 38.19046 21.75348 37.02197 21.75348 L 33.68901 21.75348 C 33.31614 21.75348 32.98454 21.54243 32.81127 21.2218 L 28.35186 25.81048 L 30.72576 29.80804 Z M 32.73426 2.122705 C 32.6989 2.070143 32.65254 2.070143 32.63682 2.070143 L 30.11362 2.070143 C 30.07197 2.070143 30.03308 2.093189 30.01186 2.129983 L 28.26346 5.191935 L 29.50541 9.197176 C 29.68182 9.303918 29.85391 9.417129 30.02168 9.534383 L 32.74723 2.235108 C 32.75273 2.220148 32.76962 2.175267 32.73426 2.122705 Z " fill-rule="evenodd"/>
</clipPath>
<g clip-path="url(#cp4)">
<clipPath id="cp5">
<path transform="matrix(1,0,0,-1,0,36)" d="M -798 -1048 L 465 -1048 L 465 215 L -798 215 Z "/>
</clipPath>
<g clip-path="url(#cp5)">
<path transform="matrix(1,0,0,-1,0,36)" d="M -5 41.00013 L 47 41.00013 L 47 -5 L -5 -5 Z " />
</g>
</g>
</g>
</svg>
