<?xml version="1.0" encoding="utf-8"?>
<!-- Generator: Adobe Illustrator 25.2.0, SVG Export Plug-In . SVG Version: 6.00 Build 0)  -->
<svg version="1.1" id="Capa_1" xmlns="http://www.w3.org/2000/svg" xmlns:xlink="http://www.w3.org/1999/xlink" x="0px" y="0px"
	 viewBox="0 0 42 36" style="enable-background:new 0 0 42 36;" xml:space="preserve">
<style type="text/css">
	.st0{enable-background:new    ;}
	.st1{clip-path:url(#SVGID_2_);}
	.st2{clip-path:url(#SVGID_4_);}
	.st3{clip-path:url(#SVGID_6_);}
	.st4{clip-path:url(#SVGID_8_);}
	.st5{clip-path:url(#SVGID_10_);}
	.st6{clip-path:url(#SVGID_12_);}
</style>
<g class="st0">
	<g>
		<defs>
			<path id="SVGID_1_" d="M17.3,14.1c0.3,0,0.6-0.1,0.9-0.4c0.2-0.2,0.4-0.6,0.4-0.9c0-0.3-0.1-0.7-0.4-0.9
				c-0.2-0.2-0.5-0.4-0.9-0.4c-0.3,0-0.6,0.1-0.9,0.4c-0.2,0.2-0.4,0.6-0.4,0.9c0,0.3,0.1,0.7,0.4,0.9C16.7,14,17,14.1,17.3,14.1z"
				/>
		</defs>
		<clipPath id="SVGID_2_">
			<use xlink:href="#SVGID_1_"  style="overflow:visible;"/>
		</clipPath>
		<g class="st1">
			<g>
				<defs>
					<rect id="SVGID_3_" x="-798" y="-179" width="1263" height="1263"/>
				</defs>
				<clipPath id="SVGID_4_">
					<use xlink:href="#SVGID_3_"  style="overflow:visible;"/>
				</clipPath>
				<g class="st2">
					<path d="M11.1,6.6h12.5v12.6H11.1V6.6z"/>
				</g>
			</g>
		</g>
	</g>
	<g>
		<defs>
			<path id="SVGID_5_" d="M33.4,11.6c0.3,0,0.6-0.1,0.9-0.4c0.2-0.2,0.4-0.6,0.4-0.9c0-0.3-0.1-0.7-0.4-0.9C34,9.1,33.7,9,33.4,9
				c-0.3,0-0.6,0.1-0.9,0.4c-0.2,0.2-0.4,0.6-0.4,0.9c0,0.3,0.1,0.7,0.4,0.9C32.7,11.4,33,11.6,33.4,11.6z"/>
		</defs>
		<clipPath id="SVGID_6_">
			<use xlink:href="#SVGID_5_"  style="overflow:visible;"/>
		</clipPath>
		<g class="st3">
			<g>
				<defs>
					<rect id="SVGID_7_" x="-798" y="-179" width="1263" height="1263"/>
				</defs>
				<clipPath id="SVGID_8_">
					<use xlink:href="#SVGID_7_"  style="overflow:visible;"/>
				</clipPath>
				<g class="st4">
					<path d="M27.1,4h12.5v12.6H27.1V4z"/>
				</g>
			</g>
		</g>
	</g>
	<g>
		<defs>
			<path id="SVGID_9_" d="M34.5,16.3H37c2,0,3.8-1.2,4.5-3.1l0.4-1.1c0.2-0.4,0-0.9-0.3-1.2l-5.8-4.7V1c0-0.3-0.1-0.5-0.3-0.7
				C35.4,0.1,35.1,0,34.8,0c-2.2,0-4.2,1.4-5.1,3.5L29,5.2l-4.3,7.2h-3.2c-0.6,0-1,0.5-1,1s0.5,1,1,1h2.9l7,7.2
				c-0.4,0.9-0.9,1.7-1.6,2.3c0,0-0.1,0.1-0.1,0.1c-0.5,0.4-1,0.8-1.5,1.1c-0.2,0.1-0.4,0.3-0.5,0.6l-2.5,8.1c0,0.1-0.1,0.1-0.1,0.1
				h-2.5c0,0-0.1,0-0.1,0s0-0.1,0-0.1l2.1-7.3c0.1-0.3,0-0.6-0.2-0.9c-0.2-0.3-0.5-0.4-0.8-0.4H11.5c-0.4,0-0.8,0.2-0.9,0.6
				c-0.3,0.8-2.2,6.2-2.9,8.2H5.2c0,0-0.1,0-0.1,0c0,0,0-0.1,0-0.1L6.7,20c0.4-3.2,3-5.6,6.1-5.6h0.6c0.6,0,1-0.5,1-1
				c0-0.6-0.5-1-1-1h-0.6c-2.2,0-4.1,0.9-5.6,2.3c0,0,0,0,0,0c-1.7,1.5-3.8,2.1-6,1.8c-0.5-0.1-1.1,0.3-1.1,0.9
				c-0.1,0.6,0.3,1.1,0.8,1.2c0.5,0.1,1,0.1,1.4,0.1c0.9,0,1.9-0.1,2.7-0.4c-0.2,0.5-0.3,1-0.3,1.6L3.1,33.6
				c-0.1,0.6,0.1,1.2,0.5,1.7c0.4,0.5,1,0.7,1.6,0.7h3.2c0.4,0,0.8-0.3,0.9-0.7c0.2-0.6,0.5-1.6,0.9-2.6l0.6,1.8
				c0.3,0.9,1.1,1.5,2,1.5h2.5c0.7,0,1.3-0.3,1.7-0.9c0.4-0.5,0.5-1.2,0.4-1.9l-1.6-6h6.5l-1.7,6c-0.2,0.7-0.1,1.4,0.3,1.9
				c0.4,0.6,1,0.9,1.7,0.9h2.5c0.9,0,1.7-0.6,2-1.5l0.3-1l0.8,1.5c0.4,0.7,1.1,1.1,1.8,1.1h2.5c0.7,0,1.4-0.4,1.8-1
				c0.4-0.6,0.5-1.4,0.2-2l-3-8c1.1-1.3,1.9-2.8,2.2-4.5L34.5,16.3z M15.5,33.8c0,0,0,0.1,0,0.1c0,0-0.1,0-0.1,0h-2.5
				c-0.1,0-0.1,0-0.1-0.1l-1.4-4.4c0.3-0.9,0.6-1.7,0.8-2.3h1.5L15.5,33.8z M27.3,12l4.9,5.1c0,0,0.1,0.1,0.1,0.1L32,19.3l-5.6-5.8
				L27.3,12z M30.7,6.2c0,0,0-0.1,0.1-0.1l0.8-1.8c0.4-1,1.3-1.8,2.3-2.1v4.5c0,0.3,0.1,0.6,0.4,0.8l5.6,4.5l-0.1,0.3
				c-0.4,1.1-1.5,1.8-2.6,1.8h-3.3c-0.4,0-0.7,0.2-0.9,0.5l-4.5-4.6L30.7,6.2z M32.7,33.9C32.7,33.9,32.7,33.9,32.7,33.9l-2.6,0.1
				c0,0-0.1,0-0.1-0.1l-1.7-3.1l1.2-4c0.2-0.1,0.3-0.2,0.5-0.3l2.7,7.3C32.8,33.8,32.8,33.8,32.7,33.9z"/>
		</defs>
		<clipPath id="SVGID_10_">
			<use xlink:href="#SVGID_9_"  style="overflow:visible;"/>
		</clipPath>
		<g class="st5">
			<g>
				<defs>
					<rect id="SVGID_11_" x="-798" y="-179" width="1263" height="1263"/>
				</defs>
				<clipPath id="SVGID_12_">
					<use xlink:href="#SVGID_11_"  style="overflow:visible;"/>
				</clipPath>
				<g class="st6">
					<path d="M-5-5h52v46H-5V-5z"/>
				</g>
			</g>
		</g>
	</g>
</g>
</svg>
