<?xml version="1.0" encoding="utf-8"?>
<!-- Generator: Adobe Illustrator 25.2.0, SVG Export Plug-In . SVG Version: 6.00 Build 0)  -->
<svg version="1.1" id="Capa_1" xmlns="http://www.w3.org/2000/svg" xmlns:xlink="http://www.w3.org/1999/xlink" x="0px" y="0px"
	 viewBox="0 0 24 24" style="enable-background:new 0 0 24 24;" xml:space="preserve">
<style type="text/css">
	.st0{enable-background:new    ;}
	.st1{clip-path:url(#SVGID_2_);}
	.st2{clip-path:url(#SVGID_4_);}
	.st3{clip-path:url(#SVGID_6_);}
	.st4{clip-path:url(#SVGID_8_);}
	.st5{clip-path:url(#SVGID_10_);}
	.st6{clip-path:url(#SVGID_12_);}
	.st7{clip-path:url(#SVGID_14_);}
	.st8{clip-path:url(#SVGID_16_);}
	.st9{clip-path:url(#SVGID_18_);}
	.st10{clip-path:url(#SVGID_20_);}
	.st11{clip-path:url(#SVGID_22_);}
	.st12{clip-path:url(#SVGID_24_);}
	.st13{clip-path:url(#SVGID_26_);}
	.st14{clip-path:url(#SVGID_28_);}
	.st15{clip-path:url(#SVGID_30_);}
	.st16{clip-path:url(#SVGID_32_);}
	.st17{clip-path:url(#SVGID_34_);}
	.st18{clip-path:url(#SVGID_36_);}
	.st19{clip-path:url(#SVGID_38_);}
	.st20{clip-path:url(#SVGID_40_);}
	.st21{clip-path:url(#SVGID_42_);}
	.st22{clip-path:url(#SVGID_44_);}
	.st23{clip-path:url(#SVGID_46_);}
	.st24{clip-path:url(#SVGID_48_);}
	.st25{clip-path:url(#SVGID_50_);}
	.st26{clip-path:url(#SVGID_52_);}
	.st27{clip-path:url(#SVGID_54_);}
	.st28{clip-path:url(#SVGID_56_);}
	.st29{clip-path:url(#SVGID_58_);}
	.st30{clip-path:url(#SVGID_60_);}
	.st31{clip-path:url(#SVGID_62_);}
	.st32{clip-path:url(#SVGID_64_);}
	.st33{clip-path:url(#SVGID_66_);}
	.st34{clip-path:url(#SVGID_68_);}
	.st35{clip-path:url(#SVGID_70_);}
	.st36{clip-path:url(#SVGID_72_);}
	.st37{clip-path:url(#SVGID_74_);}
	.st38{clip-path:url(#SVGID_76_);}
</style>
<g class="st0">
	<g>
		<defs>
			<path id="SVGID_1_" d="M20.6,13.4h-3.3c-0.2,0-0.4,0.1-0.4,0.3c0,0.2,0.2,0.3,0.4,0.3h3.3c0.2,0,0.4-0.1,0.4-0.3
				C21,13.6,20.8,13.4,20.6,13.4z"/>
		</defs>
		<clipPath id="SVGID_2_">
			<use xlink:href="#SVGID_1_"  style="overflow:visible;"/>
		</clipPath>
		<g class="st1">
			<g>
				<defs>
					<rect id="SVGID_3_" x="-142" y="-171" width="1263" height="1263"/>
				</defs>
				<clipPath id="SVGID_4_">
					<use xlink:href="#SVGID_3_"  style="overflow:visible;"/>
				</clipPath>
				<g class="st2">
					<path d="M12,8.4h14v10.7H12V8.4z"/>
				</g>
			</g>
		</g>
	</g>
	<g>
		<defs>
			<path id="SVGID_5_" d="M16.2,13.5c-0.1-0.1-0.1-0.1-0.2-0.1c-0.1,0-0.2,0-0.2,0.1c-0.1,0.1-0.1,0.1-0.1,0.2c0,0.1,0,0.2,0.1,0.2
				c0.1,0.1,0.1,0.1,0.2,0.1c0.1,0,0.2,0,0.2-0.1c0.1-0.1,0.1-0.1,0.1-0.2C16.3,13.7,16.3,13.6,16.2,13.5z"/>
		</defs>
		<clipPath id="SVGID_6_">
			<use xlink:href="#SVGID_5_"  style="overflow:visible;"/>
		</clipPath>
		<g class="st3">
			<g>
				<defs>
					<rect id="SVGID_7_" x="-142" y="-171" width="1263" height="1263"/>
				</defs>
				<clipPath id="SVGID_8_">
					<use xlink:href="#SVGID_7_"  style="overflow:visible;"/>
				</clipPath>
				<g class="st4">
					<path d="M10.6,8.4h10.7v10.7H10.6V8.4z"/>
				</g>
			</g>
		</g>
	</g>
	<g>
		<defs>
			<path id="SVGID_9_" d="M14.3,13.4h-2.8c-0.1,0-0.2,0.1-0.3,0.2l-4.3,6.8c-0.1,0.2-0.1,0.4,0.1,0.5c0.1,0,0.1,0.1,0.2,0.1
				c0.1,0,0.2-0.1,0.3-0.2l4.2-6.6h2.6c0.2,0,0.3-0.2,0.3-0.4C14.6,13.6,14.4,13.4,14.3,13.4z"/>
		</defs>
		<clipPath id="SVGID_10_">
			<use xlink:href="#SVGID_9_"  style="overflow:visible;"/>
		</clipPath>
		<g class="st5">
			<g>
				<defs>
					<rect id="SVGID_11_" x="-142" y="-171" width="1263" height="1263"/>
				</defs>
				<clipPath id="SVGID_12_">
					<use xlink:href="#SVGID_11_"  style="overflow:visible;"/>
				</clipPath>
				<g class="st6">
					<path d="M1.9,8.4h17.7v17.5H1.9V8.4z"/>
				</g>
			</g>
		</g>
	</g>
	<g>
		<defs>
			<path id="SVGID_13_" d="M8.4,12L3.6,7.2c-0.1-0.1-0.4-0.1-0.5,0C3,7.3,3,7.6,3.1,7.7l4.6,4.6l-4.6,7.3C3,19.7,3,19.9,3.2,20.1
				c0.1,0,0.1,0.1,0.2,0.1c0.1,0,0.2-0.1,0.3-0.2l4.8-7.6C8.5,12.3,8.5,12.1,8.4,12z"/>
		</defs>
		<clipPath id="SVGID_14_">
			<use xlink:href="#SVGID_13_"  style="overflow:visible;"/>
		</clipPath>
		<g class="st7">
			<g>
				<defs>
					<rect id="SVGID_15_" x="-142" y="-171" width="1263" height="1263"/>
				</defs>
				<clipPath id="SVGID_16_">
					<use xlink:href="#SVGID_15_"  style="overflow:visible;"/>
				</clipPath>
				<g class="st8">
					<path d="M-2,2.1h15.5v23H-2V2.1z"/>
				</g>
			</g>
		</g>
	</g>
	<g>
		<defs>
			<path id="SVGID_17_" d="M7.2,5.7L4.6,3.1C4.5,3,4.3,3,4.1,3.1C4,3.2,4,3.5,4.1,3.6l2.6,2.6C6.8,6.2,6.9,6.3,7,6.3
				c0.1,0,0.2,0,0.3-0.1C7.3,6,7.3,5.8,7.2,5.7z"/>
		</defs>
		<clipPath id="SVGID_18_">
			<use xlink:href="#SVGID_17_"  style="overflow:visible;"/>
		</clipPath>
		<g class="st9">
			<g>
				<defs>
					<rect id="SVGID_19_" x="-142" y="-171" width="1263" height="1263"/>
				</defs>
				<clipPath id="SVGID_20_">
					<use xlink:href="#SVGID_19_"  style="overflow:visible;"/>
				</clipPath>
				<g class="st10">
					<path d="M-1-2h13.3v13.3H-1V-2z"/>
				</g>
			</g>
		</g>
	</g>
	<g>
		<defs>
			<path id="SVGID_21_" d="M8,6.5C8,6.5,7.9,6.4,7.8,6.4s-0.2,0-0.2,0.1C7.5,6.6,7.5,6.7,7.5,6.8c0,0.1,0,0.2,0.1,0.2
				c0.1,0.1,0.1,0.1,0.2,0.1S8,7.1,8,7c0.1-0.1,0.1-0.1,0.1-0.2C8.1,6.7,8.1,6.6,8,6.5z"/>
		</defs>
		<clipPath id="SVGID_22_">
			<use xlink:href="#SVGID_21_"  style="overflow:visible;"/>
		</clipPath>
		<g class="st11">
			<g>
				<defs>
					<rect id="SVGID_23_" x="-142" y="-171" width="1263" height="1263"/>
				</defs>
				<clipPath id="SVGID_24_">
					<use xlink:href="#SVGID_23_"  style="overflow:visible;"/>
				</clipPath>
				<g class="st12">
					<path d="M2.5,1.4h10.7v10.7H2.5V1.4z"/>
				</g>
			</g>
		</g>
	</g>
	<g>
		<defs>
			<path id="SVGID_25_" d="M20.6,11.6h-1c-0.2,0-0.3,0.1-0.3,0.3c0,0.2,0.2,0.3,0.3,0.3h1c0.2,0,0.3-0.1,0.3-0.3
				C20.9,11.8,20.8,11.6,20.6,11.6z"/>
		</defs>
		<clipPath id="SVGID_26_">
			<use xlink:href="#SVGID_25_"  style="overflow:visible;"/>
		</clipPath>
		<g class="st13">
			<g>
				<defs>
					<rect id="SVGID_27_" x="-142" y="-171" width="1263" height="1263"/>
				</defs>
				<clipPath id="SVGID_28_">
					<use xlink:href="#SVGID_27_"  style="overflow:visible;"/>
				</clipPath>
				<g class="st14">
					<path d="M14.2,6.6h11.7v10.7H14.2V6.6z"/>
				</g>
			</g>
		</g>
	</g>
	<g>
		<defs>
			<path id="SVGID_29_" d="M18.1,11.6h-0.8c-0.2,0-0.3,0.1-0.3,0.3c0,0.2,0.2,0.3,0.3,0.3h0.8c0.2,0,0.3-0.1,0.3-0.3
				C18.4,11.8,18.2,11.6,18.1,11.6z"/>
		</defs>
		<clipPath id="SVGID_30_">
			<use xlink:href="#SVGID_29_"  style="overflow:visible;"/>
		</clipPath>
		<g class="st15">
			<g>
				<defs>
					<rect id="SVGID_31_" x="-142" y="-171" width="1263" height="1263"/>
				</defs>
				<clipPath id="SVGID_32_">
					<use xlink:href="#SVGID_31_"  style="overflow:visible;"/>
				</clipPath>
				<g class="st16">
					<path d="M11.9,6.6h11.5v10.7H11.9V6.6z"/>
				</g>
			</g>
		</g>
	</g>
	<g>
		<defs>
			<path id="SVGID_33_" d="M20.6,9.8h-3.2l0.7-0.9c0,0,0,0,0,0c0.5-0.6,0.8-1.5,0.8-2.3c0-2-1.6-3.6-3.6-3.6c-2,0-3.6,1.6-3.6,3.6
				c0,0.8,0.3,1.6,0.8,2.3c0,0,0,0,0,0l0.7,0.9h-1.8L9,7.4c-0.1-0.1-0.4-0.1-0.5,0c-0.1,0.1-0.1,0.4,0,0.5l2.5,2.5
				c0.1,0.1,0.2,0.1,0.2,0.1h2.3c0,0,0.1,0,0.1,0l0.9,1.1h-0.1c-0.2,0-0.3,0.2-0.3,0.3c0,0.2,0.2,0.3,0.3,0.3h1.3
				c0.2,0,0.3-0.2,0.3-0.3c0-0.1,0-0.2-0.1-0.3l0.9-1.2h3.7c0.2,0,0.3-0.2,0.3-0.3C20.9,9.9,20.8,9.8,20.6,9.8z M15.2,11.4L13,8.5
				c0,0,0,0,0,0c-0.4-0.5-0.7-1.2-0.7-1.9c0-1.6,1.3-2.9,2.9-2.9c1.6,0,2.9,1.3,2.9,2.9c0,0.7-0.2,1.3-0.7,1.8c0,0,0,0,0,0
				L15.2,11.4z"/>
		</defs>
		<clipPath id="SVGID_34_">
			<use xlink:href="#SVGID_33_"  style="overflow:visible;"/>
		</clipPath>
		<g class="st17">
			<g>
				<defs>
					<rect id="SVGID_35_" x="-142" y="-171" width="1263" height="1263"/>
				</defs>
				<clipPath id="SVGID_36_">
					<use xlink:href="#SVGID_35_"  style="overflow:visible;"/>
				</clipPath>
				<g class="st18">
					<path d="M3.4-2h22.6v19.3H3.4V-2z"/>
				</g>
			</g>
		</g>
	</g>
	<g>
		<defs>
			<path id="SVGID_37_" d="M12.6,11.6h-1.1c-0.2,0-0.4,0.1-0.4,0.3c0,0.2,0.2,0.3,0.4,0.3h1.1c0.2,0,0.4-0.1,0.4-0.3
				C13,11.8,12.8,11.6,12.6,11.6z"/>
		</defs>
		<clipPath id="SVGID_38_">
			<use xlink:href="#SVGID_37_"  style="overflow:visible;"/>
		</clipPath>
		<g class="st19">
			<g>
				<defs>
					<rect id="SVGID_39_" x="-142" y="-171" width="1263" height="1263"/>
				</defs>
				<clipPath id="SVGID_40_">
					<use xlink:href="#SVGID_39_"  style="overflow:visible;"/>
				</clipPath>
				<g class="st20">
					<path d="M6.1,6.6H18v10.7H6.1V6.6z"/>
				</g>
			</g>
		</g>
	</g>
	<g>
		<defs>
			<path id="SVGID_41_" d="M4.5,5.5L3.7,4.6c-0.1-0.1-0.4-0.1-0.5,0C3,4.7,3,4.9,3.2,5.1L4,5.9C4.1,6,4.2,6,4.3,6
				c0.1,0,0.2,0,0.2-0.1C4.7,5.8,4.7,5.6,4.5,5.5z"/>
		</defs>
		<clipPath id="SVGID_42_">
			<use xlink:href="#SVGID_41_"  style="overflow:visible;"/>
		</clipPath>
		<g class="st21">
			<g>
				<defs>
					<rect id="SVGID_43_" x="-142" y="-171" width="1263" height="1263"/>
				</defs>
				<clipPath id="SVGID_44_">
					<use xlink:href="#SVGID_43_"  style="overflow:visible;"/>
				</clipPath>
				<g class="st22">
					<path d="M-1.9-0.5H9.6V11H-1.9V-0.5z"/>
				</g>
			</g>
		</g>
	</g>
	<g>
		<defs>
			<path id="SVGID_45_" d="M6.4,7.4L5.5,6.5C5.4,6.4,5.2,6.4,5,6.5C4.9,6.7,4.9,6.9,5,7l0.9,0.9C6,7.9,6.1,8,6.1,8
				c0.1,0,0.2,0,0.2-0.1C6.5,7.7,6.5,7.5,6.4,7.4z"/>
		</defs>
		<clipPath id="SVGID_46_">
			<use xlink:href="#SVGID_45_"  style="overflow:visible;"/>
		</clipPath>
		<g class="st23">
			<g>
				<defs>
					<rect id="SVGID_47_" x="-142" y="-171" width="1263" height="1263"/>
				</defs>
				<clipPath id="SVGID_48_">
					<use xlink:href="#SVGID_47_"  style="overflow:visible;"/>
				</clipPath>
				<g class="st24">
					<path d="M-0.1,1.4h11.6V13H-0.1V1.4z"/>
				</g>
			</g>
		</g>
	</g>
	<g>
		<defs>
			<path id="SVGID_49_" d="M8.3,9.2L7.4,8.4C7.3,8.2,7,8.2,6.9,8.4c-0.1,0.1-0.1,0.4,0,0.5l0.9,0.9C7.8,9.8,7.9,9.8,8,9.8
				c0.1,0,0.2,0,0.2-0.1C8.4,9.6,8.4,9.4,8.3,9.2z"/>
		</defs>
		<clipPath id="SVGID_50_">
			<use xlink:href="#SVGID_49_"  style="overflow:visible;"/>
		</clipPath>
		<g class="st25">
			<g>
				<defs>
					<rect id="SVGID_51_" x="-142" y="-171" width="1263" height="1263"/>
				</defs>
				<clipPath id="SVGID_52_">
					<use xlink:href="#SVGID_51_"  style="overflow:visible;"/>
				</clipPath>
				<g class="st26">
					<path d="M1.8,3.3h11.6v11.6H1.8V3.3z"/>
				</g>
			</g>
		</g>
	</g>
	<g>
		<defs>
			<path id="SVGID_53_" d="M10,11l-0.8-0.8c-0.1-0.1-0.4-0.1-0.5,0c-0.1,0.1-0.1,0.4,0,0.5l0.8,0.8c0.1,0.1,0.2,0.1,0.2,0.1
				c0.1,0,0.2,0,0.2-0.1C10.2,11.3,10.2,11.1,10,11z"/>
		</defs>
		<clipPath id="SVGID_54_">
			<use xlink:href="#SVGID_53_"  style="overflow:visible;"/>
		</clipPath>
		<g class="st27">
			<g>
				<defs>
					<rect id="SVGID_55_" x="-142" y="-171" width="1263" height="1263"/>
				</defs>
				<clipPath id="SVGID_56_">
					<use xlink:href="#SVGID_55_"  style="overflow:visible;"/>
				</clipPath>
				<g class="st28">
					<path d="M3.7,5.1h11.5v11.5H3.7V5.1z"/>
				</g>
			</g>
		</g>
	</g>
	<g>
		<defs>
			<path id="SVGID_57_" d="M6,19.1c-0.2-0.1-0.4-0.1-0.5,0.1l-0.7,1.2c-0.1,0.2-0.1,0.4,0.1,0.5c0.1,0,0.1,0.1,0.2,0.1
				c0.1,0,0.2-0.1,0.3-0.2l0.7-1.2C6.2,19.4,6.1,19.2,6,19.1z"/>
		</defs>
		<clipPath id="SVGID_58_">
			<use xlink:href="#SVGID_57_"  style="overflow:visible;"/>
		</clipPath>
		<g class="st29">
			<g>
				<defs>
					<rect id="SVGID_59_" x="-142" y="-171" width="1263" height="1263"/>
				</defs>
				<clipPath id="SVGID_60_">
					<use xlink:href="#SVGID_59_"  style="overflow:visible;"/>
				</clipPath>
				<g class="st30">
					<path d="M-0.3,14.1h11.4v11.9H-0.3V14.1z"/>
				</g>
			</g>
		</g>
	</g>
	<g>
		<defs>
			<path id="SVGID_61_" d="M7.5,16.6c-0.2-0.1-0.4-0.1-0.5,0.1l-0.7,1.2c-0.1,0.2-0.1,0.4,0.1,0.5c0.1,0,0.1,0.1,0.2,0.1
				c0.1,0,0.2-0.1,0.3-0.2l0.7-1.2C7.7,16.9,7.7,16.7,7.5,16.6z"/>
		</defs>
		<clipPath id="SVGID_62_">
			<use xlink:href="#SVGID_61_"  style="overflow:visible;"/>
		</clipPath>
		<g class="st31">
			<g>
				<defs>
					<rect id="SVGID_63_" x="-142" y="-171" width="1263" height="1263"/>
				</defs>
				<clipPath id="SVGID_64_">
					<use xlink:href="#SVGID_63_"  style="overflow:visible;"/>
				</clipPath>
				<g class="st32">
					<path d="M1.3,11.5h11.4v11.9H1.3V11.5z"/>
				</g>
			</g>
		</g>
	</g>
	<g>
		<defs>
			<path id="SVGID_65_" d="M8.9,14.4c-0.2-0.1-0.4-0.1-0.5,0.1L8,15.3c-0.1,0.2-0.1,0.4,0.1,0.5c0.1,0,0.1,0.1,0.2,0.1
				c0.1,0,0.2-0.1,0.3-0.2L9,14.9C9.1,14.7,9.1,14.5,8.9,14.4z"/>
		</defs>
		<clipPath id="SVGID_66_">
			<use xlink:href="#SVGID_65_"  style="overflow:visible;"/>
		</clipPath>
		<g class="st33">
			<g>
				<defs>
					<rect id="SVGID_67_" x="-142" y="-171" width="1263" height="1263"/>
				</defs>
				<clipPath id="SVGID_68_">
					<use xlink:href="#SVGID_67_"  style="overflow:visible;"/>
				</clipPath>
				<g class="st34">
					<path d="M2.9,9.4h11.2v11.5H2.9V9.4z"/>
				</g>
			</g>
		</g>
	</g>
	<g>
		<defs>
			<path id="SVGID_69_" d="M10.2,12.4c-0.2-0.1-0.4-0.1-0.5,0.1l-0.5,0.8c-0.1,0.2-0.1,0.4,0.1,0.5c0.1,0,0.1,0.1,0.2,0.1
				c0.1,0,0.2-0.1,0.3-0.2l0.5-0.8C10.4,12.7,10.4,12.5,10.2,12.4z"/>
		</defs>
		<clipPath id="SVGID_70_">
			<use xlink:href="#SVGID_69_"  style="overflow:visible;"/>
		</clipPath>
		<g class="st35">
			<g>
				<defs>
					<rect id="SVGID_71_" x="-142" y="-171" width="1263" height="1263"/>
				</defs>
				<clipPath id="SVGID_72_">
					<use xlink:href="#SVGID_71_"  style="overflow:visible;"/>
				</clipPath>
				<g class="st36">
					<path d="M4.2,7.4h11.2v11.5H4.2V7.4z"/>
				</g>
			</g>
		</g>
	</g>
	<g>
		<defs>
			<path id="SVGID_73_" d="M15.3,4.9c-1,0-1.8,0.8-1.8,1.8c0,1,0.8,1.8,1.8,1.8s1.8-0.8,1.8-1.8C17.1,5.7,16.3,4.9,15.3,4.9z
				 M15.3,7.8c-0.6,0-1.1-0.5-1.1-1.1c0-0.6,0.5-1.1,1.1-1.1c0.6,0,1.1,0.5,1.1,1.1C16.4,7.3,15.9,7.8,15.3,7.8z"/>
		</defs>
		<clipPath id="SVGID_74_">
			<use xlink:href="#SVGID_73_"  style="overflow:visible;"/>
		</clipPath>
		<g class="st37">
			<g>
				<defs>
					<rect id="SVGID_75_" x="-142" y="-171" width="1263" height="1263"/>
				</defs>
				<clipPath id="SVGID_76_">
					<use xlink:href="#SVGID_75_"  style="overflow:visible;"/>
				</clipPath>
				<g class="st38">
					<path d="M8.5-0.1h13.6v13.6H8.5V-0.1z"/>
				</g>
			</g>
		</g>
	</g>
</g>
</svg>
