<?xml version="1.0" encoding="utf-8"?>
<!-- Generator: Adobe Illustrator 25.2.0, SVG Export Plug-In . SVG Version: 6.00 Build 0)  -->
<svg version="1.1" id="Capa_1" xmlns="http://www.w3.org/2000/svg" xmlns:xlink="http://www.w3.org/1999/xlink" x="0px" y="0px"
	 viewBox="0 0 35 35" style="enable-background:new 0 0 35 35;" xml:space="preserve">
<style type="text/css">
	.st0{enable-background:new    ;}
	.st1{clip-path:url(#SVGID_2_);}
	.st2{clip-path:url(#SVGID_4_);}
	.st3{clip-path:url(#SVGID_6_);}
	.st4{clip-path:url(#SVGID_8_);}
	.st5{clip-path:url(#SVGID_10_);}
	.st6{clip-path:url(#SVGID_12_);}
</style>
<g class="st0">
	<g>
		<defs>
			<path id="SVGID_1_" d="M32.9,0h-7.1c-1.1,0-2.1,0.9-2.1,2.1c0,1.1,0.9,2.1,2.1,2.1H28l-4.4,4.4c-2.5-1.9-5.7-3-8.9-3
				c-2.8,0-5.5,0.8-7.9,2.3C6.5,8,6.4,8.4,6.6,8.8C6.8,9.1,7.3,9.2,7.6,9c2.1-1.4,4.6-2.1,7.2-2.1c3.1,0,6.1,1.1,8.5,3
				c0.3,0.2,0.7,0.2,0.9,0l6-6c0.2-0.2,0.3-0.5,0.1-0.7c-0.1-0.3-0.4-0.4-0.6-0.4h-3.8c-0.4,0-0.7-0.3-0.7-0.7s0.3-0.7,0.7-0.7h7.1
				c0.4,0,0.7,0.3,0.7,0.7v7.1c0,0.4-0.3,0.7-0.7,0.7c-0.4,0-0.7-0.3-0.7-0.7V5.4c0-0.3-0.2-0.5-0.4-0.6c-0.3-0.1-0.5,0-0.7,0.1
				l-6,6c-0.2,0.2-0.3,0.6,0,0.9c2,2.4,3,5.4,3,8.5c0,7.4-6,13.4-13.4,13.4s-13.4-6-13.4-13.4c0-2.5,0.7-5,2.1-7.2
				c0.2-0.3,0.1-0.7-0.2-0.9C2.9,12,2.5,12,2.3,12.4C0.8,14.7,0,17.5,0,20.3c0,3.9,1.5,7.6,4.3,10.4S10.8,35,14.7,35
				s7.6-1.5,10.4-4.3s4.3-6.5,4.3-10.4c0-3.2-1-6.3-3-8.9L30.9,7v2.1c0,1.1,0.9,2.1,2.1,2.1c1.1,0,2.1-0.9,2.1-2.1V2.1
				C35,0.9,34.1,0,32.9,0z"/>
		</defs>
		<clipPath id="SVGID_2_">
			<use xlink:href="#SVGID_1_"  style="overflow:visible;"/>
		</clipPath>
		<g class="st1">
			<g>
				<defs>
					<rect id="SVGID_3_" x="-600" y="-179" width="1263" height="1263"/>
				</defs>
				<clipPath id="SVGID_4_">
					<use xlink:href="#SVGID_3_"  style="overflow:visible;"/>
				</clipPath>
				<g class="st2">
					<path d="M-5-5h45v45H-5V-5z"/>
				</g>
			</g>
		</g>
	</g>
	<g>
		<defs>
			<path id="SVGID_5_" d="M14.5,33C21.4,33,27,27.4,27,20.5c0-3.3-1.3-6.5-3.7-8.8C21,9.3,17.8,8,14.5,8C7.6,8,2,13.6,2,20.5
				C2,27.4,7.6,33,14.5,33z M14.5,9.4c3,0,5.7,1.2,7.8,3.2c2.1,2.1,3.2,4.9,3.2,7.8c0,6.1-5,11.1-11.1,11.1s-11.1-5-11.1-11.1
				C3.4,14.4,8.4,9.4,14.5,9.4z"/>
		</defs>
		<clipPath id="SVGID_6_">
			<use xlink:href="#SVGID_5_"  style="overflow:visible;"/>
		</clipPath>
		<g class="st3">
			<g>
				<defs>
					<rect id="SVGID_7_" x="-600" y="-179" width="1263" height="1263"/>
				</defs>
				<clipPath id="SVGID_8_">
					<use xlink:href="#SVGID_7_"  style="overflow:visible;"/>
				</clipPath>
				<g class="st4">
					<path d="M-3,3h35v35H-3V3z"/>
				</g>
			</g>
		</g>
	</g>
	<g>
		<defs>
			<path id="SVGID_9_" d="M4.5,10c0.1,0,0.3,0,0.4-0.1l0,0C5,9.7,5,9.3,4.9,9.1C4.7,9,4.3,9,4.1,9.1C4,9.3,4,9.7,4.1,9.9
				C4.2,10,4.4,10,4.5,10z"/>
		</defs>
		<clipPath id="SVGID_10_">
			<use xlink:href="#SVGID_9_"  style="overflow:visible;"/>
		</clipPath>
		<g class="st5">
			<g>
				<defs>
					<rect id="SVGID_11_" x="-600" y="-179" width="1263" height="1263"/>
				</defs>
				<clipPath id="SVGID_12_">
					<use xlink:href="#SVGID_11_"  style="overflow:visible;"/>
				</clipPath>
				<g class="st6">
					<path d="M-1,4h11v11H-1V4z"/>
				</g>
			</g>
		</g>
	</g>
</g>
</svg>
