<?xml version="1.0" encoding="UTF-8" standalone="no"?>
<!DOCTYPE svg PUBLIC "-//W3C//DTD SVG 1.1//EN" "http://www.w3.org/Graphics/SVG/1.1/DTD/svg11.dtd">
<svg xmlns="http://www.w3.org/2000/svg" xmlns:xlink="http://www.w3.org/1999/xlink" version="1.1" width="35pt" height="35pt" viewBox="0 0 35 35">
<g enable-background="new">
<clipPath id="cp0">
<path transform="matrix(1,0,0,-1,0,35)" d="M 32.94915 35 L 25.86714 35 C 24.73634 35 23.81636 34.08002 23.81636 32.94922 C 23.81636 31.81842 24.73634 30.89844 25.86714 30.89844 L 27.99837 30.89844 L 23.61361 26.51366 C 21.07139 28.43176 17.94471 29.48169 14.74085 29.48169 C 11.93621 29.48169 9.207511 28.69029 6.849869 27.19309 C 6.531179 26.99067 6.436843 26.56821 6.639255 26.24952 C 6.841666 25.93083 7.26399 25.83656 7.582817 26.03891 C 9.720958 27.39673 12.19618 28.11443 14.74085 28.11443 C 17.83684 28.11443 20.85264 27.03436 23.23278 25.07312 C 23.50457 24.84932 23.90188 24.86839 24.15091 25.11729 L 30.13207 31.09853 C 30.32751 31.29403 30.38609 31.58812 30.28027 31.84351 C 30.17445 32.09903 29.92515 32.26562 29.64863 32.26562 L 25.86714 32.26562 C 25.4902 32.26562 25.18354 32.57229 25.18354 32.94922 C 25.18354 33.32615 25.4902 33.63281 25.86714 33.63281 L 32.94915 33.63281 C 33.32609 33.63281 33.63275 33.32615 33.63275 32.94922 L 33.63275 25.86719 C 33.63275 25.49025 33.32609 25.18359 32.94915 25.18359 C 32.57215 25.18359 32.26549 25.49025 32.26549 25.86719 L 32.26549 29.64869 C 32.26549 29.92514 32.0989 30.17444 31.84351 30.28026 C 31.58812 30.38615 31.29404 30.32757 31.09853 30.13213 L 25.11737 24.15089 C 24.86841 23.90186 24.84927 23.50455 25.07321 23.23282 C 27.03444 20.85262 28.11452 17.83674 28.11452 14.74088 C 28.11452 7.366611 22.1151 1.367188 14.74085 1.367188 C 7.366597 1.367188 1.367185 7.366611 1.367185 14.74088 C 1.367185 17.28556 2.084957 19.76092 3.442913 21.8994 C 3.645257 22.21816 3.550989 22.64056 3.232298 22.84297 C 2.913539 23.04538 2.491216 22.95111 2.288736 22.63229 C .7914633 20.2743 0 17.54553 0 14.74088 C 0 10.80345 1.533298 7.101719 4.317501 4.31751 C 7.101705 1.533301 10.80343 0 14.74085 0 C 18.67827 0 22.38 1.533301 25.1642 4.31751 C 27.9484 7.101719 29.4817 10.80345 29.4817 14.74088 C 29.4817 17.94475 28.43177 21.07137 26.51368 23.61365 L 30.89838 27.99836 L 30.89838 25.86719 C 30.89838 24.73639 31.81836 23.81641 32.94922 23.81641 C 34.08002 23.81641 35 24.73639 35 25.86719 L 35 32.94922 C 35 34.08002 34.07995 35 32.94915 35 Z " fill-rule="evenodd"/>
</clipPath>
<g clip-path="url(#cp0)">
<clipPath id="cp1">
<path transform="matrix(1,0,0,-1,0,35)" d="M -600 -1049 L 663 -1049 L 663 214 L -600 214 Z "/>
</clipPath>
<g clip-path="url(#cp1)">
<path transform="matrix(1,0,0,-1,0,35)" d="M -5 40 L 40 40 L 40 -5 L -5 -5 Z " />
</g>
</g>
<clipPath id="cp2">
<path transform="matrix(1,0,0,-1,0,35)" d="M 14.5 2 C 21.39251 2 27 7.607501 27 14.50004 C 27 17.83902 25.69981 20.97801 23.33899 23.33898 C 20.9781 25.69981 17.83904 27 14.5 27 C 7.607485 27 2 21.3925 2 14.50004 C 2 7.607501 7.607485 2 14.5 2 Z M 14.5 25.57661 C 17.45886 25.57661 20.24043 24.42452 22.33245 22.3325 C 24.42453 20.24041 25.57662 17.45876 25.57662 14.50004 C 25.57662 8.392356 20.60766 3.423386 14.5 3.423386 C 8.392338 3.423386 3.423382 8.392356 3.423382 14.50004 C 3.423382 20.60771 8.392338 25.57661 14.5 25.57661 Z " fill-rule="evenodd"/>
</clipPath>
<g clip-path="url(#cp2)">
<clipPath id="cp3">
<path transform="matrix(1,0,0,-1,0,35)" d="M -600 -1049 L 663 -1049 L 663 214 L -600 214 Z "/>
</clipPath>
<g clip-path="url(#cp3)">
<path transform="matrix(1,0,0,-1,0,35)" d="M -3 32 L 32 32 L 32 -3 L -3 -3 Z " />
</g>
</g>
<clipPath id="cp4">
<path transform="matrix(1,0,0,-1,0,35)" d="M 4.4999 25 C 4.627828 25 4.755755 25.04885 4.853388 25.14645 L 4.853638 25.1467 C 5.048854 25.34194 5.048754 25.65838 4.853538 25.85362 C 4.658272 26.04892 4.341628 26.04872 4.146412 25.85347 C 3.951196 25.65823 3.951196 25.34164 4.146412 25.1464 C 4.244045 25.04885 4.371972 25 4.4999 25 Z " fill-rule="evenodd"/>
</clipPath>
<g clip-path="url(#cp4)">
<clipPath id="cp5">
<path transform="matrix(1,0,0,-1,0,35)" d="M -600 -1049 L 663 -1049 L 663 214 L -600 214 Z "/>
</clipPath>
<g clip-path="url(#cp5)">
<path transform="matrix(1,0,0,-1,0,35)" d="M -1 31 L 10 31 L 10 20 L -1 20 Z " />
</g>
</g>
</g>
</svg>
