<?xml version="1.0" encoding="UTF-8" standalone="no"?>
<!DOCTYPE svg PUBLIC "-//W3C//DTD SVG 1.1//EN" "http://www.w3.org/Graphics/SVG/1.1/DTD/svg11.dtd">
<svg xmlns="http://www.w3.org/2000/svg" xmlns:xlink="http://www.w3.org/1999/xlink" version="1.1" width="24pt" height="24pt" viewBox="0 0 24 24">
<g enable-background="new">
<clipPath id="cp0">
<path transform="matrix(1,0,0,-1,0,24)" d="M 13.90625 14.625 C 14.16513 14.625 14.375 14.83487 14.375 15.09375 C 14.375 15.35263 14.16513 15.5625 13.90625 15.5625 C 13.64737 15.5625 13.4375 15.35263 13.4375 15.09375 C 13.4375 14.83487 13.64737 14.625 13.90625 14.625 Z " fill-rule="evenodd"/>
</clipPath>
<g clip-path="url(#cp0)">
<clipPath id="cp1">
<path transform="matrix(1,0,0,-1,0,24)" d="M -246 -1068 L 1017 -1068 L 1017 195 L -246 195 Z "/>
</clipPath>
<g clip-path="url(#cp1)">
<path transform="matrix(1,0,0,-1,0,24)" d="M 8.4375 20.5625 L 19.375 20.5625 L 19.375 9.625 L 8.4375 9.625 Z " />
</g>
</g>
<clipPath id="cp2">
<path transform="matrix(1,0,0,-1,0,24)" d="M 11.09375 14.625 C 11.35263 14.625 11.5625 14.83487 11.5625 15.09375 C 11.5625 15.35263 11.35263 15.5625 11.09375 15.5625 C 10.83487 15.5625 10.625 15.35263 10.625 15.09375 C 10.625 14.83487 10.83487 14.625 11.09375 14.625 Z " fill-rule="evenodd"/>
</clipPath>
<g clip-path="url(#cp2)">
<clipPath id="cp3">
<path transform="matrix(1,0,0,-1,0,24)" d="M -246 -1068 L 1017 -1068 L 1017 195 L -246 195 Z "/>
</clipPath>
<g clip-path="url(#cp3)">
<path transform="matrix(1,0,0,-1,0,24)" d="M 5.625 20.5625 L 16.5625 20.5625 L 16.5625 9.625 L 5.625 9.625 Z " />
</g>
</g>
<clipPath id="cp4">
<path transform="matrix(1,0,0,-1,0,24)" d="M 14.375 13.21875 C 14.375 13.47764 14.16509 13.6875 13.90625 13.6875 C 13.64741 13.6875 13.4375 13.47764 13.4375 13.21875 C 13.4375 12.70181 13.01694 12.28125 12.5 12.28125 C 11.98306 12.28125 11.5625 12.70181 11.5625 13.21875 C 11.5625 13.47764 11.35264 13.6875 11.09375 13.6875 C 10.83486 13.6875 10.625 13.47764 10.625 13.21875 C 10.625 12.18487 11.46612 11.34375 12.5 11.34375 C 13.53388 11.34375 14.375 12.18487 14.375 13.21875 Z " fill-rule="evenodd"/>
</clipPath>
<g clip-path="url(#cp4)">
<clipPath id="cp5">
<path transform="matrix(1,0,0,-1,0,24)" d="M -246 -1068 L 1017 -1068 L 1017 195 L -246 195 Z "/>
</clipPath>
<g clip-path="url(#cp5)">
<path transform="matrix(1,0,0,-1,0,24)" d="M 5.625 18.6875 L 19.375 18.6875 L 19.375 6.34375 L 5.625 6.34375 Z " />
</g>
</g>
<clipPath id="cp6">
<path transform="matrix(1,0,0,-1,0,24)" d="M 12.5 0 C 12.75888 0 12.96875 .2098665 12.96875 .46875 C 12.96875 .7276335 12.75888 .9375 12.5 .9375 C 12.24112 .9375 12.03125 .7276335 12.03125 .46875 C 12.03125 .2098665 12.24112 0 12.5 0 Z " fill-rule="evenodd"/>
</clipPath>
<g clip-path="url(#cp6)">
<clipPath id="cp7">
<path transform="matrix(1,0,0,-1,0,24)" d="M -246 -1068 L 1017 -1068 L 1017 195 L -246 195 Z "/>
</clipPath>
<g clip-path="url(#cp7)">
<path transform="matrix(1,0,0,-1,0,24)" d="M 7.03125 5.9375 L 17.96875 5.9375 L 17.96875 -5 L 7.03125 -5 Z " />
</g>
</g>
<clipPath id="cp8">
<path transform="matrix(1,0,0,-1,0,24)" d="M 5.46875 0 L 10.39062 0 C 10.64952 0 10.85938 .2098594 10.85938 .46875 C 10.85938 .7276406 10.64952 .9375 10.39062 .9375 L 8.75 .9375 L 8.75 3.09375 C 8.75 3.352641 8.540141 3.5625 8.28125 3.5625 C 8.022359 3.5625 7.8125 3.352641 7.8125 3.09375 L 7.8125 .9375 L 5.9375 .9375 L 5.9375 4.5 C 5.9375 5.792344 6.988906 6.84375 8.28125 6.84375 L 10.68434 6.84375 C 10.89303 6.035953 11.62794 5.4375 12.5 5.4375 C 13.37206 5.4375 14.10697 6.035953 14.31566 6.84375 L 16.71875 6.84375 C 18.01109 6.84375 19.0625 5.792344 19.0625 4.5 L 19.0625 .9375 L 17.1875 .9375 L 17.1875 3.09375 C 17.1875 3.352641 16.97759 3.5625 16.71875 3.5625 C 16.45991 3.5625 16.25 3.352641 16.25 3.09375 L 16.25 .9375 L 14.60938 .9375 C 14.35053 .9375 14.14062 .7276406 14.14062 .46875 C 14.14062 .2098594 14.35053 0 14.60938 0 L 19.53125 0 C 19.79009 0 20 .2098594 20 .46875 L 20 4.5 C 20 6.309281 18.52803 7.78125 16.71875 7.78125 L 14.375 7.78125 L 14.375 8.780719 C 16.07023 9.520828 17.1875 11.20748 17.1875 13.07812 L 17.1875 14.21559 C 17.9953 14.42423 18.59375 15.15919 18.59375 16.03125 C 18.59375 16.59084 18.347 17.09367 17.95695 17.4375 C 18.347 17.78133 18.59375 18.28416 18.59375 18.84375 C 18.59375 20.65303 17.12178 22.125 15.3125 22.125 L 12.03125 22.125 C 11.25584 22.125 10.625 22.75584 10.625 23.53125 C 10.625 23.79014 10.41514 24 10.15625 24 C 8.0885 24 6.40625 22.31775 6.40625 20.25 L 6.40625 19.3125 C 6.40625 18.61556 6.712344 17.98908 7.196797 17.55937 C 6.718859 17.21925 6.40625 16.66125 6.40625 16.03125 C 6.40625 15.15919 7.004703 14.42423 7.8125 14.21559 L 7.8125 13.07812 C 7.8125 11.20748 8.929719 9.520781 10.625 8.780719 L 10.625 7.78125 L 8.28125 7.78125 C 6.471969 7.78125 5 6.309281 5 4.5 L 5 .46875 C 5 .2098594 5.209859 0 5.46875 0 Z M 7.34375 20.25 C 7.34375 21.65977 8.386391 22.83061 9.741031 23.03194 C 9.970484 21.97866 10.91023 21.1875 12.03125 21.1875 L 15.3125 21.1875 C 16.60484 21.1875 17.65625 20.13609 17.65625 18.84375 C 17.65625 18.32681 17.23569 17.90625 16.71875 17.90625 L 13.27672 17.90625 C 11.69192 17.90625 10.202 18.52341 9.081453 19.64395 C 8.947344 19.77802 8.745828 19.81809 8.570609 19.74553 C 8.395484 19.67302 8.28125 19.50206 8.28125 19.3125 L 8.28125 17.98655 C 7.735578 18.18 7.34375 18.70134 7.34375 19.3125 L 7.34375 20.25 Z M 8.75 13.07812 L 8.75 14.625 C 8.75 14.88389 8.540141 15.09375 8.28125 15.09375 C 7.764313 15.09375 7.34375 15.51431 7.34375 16.03125 C 7.34375 16.54819 7.764313 16.96875 8.28125 16.96875 L 8.75 16.96875 C 9.008891 16.96875 9.21875 17.17861 9.21875 17.4375 L 9.21875 18.29334 C 10.38894 17.43333 11.79716 16.96875 13.27672 16.96875 L 16.71875 16.96875 C 17.23569 16.96875 17.65625 16.54819 17.65625 16.03125 C 17.65625 15.51431 17.23569 15.09375 16.71875 15.09375 C 16.45991 15.09375 16.25 14.88389 16.25 14.625 L 16.25 13.07812 C 16.25 11.49131 15.24533 10.06997 13.75002 9.541313 C 13.5627 9.475078 13.4375 9.298031 13.4375 9.099375 L 13.4375 7.3125 C 13.4375 6.795562 13.01694 6.375 12.5 6.375 C 11.98306 6.375 11.5625 6.795562 11.5625 7.3125 L 11.5625 9.099375 C 11.5625 9.298031 11.4373 9.475125 11.24998 9.541313 C 9.754672 10.06997 8.75 11.49131 8.75 13.07812 Z " fill-rule="evenodd"/>
</clipPath>
<g clip-path="url(#cp8)">
<clipPath id="cp9">
<path transform="matrix(1,0,0,-1,0,24)" d="M -246 -1068 L 1017 -1068 L 1017 195 L -246 195 Z "/>
</clipPath>
<g clip-path="url(#cp9)">
<path transform="matrix(1,0,0,-1,0,24)" d="M 0 29 L 25 29 L 25 -5 L 0 -5 Z " />
</g>
</g>
</g>
</svg>
