<?xml version="1.0" encoding="utf-8"?>
<!-- Generator: Adobe Illustrator 25.2.0, SVG Export Plug-In . SVG Version: 6.00 Build 0)  -->
<svg version="1.1" id="Capa_1" xmlns="http://www.w3.org/2000/svg" xmlns:xlink="http://www.w3.org/1999/xlink" x="0px" y="0px"
	 viewBox="0 0 24 24" style="enable-background:new 0 0 24 24;" xml:space="preserve">
<style type="text/css">
	.st0{enable-background:new    ;}
	.st1{clip-path:url(#SVGID_2_);}
	.st2{clip-path:url(#SVGID_4_);}
	.st3{clip-path:url(#SVGID_6_);}
	.st4{clip-path:url(#SVGID_8_);}
	.st5{clip-path:url(#SVGID_10_);}
	.st6{clip-path:url(#SVGID_12_);}
	.st7{clip-path:url(#SVGID_14_);}
	.st8{clip-path:url(#SVGID_16_);}
	.st9{clip-path:url(#SVGID_18_);}
	.st10{clip-path:url(#SVGID_20_);}
</style>
<g class="st0">
	<g>
		<defs>
			<circle id="SVGID_1_" cx="13.9" cy="8.9" r="0.5"/>
		</defs>
		<clipPath id="SVGID_2_">
			<use xlink:href="#SVGID_1_"  style="overflow:visible;"/>
		</clipPath>
		<g class="st1">
			<g>
				<defs>
					<rect id="SVGID_3_" x="-246" y="-171" width="1263" height="1263"/>
				</defs>
				<clipPath id="SVGID_4_">
					<use xlink:href="#SVGID_3_"  style="overflow:visible;"/>
				</clipPath>
				<g class="st2">
					<path d="M8.4,3.4h10.9v10.9H8.4V3.4z"/>
				</g>
			</g>
		</g>
	</g>
	<g>
		<defs>
			<circle id="SVGID_5_" cx="11.1" cy="8.9" r="0.5"/>
		</defs>
		<clipPath id="SVGID_6_">
			<use xlink:href="#SVGID_5_"  style="overflow:visible;"/>
		</clipPath>
		<g class="st3">
			<g>
				<defs>
					<rect id="SVGID_7_" x="-246" y="-171" width="1263" height="1263"/>
				</defs>
				<clipPath id="SVGID_8_">
					<use xlink:href="#SVGID_7_"  style="overflow:visible;"/>
				</clipPath>
				<g class="st4">
					<path d="M5.6,3.4h10.9v10.9H5.6V3.4z"/>
				</g>
			</g>
		</g>
	</g>
	<g>
		<defs>
			<path id="SVGID_9_" d="M14.4,10.8c0-0.3-0.2-0.5-0.5-0.5s-0.5,0.2-0.5,0.5c0,0.5-0.4,0.9-0.9,0.9s-0.9-0.4-0.9-0.9
				c0-0.3-0.2-0.5-0.5-0.5s-0.5,0.2-0.5,0.5c0,1,0.8,1.9,1.9,1.9S14.4,11.8,14.4,10.8z"/>
		</defs>
		<clipPath id="SVGID_10_">
			<use xlink:href="#SVGID_9_"  style="overflow:visible;"/>
		</clipPath>
		<g class="st5">
			<g>
				<defs>
					<rect id="SVGID_11_" x="-246" y="-171" width="1263" height="1263"/>
				</defs>
				<clipPath id="SVGID_12_">
					<use xlink:href="#SVGID_11_"  style="overflow:visible;"/>
				</clipPath>
				<g class="st6">
					<path d="M5.6,5.3h13.8v12.3H5.6V5.3z"/>
				</g>
			</g>
		</g>
	</g>
	<g>
		<defs>
			<circle id="SVGID_13_" cx="12.5" cy="23.5" r="0.5"/>
		</defs>
		<clipPath id="SVGID_14_">
			<use xlink:href="#SVGID_13_"  style="overflow:visible;"/>
		</clipPath>
		<g class="st7">
			<g>
				<defs>
					<rect id="SVGID_15_" x="-246" y="-171" width="1263" height="1263"/>
				</defs>
				<clipPath id="SVGID_16_">
					<use xlink:href="#SVGID_15_"  style="overflow:visible;"/>
				</clipPath>
				<g class="st8">
					<path d="M7,18.1H18V29H7V18.1z"/>
				</g>
			</g>
		</g>
	</g>
	<g>
		<defs>
			<path id="SVGID_17_" d="M5.5,24h4.9c0.3,0,0.5-0.2,0.5-0.5s-0.2-0.5-0.5-0.5H8.8v-2.2c0-0.3-0.2-0.5-0.5-0.5s-0.5,0.2-0.5,0.5
				v2.2H5.9v-3.6c0-1.3,1.1-2.3,2.3-2.3h2.4c0.2,0.8,0.9,1.4,1.8,1.4s1.6-0.6,1.8-1.4h2.4c1.3,0,2.3,1.1,2.3,2.3v3.6h-1.9v-2.2
				c0-0.3-0.2-0.5-0.5-0.5s-0.5,0.2-0.5,0.5v2.2h-1.6c-0.3,0-0.5,0.2-0.5,0.5s0.2,0.5,0.5,0.5h4.9c0.3,0,0.5-0.2,0.5-0.5v-4
				c0-1.8-1.5-3.3-3.3-3.3h-2.3v-1c1.7-0.7,2.8-2.4,2.8-4.3V9.8C18,9.6,18.6,8.8,18.6,8c0-0.6-0.2-1.1-0.6-1.4
				c0.4-0.3,0.6-0.8,0.6-1.4c0-1.8-1.5-3.3-3.3-3.3H12c-0.8,0-1.4-0.6-1.4-1.4c0-0.3-0.2-0.5-0.5-0.5C8.1,0,6.4,1.7,6.4,3.8v0.9
				c0,0.7,0.3,1.3,0.8,1.8C6.7,6.8,6.4,7.3,6.4,8c0,0.9,0.6,1.6,1.4,1.8v1.1c0,1.9,1.1,3.6,2.8,4.3v1H8.3c-1.8,0-3.3,1.5-3.3,3.3v4
				C5,23.8,5.2,24,5.5,24z M7.3,3.8c0-1.4,1-2.6,2.4-2.8C10,2,10.9,2.8,12,2.8h3.3c1.3,0,2.3,1.1,2.3,2.3c0,0.5-0.4,0.9-0.9,0.9
				h-3.4c-1.6,0-3.1-0.6-4.2-1.7C8.9,4.2,8.7,4.2,8.6,4.3C8.4,4.3,8.3,4.5,8.3,4.7V6C7.7,5.8,7.3,5.3,7.3,4.7V3.8z M8.8,10.9V9.4
				c0-0.3-0.2-0.5-0.5-0.5C7.8,8.9,7.3,8.5,7.3,8C7.3,7.5,7.8,7,8.3,7h0.5C9,7,9.2,6.8,9.2,6.6V5.7C10.4,6.6,11.8,7,13.3,7h3.4
				c0.5,0,0.9,0.4,0.9,0.9c0,0.5-0.4,0.9-0.9,0.9c-0.3,0-0.5,0.2-0.5,0.5v1.5c0,1.6-1,3-2.5,3.5c-0.2,0.1-0.3,0.2-0.3,0.4v1.8
				c0,0.5-0.4,0.9-0.9,0.9s-0.9-0.4-0.9-0.9v-1.8c0-0.2-0.1-0.4-0.3-0.4C9.8,13.9,8.8,12.5,8.8,10.9z"/>
		</defs>
		<clipPath id="SVGID_18_">
			<use xlink:href="#SVGID_17_"  style="overflow:visible;"/>
		</clipPath>
		<g class="st9">
			<g>
				<defs>
					<rect id="SVGID_19_" x="-246" y="-171" width="1263" height="1263"/>
				</defs>
				<clipPath id="SVGID_20_">
					<use xlink:href="#SVGID_19_"  style="overflow:visible;"/>
				</clipPath>
				<g class="st10">
					<path d="M0-5h25v34H0V-5z"/>
				</g>
			</g>
		</g>
	</g>
</g>
</svg>
