<?xml version="1.0" encoding="utf-8"?>
<!-- Generator: Adobe Illustrator 25.2.0, SVG Export Plug-In . SVG Version: 6.00 Build 0)  -->
<svg version="1.1" id="Capa_1" xmlns="http://www.w3.org/2000/svg" xmlns:xlink="http://www.w3.org/1999/xlink" x="0px" y="0px"
	 viewBox="0 0 27 23" style="enable-background:new 0 0 27 23;" xml:space="preserve">
<style type="text/css">
	.st0{enable-background:new    ;}
	.st1{clip-path:url(#SVGID_2_);}
	.st2{clip-path:url(#SVGID_4_);}
	.st3{clip-path:url(#SVGID_6_);}
	.st4{clip-path:url(#SVGID_8_);}
	.st5{clip-path:url(#SVGID_10_);}
	.st6{clip-path:url(#SVGID_12_);}
</style>
<g class="st0">
	<g>
		<defs>
			<path id="SVGID_1_" d="M11.1,9c0.2,0,0.4-0.1,0.6-0.2c0.1-0.2,0.2-0.4,0.2-0.6c0-0.2-0.1-0.4-0.2-0.6c-0.1-0.2-0.4-0.2-0.6-0.2
				c-0.2,0-0.4,0.1-0.6,0.2S10.3,8,10.3,8.2c0,0.2,0.1,0.4,0.2,0.6C10.7,8.9,10.9,9,11.1,9z"/>
		</defs>
		<clipPath id="SVGID_2_">
			<use xlink:href="#SVGID_1_"  style="overflow:visible;"/>
		</clipPath>
		<g class="st1">
			<g>
				<defs>
					<rect id="SVGID_3_" x="-885" y="-185" width="1263" height="1263"/>
				</defs>
				<clipPath id="SVGID_4_">
					<use xlink:href="#SVGID_3_"  style="overflow:visible;"/>
				</clipPath>
				<g class="st2">
					<path d="M5.3,2.4h11.6V14H5.3V2.4z"/>
				</g>
			</g>
		</g>
	</g>
	<g>
		<defs>
			<path id="SVGID_5_" d="M21.4,7.4c0.2,0,0.4-0.1,0.6-0.2c0.1-0.2,0.2-0.4,0.2-0.6c0-0.2-0.1-0.4-0.2-0.6c-0.1-0.2-0.4-0.2-0.6-0.2
				c-0.2,0-0.4,0.1-0.6,0.2c-0.1,0.2-0.2,0.4-0.2,0.6c0,0.2,0.1,0.4,0.2,0.6C21,7.3,21.2,7.4,21.4,7.4z"/>
		</defs>
		<clipPath id="SVGID_6_">
			<use xlink:href="#SVGID_5_"  style="overflow:visible;"/>
		</clipPath>
		<g class="st3">
			<g>
				<defs>
					<rect id="SVGID_7_" x="-885" y="-185" width="1263" height="1263"/>
				</defs>
				<clipPath id="SVGID_8_">
					<use xlink:href="#SVGID_7_"  style="overflow:visible;"/>
				</clipPath>
				<g class="st4">
					<path d="M15.6,0.8h11.6v11.6H15.6V0.8z"/>
				</g>
			</g>
		</g>
	</g>
	<g>
		<defs>
			<path id="SVGID_9_" d="M22.2,10.4h1.6c1.3,0,2.4-0.8,2.9-2L27,7.7c0.1-0.3,0-0.6-0.2-0.8L23,4V0.7c0-0.2-0.1-0.3-0.2-0.5
				S22.6,0,22.4,0c-1.4,0-2.7,0.9-3.3,2.2l-0.5,1.1l-2.8,4.6h-2.1c-0.4,0-0.6,0.3-0.6,0.7c0,0.4,0.3,0.7,0.6,0.7h1.9l4.5,4.6
				c-0.2,0.6-0.6,1.1-1,1.5c0,0,0,0-0.1,0.1c-0.3,0.3-0.6,0.5-1,0.7c-0.2,0.1-0.3,0.2-0.3,0.4l-1.6,5.2c0,0,0,0.1-0.1,0.1h-1.6
				c0,0,0,0-0.1,0c0,0,0-0.1,0-0.1l1.3-4.7c0.1-0.2,0-0.4-0.1-0.6c-0.1-0.2-0.3-0.3-0.5-0.3H7.4c-0.3,0-0.5,0.2-0.6,0.4
				c-0.2,0.5-1.4,3.9-1.8,5.2H3.4c0,0,0,0-0.1,0c0,0,0,0,0-0.1l1-8.8c0.2-2,1.9-3.6,3.9-3.6h0.4c0.4,0,0.6-0.3,0.6-0.7
				c0-0.4-0.3-0.7-0.6-0.7H8.2c-1.4,0-2.7,0.6-3.6,1.5c0,0,0,0,0,0c-1.1,0.9-2.5,1.3-3.8,1.1c-0.4-0.1-0.7,0.2-0.7,0.6
				c-0.1,0.4,0.2,0.7,0.5,0.8c0.3,0,0.6,0.1,0.9,0.1c0.6,0,1.2-0.1,1.8-0.3c-0.1,0.3-0.2,0.7-0.2,1l-1,8.8c0,0.4,0.1,0.8,0.3,1.1
				C2.6,22.8,3,23,3.4,23h2c0.3,0,0.5-0.2,0.6-0.4c0.1-0.4,0.3-1,0.6-1.7L6.9,22c0.2,0.6,0.7,1,1.3,1h1.6c0.4,0,0.8-0.2,1.1-0.6
				c0.3-0.4,0.3-0.8,0.2-1.2l-1-3.8h4.2l-1.1,3.8c-0.1,0.4,0,0.9,0.2,1.2c0.3,0.4,0.7,0.6,1.1,0.6h1.6c0.6,0,1.1-0.4,1.3-1l0.2-0.7
				l0.5,0.9c0.2,0.4,0.7,0.7,1.2,0.7H21c0.5,0,0.9-0.2,1.1-0.6c0.3-0.4,0.3-0.9,0.1-1.3L20.3,16c0.7-0.8,1.2-1.8,1.4-2.9L22.2,10.4z
				 M9.9,21.6C9.9,21.6,9.9,21.6,9.9,21.6C9.9,21.7,9.9,21.7,9.9,21.6l-1.7,0.1c0,0-0.1,0-0.1-0.1l-0.9-2.8c0.2-0.6,0.4-1.1,0.5-1.5
				h1L9.9,21.6z M17.5,7.7l3.2,3.2c0,0,0.1,0,0.1,0.1l-0.2,1.4l-3.6-3.7L17.5,7.7z M19.8,4C19.8,3.9,19.8,3.9,19.8,4l0.5-1.2
				c0.3-0.6,0.8-1.1,1.5-1.3v2.9c0,0.2,0.1,0.4,0.2,0.5l3.6,2.9l-0.1,0.2c-0.3,0.7-0.9,1.2-1.7,1.2h-2.1c-0.2,0-0.5,0.1-0.6,0.3
				l-2.9-2.9L19.8,4z M21,21.6C21,21.7,21,21.7,21,21.6l-1.7,0c0,0-0.1,0-0.1,0l-1.1-2l0.8-2.6c0.1-0.1,0.2-0.1,0.3-0.2L21,21.6
				C21.1,21.6,21.1,21.6,21,21.6z"/>
		</defs>
		<clipPath id="SVGID_10_">
			<use xlink:href="#SVGID_9_"  style="overflow:visible;"/>
		</clipPath>
		<g class="st5">
			<g>
				<defs>
					<rect id="SVGID_11_" x="-885" y="-185" width="1263" height="1263"/>
				</defs>
				<clipPath id="SVGID_12_">
					<use xlink:href="#SVGID_11_"  style="overflow:visible;"/>
				</clipPath>
				<g class="st6">
					<path d="M-5-5h37v33H-5V-5z"/>
				</g>
			</g>
		</g>
	</g>
</g>
</svg>
