<?xml version="1.0" encoding="UTF-8" standalone="no"?>
<!DOCTYPE svg PUBLIC "-//W3C//DTD SVG 1.1//EN" "http://www.w3.org/Graphics/SVG/1.1/DTD/svg11.dtd">
<svg xmlns="http://www.w3.org/2000/svg" xmlns:xlink="http://www.w3.org/1999/xlink" version="1.1" width="27pt" height="23pt" viewBox="0 0 27 23">
<g enable-background="new">
<clipPath id="cp0">
<path transform="matrix(1,0,0,-1,0,23)" d="M 11.11765 13.96429 C 11.32641 13.96429 11.53146 14.05124 11.67911 14.20494 C 11.82677 14.35767 11.91176 14.56881 11.91176 14.78571 C 11.91176 15.00166 11.82677 15.21376 11.67911 15.36649 C 11.53146 15.51922 11.32641 15.60714 11.11765 15.60714 C 10.90888 15.60714 10.70384 15.51922 10.55618 15.36649 C 10.40852 15.21376 10.32353 15.00166 10.32353 14.78571 C 10.32353 14.56881 10.40852 14.35767 10.55618 14.20494 C 10.70384 14.05124 10.90888 13.96429 11.11765 13.96429 Z " fill-rule="evenodd"/>
</clipPath>
<g clip-path="url(#cp0)">
<clipPath id="cp1">
<path transform="matrix(1,0,0,-1,0,23)" d="M -885 -1055 L 378 -1055 L 378 208 L -885 208 Z "/>
</clipPath>
<g clip-path="url(#cp1)">
<path transform="matrix(1,0,0,-1,0,23)" d="M 5.323529 20.60714 L 16.91176 20.60714 L 16.91176 8.964286 L 5.323529 8.964286 Z " />
</g>
</g>
<clipPath id="cp2">
<path transform="matrix(1,0,0,-1,0,23)" d="M 21.44118 15.60714 C 21.64994 15.60714 21.85468 15.69501 22.00233 15.84765 C 22.1503 16.00126 22.23529 16.21227 22.23529 16.42905 C 22.23529 16.64487 22.1503 16.85652 22.00233 17.00917 C 21.85468 17.16181 21.64994 17.25 21.44118 17.25 C 21.2321 17.25 21.02737 17.16213 20.87971 17.00917 C 20.73174 16.85652 20.64706 16.64487 20.64706 16.42905 C 20.64706 16.21227 20.73174 16.00126 20.87971 15.84765 C 21.02737 15.69501 21.2321 15.60714 21.44118 15.60714 Z " fill-rule="evenodd"/>
</clipPath>
<g clip-path="url(#cp2)">
<clipPath id="cp3">
<path transform="matrix(1,0,0,-1,0,23)" d="M -885 -1055 L 378 -1055 L 378 208 L -885 208 Z "/>
</clipPath>
<g clip-path="url(#cp3)">
<path transform="matrix(1,0,0,-1,0,23)" d="M 15.64706 22.25 L 27.23529 22.25 L 27.23529 10.60714 L 15.64706 10.60714 Z " />
</g>
</g>
<clipPath id="cp4">
<path transform="matrix(1,0,0,-1,0,23)" d="M 22.19698 12.57547 L 23.79984 12.57547 C 25.08496 12.57547 26.2208 13.36515 26.69338 14.58751 L 26.95454 15.2625 C 27.05962 15.53373 26.97828 15.84346 26.7545 16.02454 L 23.04261 19.02775 L 23.04261 22.33862 C 23.04261 22.51583 22.97315 22.68554 22.84989 22.80979 C 22.72663 22.93404 22.56145 23.00276 22.38641 23 C 20.96642 22.97796 19.67574 22.10639 19.0981 20.77967 L 18.62704 19.69705 L 15.87191 15.08658 L 13.79572 15.08658 C 13.43857 15.08658 13.14912 14.79055 13.14912 14.42529 C 13.14912 14.06002 13.43857 13.76399 13.79572 13.76399 L 15.68475 13.76399 L 20.16802 9.179094 C 19.9359 8.615959 19.59795 8.109397 19.17134 7.685496 C 19.1529 7.66948 19.13548 7.652689 19.11881 7.635124 C 18.82607 7.353298 18.49443 7.108929 18.12819 6.911315 C 17.97791 6.830461 17.86501 6.692519 17.81348 6.527195 L 16.20633 1.37658 C 16.19648 1.34429 16.16743 1.322591 16.13409 1.322591 L 14.53704 1.322591 C 14.52769 1.322591 14.49915 1.322591 14.47642 1.35359 C 14.45369 1.384588 14.46177 1.412486 14.46429 1.421786 L 15.79336 6.097611 C 15.84994 6.297291 15.81155 6.512729 15.68955 6.679086 C 15.5673 6.845702 15.37585 6.943346 15.17252 6.943346 L 7.374422 6.943346 C 7.117045 6.943346 6.884168 6.787322 6.781369 6.545794 C 6.563899 6.034065 5.385874 2.612376 4.943357 1.322591 L 3.369036 1.322591 C 3.346304 1.322591 3.327361 1.331374 3.312459 1.348423 C 3.297304 1.365731 3.29099 1.386138 3.293768 1.409128 L 4.304334 10.20462 C 4.537463 12.23371 6.219635 13.76399 8.217276 13.76399 L 8.622917 13.76399 C 8.980063 13.76399 9.269517 14.06002 9.269517 14.42529 C 9.269517 14.79029 8.980063 15.08658 8.622917 15.08658 L 8.217276 15.08658 C 6.830116 15.08658 5.558132 14.53016 4.615257 13.61494 C 4.607933 13.609 4.600355 13.60383 4.593536 13.59763 C 3.532454 12.662 2.129635 12.24921 .7439903 12.46491 C .3906333 12.52019 .06101864 12.27194 .007472115 11.91081 C -.04632711 11.54994 .196148 11.21258 .5492525 11.15756 C .8558825 11.10977 1.163018 11.08626 1.468385 11.08626 C 2.068511 11.08626 2.661312 11.17822 3.229613 11.3544 C 3.130602 11.03511 3.059375 10.7024 3.019973 10.35909 L 2.009407 1.563603 C 1.963691 1.166825 2.086444 .7682396 2.346094 .4696232 C 2.605745 .1712652 2.97855 0 3.369036 0 L 5.401786 0 C 5.676591 0 5.92134 .1777232 6.012015 .4430165 C 6.150681 .8480601 6.35729 1.449942 6.585621 2.111496 L 6.948828 .9676615 C 7.132453 .3887695 7.655795 0 8.250869 0 L 9.863076 0 C 10.29448 0 10.69179 .2012302 10.95295 .5525436 C 11.21412 .9038569 11.29772 1.34894 11.18255 1.774132 L 10.13965 5.620755 L 14.31123 5.620755 L 13.22262 1.790923 C 13.10113 1.363922 13.18145 .9149645 13.44236 .5595181 C 13.70353 .2038134 14.1026 0 14.53729 0 L 16.13434 0 C 16.73245 0 17.25655 .391611 17.43866 .9743778 L 17.64148 1.625082 L 18.17821 .690744 C 18.42321 .2647766 18.87532 0 19.35876 0 L 20.98081 0 C 21.43217 0 21.85372 .2268037 22.10933 .607307 C 22.36494 .987552 22.42076 1.471641 22.25886 1.902258 L 20.3375 7.016967 C 21.04396 7.818788 21.52714 8.813056 21.72264 9.911169 L 22.19698 12.57547 Z M 9.936324 1.421011 C 9.938597 1.411711 9.946174 1.383813 9.923442 1.353331 C 9.90071 1.322591 9.872422 1.322591 9.863076 1.322591 L 8.250869 1.322591 C 8.217781 1.322591 8.188987 1.34429 8.178632 1.376322 L 7.295871 4.157122 C 7.502732 4.748155 7.688377 5.272025 7.815929 5.621013 L 8.797701 5.621013 L 9.936324 1.421011 Z M 17.53262 15.32914 L 20.70197 12.08776 C 20.72748 12.06167 20.75476 12.03894 20.78305 12.01827 L 20.54259 10.66623 L 16.94487 14.34572 L 17.53262 15.32914 Z M 19.75227 19.04402 C 19.76692 19.06831 19.78006 19.09388 19.79142 19.11997 L 20.27966 20.24185 C 20.56128 20.88894 21.10508 21.36837 21.74941 21.57115 L 21.74941 18.70769 C 21.74941 18.50569 21.83983 18.31479 21.99492 18.18925 L 25.57521 15.29195 L 25.49085 15.07392 C 25.21478 14.35967 24.55101 13.89806 23.79984 13.89806 L 21.65722 13.89806 C 21.41752 13.89806 21.20435 13.76322 21.09296 13.55837 L 18.2262 16.49003 L 19.75227 19.04402 Z M 21.04345 1.356173 C 21.02072 1.322591 20.99092 1.322591 20.98081 1.322591 L 19.35876 1.322591 C 19.33198 1.322591 19.30698 1.337315 19.29334 1.360823 L 18.16937 3.317069 L 18.96777 5.875974 C 19.08117 5.94417 19.1918 6.016499 19.29965 6.091411 L 21.05179 1.427985 C 21.05532 1.418428 21.06619 1.389754 21.04345 1.356173 Z " fill-rule="evenodd"/>
</clipPath>
<g clip-path="url(#cp4)">
<clipPath id="cp5">
<path transform="matrix(1,0,0,-1,0,23)" d="M -885 -1055 L 378 -1055 L 378 208 L -885 208 Z "/>
</clipPath>
<g clip-path="url(#cp5)">
<path transform="matrix(1,0,0,-1,0,23)" d="M -5 28.00008 L 32 28.00008 L 32 -5 L -5 -5 Z " />
</g>
</g>
</g>
</svg>
