<?xml version="1.0" encoding="UTF-8" standalone="no"?>
<!DOCTYPE svg PUBLIC "-//W3C//DTD SVG 1.1//EN" "http://www.w3.org/Graphics/SVG/1.1/DTD/svg11.dtd">
<svg xmlns="http://www.w3.org/2000/svg" xmlns:xlink="http://www.w3.org/1999/xlink" version="1.1" width="24pt" height="24pt" viewBox="0 0 24 24">
<g enable-background="new">
<clipPath id="cp0">
<path transform="matrix(1,0,0,-1,0,24)" d="M 20.48531 20.48527 C 18.21877 22.75181 15.20531 24 12 24 C 8.794688 24 5.781234 22.75181 3.514687 20.48527 C 1.248234 18.21877 0 15.20531 0 12 C 0 8.794688 1.248234 5.781234 3.514687 3.514734 C 5.781234 1.248188 8.794688 0 12 0 C 15.20531 0 18.21877 1.248188 20.48531 3.514734 C 22.75177 5.781234 24 8.794688 24 12 C 24 15.20531 22.75177 18.21877 20.48531 20.48527 Z M 12 .9375 C 5.900109 .9375 .9375 5.900109 .9375 12 C .9375 18.09989 5.900109 23.0625 12 23.0625 C 18.09989 23.0625 23.0625 18.09989 23.0625 12 C 23.0625 5.900109 18.09989 .9375 12 .9375 Z " fill-rule="evenodd"/>
</clipPath>
<g clip-path="url(#cp0)">
<clipPath id="cp1">
<path transform="matrix(1,0,0,-1,0,24)" d="M -69 -1068 L 1194 -1068 L 1194 195 L -69 195 Z "/>
</clipPath>
<g clip-path="url(#cp1)">
<path transform="matrix(1,0,0,-1,0,24)" d="M -5 29 L 29 29 L 29 -5 L -5 -5 Z " />
</g>
</g>
<clipPath id="cp2">
<path transform="matrix(1,0,0,-1,0,24)" d="M 16.72547 20.64023 C 16.49845 20.76464 16.21355 20.68148 16.08914 20.45442 C 15.96473 20.22741 16.04789 19.9425 16.27495 19.81809 C 19.1332 18.25167 20.90873 15.25598 20.90873 12 C 20.90873 11.74111 21.11864 11.53125 21.37748 11.53125 C 21.63633 11.53125 21.84623 11.74111 21.84623 12 C 21.84623 15.5985 19.88409 18.90919 16.72547 20.64023 Z " fill-rule="evenodd"/>
</clipPath>
<g clip-path="url(#cp2)">
<clipPath id="cp3">
<path transform="matrix(1,0,0,-1,0,24)" d="M -69 -1068 L 1194 -1068 L 1194 195 L -69 195 Z "/>
</clipPath>
<g clip-path="url(#cp3)">
<path transform="matrix(1,0,0,-1,0,24)" d="M 11.03137 25.698 L 26.84623 25.698 L 26.84623 6.53125 L 11.03137 6.53125 Z " />
</g>
</g>
<clipPath id="cp4">
<path transform="matrix(1,0,0,-1,0,24)" d="M 19.09847 7.763297 L 18.45914 7.763297 L 18.45914 12.57558 C 18.45914 15.55439 16.42645 18.12956 13.57228 18.84164 L 13.57228 19.54819 C 13.57228 20.41519 12.86695 21.12047 12 21.12047 C 11.13305 21.12047 10.42772 20.41514 10.42772 19.54819 L 10.42772 18.84164 C 7.573547 18.12961 5.540859 15.55444 5.540859 12.57558 L 5.540859 7.763297 L 4.901531 7.763297 C 4.642687 7.763297 4.432781 7.553437 4.432781 7.294547 C 4.432781 7.035656 4.642687 6.825797 4.901531 6.825797 L 6.009609 6.825797 L 9.823359 6.825797 L 9.823359 6.573 C 9.823359 5.372812 10.79977 4.396359 12 4.396359 C 13.20023 4.396359 14.17664 5.372812 14.17664 6.573 L 14.17664 6.825797 L 17.99039 6.825797 L 19.09847 6.825797 C 19.35731 6.825797 19.56722 7.035656 19.56722 7.294547 C 19.56722 7.553437 19.35731 7.763297 19.09847 7.763297 Z M 12 5.333906 C 11.3167 5.333906 10.76086 5.88975 10.76086 6.573047 L 10.76086 6.825844 L 13.23909 6.825844 L 13.23909 6.573047 L 13.23914 6.573047 C 13.23914 5.889797 12.6833 5.333906 12 5.333906 Z M 17.52164 7.763297 L 13.70789 7.763297 L 10.29216 7.763297 L 6.478359 7.763297 L 6.478359 12.57558 C 6.478359 15.23456 8.372531 17.51728 10.9823 18.00333 C 11.20425 18.04467 11.36522 18.23836 11.36522 18.46416 L 11.36522 19.54819 C 11.36522 19.8982 11.64998 20.18297 12 20.18297 C 12.35002 20.18297 12.63478 19.8982 12.63478 19.54819 L 12.63478 18.46416 C 12.63478 18.23836 12.79575 18.04467 13.0177 18.00333 C 15.62747 17.51728 17.52164 15.23461 17.52164 12.57558 L 17.52164 7.763297 Z " fill-rule="evenodd"/>
</clipPath>
<g clip-path="url(#cp4)">
<clipPath id="cp5">
<path transform="matrix(1,0,0,-1,0,24)" d="M -69 -1068 L 1194 -1068 L 1194 195 L -69 195 Z "/>
</clipPath>
<g clip-path="url(#cp5)">
<path transform="matrix(1,0,0,-1,0,24)" d="M -.5672188 26.12047 L 24.56722 26.12047 L 24.56722 -.6036406 L -.5672188 -.6036406 Z " />
</g>
</g>
<clipPath id="cp6">
<path transform="matrix(1,0,0,-1,0,24)" d="M 21.52636 10.1925 C 21.51464 10.22063 21.50011 10.24781 21.48323 10.27313 C 21.46641 10.29891 21.44672 10.32281 21.42511 10.34438 C 21.40355 10.36594 21.37964 10.38563 21.35386 10.40297 C 21.32855 10.41984 21.30136 10.43438 21.27277 10.44609 C 21.24464 10.45781 21.21516 10.46672 21.18516 10.47281 C 21.03281 10.50328 20.87109 10.45313 20.7623 10.34438 C 20.74073 10.32281 20.72105 10.29891 20.70417 10.27313 C 20.68683 10.24781 20.67277 10.22063 20.66105 10.1925 C 20.64933 10.16391 20.63995 10.13438 20.63437 10.10484 C 20.62823 10.07438 20.625 10.04344 20.625 10.01297 C 20.625 9.9825 20.62823 9.951563 20.63437 9.921563 C 20.63995 9.891563 20.64933 9.862031 20.66105 9.833906 C 20.67277 9.805313 20.68683 9.778125 20.70417 9.752813 C 20.72105 9.727031 20.74073 9.703125 20.7623 9.681563 C 20.78386 9.66 20.80777 9.640313 20.83359 9.623438 C 20.85891 9.606563 20.88605 9.592031 20.91464 9.580313 C 20.94281 9.568594 20.9723 9.559688 21.0023 9.553594 C 21.0323 9.5475 21.06323 9.544219 21.0937 9.544219 C 21.12412 9.544219 21.15511 9.5475 21.18511 9.553594 C 21.21511 9.559688 21.24464 9.568594 21.27272 9.580313 C 21.30131 9.592031 21.3285 9.606563 21.35381 9.623438 C 21.37959 9.640313 21.4035 9.66 21.42506 9.681563 C 21.44667 9.703125 21.46636 9.727031 21.48319 9.752813 C 21.50006 9.778125 21.51459 9.805313 21.52631 9.833906 C 21.53803 9.862031 21.54694 9.891563 21.55303 9.921563 C 21.55912 9.951563 21.56241 9.9825 21.56241 10.01297 C 21.56241 10.04344 21.55912 10.07438 21.55303 10.10484 C 21.54703 10.13438 21.53808 10.16391 21.52636 10.1925 Z " fill-rule="evenodd"/>
</clipPath>
<g clip-path="url(#cp6)">
<clipPath id="cp7">
<path transform="matrix(1,0,0,-1,0,24)" d="M -69 -1068 L 1194 -1068 L 1194 195 L -69 195 Z "/>
</clipPath>
<g clip-path="url(#cp7)">
<path transform="matrix(1,0,0,-1,0,24)" d="M 15.625 15.4816 L 26.56241 15.4816 L 26.56241 4.544219 L 15.625 4.544219 Z " />
</g>
</g>
<clipPath id="cp8">
<path transform="matrix(1,0,0,-1,0,24)" d="M 10.14262 16.7025 C 7.498453 15.6742 7.523578 13.10986 7.541953 11.23748 C 7.544531 10.98019 7.753875 10.77333 8.010609 10.77333 C 8.012156 10.77333 8.013703 10.77333 8.015297 10.77333 C 8.274187 10.77586 8.481984 10.98778 8.479406 11.24667 C 8.457656 13.46503 8.588625 15.09225 10.48237 15.82875 C 10.72364 15.92259 10.84317 16.19423 10.74937 16.43555 C 10.65553 16.67681 10.38375 16.79639 10.14262 16.7025 Z " fill-rule="evenodd"/>
</clipPath>
<g clip-path="url(#cp8)">
<clipPath id="cp9">
<path transform="matrix(1,0,0,-1,0,24)" d="M -69 -1068 L 1194 -1068 L 1194 195 L -69 195 Z "/>
</clipPath>
<g clip-path="url(#cp9)">
<path transform="matrix(1,0,0,-1,0,24)" d="M 2.538765 21.73452 L 15.78136 21.73452 L 15.78136 5.773328 L 2.538765 5.773328 Z " />
</g>
</g>
<clipPath id="cp10">
<path transform="matrix(1,0,0,-1,0,24)" d="M 8.440734 9.507188 C 8.429016 9.535781 8.414484 9.562969 8.397609 9.588281 C 8.380781 9.614063 8.361094 9.637969 8.339531 9.659531 C 8.317969 9.681094 8.294016 9.700781 8.268234 9.717656 C 8.242922 9.734531 8.215266 9.749063 8.187188 9.760781 C 8.159016 9.7725 8.129531 9.781875 8.099531 9.7875 C 8.039063 9.799688 7.976719 9.799688 7.91625 9.7875 C 7.88625 9.781875 7.856672 9.7725 7.828594 9.760781 C 7.800516 9.749063 7.773281 9.734531 7.747547 9.717656 C 7.722234 9.700781 7.698281 9.681094 7.676719 9.659531 C 7.654688 9.637969 7.635469 9.614063 7.618125 9.588281 C 7.601297 9.562969 7.586719 9.535781 7.575 9.507188 C 7.563281 9.479063 7.554422 9.449531 7.548328 9.419531 C 7.542188 9.389531 7.539422 9.358594 7.539422 9.328125 C 7.539422 9.204844 7.589109 9.083906 7.676766 8.996719 C 7.698328 8.975156 7.722281 8.955469 7.747594 8.938594 C 7.773375 8.921719 7.800563 8.907188 7.828641 8.895469 C 7.856719 8.88375 7.886297 8.874375 7.916297 8.86875 C 7.946766 8.862656 7.977703 8.859375 8.008172 8.859375 C 8.038641 8.859375 8.069578 8.862656 8.099578 8.86875 C 8.129578 8.874375 8.159109 8.88375 8.187234 8.895469 C 8.215781 8.907188 8.242969 8.921719 8.268281 8.938594 C 8.294063 8.955469 8.318016 8.975156 8.339578 8.996719 C 8.426719 9.083906 8.476922 9.204844 8.476922 9.328125 C 8.476922 9.358594 8.473641 9.389531 8.467547 9.419531 C 8.461453 9.449531 8.452453 9.479063 8.440734 9.507188 Z " fill-rule="evenodd"/>
</clipPath>
<g clip-path="url(#cp10)">
<clipPath id="cp11">
<path transform="matrix(1,0,0,-1,0,24)" d="M -69 -1068 L 1194 -1068 L 1194 195 L -69 195 Z "/>
</clipPath>
<g clip-path="url(#cp11)">
<path transform="matrix(1,0,0,-1,0,24)" d="M 2.539422 14.79664 L 13.47692 14.79664 L 13.47692 3.859375 L 2.539422 3.859375 Z " />
</g>
</g>
</g>
</svg>
