<?xml version="1.0" encoding="UTF-8" standalone="no"?>
<!DOCTYPE svg PUBLIC "-//W3C//DTD SVG 1.1//EN" "http://www.w3.org/Graphics/SVG/1.1/DTD/svg11.dtd">
<svg xmlns="http://www.w3.org/2000/svg" xmlns:xlink="http://www.w3.org/1999/xlink" version="1.1" width="24pt" height="24pt" viewBox="0 0 24 24">
<g enable-background="new">
<clipPath id="cp0">
<path transform="matrix(1,0,0,-1,0,24)" d="M 11.99991 13.42857 C 10.43424 13.42857 8.902095 13.0188 7.569356 12.24349 C 7.344394 12.11274 7.270888 11.82884 7.40494 11.60959 C 7.538991 11.39016 7.830053 11.31847 8.05483 11.44922 C 9.240927 12.1391 10.60514 12.50391 11.99991 12.50391 C 16.20346 12.50391 19.62344 9.222088 19.62344 5.188437 C 19.62344 4.15018 19.39996 3.437902 18.94022 3.010789 C 18.10462 2.23476 16.37362 2.317654 14.36932 2.413552 C 13.6113 2.449671 12.82736 2.487236 11.99991 2.487236 C 11.17245 2.487236 10.3887 2.449671 9.630676 2.413552 C 7.626384 2.317654 5.895379 2.23476 5.059779 3.010789 C 4.600041 3.437722 4.37656 4.15018 4.37656 5.188437 C 4.37656 6.543462 4.765754 7.866702 5.502111 9.015484 C 5.640977 9.232021 5.573581 9.517185 5.351581 9.652633 C 5.129582 9.788081 4.837038 9.722163 4.698358 9.505807 C 3.867572 8.210018 3.428571 6.717016 3.428571 5.188617 C 3.428571 3.883437 3.748332 2.952094 4.406 2.341132 C 5.203088 1.600862 6.392888 1.428571 7.804872 1.428571 C 8.394403 1.428571 9.02263 1.458551 9.67715 1.489975 C 10.42369 1.525552 11.19578 1.562575 12.00009 1.562575 C 12.80422 1.562575 13.57631 1.525552 14.32285 1.489975 C 16.54507 1.383783 18.46419 1.291859 19.594 2.341313 C 20.25167 2.952094 20.57143 3.883437 20.57143 5.188617 C 20.57143 9.732096 16.72615 13.42857 11.99991 13.42857 Z "/>
</clipPath>
<g clip-path="url(#cp0)">
<clipPath id="cp1">
<path transform="matrix(1,0,0,-1,0,24)" d="M -206 -464 L 169 -464 L 169 554 L -206 554 Z "/>
</clipPath>
<g clip-path="url(#cp1)">
<path transform="matrix(1,0,0,-1,0,24)" d="M -1.571429 18.42857 L 25.57143 18.42857 L 25.57143 -3.571429 L -1.571429 -3.571429 Z " fill-opacity=".5"/>
</g>
</g>
<clipPath id="cp2">
<path transform="matrix(1,0,0,-1,0,24)" d="M 11.57143 16 C 13.22556 16 14.57143 17.34584 14.57143 19 C 14.57143 20.65416 13.22556 22 11.57143 22 C 9.917298 22 8.571429 20.65416 8.571429 19 C 8.571429 17.34584 9.917298 16 11.57143 16 Z M 11.57143 21.10812 C 12.69911 21.10812 13.61662 20.16241 13.61662 19 C 13.61662 17.83759 12.69911 16.89188 11.57143 16.89188 C 10.44375 16.89188 9.526423 17.83759 9.526423 19 C 9.526423 20.16241 10.44375 21.10812 11.57143 21.10812 Z "/>
</clipPath>
<g clip-path="url(#cp2)">
<clipPath id="cp3">
<path transform="matrix(1,0,0,-1,0,24)" d="M -206 -464 L 169 -464 L 169 554 L -206 554 Z "/>
</clipPath>
<g clip-path="url(#cp3)">
<path transform="matrix(1,0,0,-1,0,24)" d="M 3.571429 27 L 19.57143 27 L 19.57143 11 L 3.571429 11 Z " fill-opacity=".5"/>
</g>
</g>
<clipPath id="cp4">
<path transform="matrix(1,0,0,-1,0,24)" d="M 5.897214 14.58858 C 6.114053 15.37587 5.984278 16.24894 5.541291 16.98419 C 4.66353 18.44102 2.810357 18.99619 1.41021 18.22169 C .7649854 17.86472 .3004601 17.27261 .1027859 16.55423 C -.1140535 15.76694 .0157216 14.89369 .4587089 14.15862 C 1.067794 13.14809 2.145967 12.57143 3.216657 12.57143 C 3.689578 12.57143 4.161039 12.68385 4.58979 12.92112 C 5.235197 13.27809 5.69954 13.8702 5.897214 14.58858 Z M 4.12782 13.7116 C 3.842716 13.5539 3.528774 13.47913 3.211729 13.47913 C 2.46429 13.47913 1.700972 13.89524 1.265103 14.61859 C .9476926 15.14535 .8531448 15.76516 1.005553 16.31891 C 1.138066 16.80038 1.445985 17.19535 1.87218 17.4312 C 2.830252 17.96115 4.114496 17.55428 4.73508 16.52421 C 5.05249 15.99746 5.147038 15.37782 4.99463 14.8239 C 4.861934 14.34243 4.554198 13.94745 4.12782 13.7116 Z "/>
</clipPath>
<g clip-path="url(#cp4)">
<clipPath id="cp5">
<path transform="matrix(1,0,0,-1,0,24)" d="M -206 -464 L 169 -464 L 169 554 L -206 554 Z "/>
</clipPath>
<g clip-path="url(#cp5)">
<path transform="matrix(1,0,0,-1,0,24)" d="M -5 23.57143 L 11 23.57143 L 11 7.571429 L -5 7.571429 Z " fill-opacity=".5"/>
</g>
</g>
<clipPath id="cp6">
<path transform="matrix(1,0,0,-1,0,24)" d="M 23.89721 16.5544 C 23.69954 17.27261 23.2352 17.86472 22.58979 18.22169 C 21.18964 18.99619 19.33647 18.44102 18.45871 16.98419 C 18.01572 16.24911 17.88595 15.37587 18.10279 14.58858 C 18.30046 13.87038 18.7648 13.27809 19.41021 12.92112 C 19.83914 12.68385 20.31042 12.57143 20.78334 12.57143 C 21.85403 12.57143 22.93239 13.14826 23.54129 14.15879 C 23.98428 14.89387 24.11405 15.76711 23.89721 16.5544 Z M 22.7349 14.61859 C 22.11431 13.58853 20.83007 13.18165 19.87218 13.7116 C 19.4458 13.94745 19.13807 14.34243 19.00537 14.8239 C 18.85296 15.37764 18.94751 15.99746 19.26492 16.52421 C 19.70079 17.24757 20.46411 17.66368 21.21173 17.66368 C 21.52859 17.66368 21.84253 17.58891 22.12782 17.4312 C 22.55402 17.19535 22.86193 16.80038 22.99445 16.31891 C 23.14686 15.76516 23.05231 15.14535 22.7349 14.61859 Z "/>
</clipPath>
<g clip-path="url(#cp6)">
<clipPath id="cp7">
<path transform="matrix(1,0,0,-1,0,24)" d="M -206 -464 L 169 -464 L 169 554 L -206 554 Z "/>
</clipPath>
<g clip-path="url(#cp7)">
<path transform="matrix(1,0,0,-1,0,24)" d="M 13 23.57143 L 29 23.57143 L 29 7.571429 L 13 7.571429 Z " fill-opacity=".5"/>
</g>
</g>
<clipPath id="cp8">
<path transform="matrix(1,0,0,-1,0,24)" d="M 14.9665 5.684793 C 15.22162 5.684793 15.42857 5.889808 15.42857 6.142768 C 15.42857 6.96891 15.01016 7.737091 14.25057 8.305802 C 13.52959 8.845532 12.5782 9.142857 11.57143 9.142857 C 10.56465 9.142857 9.613267 8.845532 8.892286 8.305802 C 8.132693 7.737091 7.714286 6.96891 7.714286 6.142768 C 7.714286 5.316804 8.132693 4.548624 8.892286 3.979913 C 9.613267 3.440183 10.56465 3.142857 11.57143 3.142857 C 11.80725 3.142857 12.04469 3.159673 12.27689 3.192769 C 12.52931 3.228906 12.70468 3.460935 12.66824 3.711389 C 12.63197 3.961665 12.39742 4.135731 12.14536 4.099415 C 11.95664 4.072581 11.7634 4.058806 11.57143 4.058806 C 9.954092 4.058806 8.638066 4.993717 8.638066 6.142768 C 8.638066 7.291818 9.954092 8.22673 11.57143 8.22673 C 13.18877 8.22673 14.50461 7.291997 14.50461 6.142768 C 14.50461 5.889808 14.71138 5.684793 14.9665 5.684793 Z "/>
</clipPath>
<g clip-path="url(#cp8)">
<clipPath id="cp9">
<path transform="matrix(1,0,0,-1,0,24)" d="M -206 -464 L 169 -464 L 169 554 L -206 554 Z "/>
</clipPath>
<g clip-path="url(#cp9)">
<path transform="matrix(1,0,0,-1,0,24)" d="M 2.714286 14.14286 L 20.42857 14.14286 L 20.42857 -1.857143 L 2.714286 -1.857143 Z " fill-opacity=".5"/>
</g>
</g>
<clipPath id="cp10">
<path transform="matrix(1,0,0,-1,0,24)" d="M 6.140332 10.11148 C 6.222336 10.03683 6.325427 10 6.42835 10 C 6.544829 10 6.660973 10.04737 6.745487 10.14027 L 6.745654 10.14044 C 6.904976 10.31553 6.891922 10.58653 6.716869 10.74572 C 6.541816 10.9049 6.270702 10.89201 6.111547 10.71676 C 5.952225 10.54167 5.965112 10.27067 6.140332 10.11148 Z "/>
</clipPath>
<g clip-path="url(#cp10)">
<clipPath id="cp11">
<path transform="matrix(1,0,0,-1,0,24)" d="M -206 -464 L 169 -464 L 169 554 L -206 554 Z "/>
</clipPath>
<g clip-path="url(#cp11)">
<path transform="matrix(1,0,0,-1,0,24)" d="M 1 15.85714 L 11.85714 15.85714 L 11.85714 5 L 1 5 Z " fill-opacity=".5"/>
</g>
</g>
<clipPath id="cp12">
<path transform="matrix(1,0,0,-1,0,24)" d="M 14.14277 4.857143 C 13.9061 4.857143 13.71429 4.66516 13.71429 4.428488 C 13.71429 4.191815 13.9061 4 14.14277 4 L 14.14311 4 C 14.37978 4 14.57143 4.191815 14.57143 4.428488 C 14.57143 4.66516 14.37945 4.857143 14.14277 4.857143 Z "/>
</clipPath>
<g clip-path="url(#cp12)">
<clipPath id="cp13">
<path transform="matrix(1,0,0,-1,0,24)" d="M -206 -464 L 169 -464 L 169 554 L -206 554 Z "/>
</clipPath>
<g clip-path="url(#cp13)">
<path transform="matrix(1,0,0,-1,0,24)" d="M 8.714286 9.857143 L 19.57143 9.857143 L 19.57143 -1 L 8.714286 -1 Z " fill-opacity=".5"/>
</g>
</g>
</g>
</svg>
