<?xml version="1.0" encoding="UTF-8" standalone="no"?>
<!DOCTYPE svg PUBLIC "-//W3C//DTD SVG 1.1//EN" "http://www.w3.org/Graphics/SVG/1.1/DTD/svg11.dtd">
<svg xmlns="http://www.w3.org/2000/svg" xmlns:xlink="http://www.w3.org/1999/xlink" version="1.1" width="19pt" height="35pt" viewBox="0 0 19 35">
<g enable-background="new">
<clipPath id="cp0">
<path transform="matrix(1,0,0,-1,0,35)" d="M 5.448647 6.895303 C 3.648641 6.560947 2.278739 4.944945 2.278739 3.006207 L 2.278739 1.469893 L .6901782 1.469893 C .3089431 1.469893 0 1.153466 0 .7630789 C 0 .3726917 .3089431 .05651381 .6901782 .05651381 L 18.30982 .05651381 C 18.69098 .05651381 19 .3726917 19 .7630789 C 19 1.153466 18.69098 1.469893 18.30982 1.469893 L 16.72118 1.469893 L 16.72118 3.006207 C 16.72118 4.944945 15.35136 6.560947 13.55127 6.895303 L 13.55127 7.76556 C 13.55127 8.479596 13.3737 9.168896 13.04223 9.778839 C 16.01836 10.9886 17.95809 13.62477 17.95809 16.58617 C 17.95809 17.14481 17.88847 17.70221 17.75102 18.24243 C 17.65482 18.6202 17.27804 18.84648 16.90929 18.74828 C 16.54045 18.64967 16.31912 18.26385 16.4154 17.88608 C 16.52335 17.46199 16.57781 17.02487 16.57781 16.58617 C 16.57781 13.96942 14.63654 11.65233 11.74673 10.82034 C 11.02429 10.61216 10.26831 10.50649 9.5 10.50649 C 8.731613 10.50649 7.975627 10.61216 7.252869 10.82067 C 4.363456 11.65233 2.422188 13.96942 2.422188 16.58617 C 2.422188 18.62825 3.609334 20.52349 5.598418 21.6568 C 6.303752 22.05881 7.078784 22.34577 7.901876 22.50888 C 8.946301 22.7164 10.05402 22.71607 11.09812 22.50888 C 11.92122 22.34577 12.69617 22.05881 13.40182 21.65647 C 13.70193 21.48556 13.98972 21.29298 14.25693 21.08446 C 14.55988 20.84781 14.99298 20.90741 15.22412 21.2181 C 15.45518 21.52839 15.39666 21.97198 15.09364 22.20864 C 14.948 22.32211 14.79734 22.4311 14.64287 22.53586 C 15.06008 23.3964 15.52674 24.46223 16.05953 25.77118 C 17.43097 29.14181 17.8229 31.52597 17.22455 32.857 C 16.98109 33.39955 16.56922 33.77989 16.03327 33.95753 C 15.49797 34.13458 14.94678 34.07332 14.4396 33.78014 C 13.19419 33.06037 12.14879 30.89204 11.33299 27.33605 C 11.03223 26.02378 10.80904 24.92749 10.65554 24.00892 C 9.890636 24.10064 9.109283 24.10064 8.344462 24.00892 C 8.190882 24.92749 7.967684 26.02378 7.667008 27.33605 C 6.851129 30.89204 5.806136 33.06037 4.560639 33.78014 C 4.053217 34.07332 3.501706 34.13458 2.966405 33.95719 C 2.431022 33.77989 2.019152 33.39955 1.775369 32.857 C 1.177015 31.52597 1.569272 29.14181 2.940714 25.77118 C 3.473503 24.46223 3.939835 23.39674 4.356811 22.53611 C 2.269581 21.1224 1.041832 18.94119 1.041832 16.58617 C 1.041832 13.62444 2.98156 10.9886 5.957771 9.778839 C 5.626298 9.168564 5.448972 8.479596 5.448972 7.76556 L 5.448972 6.895303 L 5.448647 6.895303 Z M 15.11771 32.54896 C 15.2922 32.64982 15.43873 32.66866 15.60876 32.61255 C 15.77871 32.5561 15.88731 32.45234 15.97087 32.2659 C 16.37706 31.36228 15.93415 29.13758 14.78567 26.31497 C 14.27565 25.06271 13.8308 24.04362 13.43449 23.22192 C 12.97893 23.43434 12.50304 23.60749 12.01109 23.74238 C 12.15957 24.63663 12.37896 25.71416 12.67655 27.01274 C 13.35976 29.99065 14.27241 32.06038 15.11771 32.54896 Z M 3.029052 32.2659 C 3.11261 32.45234 3.22121 32.5561 3.390918 32.61221 C 3.561193 32.66866 3.707803 32.64948 3.882212 32.54896 C 4.727834 32.06038 5.640238 29.99065 6.323365 27.01307 C 6.621286 25.71416 6.84035 24.63663 6.988824 23.74238 C 6.496882 23.60749 6.021067 23.43434 5.565514 23.22192 C 5.169448 24.04362 4.724349 25.06238 4.214658 26.31497 C 3.065766 29.13758 2.622856 31.36228 3.029052 32.2659 Z M 3.658771 3.006207 C 3.658771 4.161514 4.415974 5.13852 5.448647 5.445567 L 5.448647 1.469893 L 3.658771 1.469893 L 3.658771 3.006207 Z M 15.34123 3.006207 L 15.34123 1.469893 L 13.55127 1.469893 L 13.55127 5.445567 C 14.58395 5.13852 15.34123 4.161514 15.34123 3.006207 Z M 11.68027 9.345952 C 11.99878 8.886502 12.171 8.337901 12.171 7.76556 L 12.171 1.469893 L 10.1901 1.469893 L 10.1901 5.77046 C 10.1901 6.160848 9.881154 6.477275 9.5 6.477275 C 9.118846 6.477275 8.809822 6.160848 8.809822 5.77046 L 8.809822 1.469893 L 6.829004 1.469893 L 6.829004 7.76556 C 6.829004 8.337901 7.001224 8.886502 7.319325 9.345952 C 8.028225 9.17894 8.759493 9.093026 9.5 9.093026 C 10.24043 9.093026 10.97178 9.17894 11.68027 9.345952 Z " fill-rule="evenodd"/>
</clipPath>
<g clip-path="url(#cp0)">
<clipPath id="cp1">
<path transform="matrix(1,0,0,-1,0,35)" d="M -1115 -945 L 148 -945 L 148 318 L -1115 318 Z "/>
</clipPath>
<g clip-path="url(#cp1)">
<path transform="matrix(1,0,0,-1,0,35)" d="M -5 39.05651 L 24 39.05651 L 24 -4.943486 L -5 -4.943486 Z " />
</g>
</g>
<clipPath id="cp2">
<path transform="matrix(1,0,0,-1,0,35)" d="M 15.35773 20.87992 C 14.96035 20.59005 14.88214 20.04436 15.1831 19.66108 C 15.2418 19.58555 15.30104 19.50736 15.35773 19.42866 C 15.53322 19.18632 15.8135 19.05651 16.09824 19.05651 C 16.27669 19.05651 16.45674 19.10762 16.61399 19.21351 C 17.02261 19.48855 17.12275 20.03118 16.83759 20.42519 C 16.76722 20.52178 16.69474 20.61847 16.62152 20.71148 C 16.32099 21.09476 15.75512 21.17019 15.35773 20.87992 Z " fill-rule="evenodd"/>
</clipPath>
<g clip-path="url(#cp2)">
<clipPath id="cp3">
<path transform="matrix(1,0,0,-1,0,35)" d="M -1115 -945 L 148 -945 L 148 318 L -1115 318 Z "/>
</clipPath>
<g clip-path="url(#cp3)">
<path transform="matrix(1,0,0,-1,0,35)" d="M 10 26.05651 L 22 26.05651 L 22 14.05651 L 10 14.05651 Z " />
</g>
</g>
<clipPath id="cp4">
<path transform="matrix(1,0,0,-1,0,35)" d="M 9.214112 16.00089 C 8.929496 15.88511 8 15.448 8 14.69261 C 8 14.34132 8.3132 14.05651 8.699504 14.05651 C 9.052132 14.05651 9.3434 14.29374 9.391863 14.60216 C 9.416587 14.62606 9.454453 14.65526 9.500041 14.68559 C 9.5453 14.65526 9.583413 14.62606 9.608137 14.60216 C 9.656271 14.29374 9.947951 14.05651 10.30058 14.05651 C 10.68688 14.05651 11 14.34132 11 14.69261 C 11 15.448 10.0705 15.88511 9.785888 16.00089 C 9.603948 16.07506 9.396052 16.07506 9.214112 16.00089 Z " fill-rule="evenodd"/>
</clipPath>
<g clip-path="url(#cp4)">
<clipPath id="cp5">
<path transform="matrix(1,0,0,-1,0,35)" d="M -1115 -945 L 148 -945 L 148 318 L -1115 318 Z "/>
</clipPath>
<g clip-path="url(#cp5)">
<path transform="matrix(1,0,0,-1,0,35)" d="M 3 21.05651 L 16 21.05651 L 16 9.056514 L 3 9.056514 Z " />
</g>
</g>
</g>
</svg>
