<?xml version="1.0" encoding="UTF-8" standalone="no"?>
<!DOCTYPE svg PUBLIC "-//W3C//DTD SVG 1.1//EN" "http://www.w3.org/Graphics/SVG/1.1/DTD/svg11.dtd">
<svg xmlns="http://www.w3.org/2000/svg" xmlns:xlink="http://www.w3.org/1999/xlink" version="1.1" width="31pt" height="32pt" viewBox="0 0 31 32">
<g enable-background="new">
<g>
<clipPath id="cp0">
<path transform="matrix(1,0,0,-1,0,32)" d="M 0 0 L 31 0 L 31 32 L 0 32 Z "/>
</clipPath>
<g clip-path="url(#cp0)">
<g>
<clipPath id="cp1">
<path transform="matrix(1,0,0,-1,0,32)" d="M 0 0 L 31 0 L 31 32 L 0 32 Z "/>
</clipPath>
<g clip-path="url(#cp1)">
<clipPath id="cp2">
<path transform="matrix(1,0,0,-1,0,32)" d="M 12.89626 30 C 13.04795 30 13.20207 30.02014 13.34296 30.0628 C 13.40283 30.081 13.46366 30.09859 13.52522 30.1159 C 13.96198 30.23773 14.12721 30.52228 13.8946 30.75113 C 13.66199 30.97998 13.11988 31.06664 12.68354 30.94486 C 12.6042 30.9225 12.52561 30.89976 12.44839 30.87635 C 12.01988 30.74675 11.87285 30.45964 12.11984 30.2349 C 12.2856 30.08405 12.58686 30 12.89626 30 Z " fill-rule="evenodd"/>
</clipPath>
<g clip-path="url(#cp2)">
<clipPath id="cp3">
<path transform="matrix(1,0,0,-1,0,32)" d="M 0 0 L 31 0 L 31 32 L 0 32 Z "/>
</clipPath>
<g clip-path="url(#cp3)">
<path transform="matrix(1,0,0,-1,0,32)" d="M 7 36 L 19 36 L 19 25 L 7 25 Z " />
</g>
</g>
<clipPath id="cp4">
<path transform="matrix(1,0,0,-1,0,32)" d="M 0 3.307171 C 0 1.483821 1.52505 0 3.399637 0 L 27.60036 0 C 28.50826 0 29.36195 .3442952 30.00416 .9689796 C 30.64637 1.593664 31 2.424051 31 3.307171 C 31 4.840367 29.92167 6.133095 28.46401 6.505749 C 28.96101 7.095043 29.23111 7.827149 29.23111 8.599567 C 29.23111 10.12604 28.16226 11.41354 26.71399 11.79291 C 27.2138 12.38221 27.48583 13.11611 27.48583 13.89095 C 27.48583 15.715 25.9607 17.19874 24.08587 17.19874 L 16.42095 17.19874 L 16.42095 25.38597 L 23.95311 25.38597 C 23.96379 25.38566 23.97415 25.38441 23.98484 25.38441 L 26.62179 25.38441 C 26.99735 25.38441 27.30167 25.68042 27.30167 26.04573 C 27.30167 26.41104 26.99735 26.70706 26.62179 26.70706 L 24.66439 26.70706 L 24.66439 30.4543 C 24.66471 31.30664 23.95158 32 23.07533 32 L 15.7389 32 C 15.36334 32 15.05902 31.70399 15.05902 31.33868 C 15.05902 30.97368 15.36334 30.67735 15.7389 30.67735 L 23.07533 30.67735 C 23.20175 30.67735 23.30496 30.57727 23.30496 30.4543 L 23.30496 26.70862 L 15.74107 26.70862 C 15.36551 26.70862 15.06151 26.41253 15.06151 26.04729 L 15.06151 17.19874 L 10.98015 17.19874 L 10.98015 18.75967 L 12.32417 18.75967 C 12.69973 18.75967 13.00404 19.05577 13.00404 19.42069 C 13.00404 19.786 12.69973 20.08201 12.32417 20.08201 L 10.98015 20.08201 L 10.98015 21.91919 L 12.32417 21.91919 C 12.69973 21.91919 13.00404 22.2152 13.00404 22.58051 C 13.00404 22.94551 12.69973 23.24153 12.32417 23.24153 L 10.98015 23.24153 L 10.98015 25.07777 L 12.32417 25.07777 C 12.69973 25.07777 13.00404 25.37409 13.00404 25.73901 C 13.00404 26.10433 12.69973 26.40034 12.32417 26.40034 L 10.99396 26.40034 C 11.0583 27.24049 11.35378 28.03978 11.85889 28.72978 C 12.07663 29.02728 12.00515 29.44017 11.69922 29.65196 C 11.39362 29.86376 10.96882 29.79423 10.75141 29.49665 C 10.01161 28.48595 9.620712 27.29424 9.620712 26.04972 L 9.620712 17.19874 L 6.914126 17.19874 C 6.006148 17.19874 5.152464 16.85453 4.510575 16.23039 C 3.868043 15.60633 3.514489 14.77563 3.514489 13.89095 C 3.514489 13.09564 3.804673 12.3651 4.287214 11.79377 C 3.716807 11.6458 3.193545 11.35463 2.764655 10.93776 C 2.122444 10.31307 1.76881 9.482376 1.76881 8.599255 C 1.76881 7.806056 2.057468 7.077309 2.537841 6.506999 C 1.959883 6.360516 1.429714 6.067236 .995764 5.645441 C .3535532 5.020757 0 4.19037 0 3.307171 Z M 5.471561 15.29477 C 5.857161 15.66953 6.369179 15.87609 6.914126 15.87609 L 7.282779 15.87609 L 7.282779 14.73876 C 7.282779 14.37345 7.587098 14.07743 7.962658 14.07743 C 8.337816 14.07743 8.642216 14.37345 8.642216 14.73876 L 8.642216 15.87609 L 11.05171 15.87609 L 11.05171 14.73876 C 11.05171 14.37345 11.35635 14.07743 11.73151 14.07743 C 12.10707 14.07743 12.41139 14.37345 12.41139 14.73876 L 12.41139 15.87609 L 14.82024 15.87609 L 14.82024 14.73876 C 14.82024 14.37345 15.12456 14.07743 15.4998 14.07743 C 15.87536 14.07743 16.17968 14.37345 16.17968 14.73876 L 16.17968 15.87609 L 18.58853 15.87609 L 18.58853 14.73876 C 18.58853 14.37345 18.89285 14.07743 19.26809 14.07743 C 19.64365 14.07743 19.94797 14.37345 19.94797 14.73876 L 19.94797 15.87609 L 22.35746 15.87609 L 22.35746 14.73876 C 22.35746 14.37345 22.66178 14.07743 23.03734 14.07743 C 23.4129 14.07743 23.71722 14.37345 23.71722 14.73876 L 23.71722 15.87609 L 24.08587 15.87609 C 25.21063 15.87609 26.12575 14.98532 26.12575 13.89095 C 26.12575 13.36025 25.91372 12.8622 25.52812 12.48775 C 25.14284 12.11268 24.6305 11.90643 24.08587 11.90643 L 6.914126 11.90643 C 5.789053 11.90643 4.873926 12.79658 4.873926 13.89064 C 4.873926 14.42196 5.085962 14.92032 5.471561 15.29477 Z M 3.726284 10.00245 C 4.111482 10.37745 4.623821 10.58378 5.168768 10.58378 L 5.259124 10.58378 L 5.259124 9.446438 C 5.259124 9.081128 5.563524 8.785113 5.938682 8.785113 C 6.314242 8.785113 6.618561 9.081128 6.618561 9.446438 L 6.618561 10.58378 L 9.028056 10.58378 L 9.028056 9.446438 C 9.028056 9.081128 9.332697 8.785113 9.707936 8.785113 C 10.0835 8.785113 10.38781 9.081128 10.38781 9.446438 L 10.38781 10.58378 L 12.79667 10.58378 L 12.79667 9.446438 C 12.79667 9.081128 13.10099 8.785113 13.47623 8.785113 C 13.85178 8.785113 14.1561 9.081128 14.1561 9.446438 L 14.1561 10.58378 L 16.5656 10.58378 L 16.5656 9.446438 C 16.5656 9.081128 16.86992 8.785113 17.24548 8.785113 C 17.62104 8.785113 17.92536 9.081128 17.92536 9.446438 L 17.92536 10.58378 L 20.33389 10.58378 L 20.33389 9.446438 C 20.33389 9.081128 20.63821 8.785113 21.01377 8.785113 C 21.38925 8.785113 21.69365 9.081128 21.69365 9.446438 L 21.69365 10.58378 L 24.10314 10.58378 L 24.10314 9.446438 C 24.10314 9.081128 24.40746 8.785113 24.78294 8.785113 C 25.15818 8.785113 25.46282 9.081128 25.46282 9.446438 L 25.46282 10.58378 L 25.83147 10.58378 C 26.95622 10.58378 27.87143 9.693625 27.87143 8.599567 C 27.87143 8.068867 27.65932 7.57051 27.27372 7.195434 C 26.88844 6.82067 26.3761 6.614108 25.83115 6.614108 L 5.168527 6.614108 C 4.043775 6.614108 3.128569 7.504885 3.128569 8.599567 C 3.128569 9.12933 3.340684 9.627687 3.726284 10.00245 Z M 1.957393 4.710133 C 2.342672 5.085131 2.855011 5.291459 3.399637 5.291459 L 3.514489 5.291459 L 3.514489 4.154042 C 3.514489 3.78881 3.818809 3.492717 4.194047 3.492717 C 4.569607 3.492717 4.873926 3.789044 4.873926 4.154042 L 4.873926 5.291459 L 7.282779 5.291459 L 7.282779 4.154042 C 7.282779 3.78881 7.587098 3.492717 7.962337 3.492717 C 8.337816 3.492717 8.642216 3.789044 8.642216 4.154042 L 8.642216 5.291459 L 11.05171 5.291459 L 11.05171 4.154042 C 11.05171 3.78881 11.35603 3.492717 11.73151 3.492717 C 12.10707 3.492717 12.41139 3.789044 12.41139 4.154042 L 12.41139 5.291459 L 14.82 5.291459 L 14.82 4.154042 C 14.82 3.78881 15.12432 3.492717 15.4998 3.492717 C 15.87536 3.492717 16.17968 3.789044 16.17968 4.154042 L 16.17968 5.291459 L 18.58829 5.291459 L 18.58829 4.154042 C 18.58829 3.78881 18.89285 3.492717 19.26809 3.492717 C 19.64365 3.492717 19.94797 3.789044 19.94797 4.154042 L 19.94797 5.291459 L 22.35746 5.291459 L 22.35746 4.154042 C 22.35746 3.78881 22.66178 3.492717 23.03734 3.492717 C 23.41258 3.492717 23.71722 3.789044 23.71722 4.154042 L 23.71722 5.291459 L 26.12575 5.291459 L 26.12575 4.154042 C 26.12575 3.78881 26.43007 3.492717 26.80563 3.492717 C 27.18119 3.492717 27.48551 3.789044 27.48551 4.154042 L 27.48551 5.291459 L 27.60004 5.291459 C 28.72479 5.291459 29.63992 4.401229 29.63992 3.307171 C 29.63992 2.777096 29.4278 2.278739 29.04229 1.904053 C 28.65701 1.529289 28.14467 1.32265 27.60004 1.32265 L 3.399637 1.32265 C 2.274885 1.32265 1.359758 2.21288 1.359758 3.307171 C 1.359758 3.837013 1.571794 4.335369 1.957393 4.710133 Z " fill-rule="evenodd"/>
</clipPath>
<g clip-path="url(#cp4)">
<clipPath id="cp5">
<path transform="matrix(1,0,0,-1,0,32)" d="M 0 0 L 31 0 L 31 32 L 0 32 Z "/>
</clipPath>
<g clip-path="url(#cp5)">
<path transform="matrix(1,0,0,-1,0,32)" d="M -5 37 L 36 37 L 36 -5 L -5 -5 Z " />
</g>
</g>
</g>
</g>
</g>
</g>
</g>
</svg>
