<?xml version="1.0" encoding="UTF-8" standalone="no"?>
<!DOCTYPE svg PUBLIC "-//W3C//DTD SVG 1.1//EN" "http://www.w3.org/Graphics/SVG/1.1/DTD/svg11.dtd">
<svg xmlns="http://www.w3.org/2000/svg" xmlns:xlink="http://www.w3.org/1999/xlink" version="1.1" width="24pt" height="24pt" viewBox="0 0 24 24">
<g enable-background="new">
<clipPath id="cp0">
<path transform="matrix(1,0,0,-1,0,24)" d="M 14.81818 17.09091 C 15.06922 17.09091 15.27273 17.29442 15.27273 17.54545 C 15.27273 17.79649 15.06922 18 14.81818 18 C 14.56714 18 14.36364 17.79649 14.36364 17.54545 C 14.36364 17.29442 14.56714 17.09091 14.81818 17.09091 Z " fill-rule="evenodd"/>
</clipPath>
<g clip-path="url(#cp0)">
<clipPath id="cp1">
<path transform="matrix(1,0,0,-1,0,24)" d="M -372 -1068 L 891 -1068 L 891 195 L -372 195 Z "/>
</clipPath>
<g clip-path="url(#cp1)">
<path transform="matrix(1,0,0,-1,0,24)" d="M 9.363636 23 L 20.27273 23 L 20.27273 12.09091 L 9.363636 12.09091 Z " />
</g>
</g>
<clipPath id="cp2">
<path transform="matrix(1,0,0,-1,0,24)" d="M 11.90909 18.54545 C 12.16013 18.54545 12.36364 18.74896 12.36364 19 C 12.36364 19.25104 12.16013 19.45455 11.90909 19.45455 C 11.65805 19.45455 11.45455 19.25104 11.45455 19 C 11.45455 18.74896 11.65805 18.54545 11.90909 18.54545 Z " fill-rule="evenodd"/>
</clipPath>
<g clip-path="url(#cp2)">
<clipPath id="cp3">
<path transform="matrix(1,0,0,-1,0,24)" d="M -372 -1068 L 891 -1068 L 891 195 L -372 195 Z "/>
</clipPath>
<g clip-path="url(#cp3)">
<path transform="matrix(1,0,0,-1,0,24)" d="M 6.454545 24.45455 L 17.36364 24.45455 L 17.36364 13.54545 L 6.454545 13.54545 Z " />
</g>
</g>
<clipPath id="cp4">
<path transform="matrix(1,0,0,-1,0,24)" d="M 9.181818 17.09091 C 9.432857 17.09091 9.636364 17.29442 9.636364 17.54545 C 9.636364 17.79649 9.432857 18 9.181818 18 C 8.93078 18 8.727273 17.79649 8.727273 17.54545 C 8.727273 17.29442 8.93078 17.09091 9.181818 17.09091 Z " fill-rule="evenodd"/>
</clipPath>
<g clip-path="url(#cp4)">
<clipPath id="cp5">
<path transform="matrix(1,0,0,-1,0,24)" d="M -372 -1068 L 891 -1068 L 891 195 L -372 195 Z "/>
</clipPath>
<g clip-path="url(#cp5)">
<path transform="matrix(1,0,0,-1,0,24)" d="M 3.727273 23 L 14.63636 23 L 14.63636 12.09091 L 3.727273 12.09091 Z " />
</g>
</g>
<clipPath id="cp6">
<path transform="matrix(1,0,0,-1,0,24)" d="M 11.90909 0 C 12.16013 0 12.36364 .2035069 12.36364 .4545455 C 12.36364 .705584 12.16013 .9090909 11.90909 .9090909 C 11.65805 .9090909 11.45455 .705584 11.45455 .4545455 C 11.45455 .2035069 11.65805 0 11.90909 0 Z " fill-rule="evenodd"/>
</clipPath>
<g clip-path="url(#cp6)">
<clipPath id="cp7">
<path transform="matrix(1,0,0,-1,0,24)" d="M -372 -1068 L 891 -1068 L 891 195 L -372 195 Z "/>
</clipPath>
<g clip-path="url(#cp7)">
<path transform="matrix(1,0,0,-1,0,24)" d="M 6.454545 5.909091 L 17.36364 5.909091 L 17.36364 -5 L 6.454545 -5 Z " />
</g>
</g>
<clipPath id="cp8">
<path transform="matrix(1,0,0,-1,0,24)" d="M 1.406267 .9375 L .468771 .9375 C .2098814 .9375 0 .7276406 0 .46875 C 0 .2098594 .2098814 0 .468771 0 L 9.89061 0 C 10.1495 0 10.35936 .2098594 10.35936 .46875 C 10.35936 .7276406 10.1495 .9375 9.89061 .9375 L 8.249991 .9375 L 8.249991 4.78125 C 8.249991 6.864797 9.967297 8.625 11.99998 8.625 C 14.03266 8.625 15.74996 6.864797 15.74996 4.78125 L 15.74996 .9375 L 14.10934 .9375 C 13.85045 .9375 13.6406 .7276406 13.6406 .46875 C 13.6406 .2098594 13.85045 0 14.10934 0 L 23.53118 0 C 23.79007 0 24 .2098594 24 .46875 C 24 .7276406 23.79007 .9375 23.53118 .9375 L 22.59369 .9375 L 22.59369 16.25822 L 23.28012 15.82294 C 23.49921 15.684 23.78867 15.74958 23.92704 15.96773 C 24.0657 16.18636 24.00087 16.476 23.78224 16.61466 L 12.25104 23.92716 C 12.09776 24.02428 11.90224 24.02428 11.74896 23.92716 L .2177563 16.61466 C -.0008678112 16.476 -.06569569 16.18636 .07296003 15.96773 C .2116157 15.74906 .5013021 15.68433 .7198794 15.82294 L 1.406314 16.25822 L 1.406314 .9375 L 1.406267 .9375 Z M 8.778317 12.9375 C 9.026097 11.97103 10.00991 11.34295 11.02339 11.5807 C 11.68062 11.73502 12.31948 11.73502 12.9768 11.58066 C 13.98892 11.34352 14.97353 11.97028 15.22164 12.9375 L 21.65624 12.9375 L 21.65624 9.5625 L 2.343811 9.5625 L 2.343811 12.9375 L 8.778317 12.9375 Z M 9.656236 13.40625 C 9.656236 13.92319 10.0768 14.34375 10.59373 14.34375 C 10.85262 14.34375 11.06248 14.55361 11.06248 14.8125 C 11.06248 15.32944 11.48304 15.75 11.99998 15.75 C 12.51691 15.75 12.93747 15.32944 12.93747 14.8125 C 12.93747 14.55361 13.14733 14.34375 13.40622 14.34375 C 13.92316 14.34375 14.34372 13.92319 14.34372 13.40625 C 14.34372 12.80283 13.78028 12.35522 13.19088 12.49336 C 12.40071 12.67889 11.59938 12.67889 10.80912 12.49336 C 10.21901 12.35498 9.656236 12.80283 9.656236 13.40625 Z M 2.343764 .9375 L 2.343764 4.3125 L 7.312495 4.3125 L 7.312495 .9375 L 2.343764 .9375 Z M 7.335276 5.25 L 2.343764 5.25 L 2.343764 8.625469 L 9.230237 8.625469 C 8.187085 7.833187 7.469338 6.626344 7.335276 5.25 Z M 14.76972 8.625 L 21.65619 8.625 L 21.65619 5.25 L 16.66472 5.25 C 16.53085 6.624047 15.81474 7.831781 14.76972 8.625 Z M 16.68746 4.3125 L 21.65619 4.3125 L 21.65619 .9375 L 16.68746 .9375 L 16.68746 4.3125 Z M 11.99998 22.9762 L 21.65619 16.85273 L 21.65619 13.875 L 15.22164 13.875 C 15.04754 14.54869 14.50769 15.07683 13.8273 15.23358 C 13.63567 16.06537 12.8891 16.6875 11.99998 16.6875 C 11.11085 16.6875 10.36428 16.06537 10.17266 15.23358 C 9.492267 15.07683 8.95241 14.54869 8.778317 13.875 L 2.343764 13.875 L 2.343764 16.85273 L 11.99998 22.9762 Z " fill-rule="evenodd"/>
</clipPath>
<g clip-path="url(#cp8)">
<clipPath id="cp9">
<path transform="matrix(1,0,0,-1,0,24)" d="M -372 -1068 L 891 -1068 L 891 195 L -372 195 Z "/>
</clipPath>
<g clip-path="url(#cp9)">
<path transform="matrix(1,0,0,-1,0,24)" d="M -5 29 L 29 29 L 29 -5 L -5 -5 Z " />
</g>
</g>
</g>
</svg>
