<?xml version="1.0" encoding="UTF-8" standalone="no"?>
<!DOCTYPE svg PUBLIC "-//W3C//DTD SVG 1.1//EN" "http://www.w3.org/Graphics/SVG/1.1/DTD/svg11.dtd">
<svg xmlns="http://www.w3.org/2000/svg" xmlns:xlink="http://www.w3.org/1999/xlink" version="1.1" width="32pt" height="30pt" viewBox="0 0 32 30">
<g enable-background="new">
<g>
<clipPath id="cp0">
<path transform="matrix(1,0,0,-1,0,30)" d="M .004682927 .0665968 L 31.968623 .0665968 L 31.968623 29.960867 L .004682927 29.960867 Z "/>
</clipPath>
<g clip-path="url(#cp0)">
<g>
<clipPath id="cp1">
<path transform="matrix(1,0,0,-1,0,30)" d="M 0 0 L 32 0 L 32 30 L 0 30 Z "/>
</clipPath>
<g clip-path="url(#cp1)">
<clipPath id="cp2">
<path transform="matrix(1,0,0,-1,0,30)" d="M 6.227122 18.8847 L 6.227122 24.40525 C 6.227122 24.46675 6.225951 24.52794 6.223766 24.58945 C 6.210341 24.99534 6.153054 25.39944 6.051824 25.79286 L 6.051824 25.79318 L 6.051824 25.79349 C 5.804878 26.75261 5.302166 27.63112 4.598166 28.33331 C 3.547239 29.38293 2.150322 29.96087 .6646634 29.96087 C .297522 29.96087 0 29.66364 0 29.29703 L 0 13.36501 C 0 13.28948 .002107317 13.21402 .00515122 13.13849 C .02044878 12.75543 .07438049 12.3769 .1667902 12.01091 L .1671024 12.0106 C .1671024 12.01029 .1671024 12.00998 .1671024 12.00998 C .1671024 12.00967 .1674146 12.00912 .1674146 12.00881 C .736 9.745167 2.643278 8.107868 4.922537 7.846885 C 5.133268 5.835652 6.693932 4.220023 8.68082 3.921312 L 8.68082 .7304341 C 8.68082 .3638269 8.978341 .0665968 9.345093 .0665968 L 10.54205 .0665968 C 10.90911 .0665968 11.20671 .3638269 11.20671 .7304341 C 11.20671 1.096729 10.90888 1.39396 10.54205 1.39396 L 10.00976 1.39396 L 10.00976 3.871657 L 12.84386 3.871657 L 12.84386 .7304341 C 12.84386 .3638269 13.14146 .0665968 13.50853 .0665968 L 14.70517 .0665968 C 15.07223 .0665968 15.36983 .3638269 15.36983 .7304341 C 15.36983 1.096729 15.07223 1.394271 14.70517 1.394271 L 14.17319 1.394271 L 14.17319 3.871657 L 19.89362 3.871657 L 19.89362 .7304341 C 19.89362 .3638269 20.19114 .0665968 20.55789 .0665968 L 21.75547 .0665968 C 22.12254 .0665968 22.42014 .3638269 22.42014 .7304341 C 22.42014 1.096729 22.12254 1.394271 21.75547 1.394271 L 21.22256 1.394271 L 21.22256 3.871657 L 24.05674 3.871657 L 24.05674 .7304341 C 24.05674 .3638269 24.35426 .0665968 24.72133 .0665968 L 25.91891 .0665968 C 26.28566 .0665968 26.58326 .3638269 26.58326 .7304341 C 26.58326 1.096729 26.28566 1.394271 25.91891 1.394271 L 25.38599 1.394271 L 25.38599 3.871657 L 29.97838 3.871657 C 30.51099 3.871657 31.01097 4.078697 31.38443 4.453255 C 31.76125 4.828125 31.96862 5.327172 31.96862 5.858492 C 31.96862 9.163881 29.50033 11.90404 26.30821 12.33792 L 26.30821 13.37811 C 26.30821 14.53281 25.36796 15.47213 24.2119 15.47213 C 23.65854 15.47213 23.1552 15.25659 22.78018 14.9055 C 22.40484 15.25659 21.9015 15.47213 21.34814 15.47213 C 20.19239 15.47213 19.25182 14.53281 19.25182 13.37811 L 19.25182 12.39826 L 6.227122 12.39826 L 6.227122 18.8847 Z M 4.866185 9.194905 C 3.545132 9.415665 2.357932 10.28958 1.765854 11.49082 C 1.764605 11.49324 1.763434 11.49573 1.761873 11.49815 C 1.76039 11.5015 1.758829 11.50516 1.757034 11.50851 L 4.897873 11.50851 L 4.897873 9.189761 C 4.88718 9.191553 4.876488 9.193113 4.866185 9.194905 Z M 1.329249 16.19287 L 4.897873 16.19287 L 4.897873 18.22086 L 1.329249 18.22086 L 1.329249 16.19287 Z M 4.897873 12.83611 L 1.362185 12.83611 C 1.361873 12.83736 1.361561 12.83884 1.361561 12.84009 C 1.297561 13.35683 1.329249 13.89181 1.329249 14.41159 L 1.329249 14.86527 L 4.897873 14.86527 L 4.897873 12.83611 Z M 1.329249 19.54846 L 4.897873 19.54846 L 4.897873 21.57739 L 1.329249 21.57739 L 1.329249 19.54846 Z M 4.864937 24.93415 C 4.867668 24.91045 4.870088 24.88699 4.872585 24.86321 C 4.874693 24.84372 4.877112 24.82392 4.878985 24.80412 C 4.881717 24.77676 4.883512 24.74932 4.885385 24.72196 C 4.886556 24.7052 4.888429 24.68813 4.889366 24.67137 C 4.891473 24.64089 4.89241 24.61018 4.89358 24.57939 C 4.894205 24.56575 4.895141 24.55203 4.895766 24.53831 C 4.896937 24.49388 4.897873 24.44968 4.897873 24.40525 L 4.897873 22.90499 L 1.329249 22.90499 L 1.329249 24.93415 L 4.864937 24.93415 Z M 1.329249 28.58175 C 2.207298 28.44416 3.017366 28.03429 3.658537 27.39392 C 3.696624 27.35619 3.733854 27.31721 3.770146 27.27792 C 3.78201 27.26537 3.793327 27.25259 3.804566 27.23981 C 3.829541 27.21244 3.853971 27.18469 3.878322 27.15671 C 3.890888 27.14205 3.903063 27.12748 3.915551 27.11282 C 3.939044 27.08484 3.961912 27.05654 3.984468 27.02793 C 3.995395 27.01421 4.006712 27.00018 4.017405 26.98646 C 4.046361 26.94873 4.075005 26.91069 4.102712 26.87203 C 4.106068 26.86743 4.109737 26.86283 4.113093 26.858 C 4.144234 26.81473 4.174049 26.77061 4.203317 26.7261 C 4.212215 26.71309 4.22041 26.69968 4.228995 26.68627 C 4.249678 26.65431 4.269815 26.62204 4.289639 26.58945 C 4.299083 26.57355 4.308527 26.55773 4.317971 26.5419 C 4.336546 26.51025 4.354888 26.47829 4.372527 26.44602 C 4.3808 26.43074 4.389307 26.41586 4.39758 26.40065 C 4.418888 26.36074 4.439649 26.32052 4.459785 26.28006 C 4.462829 26.27398 4.466185 26.2679 4.469229 26.26174 L 1.329249 26.26174 L 1.329249 28.58175 Z M 30.63961 5.858803 C 30.63961 5.682788 30.571 5.517764 30.4448 5.39234 C 30.3207 5.267773 30.15516 5.199253 29.97838 5.199253 L 9.345093 5.199253 C 7.625912 5.199253 6.227122 6.595993 6.227122 8.312803 L 6.227122 11.07089 L 8.203941 11.07089 L 8.203941 10.10655 C 8.203941 9.739944 8.501541 9.442792 8.868605 9.442792 C 9.235668 9.442792 9.533268 9.739944 9.533268 10.10655 L 9.533268 11.07089 L 11.45608 11.07089 L 11.45608 10.10655 C 11.45608 9.739944 11.75368 9.442792 12.12074 9.442792 C 12.4878 9.442792 12.78533 9.739944 12.78533 10.10655 L 12.78533 11.07089 L 14.70736 11.07089 L 14.70736 10.10655 C 14.70736 9.739944 15.00519 9.442792 15.37194 9.442792 C 15.739 9.442792 16.0366 9.739944 16.0366 10.10655 L 16.0366 11.07089 L 17.95887 11.07089 L 17.95887 10.10655 C 17.95887 9.739944 18.25639 9.442792 18.62345 9.442792 C 18.9902 9.442792 19.28812 9.739944 19.28812 10.10655 L 19.28812 11.07089 L 25.42072 11.07089 C 28.29846 11.07089 30.63961 8.732651 30.63961 5.858803 Z M 24.21221 14.14453 C 24.63508 14.14453 24.97928 13.80076 24.97928 13.37811 L 24.97928 12.39857 L 23.44484 12.39857 L 23.44484 13.37811 C 23.44484 13.80076 23.78903 14.14453 24.21221 14.14453 Z M 20.58107 13.37811 C 20.58107 13.80076 20.92527 14.14453 21.34845 14.14453 C 21.77132 14.14453 22.11551 13.80076 22.11551 13.37811 L 22.11551 12.39857 L 20.58107 12.39857 L 20.58107 13.37811 Z " fill-rule="evenodd"/>
</clipPath>
<g clip-path="url(#cp2)">
<clipPath id="cp3">
<path transform="matrix(1,0,0,-1,0,30)" d="M 0 0 L 32 0 L 32 30 L 0 30 Z "/>
</clipPath>
<g clip-path="url(#cp3)">
<path transform="matrix(1,0,0,-1,0,30)" d="M -5 34.96087 L 36.96862 34.96087 L 36.96862 -4.933403 L -5 -4.933403 Z " />
</g>
</g>
</g>
</g>
</g>
</g>
</g>
</svg>
