<?xml version="1.0" encoding="UTF-8" standalone="no"?>
<!DOCTYPE svg PUBLIC "-//W3C//DTD SVG 1.1//EN" "http://www.w3.org/Graphics/SVG/1.1/DTD/svg11.dtd">
<svg xmlns="http://www.w3.org/2000/svg" xmlns:xlink="http://www.w3.org/1999/xlink" version="1.1" width="15pt" height="13pt" viewBox="0 0 15 13">
<g enable-background="new">
<clipPath id="cp0">
<path transform="matrix(1,0,0,-1,0,13)" d="M 6.176471 7.892857 C 6.292452 7.892857 6.406365 7.942006 6.488396 8.028878 C 6.570427 8.115206 6.617647 8.234542 6.617647 8.357143 C 6.617647 8.479199 6.570427 8.599079 6.488396 8.685407 C 6.406365 8.771735 6.292452 8.821429 6.176471 8.821429 C 6.060489 8.821429 5.946576 8.771735 5.864545 8.685407 C 5.782514 8.599079 5.735294 8.479199 5.735294 8.357143 C 5.735294 8.234542 5.782514 8.115206 5.864545 8.028878 C 5.946576 7.942006 6.060489 7.892857 6.176471 7.892857 Z " fill-rule="evenodd"/>
</clipPath>
<g clip-path="url(#cp0)">
<clipPath id="cp1">
<path transform="matrix(1,0,0,-1,0,13)" d="M -724 -1060 L 539 -1060 L 539 203 L -724 203 Z "/>
</clipPath>
<g clip-path="url(#cp1)">
<path transform="matrix(1,0,0,-1,0,13)" d="M .7352941 13.82143 L 11.61765 13.82143 L 11.61765 2.892857 L .7352941 2.892857 Z " />
</g>
</g>
<clipPath id="cp2">
<path transform="matrix(1,0,0,-1,0,13)" d="M 11.91176 8.821429 C 12.02775 8.821429 12.14149 8.871093 12.22352 8.95737 C 12.30572 9.044191 12.35294 9.163458 12.35294 9.285986 C 12.35294 9.407971 12.30572 9.5276 12.22352 9.613877 C 12.14149 9.700155 12.02775 9.75 11.91176 9.75 C 11.79561 9.75 11.68187 9.700336 11.59984 9.613877 C 11.51764 9.5276 11.47059 9.407971 11.47059 9.285986 C 11.47059 9.163458 11.51764 9.044191 11.59984 8.95737 C 11.68187 8.871093 11.79561 8.821429 11.91176 8.821429 Z " fill-rule="evenodd"/>
</clipPath>
<g clip-path="url(#cp2)">
<clipPath id="cp3">
<path transform="matrix(1,0,0,-1,0,13)" d="M -724 -1060 L 539 -1060 L 539 203 L -724 203 Z "/>
</clipPath>
<g clip-path="url(#cp3)">
<path transform="matrix(1,0,0,-1,0,13)" d="M 6.470588 14.75 L 17.35294 14.75 L 17.35294 3.821429 L 6.470588 3.821429 Z " />
</g>
</g>
<clipPath id="cp4">
<path transform="matrix(1,0,0,-1,0,13)" d="M 12.33165 7.107873 L 13.22213 7.107873 C 13.93609 7.107873 14.56711 7.554214 14.82965 8.245115 L 14.97475 8.626629 C 15.03312 8.779936 14.98794 8.954997 14.86361 9.057347 L 12.80145 10.75482 L 12.80145 12.62618 C 12.80145 12.72634 12.76286 12.82226 12.69439 12.89249 C 12.62591 12.96272 12.53414 13.00156 12.4369 13 C 11.64801 12.98754 10.93097 12.49492 10.61005 11.74503 L 10.34835 11.13312 L 8.81773 8.527199 L 7.664289 8.527199 C 7.465875 8.527199 7.305066 8.359876 7.305066 8.153423 C 7.305066 7.94697 7.465875 7.779647 7.664289 7.779647 L 8.713752 7.779647 L 11.20445 5.188184 C 11.0755 4.86989 10.88775 4.583572 10.65075 4.343976 C 10.6405 4.334923 10.63082 4.325433 10.62156 4.315505 C 10.45893 4.156212 10.27469 4.01809 10.07122 3.906395 C 9.987728 3.860695 9.925005 3.782728 9.896379 3.689284 L 9.003515 .7780669 C 8.998042 .7598162 8.981905 .7475516 8.963383 .7475516 L 8.076132 .7475516 C 8.07094 .7475516 8.055084 .7475516 8.042455 .7650724 C 8.029826 .7825931 8.034316 .7983618 8.035719 .803618 L 8.77409 3.446476 C 8.805522 3.559339 8.784193 3.681108 8.716418 3.775136 C 8.648502 3.86931 8.542139 3.9245 8.42918 3.9245 L 4.096901 3.9245 C 3.953914 3.9245 3.824538 3.836312 3.767427 3.699797 C 3.64661 3.410558 2.992152 1.47656 2.746309 .7475516 L 1.871687 .7475516 C 1.859058 .7475516 1.848534 .7525158 1.840255 .7621523 C 1.831836 .7719346 1.828328 .7834691 1.829871 .7964637 L 2.391296 5.767828 C 2.520813 6.914707 3.455353 7.779647 4.565153 7.779647 L 4.790509 7.779647 C 4.988924 7.779647 5.149732 7.94697 5.149732 8.153423 C 5.149732 8.35973 4.988924 8.527199 4.790509 8.527199 L 4.565153 8.527199 C 3.794509 8.527199 3.087851 8.212702 2.564032 7.695402 C 2.559963 7.692044 2.555753 7.689123 2.551964 7.685619 C 1.962475 7.156785 1.18313 6.923467 .4133279 7.045382 C .2170185 7.076627 .03389925 6.936316 .004151175 6.732199 C -.02573728 6.528228 .1089711 6.337544 .3051403 6.306445 C .4754903 6.279434 .6461209 6.266147 .8157693 6.266147 C 1.149173 6.266147 1.478507 6.318125 1.794229 6.417702 C 1.739224 6.237238 1.699653 6.049182 1.677763 5.85514 L 1.116337 .8837754 C 1.090939 .6595099 1.159135 .4342224 1.303386 .2654392 C 1.447636 .09680207 1.65475 0 1.871687 0 L 3.000992 0 C 3.153662 0 3.289633 .1004523 3.340009 .2504006 C 3.417045 .4793383 3.531828 .8195327 3.658678 1.193454 L 3.86046 .5469391 C 3.962474 .2197393 4.253219 0 4.583816 0 L 5.479487 0 C 5.719155 0 5.939881 .1137388 6.084973 .3123072 C 6.230065 .5108756 6.276512 .7624442 6.212525 1.00277 L 5.633139 3.176948 L 7.950684 3.176948 L 7.3459 1.012261 C 7.278405 .7709126 7.323027 .5171539 7.467979 .3162494 C 7.613072 .1151989 7.834779 0 8.076272 0 L 8.963523 0 C 9.295804 0 9.586971 .2213454 9.688142 .5507353 L 9.80082 .9185249 L 10.099 .3904205 C 10.23511 .1496563 10.48629 0 10.75486 0 L 11.65601 0 C 11.90676 0 12.14096 .1281934 12.28296 .3432605 C 12.42497 .5581816 12.45598 .8317972 12.36603 1.075189 L 11.29861 3.966112 C 11.69109 4.419315 11.95952 4.981293 12.06813 5.601965 L 12.33165 7.107873 Z M 5.52018 .80318 C 5.521443 .7979238 5.525652 .7821551 5.513024 .7649263 C 5.500395 .7475516 5.484679 .7475516 5.479487 .7475516 L 4.583816 .7475516 C 4.565434 .7475516 4.549437 .7598162 4.543684 .7779209 L 4.053261 2.349677 C 4.168185 2.68374 4.271321 2.97984 4.342183 3.177094 L 4.887612 3.177094 L 5.52018 .80318 Z M 9.740342 8.664299 L 11.50109 6.832213 C 11.51527 6.817466 11.53042 6.804618 11.54614 6.792937 L 11.41255 6.028741 L 9.413814 8.108453 L 9.740342 8.664299 Z M 10.97349 10.76401 C 10.98162 10.77774 10.98892 10.79219 10.99523 10.80694 L 11.26648 11.44104 C 11.42293 11.80679 11.72505 12.07778 12.08301 12.19239 L 12.08301 10.57391 C 12.08301 10.45974 12.13324 10.35184 12.2194 10.28088 L 14.20845 8.643274 L 14.16158 8.520045 C 14.00821 8.116337 13.63945 7.855424 13.22213 7.855424 L 12.03179 7.855424 C 11.89862 7.855424 11.78019 7.779209 11.71831 7.663426 L 10.12566 9.32045 L 10.97349 10.76401 Z M 11.69081 .7665324 C 11.67818 .7475516 11.66162 .7475516 11.65601 .7475516 L 10.75486 .7475516 C 10.73999 .7475516 10.7261 .755874 10.71852 .7691605 L 10.09409 1.874865 L 10.53765 3.321203 C 10.60065 3.359748 10.66211 3.40063 10.72203 3.442972 L 11.69544 .8071222 C 11.6974 .8017199 11.70344 .7855132 11.69081 .7665324 Z " fill-rule="evenodd"/>
</clipPath>
<g clip-path="url(#cp4)">
<clipPath id="cp5">
<path transform="matrix(1,0,0,-1,0,13)" d="M -724 -1060 L 539 -1060 L 539 203 L -724 203 Z "/>
</clipPath>
<g clip-path="url(#cp5)">
<path transform="matrix(1,0,0,-1,0,13)" d="M -5 18.00005 L 20 18.00005 L 20 -5 L -5 -5 Z " />
</g>
</g>
</g>
</svg>
