<?xml version="1.0" encoding="UTF-8" standalone="no"?>
<!DOCTYPE svg PUBLIC "-//W3C//DTD SVG 1.1//EN" "http://www.w3.org/Graphics/SVG/1.1/DTD/svg11.dtd">
<svg xmlns="http://www.w3.org/2000/svg" xmlns:xlink="http://www.w3.org/1999/xlink" version="1.1" width="24pt" height="24pt" viewBox="0 0 24 24">
<g enable-background="new">
<clipPath id="cp0">
<path transform="matrix(1,0,0,-1,0,24)" d="M 20.1156 19.23029 C 20.10938 19.48462 19.90155 19.6875 19.64703 19.6875 L 15.95563 19.6875 L 15.95563 19.78125 C 15.95563 22.1076 14.08649 24 11.78906 24 C 9.491455 24 7.622314 22.1076 7.622314 19.78125 L 7.622314 19.6875 L 3.930908 19.6875 C 3.676575 19.6875 3.468567 19.48462 3.462341 19.23029 L 3.000041 .4802857 C 2.99707 .354126 3.045044 .2318115 3.133301 .1413574 C 3.221558 .05108644 3.342407 0 3.46875 0 L 15.48669 0 C 15.74561 0 15.95544 .2098388 15.95544 .46875 C 15.95544 .7276612 15.74561 .9375 15.48669 .9375 L 3.949219 .9375 L 4.388306 18.75 L 7.622314 18.75 L 7.622314 17.40491 C 7.058167 17.20807 6.651672 16.66699 6.651672 16.03125 C 6.651672 15.22998 7.297302 14.57812 8.091064 14.57812 C 8.884827 14.57812 9.53064 15.22998 9.53064 16.03125 C 9.53064 16.66699 9.124146 17.20807 8.559814 17.40491 L 8.559814 18.75 L 9.93988 18.75 C 10.19879 18.75 10.40863 18.95984 10.40863 19.21875 C 10.40863 19.47748 10.19879 19.6875 9.93988 19.6875 L 8.559814 19.6875 L 8.559814 19.78125 C 8.559814 21.59052 10.00836 23.0625 11.78906 23.0625 C 13.56958 23.0625 15.01813 21.59052 15.01813 19.78125 L 15.01813 19.6875 L 13.63788 19.6875 C 13.37897 19.6875 13.16913 19.47748 13.16913 19.21875 C 13.16913 18.95984 13.37897 18.75 13.63788 18.75 L 15.01813 18.75 L 15.01813 17.40491 C 14.45398 17.20807 14.04749 16.66699 14.04749 16.03125 C 14.04749 15.22998 14.69312 14.57812 15.48688 14.57812 C 16.28064 14.57812 16.92645 15.22998 16.92645 16.03125 C 16.92645 16.66699 16.51996 17.20807 15.95563 17.40491 L 15.95563 18.75 L 19.18964 18.75 L 19.62891 .9375 L 19.18451 .9375 C 18.92578 .9375 18.71576 .7276612 18.71576 .46875 C 18.71576 .2098388 18.92578 0 19.18451 0 L 20.10938 0 C 20.23572 0 20.35657 .05108644 20.44482 .1413574 C 20.53308 .2318115 20.58105 .354126 20.57808 .4802857 L 20.1156 19.23029 Z M 8.091064 15.51562 C 7.814392 15.51562 7.589172 15.74707 7.589172 16.03125 C 7.589172 16.31543 7.814209 16.54669 8.090698 16.54688 L 8.091064 16.54688 L 8.091614 16.54688 C 8.368103 16.54669 8.59314 16.31543 8.59314 16.03125 C 8.59314 15.74707 8.36792 15.51562 8.091064 15.51562 Z M 15.48688 15.51562 C 15.21021 15.51562 14.98499 15.74707 14.98499 16.03125 C 14.98499 16.31543 15.21002 16.54669 15.48651 16.54688 L 15.48688 16.54688 L 15.48743 16.54688 C 15.7641 16.54669 15.98895 16.31543 15.98895 16.03125 C 15.98895 15.74707 15.76373 15.51562 15.48688 15.51562 Z " fill-rule="evenodd"/>
</clipPath>
<g clip-path="url(#cp0)">
<clipPath id="cp1">
<path transform="matrix(1,0,0,-1,0,24)" d="M -806 -1155 L 457 -1155 L 457 108 L -806 108 Z "/>
</clipPath>
<g clip-path="url(#cp1)">
<path transform="matrix(1,0,0,-1,0,24)" d="M -2.00009 29 L 25.57821 29 L 25.57821 -5 L -2.00009 -5 Z " />
</g>
</g>
<clipPath id="cp2">
<path transform="matrix(1,0,0,-1,0,24)" d="M 12.25781 19.21875 C 12.25781 19.47748 12.04779 19.6875 11.78906 19.6875 L 11.7887 19.6875 C 11.52979 19.6875 11.32013 19.47748 11.32013 19.21875 C 11.32013 18.95984 11.53015 18.75 11.78906 18.75 C 12.04797 18.75 12.25781 18.95984 12.25781 19.21875 Z " fill-rule="evenodd"/>
</clipPath>
<g clip-path="url(#cp2)">
<clipPath id="cp3">
<path transform="matrix(1,0,0,-1,0,24)" d="M -806 -1155 L 457 -1155 L 457 108 L -806 108 Z "/>
</clipPath>
<g clip-path="url(#cp3)">
<path transform="matrix(1,0,0,-1,0,24)" d="M 6.320129 24.6875 L 17.25781 24.6875 L 17.25781 13.75 L 6.320129 13.75 Z " />
</g>
</g>
<clipPath id="cp4">
<path transform="matrix(1,0,0,-1,0,24)" d="M 17.33588 .9375 L 17.33551 .9375 C 17.0766 .9375 16.86694 .7276612 16.86694 .46875 C 16.86694 .2098388 17.07697 0 17.33588 0 C 17.59479 0 17.80463 .2098388 17.80463 .46875 C 17.80463 .7276612 17.5946 .9375 17.33588 .9375 Z " fill-rule="evenodd"/>
</clipPath>
<g clip-path="url(#cp4)">
<clipPath id="cp5">
<path transform="matrix(1,0,0,-1,0,24)" d="M -806 -1155 L 457 -1155 L 457 108 L -806 108 Z "/>
</clipPath>
<g clip-path="url(#cp5)">
<path transform="matrix(1,0,0,-1,0,24)" d="M 11.86694 5.9375 L 22.80463 5.9375 L 22.80463 -5 L 11.86694 -5 Z " />
</g>
</g>
<clipPath id="cp6">
<path transform="matrix(1,0,0,-1,0,24)" d="M 10.88269 3.462891 C 11.17511 3.477539 11.47742 3.49292 11.78906 3.49292 C 12.10052 3.49292 12.40302 3.477539 12.69543 3.462891 C 12.96149 3.449341 13.21729 3.436523 13.45953 3.436523 C 14.07239 3.436523 14.59808 3.519104 14.98315 3.885132 C 15.30908 4.195129 15.46747 4.653076 15.46747 5.285522 C 15.46747 7.338684 13.81732 9.009155 11.78906 9.009155 C 9.76062 9.009155 8.110474 7.338684 8.110474 5.285522 C 8.110474 4.653076 8.269043 4.195129 8.594971 3.885132 C 9.132202 3.374451 9.943359 3.415283 10.88269 3.462891 Z M 11.78906 8.071838 C 13.30042 8.071838 14.52997 6.82196 14.52997 5.285522 C 14.52997 4.928833 14.46515 4.686401 14.33716 4.564636 C 14.09143 4.330994 13.43628 4.364136 12.74268 4.399109 C 12.43872 4.41449 12.12433 4.43042 11.78906 4.43042 C 11.4538 4.43042 11.1394 4.41449 10.83545 4.399109 C 10.14166 4.364136 9.486694 4.330994 9.240967 4.564636 C 9.112976 4.686401 9.047974 4.928833 9.047974 5.285522 C 9.047974 6.82196 10.27771 8.071838 11.78906 8.071838 Z " fill-rule="evenodd"/>
</clipPath>
<g clip-path="url(#cp6)">
<clipPath id="cp7">
<path transform="matrix(1,0,0,-1,0,24)" d="M -806 -1155 L 457 -1155 L 457 108 L -806 108 Z "/>
</clipPath>
<g clip-path="url(#cp7)">
<path transform="matrix(1,0,0,-1,0,24)" d="M 3.110474 14.00916 L 20.46747 14.00916 L 20.46747 -1.563554 L 3.110474 -1.563554 Z " />
</g>
</g>
<clipPath id="cp8">
<path transform="matrix(1,0,0,-1,0,24)" d="M 10.32751 10.92407 C 10.32751 10.0545 10.98303 9.347168 11.78906 9.347168 C 12.59491 9.347168 13.25061 10.0545 13.25061 10.92407 C 13.25061 11.79364 12.59491 12.50098 11.78906 12.50098 C 10.98303 12.50098 10.32751 11.79364 10.32751 10.92407 Z M 11.78906 11.56348 C 12.07306 11.56348 12.31311 11.27069 12.31311 10.92407 C 12.31311 10.57745 12.07306 10.28467 11.78906 10.28467 C 11.50488 10.28467 11.26501 10.57745 11.26501 10.92407 C 11.26501 11.27069 11.50488 11.56348 11.78906 11.56348 Z " fill-rule="evenodd"/>
</clipPath>
<g clip-path="url(#cp8)">
<clipPath id="cp9">
<path transform="matrix(1,0,0,-1,0,24)" d="M -806 -1155 L 457 -1155 L 457 108 L -806 108 Z "/>
</clipPath>
<g clip-path="url(#cp9)">
<path transform="matrix(1,0,0,-1,0,24)" d="M 5.327515 17.50098 L 18.25061 17.50098 L 18.25061 4.347168 L 5.327515 4.347168 Z " />
</g>
</g>
<clipPath id="cp10">
<path transform="matrix(1,0,0,-1,0,24)" d="M 9.452637 10.45001 C 9.236572 10.82941 8.880798 11.10901 8.476685 11.21741 C 8.106079 11.31665 7.724487 11.26758 7.402222 11.07898 C 6.707886 10.6723 6.490723 9.730591 6.918274 8.979492 C 7.134338 8.600098 7.490112 8.320496 7.894226 8.212097 C 8.019653 8.178589 8.145996 8.161926 8.271057 8.161926 C 8.516052 8.161926 8.755371 8.225647 8.968689 8.350525 C 9.663025 8.757019 9.880188 9.698914 9.452637 10.45001 Z M 8.494995 9.159485 C 8.361511 9.081299 8.226563 9.093567 8.136841 9.117737 C 7.973145 9.161499 7.825928 9.280151 7.733093 9.443298 C 7.558228 9.750549 7.622314 10.12134 7.875916 10.26984 C 7.953003 10.31488 8.030457 10.3299 8.099487 10.3299 C 8.150208 10.3299 8.196167 10.32184 8.23407 10.31177 C 8.397949 10.26782 8.544983 10.14917 8.637817 9.986206 C 8.812683 9.678955 8.748596 9.308167 8.494995 9.159485 Z " fill-rule="evenodd"/>
</clipPath>
<g clip-path="url(#cp10)">
<clipPath id="cp11">
<path transform="matrix(1,0,0,-1,0,24)" d="M -806 -1155 L 457 -1155 L 457 108 L -806 108 Z "/>
</clipPath>
<g clip-path="url(#cp11)">
<path transform="matrix(1,0,0,-1,0,24)" d="M 1.699081 16.26755 L 14.67183 16.26755 L 14.67183 3.161926 L 1.699081 3.161926 Z " />
</g>
</g>
<clipPath id="cp12">
<path transform="matrix(1,0,0,-1,0,24)" d="M 16.17572 11.07898 C 15.85364 11.26758 15.47205 11.31665 15.10144 11.21741 C 14.69714 11.10901 14.34137 10.82941 14.12549 10.45001 C 13.69794 9.698914 13.91492 8.757202 14.60944 8.350525 C 14.82275 8.225647 15.06189 8.161926 15.30688 8.161926 C 15.43195 8.161926 15.55847 8.178589 15.6839 8.212097 C 16.08801 8.320496 16.44379 8.600098 16.65967 8.979492 C 17.08722 9.730591 16.87024 10.6723 16.17572 11.07898 Z M 15.84503 9.443298 C 15.7522 9.280151 15.60498 9.161499 15.4411 9.117737 C 15.35175 9.09375 15.21661 9.081482 15.08313 9.159668 C 14.82935 9.308167 14.76526 9.678955 14.94012 9.986206 C 15.03296 10.14935 15.18018 10.26801 15.34406 10.31177 C 15.38196 10.32202 15.42792 10.33008 15.47845 10.33008 C 15.54749 10.33008 15.62494 10.31506 15.70203 10.27002 C 15.95581 10.12134 16.0199 9.750549 15.84503 9.443298 Z " fill-rule="evenodd"/>
</clipPath>
<g clip-path="url(#cp12)">
<clipPath id="cp13">
<path transform="matrix(1,0,0,-1,0,24)" d="M -806 -1155 L 457 -1155 L 457 108 L -806 108 Z "/>
</clipPath>
<g clip-path="url(#cp13)">
<path transform="matrix(1,0,0,-1,0,24)" d="M 8.906252 16.26755 L 21.8789 16.26755 L 21.8789 3.161926 L 8.906252 3.161926 Z " />
</g>
</g>
</g>
</svg>
