<?xml version="1.0" encoding="UTF-8" standalone="no"?>
<!DOCTYPE svg PUBLIC "-//W3C//DTD SVG 1.1//EN" "http://www.w3.org/Graphics/SVG/1.1/DTD/svg11.dtd">
<svg xmlns="http://www.w3.org/2000/svg" xmlns:xlink="http://www.w3.org/1999/xlink" version="1.1" width="24pt" height="24pt" viewBox="0 0 24 24">
<g enable-background="new">
<clipPath id="cp0">
<path transform="matrix(1,0,0,-1,0,24)" d="M 20.66447 7.92014 C 20.40608 7.92014 20.19663 7.71069 20.19663 7.452304 C 20.19663 3.926035 17.32781 1.057216 13.80154 1.057216 C 10.27527 1.057216 7.406456 3.926035 7.406456 7.452304 L 7.406456 8.434058 L 10.00393 13.21174 C 11.86938 14.51509 12.7563 16.86269 12.47443 19.72908 C 13.13464 19.94634 13.61282 20.56837 13.61282 21.3004 C 13.61282 22.21244 12.87083 22.95443 11.95878 22.95443 C 11.04674 22.95443 10.30475 22.21244 10.30475 21.3004 C 10.30475 20.53408 10.82868 19.888 11.53703 19.70101 C 11.81015 17.08655 11.0189 14.98101 9.338713 13.89071 C 7.86924 12.93717 5.949427 12.92519 4.44786 13.86026 C 2.709895 14.94255 1.85848 17.05988 2.083088 19.70306 C 2.787789 19.89249 3.308211 20.5367 3.308211 21.3004 C 3.308211 22.21244 2.566222 22.95443 1.654175 22.95443 C .7421287 22.95443 0 22.21249 0 21.30044 C 0 20.56552 .4819181 19.94133 1.146199 19.72646 C .9075088 16.74657 1.916725 14.33483 3.952187 13.06667 L 6.470737 8.434105 L 6.470737 7.452304 C 6.470737 5.501801 7.235368 3.662971 8.623766 2.274573 C 10.01216 .8861754 11.85099 .1215439 13.8015 .1215439 C 15.75205 .1215439 17.59088 .8861754 18.97927 2.274573 C 20.36767 3.662971 21.1323 5.501754 21.1323 7.452304 C 21.1323 7.71069 20.92285 7.92014 20.66447 7.92014 Z M 11.24033 21.30044 C 11.24033 21.69656 11.56257 22.01881 11.95869 22.01881 C 12.35481 22.01881 12.67705 21.69656 12.67705 21.30044 C 12.67705 20.90433 12.35481 20.58204 11.95869 20.58204 C 11.56257 20.58204 11.24033 20.90433 11.24033 21.30044 Z M .9356725 21.30044 C .9356725 21.69656 1.257918 22.01881 1.654035 22.01881 C 2.050152 22.01881 2.372398 21.69656 2.372398 21.30044 C 2.372398 20.90433 2.050152 20.58204 1.654035 20.58204 C 1.257918 20.58204 .9356725 20.90433 .9356725 21.30044 Z M 5.355322 12.44487 C 5.852257 12.3032 6.364678 12.23219 6.876538 12.23223 C 7.441637 12.23223 8.005801 12.3193 8.547462 12.49179 L 6.93862 9.532538 L 5.355322 12.44487 Z " fill-rule="evenodd"/>
</clipPath>
<g clip-path="url(#cp0)">
<clipPath id="cp1">
<path transform="matrix(1,0,0,-1,0,24)" d="M -713 -1155 L 550 -1155 L 550 108 L -713 108 Z "/>
</clipPath>
<g clip-path="url(#cp1)">
<path transform="matrix(1,0,0,-1,0,24)" d="M -5 27.95443 L 26.1323 27.95443 L 26.1323 -4.878456 L -5 -4.878456 Z " />
</g>
</g>
<clipPath id="cp2">
<path transform="matrix(1,0,0,-1,0,24)" d="M 20.66447 9.205193 C 20.40608 9.205193 20.19663 8.995743 20.19663 8.737357 L 20.19663 8.730807 C 20.19663 8.472421 20.40608 8.262971 20.66447 8.262971 C 20.92285 8.262971 21.1323 8.472421 21.1323 8.730807 L 21.1323 8.737357 C 21.1323 8.995743 20.92285 9.205193 20.66447 9.205193 Z " fill-rule="evenodd"/>
</clipPath>
<g clip-path="url(#cp2)">
<clipPath id="cp3">
<path transform="matrix(1,0,0,-1,0,24)" d="M -713 -1155 L 550 -1155 L 550 108 L -713 108 Z "/>
</clipPath>
<g clip-path="url(#cp3)">
<path transform="matrix(1,0,0,-1,0,24)" d="M 15.19663 14.20519 L 26.1323 14.20519 L 26.1323 3.262971 L 15.19663 3.262971 Z " />
</g>
</g>
<clipPath id="cp4">
<path transform="matrix(1,0,0,-1,0,24)" d="M 20.66451 17.53965 C 18.85109 17.53965 17.37577 16.05918 17.37577 14.23944 C 17.37577 12.57913 18.60412 11.20187 20.19663 10.97319 L 20.19663 10.03191 C 20.19663 9.77352 20.40608 9.56407 20.66447 9.56407 C 20.92285 9.56407 21.1323 9.77352 21.1323 10.03191 L 21.1323 10.97315 C 22.72487 11.20182 23.95326 12.57909 23.95326 14.23944 C 23.95326 16.05918 22.47794 17.53965 20.66451 17.53965 Z M 20.66451 13.66236 C 20.34863 13.66236 20.09165 13.92122 20.09165 14.23944 C 20.09165 14.55766 20.34863 14.81651 20.66451 14.81651 C 20.9804 14.81651 21.23738 14.55761 21.23738 14.23944 C 21.23738 13.92122 20.9804 13.66236 20.66451 13.66236 Z M 21.1323 11.92196 L 21.1323 12.8015 C 21.73577 12.99939 22.17305 13.56903 22.17305 14.23944 C 22.17305 15.07359 21.49633 15.75219 20.66451 15.75219 C 19.8327 15.75219 19.15598 15.07354 19.15598 14.23944 C 19.15598 13.56908 19.59322 12.99949 20.19663 12.80154 L 20.19663 11.92196 C 19.12253 12.14063 18.31144 13.09656 18.31144 14.23944 C 18.31144 15.54325 19.36702 16.60398 20.66451 16.60398 C 21.96201 16.60398 23.01759 15.54325 23.01759 14.23944 C 23.01759 13.09651 22.20646 12.14054 21.1323 11.92196 Z " fill-rule="evenodd"/>
</clipPath>
<g clip-path="url(#cp4)">
<clipPath id="cp5">
<path transform="matrix(1,0,0,-1,0,24)" d="M -713 -1155 L 550 -1155 L 550 108 L -713 108 Z "/>
</clipPath>
<g clip-path="url(#cp5)">
<path transform="matrix(1,0,0,-1,0,24)" d="M 12.37577 22.53965 L 28.95326 22.53965 L 28.95326 4.56407 L 12.37577 4.56407 Z " />
</g>
</g>
<clipPath id="cp6">
<path transform="matrix(1,0,0,-1,0,24)" d="M 13.80154 7.481404 C 12.42596 7.481404 11.30685 6.358596 11.30685 4.978433 C 11.30685 3.598363 12.42596 2.475509 13.80154 2.475509 C 15.17712 2.475509 16.29628 3.598316 16.29628 4.978433 C 16.29628 6.358596 15.17712 7.481404 13.80154 7.481404 Z M 13.80154 3.411228 C 12.94189 3.411228 12.24253 4.114292 12.24253 4.97848 C 12.24253 5.842667 12.94189 6.545778 13.80154 6.545778 C 14.66119 6.545778 15.36061 5.842713 15.36061 4.97848 C 15.36061 4.114292 14.66119 3.411228 13.80154 3.411228 Z " fill-rule="evenodd"/>
</clipPath>
<g clip-path="url(#cp6)">
<clipPath id="cp7">
<path transform="matrix(1,0,0,-1,0,24)" d="M -713 -1155 L 550 -1155 L 550 108 L -713 108 Z "/>
</clipPath>
<g clip-path="url(#cp7)">
<path transform="matrix(1,0,0,-1,0,24)" d="M 6.306854 12.4814 L 21.29628 12.4814 L 21.29628 -2.524491 L 6.306854 -2.524491 Z " />
</g>
</g>
<clipPath id="cp8">
<path transform="matrix(1,0,0,-1,0,24)" d="M 16.7935 10.06222 C 15.97352 10.06222 15.30639 9.356772 15.30639 8.489731 C 15.30639 7.622643 15.97352 6.917193 16.7935 6.917193 C 17.61352 6.917193 18.2807 7.622643 18.2807 8.489731 C 18.2807 9.356819 17.61352 10.06222 16.7935 10.06222 Z M 16.7935 7.852912 C 16.4894 7.852912 16.24206 8.13862 16.24206 8.489778 C 16.24206 8.840889 16.4894 9.126596 16.7935 9.126596 C 17.09759 9.126596 17.34503 8.840889 17.34503 8.489778 C 17.34503 8.13862 17.09759 7.852912 16.7935 7.852912 Z " fill-rule="evenodd"/>
</clipPath>
<g clip-path="url(#cp8)">
<clipPath id="cp9">
<path transform="matrix(1,0,0,-1,0,24)" d="M -713 -1155 L 550 -1155 L 550 108 L -713 108 Z "/>
</clipPath>
<g clip-path="url(#cp9)">
<path transform="matrix(1,0,0,-1,0,24)" d="M 10.30639 15.06222 L 23.2807 15.06222 L 23.2807 1.917193 L 10.30639 1.917193 Z " />
</g>
</g>
<clipPath id="cp10">
<path transform="matrix(1,0,0,-1,0,24)" d="M 13.83453 11.44313 C 13.0145 11.44313 12.34742 10.73768 12.34742 9.870596 C 12.34742 9.003509 13.01455 8.298058 13.83453 8.298058 C 14.65455 8.298058 15.32168 9.003509 15.32168 9.870596 C 15.32168 10.73768 14.65455 11.44313 13.83453 11.44313 Z M 13.83453 9.233731 C 13.53048 9.233731 13.28309 9.519392 13.28309 9.870596 C 13.28309 10.22175 13.53043 10.50746 13.83453 10.50746 C 14.13862 10.50746 14.38601 10.22175 14.38601 9.870596 C 14.38601 9.519439 14.13862 9.233731 13.83453 9.233731 Z " fill-rule="evenodd"/>
</clipPath>
<g clip-path="url(#cp10)">
<clipPath id="cp11">
<path transform="matrix(1,0,0,-1,0,24)" d="M -713 -1155 L 550 -1155 L 550 108 L -713 108 Z "/>
</clipPath>
<g clip-path="url(#cp11)">
<path transform="matrix(1,0,0,-1,0,24)" d="M 7.347415 16.44313 L 20.32168 16.44313 L 20.32168 3.298058 L 7.347415 3.298058 Z " />
</g>
</g>
<clipPath id="cp12">
<path transform="matrix(1,0,0,-1,0,24)" d="M 10.80959 10.06227 C 9.989614 10.06227 9.32248 9.356819 9.32248 8.489778 C 9.32248 7.62269 9.989614 6.91724 10.80959 6.91724 C 11.62961 6.91724 12.29675 7.62269 12.29675 8.489778 C 12.29675 9.356819 11.62961 10.06227 10.80959 10.06227 Z M 10.80959 7.852865 C 10.50554 7.852865 10.25815 8.138573 10.25815 8.489731 C 10.25815 8.840889 10.50554 9.12655 10.80959 9.12655 C 11.11368 9.12655 11.36108 8.840842 11.36108 8.489731 C 11.36108 8.138573 11.11368 7.852865 10.80959 7.852865 Z " fill-rule="evenodd"/>
</clipPath>
<g clip-path="url(#cp12)">
<clipPath id="cp13">
<path transform="matrix(1,0,0,-1,0,24)" d="M -713 -1155 L 550 -1155 L 550 108 L -713 108 Z "/>
</clipPath>
<g clip-path="url(#cp13)">
<path transform="matrix(1,0,0,-1,0,24)" d="M 4.32248 15.06227 L 17.29675 15.06227 L 17.29675 1.91724 L 4.32248 1.91724 Z " />
</g>
</g>
</g>
</svg>
