<?xml version="1.0" encoding="UTF-8" standalone="no"?>
<!DOCTYPE svg PUBLIC "-//W3C//DTD SVG 1.1//EN" "http://www.w3.org/Graphics/SVG/1.1/DTD/svg11.dtd">
<svg xmlns="http://www.w3.org/2000/svg" xmlns:xlink="http://www.w3.org/1999/xlink" version="1.1" width="32pt" height="32pt" viewBox="0 0 32 32">
<g enable-background="new">
<clipPath id="cp0">
<path transform="matrix(1,0,0,-1,0,32)" d="M 15.95062 3.315418 L 6.827799 11.55013 L 4.854167 17.13281 L 4.854167 20.73958 L 7.497396 25.48665 L 10.40239 27.85254 L 14.54232 29.41146 L 18.03288 29.41146 L 21.92593 27.85254 L 25.13249 24.79797 L 26.93066 20.73958 L 26.93066 15.15549 L 22.46914 9.858073 L 15.95062 3.315418 Z " fill-rule="evenodd"/>
</clipPath>
<g clip-path="url(#cp0)">
<clipPath id="cp1">
<path transform="matrix(1,0,0,-1,0,32)" d="M -204 -506 L 171 -506 L 171 161 L -204 161 Z "/>
</clipPath>
<g clip-path="url(#cp1)">
<path transform="matrix(1,0,0,-1,0,32)" d="M -.1458333 34.41146 L 31.93066 34.41146 L 31.93066 -1.684582 L -.1458333 -1.684582 Z " fill="#f5a623"/>
</g>
</g>
<clipPath id="cp2">
<path transform="matrix(1,0,0,-1,0,32)" d="M 15.95062 1.983154 C 15.80232 1.983154 15.66013 2.041341 15.55507 2.144785 L 7.496335 10.09656 C 2.834555 14.69612 2.834555 22.18046 7.496335 26.78023 C 12.15812 31.38001 19.74312 31.38001 24.4049 26.78023 C 29.06668 22.18067 29.06668 14.69633 24.4049 10.09656 L 22.13276 7.854639 C 21.91435 7.639132 21.5603 7.639132 21.34189 7.854639 C 21.12348 8.070145 21.12348 8.419482 21.34189 8.634989 L 23.61403 10.87691 C 27.83964 15.04632 27.83964 21.83047 23.61403 25.99988 C 19.38842 30.1693 12.51282 30.1693 8.287204 25.99988 C 4.061592 21.83047 4.061592 15.04632 8.287204 10.87691 L 15.95062 3.315418 L 18.3134 5.646771 C 18.53181 5.862062 18.88585 5.862062 19.10426 5.646771 C 19.32268 5.431264 19.32268 5.081927 19.10426 4.866205 L 16.34616 2.144785 C 16.2411 2.041341 16.09892 1.983154 15.95062 1.983154 Z "/>
</clipPath>
<g clip-path="url(#cp2)">
<clipPath id="cp3">
<path transform="matrix(1,0,0,-1,0,32)" d="M -204 -506 L 171 -506 L 171 161 L -204 161 Z "/>
</clipPath>
<g clip-path="url(#cp3)">
<path transform="matrix(1,0,0,-1,0,32)" d="M -1 35.23007 L 32.90123 35.23007 L 32.90123 -3.016846 L -1 -3.016846 Z " fill="#ffffff"/>
</g>
</g>
<clipPath id="cp4">
<path transform="matrix(1,0,0,-1,0,32)" d="M 20.8394 6.328834 C 20.69662 6.328834 20.55639 6.38675 20.45541 6.487946 C 20.35443 6.588929 20.2963 6.72916 20.2963 6.871937 C 20.2963 7.014926 20.35443 7.154945 20.45541 7.255929 C 20.55639 7.357124 20.69662 7.415253 20.8394 7.415253 C 20.98239 7.415253 21.12241 7.357124 21.22339 7.255929 C 21.32459 7.154945 21.38272 7.014926 21.38272 6.871937 C 21.38272 6.72916 21.32459 6.588929 21.22339 6.487946 C 21.12241 6.38675 20.98239 6.328834 20.8394 6.328834 Z "/>
</clipPath>
<g clip-path="url(#cp4)">
<clipPath id="cp5">
<path transform="matrix(1,0,0,-1,0,32)" d="M -204 -506 L 171 -506 L 171 161 L -204 161 Z "/>
</clipPath>
<g clip-path="url(#cp5)">
<path transform="matrix(1,0,0,-1,0,32)" d="M 15.2963 12.41525 L 26.38272 12.41525 L 26.38272 1.328834 L 15.2963 1.328834 Z " fill="#ffffff"/>
</g>
</g>
<clipPath id="cp6">
<path transform="matrix(1,0,0,-1,0,32)" d="M 18.31695 22.62513 C 20.00739 22.62513 21.38272 21.17672 21.38272 19.39604 C 21.38272 18.19095 20.58593 16.90778 19.01428 15.58203 C 17.90303 14.64423 16.80655 14.02893 16.76029 14.0032 C 16.67733 13.95684 16.58547 13.93377 16.49383 13.93377 C 16.40218 13.93377 16.31032 13.95684 16.22736 14.0032 C 16.18111 14.02893 15.08462 14.64423 13.97337 15.58203 C 12.40173 16.90801 11.60494 18.19095 11.60494 19.39604 C 11.60494 21.17672 12.98026 22.62513 14.6707 22.62513 C 15.32872 22.62513 15.96958 22.39888 16.49383 21.99142 C 17.01807 22.39888 17.65893 22.62513 18.31695 22.62513 Z "/>
</clipPath>
<g clip-path="url(#cp6)">
<clipPath id="cp7">
<path transform="matrix(1,0,0,-1,0,32)" d="M -204 -506 L 171 -506 L 171 161 L -204 161 Z "/>
</clipPath>
<g clip-path="url(#cp7)">
<path transform="matrix(1,0,0,-1,0,32)" d="M 6.604938 27.62513 L 26.38272 27.62513 L 26.38272 8.933772 L 6.604938 8.933772 Z " fill="#ffffff"/>
</g>
</g>
<clipPath id="cp8">
<path transform="matrix(1,0,0,-1,0,32)" d="M 16.49238 10.67451 C 14.3152 10.67451 12.2686 11.52199 10.7291 13.06115 C 7.551206 16.23833 7.551206 21.40795 10.7291 24.58513 C 12.00659 25.86234 13.62615 26.66295 15.41267 26.9005 C 17.14161 27.13013 18.92942 26.79307 20.44644 25.95094 C 20.71101 25.80413 20.80648 25.47049 20.65964 25.20597 C 20.51258 24.94124 20.17908 24.84601 19.91429 24.99282 C 17.17821 26.51186 13.71969 26.02542 11.5042 23.8102 C 8.753779 21.06039 8.753779 16.58588 11.5042 13.83608 C 12.83671 12.50408 14.60824 11.77046 16.49238 11.77046 C 18.37672 11.77046 20.14826 12.50408 21.48055 13.83608 C 23.70268 16.05771 24.18516 19.52231 22.65401 22.26142 C 22.50631 22.5255 22.60071 22.85936 22.86507 23.00703 C 23.12922 23.15448 23.46315 23.06031 23.61085 22.79601 C 24.45937 21.27804 24.80101 19.48764 24.57303 17.75438 C 24.33736 15.96397 23.53593 14.34114 22.25565 13.06115 C 20.71615 11.52199 18.66955 10.67451 16.49238 10.67451 Z "/>
</clipPath>
<g clip-path="url(#cp8)">
<clipPath id="cp9">
<path transform="matrix(1,0,0,-1,0,32)" d="M -204 -506 L 171 -506 L 171 161 L -204 161 Z "/>
</clipPath>
<g clip-path="url(#cp9)">
<path transform="matrix(1,0,0,-1,0,32)" d="M 3.345679 31.97081 L 29.64198 31.97081 L 29.64198 5.674513 L 3.345679 5.674513 Z " fill="#f1fffa"/>
</g>
</g>
<clipPath id="cp10">
<path transform="matrix(1,0,0,-1,0,32)" d="M 21.93548 23.71155 C 21.79808 23.71155 21.66068 23.76429 21.55622 23.86958 L 21.54058 23.88521 C 21.33125 24.09286 21.33 24.43081 21.53745 24.64012 C 21.74512 24.84943 22.0833 24.85068 22.29243 24.64325 L 22.31432 24.62136 C 22.52199 24.41204 22.52053 24.07389 22.31119 23.86645 C 22.20715 23.76304 22.07121 23.71155 21.93548 23.71155 Z "/>
</clipPath>
<g clip-path="url(#cp10)">
<clipPath id="cp11">
<path transform="matrix(1,0,0,-1,0,32)" d="M -204 -506 L 171 -506 L 171 161 L -204 161 Z "/>
</clipPath>
<g clip-path="url(#cp11)">
<path transform="matrix(1,0,0,-1,0,32)" d="M 16.38272 29.79797 L 27.46914 29.79797 L 27.46914 18.71155 L 16.38272 18.71155 Z " fill="#ffffff"/>
</g>
</g>
</g>
</svg>
