<?xml version="1.0" encoding="UTF-8" standalone="no"?>
<!DOCTYPE svg PUBLIC "-//W3C//DTD SVG 1.1//EN" "http://www.w3.org/Graphics/SVG/1.1/DTD/svg11.dtd">
<svg xmlns="http://www.w3.org/2000/svg" xmlns:xlink="http://www.w3.org/1999/xlink" version="1.1" width="23pt" height="23pt" viewBox="0 0 23 23">
<g enable-background="new">
<clipPath id="cp0">
<path transform="matrix(1,0,0,-1,0,23)" d="M 9.499923 2 C 9.29067 2 9.099147 2.135649 9.028617 2.332302 C 8.959256 2.526226 9.018875 2.749384 9.176107 2.8825 C 9.340548 3.021463 9.581169 3.038809 9.764119 2.925767 C 9.939081 2.817599 10.03104 2.60477 9.990518 2.403245 C 9.943952 2.1719 9.736258 2 9.499923 2 Z " fill-rule="evenodd"/>
</clipPath>
<g clip-path="url(#cp0)">
<clipPath id="cp1">
<path transform="matrix(1,0,0,-1,0,23)" d="M -139 -645 L 1124 -645 L 1124 618 L -139 618 Z "/>
</clipPath>
<g clip-path="url(#cp1)">
<path transform="matrix(1,0,0,-1,0,23)" d="M 4 8 L 15 8 L 15 -3 L 4 -3 Z " />
</g>
</g>
<clipPath id="cp2">
<path transform="matrix(1,0,0,-1,0,23)" d="M 14.66559 5 C 13.52051 5 11.51101 5.471469 8.975606 7.99991 C 6.484116 10.48652 5.774946 12.03723 6.058686 14.38069 C 6.090855 14.67078 6.163327 14.9607 6.279895 15.26756 C 6.280437 15.26918 6.280979 15.2708 6.281702 15.27242 C 6.406042 15.5892 6.57972 15.89444 6.78394 16.15478 C 6.794603 16.16866 6.80635 16.18183 6.81864 16.19445 L 7.089548 16.46885 C 7.425699 16.80961 7.874622 16.9982 8.353727 17 L 8.360956 17 C 8.837531 17 9.285009 16.8152 9.622244 16.47895 L 10.63847 15.46516 C 11.33408 14.77121 11.33408 13.64221 10.63847 12.94826 L 10.57106 12.88101 C 10.56762 12.87776 10.56419 12.87434 10.56075 12.87109 L 10.1684 12.50329 C 10.47509 11.9469 10.82678 11.31714 11.56523 10.5801 C 12.30657 9.84053 12.94146 9.492563 13.50135 9.185522 C 13.51057 9.180474 13.51978 9.175426 13.52882 9.170558 L 13.9772 9.617687 C 14.67282 10.31146 15.80434 10.31146 16.49996 9.617687 L 17.4775 8.642477 C 17.81655 8.304246 18.00197 7.854773 18 7.376454 C 17.998 6.898314 17.8086 6.450284 17.46684 6.115118 L 17.19142 5.845037 C 17.17931 5.833138 17.16629 5.821779 17.15274 5.811142 C 16.89033 5.605427 16.58436 5.431443 16.26809 5.308303 C 15.93085 5.17813 15.63717 5.098981 15.36915 5.065988 L 15.35976 5.064185 C 15.18662 5.029748 14.95348 5 14.66559 5 Z M 15.39241 5.038479 C 15.3885 5.038089 15.3842 5.037698 15.3803 5.037307 C 15.38225 5.037307 15.38655 5.037698 15.39241 5.038479 Z M 7.1472 14.93672 C 7.059005 14.70396 7.004788 14.48815 6.981474 14.27666 C 6.981293 14.27504 6.980932 14.27342 6.980751 14.27179 C 6.763157 12.47643 7.104368 11.17795 9.632184 8.655098 C 12.56772 5.727486 14.61968 5.861985 15.17867 5.972866 C 15.20361 5.977734 15.2253 5.982061 15.25078 5.984945 C 15.44054 6.007122 15.66428 6.068422 15.93157 6.17155 C 16.15495 6.258812 16.37218 6.380691 16.5596 6.524565 L 16.81569 6.775714 C 16.9796 6.936356 17.07033 7.151086 17.07124 7.38042 C 17.07232 7.609574 16.98322 7.825205 16.82075 7.987289 L 15.8432 8.962679 C 15.50976 9.295321 14.96722 9.295321 14.63378 8.962679 L 13.94033 8.271072 C 13.79467 8.125755 13.57057 8.093663 13.38984 8.191743 C 13.36743 8.204002 13.3443 8.216082 13.3208 8.228522 C 13.28014 8.249797 13.23839 8.271793 13.19646 8.295231 C 13.15146 8.320292 13.10321 8.346615 13.05405 8.373659 C 12.47013 8.693681 11.74343 9.09213 10.90829 9.925088 C 10.06647 10.76526 9.665076 11.49382 9.342299 12.07924 C 9.31772 12.12377 9.293503 12.16776 9.269467 12.21085 C 9.243261 12.25719 9.225369 12.29469 9.210911 12.3248 C 9.203321 12.34067 9.195911 12.35653 9.18579 12.37492 C 9.083138 12.56026 9.119645 12.7914 9.274165 12.93636 L 9.919358 13.54124 L 9.981708 13.60344 C 10.14328 13.76463 10.23219 13.97882 10.23219 14.20671 C 10.23219 14.4346 10.14328 14.64879 9.981708 14.80997 L 8.965485 15.82376 C 8.803012 15.98585 8.585599 16.07275 8.357342 16.07365 C 8.127639 16.07275 7.912394 15.98224 7.751186 15.81908 L 7.499796 15.56414 C 7.357565 15.37844 7.235936 15.16226 7.1472 14.93672 Z " fill-rule="evenodd"/>
</clipPath>
<g clip-path="url(#cp2)">
<clipPath id="cp3">
<path transform="matrix(1,0,0,-1,0,23)" d="M -139 -645 L 1124 -645 L 1124 618 L -139 618 Z "/>
</clipPath>
<g clip-path="url(#cp3)">
<path transform="matrix(1,0,0,-1,0,23)" d="M 1 22 L 23.00002 22 L 23.00002 0 L 1 0 Z " />
</g>
</g>
<clipPath id="cp4">
<path transform="matrix(1,0,0,-1,0,23)" d="M 11.53971 2 C 11.52974 2 11.47284 2.000516 11.42023 2.00086 C 11.37949 2.001203 11.34132 2.001547 11.33376 2.001547 C 11.08998 2.002063 10.89244 2.19994 10.89279 2.44372 C 10.89313 2.687499 11.09049 2.88486 11.3341 2.88486 C 11.34029 2.88486 11.38206 2.884688 11.42711 2.884173 C 11.47559 2.883829 11.52802 2.883485 11.53817 2.883485 C 16.26779 2.903256 20.11669 6.768653 20.11669 11.5 C 20.11669 16.25129 16.25129 20.11669 11.5 20.11669 C 6.748711 20.11669 2.883313 16.25129 2.883313 11.5 C 2.883313 9.650509 3.460097 7.888353 4.551087 6.403672 L 5.056353 5.716345 C 5.136123 5.607693 5.16191 5.468611 5.126495 5.338642 L 4.69842 3.766626 L 6.366366 4.321405 C 6.482582 4.360258 6.609457 4.348911 6.716906 4.290459 L 7.559131 3.832471 C 7.77334 3.715911 7.852594 3.447719 7.736034 3.233338 C 7.619474 3.019128 7.35111 2.939874 7.136901 3.056434 L 6.463327 3.422791 L 4.195045 2.668072 C 4.040491 2.616669 3.870465 2.654319 3.752013 2.766409 C 3.633734 2.878328 3.586628 3.046119 3.629436 3.203252 L 4.218254 5.364945 L 3.839347 5.880526 C 2.636095 7.51787 2 9.461056 2 11.5 C 2 16.73833 6.261668 21 11.5 21 C 16.73833 21 21 16.73833 21 11.5 C 21 6.283501 16.75656 2.022005 11.54057 2 C 11.54023 2 11.54006 2 11.53971 2 Z " fill-rule="evenodd"/>
</clipPath>
<g clip-path="url(#cp4)">
<clipPath id="cp5">
<path transform="matrix(1,0,0,-1,0,23)" d="M -139 -645 L 1124 -645 L 1124 618 L -139 618 Z "/>
</clipPath>
<g clip-path="url(#cp5)">
<path transform="matrix(1,0,0,-1,0,23)" d="M -3 26 L 26 26 L 26 -3 L -3 -3 Z " />
</g>
</g>
<clipPath id="cp6">
<path transform="matrix(1,0,0,-1,0,23)" d="M 11.5 0 C 9.644691 0 7.807281 .450798 6.173775 1.305191 L 1.683517 .09914397 C 1.530502 .05808259 1.367134 .1001968 1.253426 .2102204 C 1.139542 .3200684 1.091637 .4818573 1.127258 .6361008 L 2.105537 4.865601 C .7273483 6.812508 0 9.101768 0 11.5 C 0 14.57171 1.19622 17.45969 3.368263 19.63174 C 5.540306 21.80378 8.428291 23 11.5 23 C 14.57171 23 17.45969 21.80378 19.63174 19.63174 C 21.80378 17.45969 23 14.57171 23 11.5 C 23 8.428291 21.80378 5.540306 19.63174 3.368263 C 17.45969 1.19622 14.57171 0 11.5 0 Z M 6.228874 2.237671 C 6.303452 2.237671 6.377502 2.21907 6.444183 2.182922 C 7.985565 1.344673 9.733833 .901596 11.5 .901596 C 17.34388 .901596 22.0984 5.65612 22.0984 11.5 C 22.0984 17.34388 17.34388 22.0984 11.5 22.0984 C 5.65612 22.0984 .901596 17.34388 .901596 11.5 C .901596 9.225304 1.611397 7.057297 2.95414 5.230415 C 3.032051 5.124428 3.059776 4.989838 3.030121 4.86174 L 2.175026 1.16481 L 6.111832 2.222229 C 6.150261 2.232582 6.189568 2.237671 6.228874 2.237671 Z " fill-rule="evenodd"/>
</clipPath>
<g clip-path="url(#cp6)">
<clipPath id="cp7">
<path transform="matrix(1,0,0,-1,0,23)" d="M -139 -645 L 1124 -645 L 1124 618 L -139 618 Z "/>
</clipPath>
<g clip-path="url(#cp7)">
<path transform="matrix(1,0,0,-1,0,23)" d="M -5 28 L 28 28 L 28 -5 L -5 -5 Z " />
</g>
</g>
</g>
</svg>
