<?xml version="1.0" encoding="UTF-8" standalone="no"?>
<!DOCTYPE svg PUBLIC "-//W3C//DTD SVG 1.1//EN" "http://www.w3.org/Graphics/SVG/1.1/DTD/svg11.dtd">
<svg xmlns="http://www.w3.org/2000/svg" xmlns:xlink="http://www.w3.org/1999/xlink" version="1.1" width="24pt" height="24pt" viewBox="0 0 24 24">
<g enable-background="new">
<clipPath id="cp0">
<path transform="matrix(1,0,0,-1,0,24)" d="M 5.800109 14.95359 C 5.712969 15.04078 5.592031 15.09098 5.46875 15.09098 C 5.345469 15.09098 5.224531 15.04083 5.137344 14.95359 C 5.050156 14.86598 5 14.74552 5 14.62177 C 5 14.49844 5.050109 14.37802 5.137344 14.29036 C 5.224531 14.20312 5.345469 14.15302 5.46875 14.15302 C 5.592031 14.15302 5.712969 14.20312 5.800109 14.29036 C 5.887297 14.3775 5.9375 14.49844 5.9375 14.62177 C 5.9375 14.74552 5.887344 14.86645 5.800109 14.95359 Z " fill-rule="evenodd"/>
</clipPath>
<g clip-path="url(#cp0)">
<clipPath id="cp1">
<path transform="matrix(1,0,0,-1,0,24)" d="M -204 -607 L 1059 -607 L 1059 656 L -204 656 Z "/>
</clipPath>
<g clip-path="url(#cp1)">
<path transform="matrix(1,0,0,-1,0,24)" d="M 0 20.09098 L 10.9375 20.09098 L 10.9375 9.153016 L 0 9.153016 Z " />
</g>
</g>
<clipPath id="cp2">
<path transform="matrix(1,0,0,-1,0,24)" d="M 16.80673 8.884313 C 17.69202 9.271125 18.3125 10.15477 18.3125 11.18095 L 18.3125 17.34375 C 18.3125 21.01402 15.32652 24 11.65625 24 C 7.985984 24 5 21.01402 5 17.34375 L 5 16.64062 C 5 16.38178 5.209906 16.17188 5.46875 16.17188 C 5.727594 16.17188 5.9375 16.38178 5.9375 16.64062 L 5.9375 17.34375 C 5.9375 20.49708 8.502922 23.0625 11.65625 23.0625 C 14.80958 23.0625 17.375 20.49708 17.375 17.34375 L 17.375 11.18095 C 17.375 10.31648 16.67169 9.613125 15.80717 9.613125 L 13.88408 9.613125 C 13.89833 9.715312 13.90625 9.819469 13.90625 9.9255 L 13.90625 11.16628 C 13.90625 11.17345 13.9055 11.18044 13.90517 11.18756 C 15.24978 11.96663 16.15625 13.42144 16.15625 15.08409 L 16.15625 16.69102 C 16.15625 17.77659 15.27308 18.65977 14.1875 18.65977 L 9.125 18.65977 C 8.039422 18.65977 7.15625 17.77659 7.15625 16.69102 L 7.15625 15.08409 C 7.15625 13.42144 8.062719 11.96663 9.407328 11.18756 C 9.407 11.18048 9.40625 11.17345 9.40625 11.16628 L 9.40625 9.9255 C 9.40625 9.819469 9.414172 9.715313 9.428422 9.613125 L 7.505328 9.613125 C 6.640812 9.613125 5.9375 10.31644 5.9375 11.18095 L 5.9375 12.75 C 5.9375 13.00884 5.727594 13.21875 5.46875 13.21875 C 5.209906 13.21875 5 13.00884 5 12.75 L 5 11.18095 C 5 10.15472 5.620484 9.271078 6.505766 8.884266 C 3.846922 7.641797 2 4.942125 2 1.818797 L 2 .46875 C 2 .2099062 2.209906 0 2.46875 0 L 20.84375 0 C 21.10259 0 21.3125 .2099062 21.3125 .46875 L 21.3125 1.818797 C 21.3125 4.942125 19.46558 7.641797 16.80673 8.884313 Z M 8.09375 15.08409 L 8.09375 16.69102 C 8.09375 17.25966 8.556359 17.72227 9.125 17.72227 L 14.1875 17.72227 C 14.75614 17.72227 15.21875 17.25966 15.21875 16.69102 L 15.21875 15.08409 C 15.21875 13.11975 13.62059 11.52159 11.65625 11.52159 C 9.691906 11.52159 8.09375 13.11975 8.09375 15.08409 Z M 12.96875 10.77952 L 12.96875 9.9255 C 12.96875 9.201797 12.37995 8.613 11.65625 8.613 C 10.93255 8.613 10.34375 9.201797 10.34375 9.9255 L 10.34375 10.77952 C 10.75916 10.65263 11.19983 10.58409 11.65625 10.58409 C 12.11267 10.58409 12.55334 10.65262 12.96875 10.77952 Z M 9.786453 8.675531 C 10.19056 8.073 10.8778 7.6755 11.65625 7.6755 C 12.4347 7.6755 13.12194 8.072953 13.52605 8.675531 C 13.97938 8.675016 14.42239 8.629969 14.8513 8.545125 L 11.65625 3.011109 L 8.461203 8.545078 C 8.890109 8.629969 9.333125 8.675016 9.786453 8.675531 Z M 20.375 .9375 L 18.48556 .9375 L 18.48556 2.578125 C 18.48556 2.836969 18.27566 3.046875 18.01681 3.046875 C 17.75797 3.046875 17.54806 2.836969 17.54806 2.578125 L 17.54806 .9375 L 5.764437 .9375 L 5.764437 3.958219 C 5.764437 4.217062 5.554531 4.426969 5.295687 4.426969 C 5.036844 4.426969 4.826937 4.217062 4.826937 3.958219 L 4.826937 .9375 L 2.9375 .9375 L 2.9375 1.818797 C 2.9375 4.805062 4.856656 7.351125 7.526187 8.289609 L 11.25031 1.839281 C 11.33403 1.69425 11.48881 1.604906 11.65625 1.604906 C 11.82369 1.604906 11.97847 1.69425 12.06219 1.839281 L 15.78631 8.289609 C 18.45584 7.351125 20.375 4.805062 20.375 1.818797 L 20.375 .9375 Z " fill-rule="evenodd"/>
</clipPath>
<g clip-path="url(#cp2)">
<clipPath id="cp3">
<path transform="matrix(1,0,0,-1,0,24)" d="M -204 -607 L 1059 -607 L 1059 656 L -204 656 Z "/>
</clipPath>
<g clip-path="url(#cp3)">
<path transform="matrix(1,0,0,-1,0,24)" d="M -3 29 L 26.3125 29 L 26.3125 -5 L -3 -5 Z " />
</g>
</g>
<clipPath id="cp4">
<path transform="matrix(1,0,0,-1,0,24)" d="M 10.29402 15.52828 C 10.20687 15.61547 10.08594 15.66563 9.962656 15.66563 C 9.839375 15.66563 9.718906 15.61547 9.63125 15.52828 C 9.544063 15.44109 9.494375 15.32058 9.494375 15.19688 C 9.494375 15.07359 9.544063 14.95266 9.63125 14.86547 C 9.718906 14.77833 9.839375 14.72813 9.962656 14.72813 C 10.08641 14.72813 10.20688 14.77828 10.29402 14.86547 C 10.38167 14.95266 10.43183 15.07359 10.43183 15.19688 C 10.43183 15.32016 10.38167 15.44109 10.29402 15.52828 Z " fill-rule="evenodd"/>
</clipPath>
<g clip-path="url(#cp4)">
<clipPath id="cp5">
<path transform="matrix(1,0,0,-1,0,24)" d="M -204 -607 L 1059 -607 L 1059 656 L -204 656 Z "/>
</clipPath>
<g clip-path="url(#cp5)">
<path transform="matrix(1,0,0,-1,0,24)" d="M 4.494375 20.66562 L 15.43183 20.66562 L 15.43183 9.728125 L 4.494375 9.728125 Z " />
</g>
</g>
<clipPath id="cp6">
<path transform="matrix(1,0,0,-1,0,24)" d="M 13.69297 15.52828 C 13.60578 15.61542 13.48484 15.66563 13.36156 15.66563 C 13.23828 15.66563 13.11734 15.61547 13.03016 15.52828 C 12.94302 15.44109 12.89281 15.32016 12.89281 15.19688 C 12.89281 15.07359 12.94297 14.95266 13.03016 14.86547 C 13.11734 14.77833 13.23828 14.72813 13.36156 14.72813 C 13.48484 14.72813 13.60578 14.77828 13.69297 14.86547 C 13.78011 14.95266 13.83031 15.07359 13.83031 15.19688 C 13.83031 15.32016 13.78016 15.44109 13.69297 15.52828 Z " fill-rule="evenodd"/>
</clipPath>
<g clip-path="url(#cp6)">
<clipPath id="cp7">
<path transform="matrix(1,0,0,-1,0,24)" d="M -204 -607 L 1059 -607 L 1059 656 L -204 656 Z "/>
</clipPath>
<g clip-path="url(#cp7)">
<path transform="matrix(1,0,0,-1,0,24)" d="M 7.892812 20.66562 L 18.83031 20.66562 L 18.83031 9.728125 L 7.892812 9.728125 Z " />
</g>
</g>
<clipPath id="cp8">
<path transform="matrix(1,0,0,-1,0,24)" d="M 12.34738 13.79302 C 12.16428 13.97602 11.86756 13.97602 11.68442 13.79302 C 11.6367 13.7453 11.55908 13.7453 11.51131 13.79302 C 11.32827 13.97611 11.03141 13.97606 10.84841 13.79297 C 10.66536 13.60992 10.66541 13.31311 10.84845 13.13006 C 11.05508 12.92344 11.32648 12.82017 11.59789 12.82017 C 11.8693 12.82017 12.1407 12.92348 12.34733 13.13006 C 12.53042 13.31316 12.53042 13.60997 12.34738 13.79302 Z " fill-rule="evenodd"/>
</clipPath>
<g clip-path="url(#cp8)">
<clipPath id="cp9">
<path transform="matrix(1,0,0,-1,0,24)" d="M -204 -607 L 1059 -607 L 1059 656 L -204 656 Z "/>
</clipPath>
<g clip-path="url(#cp9)">
<path transform="matrix(1,0,0,-1,0,24)" d="M 5.711145 18.93031 L 17.48465 18.93031 L 17.48465 7.820172 L 5.711145 7.820172 Z " />
</g>
</g>
<clipPath id="cp10">
<path transform="matrix(1,0,0,-1,0,24)" d="M 18.34808 4.758234 C 18.26089 4.845469 18.14047 4.895625 18.01667 4.895625 C 17.89339 4.895625 17.77245 4.845469 17.68531 4.758234 C 17.59812 4.671094 17.54792 4.550578 17.54792 4.426875 C 17.54792 4.303594 17.59808 4.182656 17.68531 4.095469 C 17.77297 4.008281 17.89339 3.958125 18.01667 3.958125 C 18.13995 3.958125 18.26089 4.008234 18.34808 4.095469 C 18.43527 4.182703 18.48542 4.303594 18.48542 4.426875 C 18.48542 4.550156 18.43531 4.671094 18.34808 4.758234 Z " fill-rule="evenodd"/>
</clipPath>
<g clip-path="url(#cp10)">
<clipPath id="cp11">
<path transform="matrix(1,0,0,-1,0,24)" d="M -204 -607 L 1059 -607 L 1059 656 L -204 656 Z "/>
</clipPath>
<g clip-path="url(#cp11)">
<path transform="matrix(1,0,0,-1,0,24)" d="M 12.54792 9.895625 L 23.48542 9.895625 L 23.48542 -1.041875 L 12.54792 -1.041875 Z " />
</g>
</g>
</g>
</svg>
