<?xml version="1.0" encoding="UTF-8"?>
<svg xmlns="http://www.w3.org/2000/svg" xmlns:xlink="http://www.w3.org/1999/xlink" width="32pt" height="33pt" viewBox="0 0 32 33" version="1.1">
<defs>
<clipPath id="clip1">
  <path d="M 0.667969 0 L 31.667969 0 L 31.667969 33 L 0.667969 33 Z M 0.667969 0 "/>
</clipPath>
<clipPath id="clip3">
  <path d="M 0.667969 0 L 31.667969 0 L 31.667969 33 L 0.667969 33 Z M 0.667969 0 "/>
</clipPath>
<clipPath id="clip4">
  <path d="M 30.386719 25.597656 C 30.515625 25.804688 30.742188 25.917969 30.972656 25.917969 C 31.101563 25.917969 31.226563 25.882813 31.339844 25.8125 C 31.664063 25.613281 31.765625 25.195313 31.5625 24.878906 L 28.140625 19.507813 C 28.042969 19.351563 27.886719 19.246094 27.707031 19.203125 L 21.257813 17.765625 C 21.226563 17.632813 21.1875 17.507813 21.148438 17.378906 L 27.695313 14.71875 C 27.902344 14.632813 28.054688 14.457031 28.105469 14.242188 L 29.902344 6.558594 C 29.988281 6.195313 29.753906 5.828125 29.382813 5.746094 C 29.007813 5.660156 28.636719 5.890625 28.550781 6.253906 L 26.832031 13.597656 L 20.628906 16.121094 C 20.566406 16.003906 20.503906 15.890625 20.4375 15.777344 C 20.433594 15.773438 20.429688 15.769531 20.429688 15.765625 C 20.425781 15.761719 20.425781 15.761719 20.425781 15.757813 C 20.34375 15.625 20.261719 15.5 20.175781 15.375 L 25.144531 10.742188 C 25.277344 10.617188 25.355469 10.445313 25.359375 10.265625 L 25.617188 0.699219 C 25.625 0.320313 25.324219 0.0117188 24.941406 0 C 24.933594 0 24.929688 0 24.921875 0 C 24.546875 0 24.238281 0.292969 24.230469 0.660156 L 23.980469 9.949219 L 19.265625 14.347656 C 18.941406 14.058594 18.59375 13.816406 18.230469 13.628906 L 19.105469 12.015625 C 19.285156 11.683594 19.15625 11.273438 18.816406 11.097656 C 18.480469 10.921875 18.058594 11.046875 17.878906 11.378906 L 16.90625 13.179688 C 16.667969 13.140625 16.429688 13.117188 16.191406 13.117188 L 16.140625 13.117188 C 15.929688 13.117188 15.714844 13.132813 15.503906 13.167969 L 14.535156 11.378906 C 14.355469 11.046875 13.9375 10.921875 13.597656 11.097656 C 13.261719 11.273438 13.132813 11.683594 13.3125 12.015625 L 14.167969 13.59375 C 13.777344 13.789063 13.410156 14.042969 13.066406 14.347656 L 8.351563 9.949219 L 8.101563 0.660156 C 8.09375 0.285156 7.777344 -0.0078125 7.390625 0 C 7.011719 0.0117188 6.707031 0.320313 6.71875 0.699219 L 6.972656 10.265625 C 6.980469 10.445313 7.054688 10.617188 7.1875 10.742188 L 12.160156 15.375 C 12.066406 15.503906 11.980469 15.636719 11.894531 15.777344 C 11.828125 15.890625 11.765625 16.003906 11.703125 16.121094 L 5.5 13.597656 L 3.78125 6.253906 C 3.695313 5.890625 3.324219 5.660156 2.953125 5.746094 C 2.578125 5.828125 2.347656 6.195313 2.429688 6.558594 L 4.230469 14.242188 C 4.277344 14.457031 4.433594 14.632813 4.640625 14.71875 L 11.183594 17.382813 C 11.144531 17.507813 11.105469 17.636719 11.074219 17.765625 L 4.625 19.203125 C 4.445313 19.246094 4.289063 19.351563 4.191406 19.507813 L 0.773438 24.878906 C 0.570313 25.195313 0.667969 25.613281 0.992188 25.8125 C 1.105469 25.882813 1.234375 25.917969 1.359375 25.917969 C 1.589844 25.917969 1.816406 25.804688 1.949219 25.597656 L 5.214844 20.464844 L 10.832031 19.210938 C 10.816406 19.4375 10.804688 19.664063 10.804688 19.890625 C 10.804688 19.953125 10.808594 20.011719 10.808594 20.074219 L 6.835938 22.46875 C 6.664063 22.574219 6.542969 22.753906 6.515625 22.953125 L 5.167969 32.222656 C 5.113281 32.597656 5.375 32.941406 5.753906 32.992188 C 5.789063 32.996094 5.820313 33 5.855469 33 C 6.195313 33 6.488281 32.753906 6.539063 32.417969 L 7.839844 23.460938 L 10.96875 21.570313 C 11.195313 22.707031 11.652344 23.75 12.304688 24.605469 C 13.316406 25.933594 14.679688 26.664063 16.140625 26.664063 C 16.523438 26.664063 16.835938 26.359375 16.835938 25.984375 C 16.835938 25.609375 16.523438 25.304688 16.140625 25.304688 C 13.964844 25.304688 12.191406 22.875 12.191406 19.890625 C 12.191406 19.40625 12.238281 18.925781 12.332031 18.464844 C 12.417969 18.042969 12.539063 17.636719 12.695313 17.253906 C 12.71875 17.195313 12.746094 17.140625 12.769531 17.082031 C 13.878906 17.675781 15.0625 17.984375 16.246094 17.984375 C 16.398438 17.984375 16.554688 17.980469 16.707031 17.96875 C 17.730469 17.902344 18.722656 17.601563 19.578125 17.113281 C 19.761719 17.535156 19.90625 17.984375 20 18.464844 C 20.09375 18.925781 20.140625 19.40625 20.140625 19.890625 C 20.140625 21.390625 19.675781 22.839844 18.863281 23.867188 C 18.628906 24.164063 18.683594 24.589844 18.984375 24.820313 C 19.289063 25.050781 19.722656 24.996094 19.957031 24.699219 C 20.652344 23.824219 21.128906 22.746094 21.363281 21.570313 L 24.492188 23.460938 L 25.792969 32.417969 C 25.84375 32.753906 26.140625 33 26.480469 33 C 26.511719 33 26.546875 32.996094 26.578125 32.992188 C 26.957031 32.941406 27.21875 32.597656 27.167969 32.222656 L 25.820313 22.953125 C 25.789063 22.753906 25.671875 22.574219 25.496094 22.46875 L 21.523438 20.074219 C 21.523438 20.011719 21.527344 19.953125 21.527344 19.890625 C 21.527344 19.664063 21.519531 19.4375 21.5 19.210938 L 27.117188 20.464844 Z M 13.476563 15.910156 C 13.519531 15.855469 13.566406 15.796875 13.613281 15.742188 C 14.113281 15.171875 14.707031 14.773438 15.335938 14.59375 C 15.597656 14.515625 15.871094 14.476563 16.140625 14.476563 L 16.191406 14.476563 C 16.484375 14.476563 16.773438 14.519531 17.054688 14.609375 C 17.660156 14.796875 18.238281 15.1875 18.71875 15.746094 C 18.773438 15.808594 18.828125 15.875 18.878906 15.941406 C 17.558594 16.695313 15.566406 17.019531 13.476563 15.910156 Z M 13.476563 15.910156 "/>
</clipPath>
<clipPath id="clip2">
  <rect width="32" height="33"/>
</clipPath>
<g id="surface4" clip-path="url(#clip2)">
<g clip-path="url(#clip3)" clip-rule="nonzero">
<g clip-path="url(#clip4)" clip-rule="evenodd">
<rect x="0" y="0" width="32" height="33" style="fill:rgb(0.392151%,45.489502%,55.686951%);fill-opacity:1;stroke:none;"/>
</g>
</g>
</g>
</defs>
<g id="surface1">
<g clip-path="url(#clip1)" clip-rule="nonzero">
<use xlink:href="#surface4"/>
</g>
</g>
</svg>
